<svg width="29" height="29" viewBox="0 0 29 29" fill="none" xmlns="http://www.w3.org/2000/svg">
<path d="M21.4562 4.1648H22.621M21.4562 7.65922H22.621M21.4562 11.1536H22.621M21.4562 19.3073C21.4562 23.1671 18.3272 26.2961 14.4673 26.2961C10.6075 26.2961 7.47852 23.1671 7.47852 19.3073C7.47852 16.7204 8.88396 14.4618 10.9729 13.2534V6.49441C10.9729 4.5645 12.5374 3 14.4673 3C16.3973 3 17.9618 4.5645 17.9618 6.49441V13.2534C20.0507 14.4618 21.4562 16.7204 21.4562 19.3073ZM17.3794 19.3073C17.3794 20.9155 16.0756 22.2193 14.4673 22.2193C12.8591 22.2193 11.5553 20.9155 11.5553 19.3073C11.5553 17.699 12.8591 16.3953 14.4673 16.3953C16.0756 16.3953 17.3794 17.699 17.3794 19.3073Z" stroke="#0000AC" stroke-width="1.74721" stroke-linecap="round" stroke-linejoin="round"/>
</svg>
