<svg width="29" height="29" viewBox="0 0 29 29" fill="none" xmlns="http://www.w3.org/2000/svg">
<path d="M14.466 5.90366C13.0788 4.60883 12.007 3.82741 12.007 3.82741C12.007 3.82741 3.40039 10.102 3.40039 16.5529C3.40039 23.0038 8.31845 24.7292 12.007 24.7292C14.976 24.7292 18.7415 23.6113 20.0977 19.8111M10.7775 20.4259C9.19668 20.4259 7.08894 19.6475 7.08894 16.7373M25.5317 11.9277C25.5317 15.7224 22.7214 16.7373 20.6136 16.7373C18.5059 16.7373 15.6955 15.7224 15.6955 11.9277C15.6955 10.8451 16.0959 9.77092 16.6681 8.78848C18.1015 6.32745 20.6136 4.44217 20.6136 4.44217C20.6136 4.44217 25.5317 8.1331 25.5317 11.9277Z" stroke="#0000AC" stroke-width="1.84427" stroke-linecap="round" stroke-linejoin="round"/>
</svg>
