<svg width="28" height="29" viewBox="0 0 28 29" fill="none" xmlns="http://www.w3.org/2000/svg">
<path d="M13.9781 20.3688V7.55594M13.9781 20.3688C13.9781 17.7956 16.0641 15.7096 18.6373 15.7096M13.9781 20.3688C13.9781 17.7956 11.8921 15.7096 9.3189 15.7096M13.9781 20.3688C13.9781 21.5336 14.137 21.9649 14.5605 22.6984C15.6863 24.6483 18.1797 25.3164 20.1296 24.1906C21.9176 23.1583 22.6278 20.9761 21.8654 19.1174C24.0087 18.6987 25.6261 16.8106 25.6261 14.5448C25.6261 11.9715 23.5401 9.88555 20.9669 9.88555L20.967 7.55594C20.967 5.62603 19.4025 4.06152 17.4725 4.06152C15.5426 4.06152 13.9781 5.62603 13.9781 7.55594M13.9781 20.3688C13.9781 21.5336 13.8192 21.9649 13.3957 22.6984C12.2699 24.6483 9.77661 25.3164 7.8267 24.1906C6.03869 23.1583 5.32848 20.9761 6.09086 19.1174C3.94757 18.6987 2.33011 16.8106 2.33011 14.5448C2.33011 11.9715 4.41612 9.88555 6.98933 9.88555L6.9893 7.55594C6.9893 5.62603 8.55381 4.06152 10.4837 4.06152C12.4136 4.06152 13.9781 5.62603 13.9781 7.55594" stroke="#0000AC" stroke-width="1.74721" stroke-linecap="round" stroke-linejoin="round"/>
</svg>
