<svg width="29" height="29" viewBox="0 0 29 29" fill="none" xmlns="http://www.w3.org/2000/svg">
<path d="M7.81578 3.7627C8.98062 7.25711 8.39822 10.1691 5.48619 13.6635C5.05116 14.1856 4.72011 14.7466 4.47557 15.3311C3.08319 18.6591 4.49538 22.7476 5.48618 24.7292M21.7935 3.7627C20.6286 7.25711 21.211 10.1691 24.1231 13.6635C24.5444 14.1692 24.8682 14.7114 25.1104 15.2761C26.5417 18.6139 25.1193 22.7367 24.1231 24.7292M25.6279 17.1579C25.6279 20.2136 23.1508 22.6908 20.0951 22.6908C17.6047 22.6908 15.4987 21.0454 14.8046 18.7825C14.1106 21.0454 12.0045 22.6908 9.51415 22.6908C6.45846 22.6908 3.98133 20.2136 3.98133 17.1579" stroke="#0000AC" stroke-width="1.74721" stroke-linecap="round" stroke-linejoin="round"/>
</svg>
