<svg width="29" height="29" viewBox="0 0 29 29" fill="none" xmlns="http://www.w3.org/2000/svg">
<path d="M27.28 14.5448C27.28 21.6211 21.5435 27.3576 14.4671 27.3576C7.3908 27.3576 1.6543 21.6211 1.6543 14.5448C1.6543 7.46844 7.3908 1.73193 14.4671 1.73193C21.5435 1.73193 27.28 7.46844 27.28 14.5448Z" stroke="#0000AC" stroke-width="1.74721" stroke-linecap="round" stroke-linejoin="round"/>
<path d="M15.632 12.2152C15.632 14.1451 14.0674 15.7096 12.1375 15.7096C10.2076 15.7096 8.64312 14.1451 8.64312 12.2152C8.64312 10.2853 10.2076 8.72076 12.1375 8.72076C14.0674 8.72076 15.632 10.2853 15.632 12.2152Z" stroke="#0000AC" stroke-width="1.74721" stroke-linecap="round" stroke-linejoin="round"/>
<path d="M22.6208 15.1272C22.6208 16.0921 21.8385 16.8744 20.8736 16.8744C19.9086 16.8744 19.1264 16.0921 19.1264 15.1272C19.1264 14.1622 19.9086 13.38 20.8736 13.38C21.8385 13.38 22.6208 14.1622 22.6208 15.1272Z" stroke="#0000AC" stroke-width="1.74721" stroke-linecap="round" stroke-linejoin="round"/>
<path d="M16.7968 20.9512C16.7968 21.9162 16.0145 22.6984 15.0495 22.6984C14.0846 22.6984 13.3023 21.9162 13.3023 20.9512C13.3023 19.9863 14.0846 19.204 15.0495 19.204C16.0145 19.204 16.7968 19.9863 16.7968 20.9512Z" stroke="#0000AC" stroke-width="1.74721" stroke-linecap="round" stroke-linejoin="round"/>
</svg>
