<svg width="29" height="29" viewBox="0 0 29 29" fill="none" xmlns="http://www.w3.org/2000/svg">
<path d="M11.396 3.9314L24.5743 17.1097M14.6906 13.8151L11.396 17.1097M7.27784 24.5224L9.49939 22.3009C9.66199 22.1383 9.86909 22.0274 10.0946 21.9823L13.6958 21.2621C13.8074 21.2398 13.9099 21.1849 13.9904 21.1044L22.927 12.1678C24.7466 10.3483 24.7466 7.39822 22.927 5.57868V5.57868C21.1075 3.75914 18.1574 3.75914 16.3379 5.57868L7.40128 14.5153C7.32079 14.5958 7.26593 14.6983 7.2436 14.8099L6.52337 18.4111C6.47827 18.6366 6.36743 18.8437 6.20482 19.0063L3.98328 21.2279C3.07351 22.1376 3.07351 23.6127 3.98328 24.5224C4.89305 25.4322 6.36807 25.4322 7.27784 24.5224Z" stroke="#0000AC" stroke-width="1.74721" stroke-linecap="round" stroke-linejoin="round"/>
</svg>
