<svg width="29" height="29" viewBox="0 0 29 29" fill="none" xmlns="http://www.w3.org/2000/svg">
<path d="M10.1085 12.5919C8.35468 10.0864 10.4379 6.69616 13.4654 7.12867L16.3718 7.54386C19.2142 7.94992 21.0164 10.8054 20.16 13.546L19.0587 17.07C18.9417 17.4446 18.8959 17.8378 18.9239 18.2292L19.1772 21.7756C19.3322 23.9451 17.6139 25.7905 15.4389 25.7905V25.7905C12.5612 25.7905 10.7572 22.6817 12.1849 20.1832L12.9853 18.7825C13.385 18.0831 13.3452 17.2158 12.8833 16.5558L10.1085 12.5919Z" stroke="#0000AC" stroke-width="1.74721" stroke-linecap="round" stroke-linejoin="round"/>
<path d="M6.05761 5.08648C5.80786 4.1544 6.36099 3.19634 7.29307 2.9466C8.22514 2.69685 9.1832 3.24998 9.43295 4.18206L9.58369 4.74461C9.83344 5.67669 9.2803 6.63475 8.34823 6.8845C7.41615 7.13425 6.45809 6.58111 6.20834 5.64903L6.05761 5.08648Z" stroke="#0000AC" stroke-width="1.74721" stroke-linecap="round" stroke-linejoin="round"/>
<path d="M11.8928 3.36799C11.8928 2.88551 12.2839 2.49438 12.7664 2.49438C13.2488 2.49438 13.64 2.88551 13.64 3.36799V3.95039C13.64 4.43287 13.2488 4.82399 12.7664 4.82399C12.2839 4.82399 11.8928 4.43287 11.8928 3.95039V3.36799Z" stroke="#0000AC" stroke-width="1.74721" stroke-linecap="round" stroke-linejoin="round"/>
<path d="M15.848 3.94189C15.9151 3.46411 16.3569 3.13122 16.8347 3.19837C17.3125 3.26552 17.6453 3.70727 17.5782 4.18505L17.4971 4.76179C17.43 5.23957 16.9882 5.57245 16.5105 5.50531C16.0327 5.43816 15.6998 4.99641 15.7669 4.51862L15.848 3.94189Z" stroke="#0000AC" stroke-width="1.74721" stroke-linecap="round" stroke-linejoin="round"/>
<path d="M19.318 5.295C19.4428 4.82896 19.9219 4.55239 20.3879 4.67727C20.8539 4.80214 21.1305 5.28117 21.0056 5.74721L20.8549 6.30977C20.73 6.7758 20.251 7.05237 19.785 6.9275C19.3189 6.80262 19.0423 6.32359 19.1672 5.85756L19.318 5.295Z" stroke="#0000AC" stroke-width="1.74721" stroke-linecap="round" stroke-linejoin="round"/>
<path d="M22.2407 7.87126C22.5819 7.53009 23.135 7.53009 23.4762 7.87126C23.8174 8.21242 23.8174 8.76556 23.4762 9.10672L23.0644 9.51854C22.7232 9.8597 22.1701 9.8597 21.8289 9.51854C21.4878 9.17738 21.4878 8.62424 21.8289 8.28308L22.2407 7.87126Z" stroke="#0000AC" stroke-width="1.74721" stroke-linecap="round" stroke-linejoin="round"/>
</svg>
