<svg width="29" height="29" viewBox="0 0 29 29" fill="none" xmlns="http://www.w3.org/2000/svg">
<path d="M10.7284 9.49097V13.859M10.7284 9.49097C10.7284 8.68684 10.0765 8.03496 9.27241 8.03496C8.46828 8.03496 7.81641 8.68684 7.81641 9.49097V15.0238V19.683C7.81641 23.5428 10.9454 26.6718 14.8052 26.6718V26.6718C18.6651 26.6718 21.7941 23.5428 21.7941 19.683V15.0238V11.8206C21.7941 11.0164 21.1422 10.3646 20.3381 10.3646C19.5339 10.3646 18.882 11.0164 18.882 11.8206V15.0238C17.3717 15.6201 16.276 16.9715 16.0248 18.6184M10.7284 9.49097V4.83175C10.7284 4.02762 11.3803 3.37574 12.1844 3.37574C12.9886 3.37574 13.6404 4.02762 13.6404 4.83175M13.6404 4.83175V11.5294M13.6404 4.83175V3.66694C13.6404 2.86281 14.2923 2.21094 15.0964 2.21094C15.9006 2.21094 16.5524 2.86281 16.5524 3.66694V5.99655M16.5524 5.99655V11.5294M16.5524 5.99655C16.5524 5.19242 17.2043 4.54055 18.0084 4.54055C18.8126 4.54055 19.4645 5.19242 19.4645 5.99655V10.6557" stroke="#0000AC" stroke-width="1.74721" stroke-linecap="round" stroke-linejoin="round"/>
</svg>
