<svg width="28" height="29" viewBox="0 0 28 29" fill="none" xmlns="http://www.w3.org/2000/svg">
<path d="M16.307 4.25708V5.03362C16.307 5.89135 17.0023 6.58669 17.8601 6.58669V6.58669C19.5755 6.58669 20.9662 7.97736 20.9662 9.69283V9.7899C20.9662 11.559 19.5321 12.9931 17.763 12.9931H9.31816M11.6478 4.25708V6.00429C11.6478 7.9342 13.2123 9.4987 15.1422 9.4987H16.307H6.98856C5.05865 9.4987 3.49414 11.0632 3.49414 12.9931V12.9931C3.49414 14.923 5.05864 16.4875 6.98855 16.4875H11.6478M19.219 16.4875H11.6478M16.307 12.9931H20.9662C22.8961 12.9931 24.4606 14.5576 24.4606 16.4875V16.4875C24.4606 18.4174 22.8961 19.9819 20.9662 19.9819H12.8126V19.9819C14.7425 19.9819 16.307 21.5464 16.307 23.4764V25.2236M11.6478 25.2236V23.8646C11.6478 23.6502 11.4739 23.4764 11.2595 23.4764H10.483C8.55306 23.4764 6.98855 21.9119 6.98855 19.9819V19.9819C6.98855 18.052 8.55306 16.4875 10.483 16.4875H11.6478" stroke="#0000AC" stroke-width="1.74721" stroke-linecap="round" stroke-linejoin="round"/>
</svg>
