<svg width="29" height="29" viewBox="0 0 29 29" fill="none" xmlns="http://www.w3.org/2000/svg">
<path d="M21.7931 25.3516C24.3663 25.3516 26.4523 23.2656 26.4523 20.6924C26.4523 20.0253 26.3121 19.391 26.0596 18.8173L21.8663 13.2262C20.0516 10.8067 19.0707 7.86396 19.0707 4.8396V2.51001M21.7931 21.8573C20.647 20.7112 18.7149 21.0247 17.9901 22.4744L17.5551 23.3443C16.4217 25.6112 13.1868 25.6112 12.0534 23.3443L11.6184 22.4744C10.8936 21.0247 8.9615 20.7112 7.81543 21.8573M7.81547 25.3516C5.24225 25.3516 3.15625 23.2656 3.15625 20.6924C3.15625 20.0253 3.29644 19.391 3.54896 18.8173L7.74227 13.2262C9.55689 10.8067 10.5378 7.86396 10.5378 4.8396V2.51001" stroke="#0000AC" stroke-width="1.74721" stroke-linecap="round" stroke-linejoin="round"/>
</svg>
