<svg width="28" height="29" viewBox="0 0 28 29" fill="none" xmlns="http://www.w3.org/2000/svg">
<path d="M17.2821 3.65918C16.6997 7.15359 19.0293 8.69281 20.7765 8.3184C27.7653 6.82079 24.8533 22.2961 16.1173 22.2961C13.6358 22.2961 11.5285 20.8479 10.3117 18.8485C9.94121 18.2397 9.14288 17.9579 8.65665 18.4789C7.42672 19.7967 6.95228 21.7954 7.54982 23.4609M13.7877 3.65918C12.7605 6.74085 13.545 8.91662 15.7419 10.586C16.2509 10.9727 16.4471 11.6835 16.0514 12.1855C14.4425 14.2268 12.1743 14.8967 9.15846 13.5814C8.39897 13.2502 7.50889 13.216 6.84899 13.7171C3.71961 16.0933 2.45519 19.8883 4.07745 23.4609" stroke="#0000AC" stroke-width="1.74721" stroke-linecap="round" stroke-linejoin="round"/>
</svg>
