<svg width="29" height="29" viewBox="0 0 29 29" fill="none" xmlns="http://www.w3.org/2000/svg">
<path d="M13.8673 8.95738L17.1619 12.2519M10.5728 12.2519L13.8673 15.5465M7.2782 25.4302L9.49974 23.2087C9.66235 23.0461 9.86945 22.9352 10.0949 22.8901L13.6961 22.1699C13.8078 22.1476 13.9103 22.0927 13.9908 22.0122L22.9274 13.0756C24.7469 11.2561 24.7469 8.306 22.9274 6.48646V6.48646C21.1078 4.66692 18.1578 4.66692 16.3382 6.48646L7.40164 15.4231C7.32115 15.5036 7.26628 15.6061 7.24396 15.7177L6.52372 19.3189C6.47862 19.5444 6.36778 19.7515 6.20518 19.9141L3.98363 22.1356C3.07386 23.0454 3.07386 24.5204 3.98363 25.4302C4.8934 26.34 6.36843 26.34 7.2782 25.4302Z" stroke="#0000AC" stroke-width="1.74721" stroke-linecap="round" stroke-linejoin="round"/>
</svg>
