<svg width="29" height="29" viewBox="0 0 29 29" fill="none" xmlns="http://www.w3.org/2000/svg">
<path d="M14.4671 2.03076L16.7168 3.53362L19.3704 3.00608L20.8737 5.25547L23.5272 5.78356L24.0553 8.43702L26.3047 9.94035L25.7771 12.5939L27.28 14.8436L25.7771 17.0933L26.3047 19.7469L24.0553 21.2502L23.5272 23.9037L20.8737 24.4318L19.3704 26.6811L16.7168 26.1536L14.4671 27.6565L12.2174 26.1536L9.56388 26.6811L8.06055 24.4318L5.40709 23.9037L4.879 21.2502L2.62962 19.7469L3.15716 17.0933L1.6543 14.8436L3.15716 12.5939L2.62962 9.94035L4.879 8.43702L5.40709 5.78356L8.06055 5.25547L9.56388 3.00608L12.2174 3.53362L14.4671 2.03076Z" stroke="#0000AC" stroke-width="1.74721" stroke-linecap="round" stroke-linejoin="round"/>
<path d="M15.632 12.514C15.632 14.4439 14.0674 16.0084 12.1375 16.0084C10.2076 16.0084 8.64312 14.4439 8.64312 12.514C8.64312 10.5841 10.2076 9.01959 12.1375 9.01959C14.0674 9.01959 15.632 10.5841 15.632 12.514Z" stroke="#0000AC" stroke-width="1.74721" stroke-linecap="round" stroke-linejoin="round"/>
<path d="M20.2912 18.9204C20.2912 19.8854 19.5089 20.6676 18.544 20.6676C17.579 20.6676 16.7968 19.8854 16.7968 18.9204C16.7968 17.9555 17.579 17.1732 18.544 17.1732C19.5089 17.1732 20.2912 17.9555 20.2912 18.9204Z" stroke="#0000AC" stroke-width="1.74721" stroke-linecap="round" stroke-linejoin="round"/>
</svg>
