<svg width="26" height="27" viewBox="0 0 26 27" fill="none" xmlns="http://www.w3.org/2000/svg">
<g clip-path="url(#clip0_38_1330)">
<path d="M10 5.16493C10 6.22572 9.57857 7.24306 8.82843 7.99315C8.07828 8.74325 7.06087 9.16464 6 9.16464C4.93913 9.16464 3.92172 8.74325 3.17157 7.99315C2.42143 7.24306 2 6.22572 2 5.16493C2 4.10414 2.42143 3.0868 3.17157 2.33671C3.92172 1.58661 4.93913 1.16522 6 1.16522C7.06087 1.16522 8.07828 1.58661 8.82843 2.33671C9.57857 3.0868 10 4.10414 10 5.16493ZM2.33333 10.4979C1.71449 10.4979 1.121 10.7437 0.683418 11.1812C0.245833 11.6188 0 12.2123 0 12.831V19.1639C0 20.7551 0.632141 22.2811 1.75736 23.4063C2.88258 24.5314 4.4087 25.1635 6 25.1635C7.5913 25.1635 9.11742 24.5314 10.2426 23.4063C11.3679 22.2811 12 20.7551 12 19.1639V12.831C12 12.2123 11.7542 11.6188 11.3166 11.1812C10.879 10.7437 10.2855 10.4979 9.66667 10.4979H2.33333ZM10.48 24.9688C11.3686 24.2845 12.088 23.4051 12.5827 22.3986C13.0775 21.3921 13.3343 20.2854 13.3333 19.1639V12.831C13.3333 11.9444 13.0187 11.1325 12.4947 10.4979H15.6667C16.9547 10.4979 18 11.5431 18 12.831V19.1639C18.0002 20.0814 17.7899 20.9867 17.3853 21.8102C16.9808 22.6337 16.3928 23.3534 15.6665 23.9141C14.9402 24.4747 14.095 24.8613 13.1958 25.0442C12.2967 25.227 11.3676 25.2013 10.48 24.9688ZM11.3333 5.16493C11.3333 6.49817 10.844 7.71541 10.036 8.65001C10.6447 8.99248 11.3324 9.16963 12.0307 9.16384C12.7291 9.15805 13.4138 8.96952 14.0167 8.61701C14.6196 8.2645 15.1197 7.76029 15.4672 7.15454C15.8147 6.54879 15.9976 5.86261 15.9976 5.16426C15.9976 4.46592 15.8147 3.77974 15.4672 3.17399C15.1197 2.56824 14.6196 2.06403 14.0167 1.71152C13.4138 1.35901 12.7291 1.17048 12.0307 1.16469C11.3324 1.1589 10.6447 1.33605 10.036 1.67851C10.844 2.61445 11.3333 3.83303 11.3333 5.16493ZM16.48 24.9688C17.3686 24.2845 18.088 23.4051 18.5827 22.3986C19.0775 21.3921 19.3343 20.2854 19.3333 19.1639V12.831C19.3333 11.9444 19.0187 11.1325 18.4947 10.4979H21.6667C22.9547 10.4979 24 11.5431 24 12.831V19.1639C24.0002 20.0814 23.7899 20.9867 23.3853 21.8102C22.9808 22.6337 22.3928 23.3534 21.6665 23.9141C20.9402 24.4747 20.095 24.8613 19.1958 25.0442C18.2967 25.227 17.3676 25.2013 16.48 24.9688ZM17.3333 5.16493C17.3333 6.49817 16.844 7.71541 16.036 8.65001C16.6447 8.99248 17.3324 9.16963 18.0307 9.16384C18.7291 9.15805 19.4138 8.96952 20.0167 8.61701C20.6196 8.2645 21.1197 7.76029 21.4672 7.15454C21.8147 6.54879 21.9976 5.86261 21.9976 5.16426C21.9976 4.46592 21.8147 3.77974 21.4672 3.17399C21.1197 2.56824 20.6196 2.06403 20.0167 1.71152C19.4138 1.35901 18.7291 1.17048 18.0307 1.16469C17.3324 1.1589 16.6447 1.33605 16.036 1.67851C16.844 2.61578 17.3333 3.83436 17.3333 5.16493Z" fill="#828282"/>
</g>
<defs>
<clipPath id="clip0_38_1330">
<rect width="25.3125" height="25.3125" fill="white" transform="translate(0.09375 0.950684)"/>
</clipPath>
</defs>
</svg>
