<svg width="22" height="23" viewBox="0 0 22 23" fill="none" xmlns="http://www.w3.org/2000/svg">
<path d="M20.9547 13.8895L19.3355 12.5052C19.4122 12.0355 19.4517 11.556 19.4517 11.0764C19.4517 10.5969 19.4122 10.1173 19.3355 9.64766L20.9547 8.26338C21.0768 8.15884 21.1642 8.01959 21.2053 7.86416C21.2463 7.70874 21.2391 7.54449 21.1845 7.39327L21.1623 7.32899C20.7166 6.08321 20.0491 4.92835 19.1922 3.92021L19.1477 3.8683C19.0437 3.74607 18.9052 3.6582 18.7503 3.61628C18.5954 3.57436 18.4314 3.58035 18.28 3.63347L16.2704 4.34785C15.5288 3.73976 14.7007 3.26021 13.8059 2.92403L13.4178 0.822891C13.3885 0.664792 13.3118 0.519345 13.1979 0.405872C13.084 0.292399 12.9382 0.216273 12.78 0.187607L12.7133 0.175247C11.4254 -0.0571137 10.0708 -0.0571137 8.7829 0.175247L8.71616 0.187607C8.55795 0.216273 8.41221 0.292399 8.29829 0.405872C8.18438 0.519345 8.10769 0.664792 8.0784 0.822891L7.68784 2.93391C6.80015 3.27017 5.97348 3.74946 5.24064 4.3528L3.21613 3.63347C3.06476 3.57993 2.90069 3.57372 2.74571 3.61567C2.59073 3.65762 2.45219 3.74573 2.34849 3.8683L2.30399 3.92021C1.44808 4.92906 0.780732 6.08373 0.333867 7.32899L0.31162 7.39327C0.200383 7.70226 0.291845 8.04833 0.541509 8.26338L2.18039 9.66249C2.10377 10.1272 2.06669 10.6018 2.06669 11.074C2.06669 11.5486 2.10377 12.0232 2.18039 12.4854L0.541509 13.8845C0.419385 13.9891 0.33198 14.1283 0.290915 14.2838C0.24985 14.4392 0.257072 14.6034 0.31162 14.7547L0.333867 14.8189C0.781286 16.0648 1.44376 17.2142 2.30399 18.2277L2.34849 18.2796C2.45244 18.4018 2.59099 18.4897 2.74588 18.5316C2.90076 18.5736 3.06472 18.5676 3.21613 18.5145L5.24064 17.7951C5.97727 18.4007 6.80042 18.8803 7.68784 19.214L8.0784 21.325C8.10769 21.4831 8.18438 21.6286 8.29829 21.742C8.41221 21.8555 8.55795 21.9316 8.71616 21.9603L8.7829 21.9727C10.0826 22.2063 11.4136 22.2063 12.7133 21.9727L12.78 21.9603C12.9382 21.9316 13.084 21.8555 13.1979 21.742C13.3118 21.6286 13.3885 21.4831 13.4178 21.325L13.8059 19.2239C14.7003 18.8886 15.5331 18.4075 16.2704 17.8001L18.28 18.5145C18.4314 18.568 18.5955 18.5742 18.7505 18.5323C18.9054 18.4903 19.044 18.4022 19.1477 18.2796L19.1922 18.2277C20.0524 17.2117 20.7149 16.0648 21.1623 14.8189L21.1845 14.7547C21.2958 14.4506 21.2043 14.1045 20.9547 13.8895ZM17.5805 9.93935C17.6423 10.3126 17.6744 10.6958 17.6744 11.0789C17.6744 11.4621 17.6423 11.8452 17.5805 12.2185L17.4173 13.2097L19.2639 14.7893C18.9839 15.4342 18.6306 16.0446 18.2108 16.6086L15.9169 15.7953L15.1407 16.4331C14.5499 16.9176 13.8924 17.2983 13.1805 17.5652L12.2387 17.9187L11.7962 20.3165C11.098 20.3956 10.3932 20.3956 9.69504 20.3165L9.25257 17.9138L8.31818 17.5553C7.61368 17.2884 6.95862 16.9077 6.37278 16.4257L5.59659 15.7854L3.28782 16.6061C2.86759 16.0401 2.51658 15.4295 2.23478 14.7868L4.10108 13.1924L3.9404 12.2036C3.88108 11.8353 3.84894 11.4546 3.84894 11.0789C3.84894 10.7007 3.87861 10.3225 3.9404 9.95418L4.10108 8.96541L2.23478 7.37102C2.5141 6.72585 2.86759 6.11775 3.28782 5.55168L5.59659 6.37236L6.37278 5.73213C6.95862 5.25011 7.61368 4.86943 8.31818 4.60246L9.25504 4.24898L9.69752 1.84627C10.3921 1.76717 11.1016 1.76717 11.7987 1.84627L12.2411 4.24403L13.1829 4.59752C13.8924 4.86449 14.5524 5.24516 15.1432 5.72966L15.9193 6.36742L18.2133 5.55415C18.6335 6.12022 18.9845 6.73079 19.2663 7.37349L17.4198 8.95305L17.5805 9.93935ZM10.7506 6.48113C8.34785 6.48113 6.39997 8.429 6.39997 10.8317C6.39997 13.2344 8.34785 15.1823 10.7506 15.1823C13.1533 15.1823 15.1011 13.2344 15.1011 10.8317C15.1011 8.429 13.1533 6.48113 10.7506 6.48113ZM12.7083 12.7895C12.4515 13.047 12.1464 13.2512 11.8104 13.3903C11.4744 13.5295 11.1142 13.6008 10.7506 13.6003C10.0114 13.6003 9.31684 13.3111 8.79279 12.7895C8.53527 12.5327 8.33107 12.2275 8.19192 11.8915C8.05278 11.5556 7.98143 11.1954 7.982 10.8317C7.982 10.0926 8.27121 9.39799 8.79279 8.87395C9.31684 8.3499 10.0114 8.06316 10.7506 8.06316C11.4897 8.06316 12.1843 8.3499 12.7083 8.87395C12.9658 9.13073 13.17 9.43589 13.3092 9.77188C13.4483 10.1079 13.5197 10.4681 13.5191 10.8317C13.5191 11.5708 13.2299 12.2654 12.7083 12.7895Z" fill="#828282"/>
</svg>
