<svg width="26" height="26" viewBox="0 0 26 26" fill="none" xmlns="http://www.w3.org/2000/svg">
<g clip-path="url(#clip0_38_1313)">
<path d="M23.8242 22.6565C23.8242 22.6565 25.4063 22.6565 25.4063 21.0745C25.4063 19.4924 23.8242 14.7463 17.4961 14.7463C11.168 14.7463 9.58594 19.4924 9.58594 21.0745C9.58594 22.6565 11.168 22.6565 11.168 22.6565H23.8242ZM11.2028 21.0745C11.1911 21.0729 11.1795 21.0707 11.168 21.0681C11.1696 20.6505 11.4322 19.4386 12.3703 18.347C13.2436 17.3235 14.7782 16.3284 17.4961 16.3284C20.2124 16.3284 21.747 17.325 22.6219 18.347C23.56 19.4386 23.8211 20.6521 23.8242 21.0681L23.8116 21.0713C23.8042 21.0725 23.7968 21.0736 23.7894 21.0745H11.2028ZM17.4961 11.5823C18.3353 11.5823 19.14 11.2489 19.7334 10.6555C20.3268 10.0622 20.6602 9.25737 20.6602 8.41821C20.6602 7.57905 20.3268 6.77426 19.7334 6.18088C19.14 5.58751 18.3353 5.25415 17.4961 5.25415C16.6569 5.25415 15.8521 5.58751 15.2588 6.18088C14.6654 6.77426 14.332 7.57905 14.332 8.41821C14.332 9.25737 14.6654 10.0622 15.2588 10.6555C15.8521 11.2489 16.6569 11.5823 17.4961 11.5823ZM22.2422 8.41821C22.2422 9.04148 22.1194 9.65864 21.8809 10.2345C21.6424 10.8103 21.2928 11.3335 20.8521 11.7742C20.4114 12.2149 19.8882 12.5645 19.3123 12.803C18.7365 13.0415 18.1194 13.1643 17.4961 13.1643C16.8728 13.1643 16.2557 13.0415 15.6798 12.803C15.104 12.5645 14.5808 12.2149 14.1401 11.7742C13.6994 11.3335 13.3498 10.8103 13.1113 10.2345C12.8728 9.65864 12.75 9.04148 12.75 8.41821C12.75 7.15947 13.25 5.95228 14.1401 5.06222C15.0302 4.17215 16.2374 3.67212 17.4961 3.67212C18.7548 3.67212 19.962 4.17215 20.8521 5.06222C21.7422 5.95228 22.2422 7.15947 22.2422 8.41821ZM11.0667 15.1893C10.4339 14.99 9.78153 14.859 9.12082 14.7985C8.74957 14.7632 8.37683 14.7458 8.00391 14.7463C1.67578 14.7463 0.09375 19.4924 0.09375 21.0745C0.09375 22.1297 0.620566 22.6565 1.67578 22.6565H8.34563C8.1111 22.1626 7.99414 21.6211 8.00391 21.0745C8.00391 19.4766 8.60033 17.844 9.72832 16.4802C10.1128 16.0151 10.5605 15.5801 11.0667 15.1893ZM7.87734 16.3284C6.94103 17.7352 6.43523 19.3846 6.42188 21.0745H1.67578C1.67578 20.6631 1.93523 19.445 2.87813 18.347C3.74033 17.3409 5.23852 16.36 7.87734 16.33V16.3284ZM2.4668 9.20923C2.4668 7.95049 2.96683 6.7433 3.8569 5.85323C4.74696 4.96317 5.95415 4.46313 7.21289 4.46313C8.47163 4.46313 9.67882 4.96317 10.5689 5.85323C11.459 6.7433 11.959 7.95049 11.959 9.20923C11.959 10.468 11.459 11.6752 10.5689 12.5652C9.67882 13.4553 8.47163 13.9553 7.21289 13.9553C5.95415 13.9553 4.74696 13.4553 3.8569 12.5652C2.96683 11.6752 2.4668 10.468 2.4668 9.20923ZM7.21289 6.04517C6.37373 6.04517 5.56894 6.37852 4.97556 6.9719C4.38218 7.56528 4.04883 8.37007 4.04883 9.20923C4.04883 10.0484 4.38218 10.8532 4.97556 11.4466C5.56894 12.0399 6.37373 12.3733 7.21289 12.3733C8.05205 12.3733 8.85684 12.0399 9.45022 11.4466C10.0436 10.8532 10.377 10.0484 10.377 9.20923C10.377 8.37007 10.0436 7.56528 9.45022 6.9719C8.85684 6.37852 8.05205 6.04517 7.21289 6.04517Z" fill="#828282"/>
</g>
<defs>
<clipPath id="clip0_38_1313">
<rect width="25.3125" height="25.3125" fill="white" transform="translate(0.09375 0.508301)"/>
</clipPath>
</defs>
</svg>
