<svg width="24" height="25" viewBox="0 0 24 25" fill="none" xmlns="http://www.w3.org/2000/svg">
<path d="M0 24.1646V22.6646H3V2.58705C3 1.89705 3.2315 1.32105 3.6945 0.859051C4.1565 0.396051 4.7325 0.164551 5.4225 0.164551H18.5775C19.2675 0.164551 19.8435 0.396051 20.3055 0.859051C20.7685 1.32105 21 1.89705 21 2.58705V22.6646H24V24.1646H0ZM8.655 13.3196C8.964 13.3196 9.2335 13.2045 9.4635 12.9746C9.6935 12.7446 9.8085 12.4746 9.8085 12.1646C9.8085 11.8546 9.6935 11.5846 9.4635 11.3546C9.2335 11.1246 8.9635 11.0096 8.6535 11.0096C8.3435 11.0096 8.0735 11.1246 7.8435 11.3546C7.6145 11.5846 7.5 11.8546 7.5 12.1646C7.5 12.4746 7.615 12.7446 7.845 12.9746C8.075 13.2045 8.345 13.3196 8.655 13.3196Z" fill="#828282"/>
<line x1="12" y1="15.6646" x2="19" y2="15.6646" stroke="white"/>
<line x1="15.5" y1="12.1646" x2="15.5" y2="19.1646" stroke="white"/>
</svg>
