<svg width="32" height="32" viewBox="0 0 32 32" fill="none" xmlns="http://www.w3.org/2000/svg">
<path d="M16.1152 32C13.9969 32 11.9948 31.5797 10.109 30.7392C8.22315 29.8987 6.57653 28.752 5.16913 27.2992C3.7607 25.8464 2.64987 24.1467 1.83663 22.2C1.0234 20.2533 0.616268 18.1867 0.615234 16C0.615234 13.7867 1.02237 11.7136 1.83663 9.7808C2.6509 7.848 3.76173 6.15467 5.16913 4.7008C6.57653 3.24693 8.22263 2.10027 10.1074 1.2608C11.9922 0.421333 13.9948 0.00106667 16.1152 0C18.2594 0 20.2682 0.420267 22.1416 1.2608C24.0151 2.10133 25.655 3.248 27.0613 4.7008C28.4698 6.1536 29.5806 7.84693 30.3938 9.7808C31.2071 11.7147 31.6142 13.7877 31.6152 16C31.6152 18.1867 31.2081 20.2533 30.3938 22.2C29.5796 24.1467 28.4687 25.8469 27.0613 27.3008C25.6539 28.7536 24.0135 29.9003 22.1401 30.7408C20.2667 31.5813 18.2584 32.0011 16.1152 32ZM16.1152 28.72C16.7869 27.76 17.3682 26.76 17.859 25.72C18.3498 24.68 18.7502 23.5733 19.0602 22.4H13.1702C13.4802 23.5733 13.8807 24.68 14.3715 25.72C14.8623 26.76 15.4436 27.76 16.1152 28.72ZM12.0852 28.08C11.6202 27.2 11.2136 26.2864 10.8654 25.3392C10.5172 24.392 10.2263 23.4123 9.99273 22.4H5.42023C6.1694 23.7333 7.10612 24.8933 8.23038 25.88C9.35465 26.8667 10.6396 27.6 12.0852 28.08ZM20.1452 28.08C21.5919 27.6 22.8774 26.8667 24.0016 25.88C25.1259 24.8933 26.0621 23.7333 26.8102 22.4H22.2377C22.0052 23.4133 21.7149 24.3936 21.3666 25.3408C21.0184 26.288 20.6113 27.2011 20.1452 28.08ZM4.10273 19.2H9.37273C9.29523 18.6667 9.23737 18.1403 9.19913 17.6208C9.1609 17.1013 9.14127 16.5611 9.14023 16C9.14023 15.44 9.15987 14.9003 9.19913 14.3808C9.2384 13.8613 9.29627 13.3344 9.37273 12.8H4.10273C3.97357 13.3333 3.87695 13.8603 3.81288 14.3808C3.74882 14.9013 3.71627 15.4411 3.71523 16C3.71523 16.56 3.74778 17.1003 3.81288 17.6208C3.87798 18.1413 3.9746 18.6677 4.10273 19.2ZM12.4727 19.2H19.7577C19.8352 18.6667 19.8936 18.1403 19.9329 17.6208C19.9722 17.1013 19.9913 16.5611 19.9902 16C19.9902 15.44 19.9706 14.9003 19.9313 14.3808C19.8921 13.8613 19.8342 13.3344 19.7577 12.8H12.4727C12.3952 13.3333 12.3374 13.8603 12.2991 14.3808C12.2609 14.9013 12.2413 15.4411 12.2402 16C12.2402 16.56 12.2599 17.1003 12.2991 17.6208C12.3384 18.1413 12.3963 18.6677 12.4727 19.2ZM22.8577 19.2H28.1277C28.2569 18.6667 28.354 18.1403 28.4191 17.6208C28.4842 17.1013 28.5163 16.5611 28.5152 16C28.5152 15.44 28.4832 14.9003 28.4191 14.3808C28.3551 13.8613 28.2579 13.3344 28.1277 12.8H22.8577C22.9352 13.3333 22.9936 13.8603 23.0329 14.3808C23.0721 14.9013 23.0913 15.4411 23.0902 16C23.0902 16.56 23.0706 17.1003 23.0313 17.6208C22.9921 18.1413 22.9342 18.6677 22.8577 19.2ZM22.2377 9.6H26.8102C26.0611 8.26667 25.1249 7.10667 24.0016 6.12C22.8784 5.13333 21.5929 4.4 20.1452 3.92C20.6102 4.8 21.0174 5.7136 21.3666 6.6608C21.7159 7.608 22.0063 8.58773 22.2377 9.6ZM13.1702 9.6H19.0602C18.7502 8.42667 18.3498 7.32 17.859 6.28C17.3682 5.24 16.7869 4.24 16.1152 3.28C15.4436 4.24 14.8623 5.24 14.3715 6.28C13.8807 7.32 13.4802 8.42667 13.1702 9.6ZM5.42023 9.6H9.99273C10.2252 8.58667 10.5161 7.6064 10.8654 6.6592C11.2147 5.712 11.6213 4.79893 12.0852 3.92C10.6386 4.4 9.3531 5.13333 8.22883 6.12C7.10457 7.10667 6.16837 8.26667 5.42023 9.6Z" fill="#828282"/>
</svg>
