<svg width="32" height="32" viewBox="0 0 32 32" fill="none" xmlns="http://www.w3.org/2000/svg">
<path d="M16.1152 3.40625C19.4553 3.40625 22.6586 4.73309 25.0204 7.09487C27.3821 9.45666 28.709 12.6599 28.709 16C28.709 19.3401 27.3821 22.5433 25.0204 24.9051C22.6586 27.2669 19.4553 28.5938 16.1152 28.5938V3.40625ZM16.1152 0.5C12.0044 0.5 8.06189 2.13303 5.15508 5.03984C2.24827 7.94666 0.615234 11.8891 0.615234 16C0.615234 20.1109 2.24827 24.0533 5.15508 26.9602C8.06189 29.867 12.0044 31.5 16.1152 31.5C20.2261 31.5 24.1686 29.867 27.0754 26.9602C29.9822 24.0533 31.6152 20.1109 31.6152 16C31.6152 11.8891 29.9822 7.94666 27.0754 5.03984C24.1686 2.13303 20.2261 0.5 16.1152 0.5Z" fill="#828282"/>
</svg>
