<svg width="24" height="24" viewBox="0 0 24 24" fill="none" xmlns="http://www.w3.org/2000/svg">
<path d="M23.4944 21.071C23.8163 21.3929 23.9971 21.8295 23.9971 22.2848C23.9971 22.7401 23.8163 23.1767 23.4944 23.4986C23.1724 23.8206 22.7358 24.0014 22.2805 24.0014C21.8252 24.0014 21.3886 23.8206 21.0667 23.4986L12 14.4291L2.93047 23.4958C2.60854 23.8177 2.17191 23.9986 1.71663 23.9986C1.26135 23.9986 0.82472 23.8177 0.502789 23.4958C0.180859 23.1738 4.79714e-09 22.7372 0 22.2819C-4.79714e-09 21.8267 0.180859 21.39 0.502789 21.0681L9.57232 12.0014L0.505645 2.9319C0.183715 2.60997 0.00285616 2.17334 0.00285616 1.71806C0.00285617 1.26278 0.183715 0.826147 0.505645 0.504217C0.827576 0.182287 1.26421 0.00142781 1.71949 0.00142781C2.17476 0.0014278 2.6114 0.182287 2.93333 0.504217L12 9.57375L21.0695 0.502789C21.3915 0.180858 21.8281 -7.58494e-09 22.2834 0C22.7386 7.58494e-09 23.1753 0.180858 23.4972 0.502789C23.8191 0.824719 24 1.26135 24 1.71663C24 2.17191 23.8191 2.60854 23.4972 2.93047L14.4277 12.0014L23.4944 21.071Z" fill="#FF0000"/>
</svg>
