<svg width="20" height="19" viewBox="0 0 20 19" fill="none" xmlns="http://www.w3.org/2000/svg">
<path d="M10.6927 16.584H6.7824C4.62279 16.584 2.87209 14.8333 2.87209 12.6737V6.41715C2.87209 4.25754 4.62279 2.50684 6.7824 2.50684H13.0389C15.1985 2.50684 16.9492 4.25754 16.9492 6.41715V10.3275" stroke="black" stroke-width="0.945902" stroke-linecap="round" stroke-linejoin="round"/>
<path d="M11.9013 7.55444C13.0005 8.65402 13.0003 10.4365 11.9009 11.5358C10.8014 12.6352 9.01892 12.6352 7.91945 11.5358C6.81999 10.4365 6.81979 8.65402 7.91902 7.55444C8.44704 7.02624 9.1633 6.72949 9.91015 6.72949C10.657 6.72949 11.3733 7.02624 11.9013 7.55444" stroke="black" stroke-width="0.945902" stroke-linecap="round" stroke-linejoin="round"/>
<path d="M13.8203 15.4057H17.7306" stroke="black" stroke-width="0.945902" stroke-linecap="round" stroke-linejoin="round"/>
<path d="M15.7758 17.361V13.4507" stroke="black" stroke-width="0.945902" stroke-linecap="round" stroke-linejoin="round"/>
</svg>
