<svg
    xmlns="http://www.w3.org/2000/svg"
    width="330"
    height="316"
    viewBox="0 0 330 316"
    fill="none"
  >
    <path
      d="M182.947 137.377V49.8947H232.842V116.421H266.105V16.6316H182.947V0H33.2632V266.105H0V299.368H154.008C140.352 279.873 133.035 256.644 133.053 232.842C133.053 193.259 152.844 158.499 182.947 137.377ZM116.421 133.053H149.684V166.316H116.421V133.053ZM310.844 222.364L329.804 205.733L313.173 176.96L289.057 185.109C283.735 180.619 277.747 177.126 271.095 174.632L266.105 149.684H232.842L227.853 174.465C221.2 176.96 215.213 180.453 209.891 184.943L185.775 176.794L169.143 205.566L188.103 222.198C186.773 230.514 186.773 234.838 188.103 243.154L169.143 259.785L185.775 288.558L209.891 280.408C215.213 284.899 221.2 288.392 227.853 290.886L232.842 316H266.105L271.095 291.219C277.747 288.724 283.735 285.232 289.057 280.741L313.173 288.891L329.804 260.118L310.844 243.486C312.175 235.004 312.175 230.68 310.844 222.364ZM249.474 266.105C231.179 266.105 216.211 251.137 216.211 232.842C216.211 214.547 231.179 199.579 249.474 199.579C267.768 199.579 282.737 214.547 282.737 232.842C282.737 251.137 267.768 266.105 249.474 266.105Z"
      fill="#545454"
    />
  </svg>