 <svg
    width="318"
    height="324"
    viewBox="0 0 318 324"
    fill="none"
    xmlns="http://www.w3.org/2000/svg"
  >
    <path
      d="M233.289 1.16069C229.934 2.50253 228.987 3.44972 228.987 5.58089C228.987 6.33075 230.131 10.08 231.552 13.9872C232.973 17.8549 245.799 53.0981 260.047 92.288C274.294 131.478 290.396 175.68 295.803 190.559C303.499 211.673 305.867 217.79 306.656 218.461C307.998 219.685 310.011 219.645 313.523 218.343C316.681 217.159 317.865 215.975 317.865 214.002C317.865 212.581 318.18 213.449 283.411 117.941C270.505 82.4609 255.705 41.8503 250.614 27.7608C242.721 6.09395 241.103 1.95001 240.077 1.00282C238.577 -0.378494 237.196 -0.339035 233.289 1.16069Z"
      fill="#545454"
    />
    <path
      d="M225.119 19.1571C225.119 19.828 216.674 32.4177 212.49 37.9824C189.994 68.0161 157.435 95.3267 124.165 112.139C118.008 115.218 116.982 115.889 117.1 116.559C117.298 117.586 149.226 205.2 149.502 205.437C149.621 205.556 151.949 205.082 154.751 204.411C195.914 194.545 241.853 195.097 281.122 205.95C284.95 207.016 289.607 208.397 291.541 209.068C293.435 209.7 294.974 210.134 294.974 210.055C294.974 209.936 285.7 184.402 274.412 153.342C263.086 122.243 247.497 79.3824 239.722 58.0312C231.986 36.7195 225.514 19.1571 225.396 18.9992C225.238 18.8808 225.119 18.9203 225.119 19.1571Z"
      fill="#545454"
    />
    <path
      d="M280.056 82.3027C278.951 82.421 278.398 82.6184 278.517 82.9341C278.596 83.2104 282.266 93.2742 286.686 105.351L294.698 127.333L296.119 126.505C300.105 124.216 304.643 118.019 306.182 112.889C309.616 101.128 303.144 88.1042 291.698 83.8024C289.37 82.9341 283.924 81.9475 282.424 82.1053C282.069 82.1448 280.964 82.2237 280.056 82.3027Z"
      fill="#545454"
    />
    <path
      d="M69.2674 133.333C47.2848 141.384 27.9858 148.527 26.4467 149.277C14.1332 155.276 4.85868 166.839 1.3462 180.534C0.951537 182.113 0.438477 185.388 0.201681 187.875C-1.81109 209.699 11.4101 229.906 32.3271 237.05C40.9702 240.009 52.0207 240.286 60.7033 237.72C65.9128 236.181 142.24 208.121 142.24 207.766C142.201 206.818 110.036 118.967 109.681 118.888C109.444 118.809 91.2895 125.321 69.2674 133.333Z"
      fill="#545454"
    />
    <path
      d="M139.478 216.961C136.755 217.987 132.453 219.606 129.888 220.553C125.31 222.21 125.231 222.25 125.467 223.276C125.823 224.697 132.295 242.299 132.532 242.575C132.769 242.772 151.673 236.063 152.147 235.589C152.502 235.274 145.24 215.304 144.766 215.185C144.569 215.146 142.201 215.935 139.478 216.961Z"
      fill="#545454"
    />
    <path
      d="M93.9339 233.577C80.9496 238.352 70.2148 242.338 70.0964 242.457C69.8596 242.693 94.9995 311.917 96.4203 314.837C99.2619 320.757 106.524 324.546 113.233 323.599C115.325 323.283 148.2 311.72 149.029 310.97C149.344 310.693 147.529 305.681 128.112 252.323C117.022 221.855 118.127 224.894 117.811 224.934C117.693 224.934 106.958 228.841 93.9339 233.577Z"
      fill="#545454"
    />
  </svg>