<svg width="28" height="29" viewBox="0 0 28 29" fill="none" xmlns="http://www.w3.org/2000/svg">
<path d="M9.91745 25.5647C9.14108 26.0305 8.15336 25.4713 8.15336 24.5659V14.2139C5.53258 13.9242 3.49414 11.7023 3.49414 9.00432C3.49414 6.10945 5.84089 3.7627 8.73576 3.7627C11.6306 3.7627 13.9774 6.10945 13.9774 9.00432C13.9774 6.10945 16.3241 3.7627 19.219 3.7627C22.1139 3.7627 24.4606 6.10945 24.4606 9.00432C24.4606 11.7023 22.4222 13.9242 19.8014 14.2139L19.8014 24.5659C19.8014 25.4713 18.8137 26.0305 18.0373 25.5647C15.8936 24.2785 13.9774 21.964 13.9774 21.964C13.9774 21.964 12.0383 24.2922 9.91745 25.5647Z" stroke="#0000AC" stroke-width="1.74721" stroke-linecap="round" stroke-linejoin="round"/>
</svg>
