<svg width="29" height="29" viewBox="0 0 29 29" fill="none" xmlns="http://www.w3.org/2000/svg">
<path d="M7.81641 10.7541C7.81641 6.46544 11.4669 2.98877 15.97 2.98877C20.4732 2.98877 24.1237 6.46544 24.1237 10.7541C24.1237 15.0273 21.8192 16.949 19.7465 17.8132C18.0501 18.5206 16.5136 20.0095 16.5136 21.8475V21.8475C16.5136 24.2982 14.5667 26.2849 12.165 26.2849C9.76334 26.2849 7.81641 24.2982 7.81641 21.8475V19.6288M19.9685 11.5699C20.1829 9.32857 18.5397 7.33785 16.2983 7.1235C14.3066 6.93302 12.5128 8.20935 11.9875 10.0688M13.2726 14.2909C12.2914 13.457 11.72 12.1728 11.8519 10.7937C11.8758 10.544 11.9217 10.3018 11.9875 10.0688M11.9875 10.0688C12.5102 9.84324 13.0954 9.74249 13.7021 9.80051C15.6232 9.98423 17.0317 11.6906 16.8479 13.6117C16.7188 14.9626 15.9854 15.9969 14.8052 16.4655L14.3934 18.8009C14.2259 19.7512 13.3197 20.3857 12.3694 20.2182C11.4191 20.0506 10.7846 19.1444 10.9521 18.1941" stroke="#0000AC" stroke-width="1.74721" stroke-linecap="round" stroke-linejoin="round"/>
</svg>
