<svg width="29" height="29" viewBox="0 0 29 29" fill="none" xmlns="http://www.w3.org/2000/svg">
<path d="M8.55069 6.92185L10.0617 9.03026M21.574 7.18063L20.0629 9.2891M14.8087 4.43726V7.93167M14.8036 24.2389C20.5933 24.2389 25.2868 19.3922 25.2868 16.0853C25.2868 12.7784 20.5933 7.93167 14.8036 7.93167C9.01383 7.93167 4.32031 12.7818 4.32031 16.0853C4.32031 19.3888 9.01383 24.2389 14.8036 24.2389ZM14.8036 19.5797C16.7335 19.5797 18.298 18.0152 18.298 16.0853C18.298 14.1554 16.7335 12.5909 14.8036 12.5909C12.8736 12.5909 11.3091 14.1554 11.3091 16.0853C11.3091 18.0152 12.8736 19.5797 14.8036 19.5797Z" stroke="#0000AC" stroke-width="1.74721" stroke-linecap="round" stroke-linejoin="round"/>
</svg>
