<svg width="28" height="29" viewBox="0 0 28 29" fill="none" xmlns="http://www.w3.org/2000/svg">
<path d="M21.5647 10.5601C21.8072 11.6632 21.938 12.837 21.938 14.0545C21.938 20.4875 17.2787 25.7025 13.7843 25.7025C10.2899 25.7025 5.82422 20.4875 5.82422 14.0545C5.82422 12.7679 6.40662 11.1424 7.57143 11.1424C8.73623 11.1424 9.31863 12.3072 9.31863 12.3072M9.31863 12.3072C9.31863 12.3072 9.31863 12.8812 9.31863 13.472M9.31863 12.3072C9.31867 10.2257 11.0725 8.50755 12.9562 7.8481M9.31863 12.3072C9.31863 9.8548 8.42677 7.82015 6.70687 6.48318M16.6964 8.23046C16.011 7.83403 15.2154 7.60714 14.3667 7.60714C13.8751 7.60714 13.4012 7.69233 12.9562 7.8481M14.3667 4.04791C14.3667 5.50007 13.8353 6.82811 12.9562 7.8481M12.9562 7.8481C12.6195 6.37759 11.4547 4.63038 9.70752 3.46558M15.4132 21.2352C16.5128 19.7056 17.1604 17.8293 17.1604 15.8017C17.1604 14.7847 16.9975 13.8058 16.6964 12.8897C18.0546 9.39524 20.2113 7.42909 23.8787 7.06564" stroke="#0000AC" stroke-width="1.74721" stroke-linecap="round" stroke-linejoin="round"/>
</svg>
