<svg width="28" height="29" viewBox="0 0 28 29" fill="none" xmlns="http://www.w3.org/2000/svg">
<path d="M9.23409 13.0953C10.9121 13.7118 11.8722 15.5184 11.4005 17.2786C10.901 19.1428 8.98495 20.2491 7.1208 19.7496C3.3925 18.7506 1.24745 14.6665 2.32969 10.6275C3.41194 6.58853 7.31165 4.12412 11.04 5.12312C12.2827 5.45612 13.0202 6.73353 12.6872 7.9763C12.3542 9.21906 11.0768 9.95658 9.83406 9.62358C9.45472 9.52193 9.12246 9.3323 8.85334 9.08251M9.23409 13.0953C9.13505 13.059 9.03351 13.0267 8.92962 12.9989C8.45894 12.8728 7.98494 12.849 7.53126 12.914M9.23409 13.0953C9.76186 12.9412 10.1736 12.5719 10.4278 12.1119M10.2937 9.74671C10.8382 10.4353 10.8288 11.3865 10.4278 12.1119M18.7214 13.0952C17.0434 13.7117 16.0832 15.5183 16.5549 17.2786C17.0544 19.1427 18.9705 20.249 20.8347 19.7495C24.563 18.7505 26.708 14.6664 25.6258 10.6274C24.5435 6.58844 20.6438 4.12403 16.9155 5.12302C15.6727 5.45602 14.9352 6.73343 15.2682 7.9762C15.6012 9.21897 16.8786 9.95648 18.1214 9.62348C18.5007 9.52184 18.833 9.3322 19.1021 9.08242M18.7214 13.0952C18.8204 13.0589 18.9219 13.0266 19.0258 12.9988C19.4965 12.8727 19.9705 12.8489 20.4242 12.9139M18.7214 13.0952C18.1936 12.9411 17.782 12.5719 17.5277 12.1119M17.6618 9.74661C17.1172 10.4353 17.1266 11.3864 17.5277 12.1119M17.5277 12.1119V12.1119C15.8153 12.1119 14.3538 13.35 14.0723 15.0391L13.9777 15.6064M13.9777 24.9248L13.9777 15.6064M10.4278 12.1119V12.1119C12.1402 12.1119 13.6017 13.35 13.8832 15.0391L13.9777 15.6064" stroke="#0000AC" stroke-width="1.74721" stroke-linecap="round" stroke-linejoin="round"/>
</svg>
