<svg width="28" height="29" viewBox="0 0 28 29" fill="none" xmlns="http://www.w3.org/2000/svg">
<path d="M13.3944 18.9972C11.6472 21.3268 9.89998 21.3268 8.15278 21.9092C6.40557 22.4916 5.43779 23.7549 4.07596 23.074C2.71413 22.3931 4.07596 18.4148 4.07596 16.0852C4.07596 13.7556 2.32876 9.67874 5.82317 7.34913C9.31758 5.01952 14.5592 7.93153 14.5592 7.93153M18.636 16.0852C18.636 16.0852 20.8686 15.0498 22.7128 12.5908C23.6548 11.3348 24.5462 9.69045 25.1929 8.38219C25.6256 7.50686 24.8042 6.53458 23.8399 6.68836C22.4513 6.90983 20.6868 7.06039 19.2184 6.76672C16.3064 6.1843 14.5592 7.93153 14.5592 7.93153M14.5592 7.93153C14.7533 8.70807 15.1416 10.8435 15.1416 13.1732M11.6472 12.5908C11.6472 13.7556 12.2296 16.0852 14.5592 16.0852M14.5592 16.0852C16.8888 16.0852 17.4712 13.7556 17.4712 12.5908M14.5592 16.0852C10.4824 17.8324 8.54105 15.6969 8.15278 14.9204M14.5592 16.0852C15.3357 16.4734 17.4712 18.4148 16.8888 20.7444" stroke="#0000AC" stroke-width="1.74721" stroke-linecap="round" stroke-linejoin="round"/>
</svg>
