<svg width="28" height="29" viewBox="0 0 28 29" fill="none" xmlns="http://www.w3.org/2000/svg">
<path d="M11.0664 7.63265C11.0664 6.27371 10.1195 4.91533 6.40715 8.2151C1.16549 12.8743 2.91274 23.3575 3.49514 23.9399C4.07754 24.5223 10.484 21.6103 11.0664 20.4455C11.6488 19.2807 10.484 17.5335 11.6488 15.2039M16.8904 7.63263C16.8904 6.27369 17.8373 4.91531 21.5496 8.21508C26.7913 12.8743 25.044 23.3575 24.4616 23.9399C23.8792 24.5223 17.4728 21.6103 16.8904 20.4455C16.308 19.2807 17.4728 17.5335 16.308 15.2039M19.8024 16.9512C19.8024 14.2009 18.0324 12.8298 16.6845 11.9378C13.9042 10.098 13.9784 6.67244 13.9784 3.71773C13.9784 6.67244 14.0525 10.098 11.2723 11.9378C9.92432 12.8298 8.1544 14.2009 8.1544 16.9512" stroke="#0000AC" stroke-width="1.74721" stroke-linecap="round" stroke-linejoin="round"/>
</svg>
