<svg width="29" height="29" viewBox="0 0 29 29" fill="none" xmlns="http://www.w3.org/2000/svg">
<path d="M10.9725 17.2501H17.9613M14.4669 13.7557V21.3269M22.2276 10.7736C23.2328 11.9463 23.7853 13.4399 23.7853 14.9844V23.6565C23.7853 24.9432 22.7423 25.9862 21.4557 25.9862H7.47805C6.19144 25.9862 5.14844 24.9432 5.14844 23.6565V14.9844C5.14844 13.4399 5.70096 11.9463 6.70613 10.7736C7.93539 9.33947 9.72994 8.51409 11.6188 8.51409H17.315C19.2038 8.51409 20.9984 9.33947 22.2276 10.7736ZM10.3901 5.60208H18.5437C19.5086 5.60208 20.2909 4.81983 20.2909 3.85487V3.85487C20.2909 2.88992 19.5086 2.10767 18.5437 2.10767H10.3901C9.4251 2.10767 8.64285 2.88992 8.64285 3.85487V3.85487C8.64285 4.81983 9.4251 5.60208 10.3901 5.60208Z" stroke="#0000AC" stroke-width="1.74721" stroke-linecap="round" stroke-linejoin="round"/>
</svg>
