<svg width="29" height="29" viewBox="0 0 29 29" fill="none" xmlns="http://www.w3.org/2000/svg">
<path d="M26.4451 13.695C23.4858 14.3413 19.3636 14.7422 14.8043 14.7422C10.245 14.7422 6.12272 14.3413 3.16343 13.695M26.4451 13.695C26.2273 15.5477 21.0989 20.5663 14.8043 20.5663C8.5097 20.5663 3.38119 15.5477 3.16343 13.695M26.4451 13.695C26.4499 13.6542 26.4523 13.6151 26.4523 13.5775C26.4523 12.1609 23.0244 8.44745 18.2987 7.09263C17.1956 6.77637 15.9691 8.33582 14.8043 8.33582C13.6395 8.33582 12.413 6.77637 11.3099 7.09263C6.58416 8.44745 3.15625 12.1609 3.15625 13.5775C3.15625 13.6151 3.15867 13.6542 3.16343 13.695" stroke="#0000AC" stroke-width="1.74721" stroke-linecap="round" stroke-linejoin="round"/>
</svg>
