<svg width="28" height="29" viewBox="0 0 28 29" fill="none" xmlns="http://www.w3.org/2000/svg">
<path d="M11.2112 20.7623L13.6583 17.7888L17.4912 18.1611L17.1189 14.3282L20.0924 11.8812L17.1189 9.43412L17.4912 5.60123L13.6583 5.97347L11.2112 3L8.76419 5.97347L4.93131 5.60123L5.30355 9.43412L2.33008 11.8812L5.30355 14.3282L4.93131 18.1611L8.76419 17.7888L11.2112 20.7623ZM11.2112 20.7623C10.1602 22.5828 10.7839 24.9106 12.6044 25.9617C14.4249 27.0128 16.7527 26.389 17.8038 24.5685L18.7553 22.9204L19.7069 21.2723C20.5828 19.7552 22.5226 19.2354 24.0397 20.1113C25.5568 20.9872 26.0766 22.927 25.2007 24.4441L24.7249 25.2682M13.7487 11.8812C13.7487 13.2826 12.6126 14.4186 11.2112 14.4186C9.80983 14.4186 8.67376 13.2826 8.67376 11.8812C8.67376 10.4798 9.80983 9.34369 11.2112 9.34369C12.6126 9.34369 13.7487 10.4798 13.7487 11.8812Z" stroke="#0000AC" stroke-width="1.74721" stroke-linecap="round" stroke-linejoin="round"/>
</svg>
