<svg width="28" height="29" viewBox="0 0 28 29" fill="none" xmlns="http://www.w3.org/2000/svg">
<path d="M9.31816 4.36035C5.82375 4.36035 3.49414 6.96785 3.49414 10.1844C3.49414 11.4955 4.07654 13.0964 5.24135 14.8436C6.2341 16.3327 6.94481 20.5012 7.73405 23.7434C7.96387 24.6875 8.8206 25.3268 9.79226 25.3268C10.863 25.3268 11.7768 24.5527 11.9528 23.4966L12.6211 19.487C12.7316 18.8239 13.3052 18.338 13.9774 18.338C14.6495 18.338 15.2236 18.8239 15.3341 19.487L16.0024 23.4966C16.1784 24.5527 17.0922 25.3268 18.1629 25.3268C19.1346 25.3268 19.9913 24.6875 20.2211 23.7434C21.0104 20.5012 21.7211 16.3327 22.7138 14.8436C23.8786 13.0964 24.461 11.4955 24.461 10.1844C24.461 6.96785 22.1314 4.36035 18.637 4.36035C15.1426 4.36035 15.143 6.68996 13.9778 6.68996C12.8126 6.68996 12.8126 4.36035 9.31816 4.36035Z" stroke="#0000AC" stroke-width="1.1648"/>
</svg>
