<svg width="28" height="29" viewBox="0 0 28 29" fill="none" xmlns="http://www.w3.org/2000/svg">
<path d="M16.3061 25.4301V17.24M16.3061 17.24C17.7943 15.5518 18.6357 12.3838 18.6357 9.70524C18.6357 5.84542 17.4709 4.46362 13.9765 4.46362C10.4821 4.46362 9.31729 5.84542 9.31729 9.70524C9.31729 12.3838 10.1587 15.5518 11.6469 17.24M16.3061 17.24C15.6498 17.9846 14.8677 18.4413 13.9765 18.4413C13.0853 18.4413 12.3032 17.9846 11.6469 17.24M11.6469 25.4301V17.24M18.2638 6.79323C19.4286 5.62842 21.1758 5.046 22.923 5.62839C26.9073 6.95645 25.2526 13.1996 22.923 12.6172C20.5934 12.0348 22.3406 7.37563 25.2526 8.54044M9.68932 6.79323C8.52451 5.62842 6.77731 5.046 5.0301 5.62839C1.04585 6.95645 2.70049 13.1996 5.0301 12.6172C7.35971 12.0348 5.6125 7.37563 2.70049 8.54044" stroke="#0000AC" stroke-width="1.74721" stroke-linecap="round" stroke-linejoin="round"/>
</svg>
