<svg width="29" height="29" viewBox="0 0 29 29" fill="none" xmlns="http://www.w3.org/2000/svg">
<path d="M7.8158 4.46362C8.98064 7.95804 8.39824 10.87 5.4862 14.3645C5.05117 14.8865 4.72012 15.4475 4.47558 16.032C3.08321 19.36 4.4954 23.4485 5.48619 25.4301M21.7935 4.46362C20.6286 7.95804 21.2111 10.87 24.1231 14.3645C24.5444 14.8701 24.8683 15.4123 25.1104 15.977C26.5417 19.3148 25.1194 23.4376 24.1231 25.4301M14.8485 11.4524V10.87M14.8046 23.1005L14.8813 22.4867C15.1702 20.1756 17.1348 18.4413 19.4638 18.4413V18.4413M14.8046 23.1005V25.4301M14.8046 23.1005L14.7279 22.4866C14.439 20.1756 12.4744 18.4413 10.1454 18.4413V18.4413" stroke="#0000AC" stroke-width="1.74721" stroke-linecap="round" stroke-linejoin="round"/>
</svg>
