<svg width="36" height="36" viewBox="0 0 36 36" fill="none" xmlns="http://www.w3.org/2000/svg">
<path d="M13.4271 11.9861C13.4271 11.4338 12.9794 10.9861 12.4271 10.9861C11.8748 10.9861 11.4271 11.4338 11.4271 11.9861H13.4271ZM11.4271 17.8075C11.4271 18.3598 11.8748 18.8075 12.4271 18.8075C12.9794 18.8075 13.4271 18.3598 13.4271 17.8075H11.4271ZM15.3377 15.8968C15.89 15.8968 16.3377 15.4491 16.3377 14.8968C16.3377 14.3445 15.89 13.8968 15.3377 13.8968V15.8968ZM9.5164 13.8968C8.96412 13.8968 8.5164 14.3445 8.5164 14.8968C8.5164 15.4491 8.96412 15.8968 9.5164 15.8968V13.8968ZM5.15039 24.3565H6.15039H5.15039ZM5.15039 10.167H4.15039H5.15039ZM7.76999 7.62013L7.76999 8.62013L7.76999 7.62013ZM21.2088 7.62012V6.62012V7.62012ZM7.76999 26.9033L7.76999 27.9033H7.77L7.76999 26.9033ZM28.7268 26.9033L28.7268 25.9033H28.7268L28.7268 26.9033ZM22.9136 8.23325L23.5538 7.46503V7.46503L22.9136 8.23325ZM30.4317 14.4983L29.7915 15.2665L29.7915 15.2665L30.4317 14.4983ZM13.319 26.9033C13.319 27.7313 12.6206 28.4502 11.6994 28.4502V30.4502C13.6717 30.4502 15.319 28.8886 15.319 26.9033H13.319ZM11.6994 28.4502C10.7782 28.4502 10.0798 27.7313 10.0798 26.9033H8.0798C8.0798 28.8886 9.72709 30.4502 11.6994 30.4502V28.4502ZM10.0798 26.9033C10.0798 26.0754 10.7782 25.3565 11.6994 25.3565V23.3565C9.72709 23.3565 8.0798 24.9181 8.0798 26.9033H10.0798ZM11.6994 25.3565C12.6206 25.3565 13.319 26.0754 13.319 26.9033H15.319C15.319 24.9181 13.6717 23.3565 11.6994 23.3565V25.3565ZM26.417 26.9033C26.417 27.7313 25.7187 28.4502 24.7974 28.4502V30.4502C26.7697 30.4502 28.417 28.8886 28.417 26.9033H26.417ZM24.7974 28.4502C23.8762 28.4502 23.1778 27.7313 23.1778 26.9033H21.1778C21.1778 28.8886 22.8251 30.4502 24.7974 30.4502V28.4502ZM23.1778 26.9033C23.1778 26.0754 23.8762 25.3565 24.7974 25.3565V23.3565C22.8251 23.3565 21.1778 24.9181 21.1778 26.9033H23.1778ZM24.7974 25.3565C25.7187 25.3565 26.417 26.0754 26.417 26.9033H28.417C28.417 24.9181 26.7697 23.3565 24.7974 23.3565V25.3565ZM11.4271 11.9861V14.8968H13.4271V11.9861H11.4271ZM11.4271 14.8968V17.8075H13.4271V14.8968H11.4271ZM15.3377 13.8968H12.4271V15.8968H15.3377V13.8968ZM12.4271 13.8968H9.5164V15.8968H12.4271V13.8968ZM6.15039 24.3565V10.167H4.15039V24.3565H6.15039ZM7.76999 8.62013L21.2088 8.62012V6.62012L7.76999 6.62013L7.76999 8.62013ZM9.0798 25.9033L7.76999 25.9033L7.77 27.9033L9.0798 27.9033L9.0798 25.9033ZM28.7268 25.9033L27.417 25.9033L27.417 27.9033L28.7268 27.9033L28.7268 25.9033ZM30.3464 16.432V24.3565H32.3464V16.432H30.3464ZM22.2734 9.00147L29.7915 15.2665L31.0718 13.7301L23.5538 7.46503L22.2734 9.00147ZM32.3464 16.432C32.3464 15.3861 31.8761 14.4003 31.0718 13.7301L29.7915 15.2665C30.1485 15.564 30.3464 15.991 30.3464 16.432H32.3464ZM4.15039 24.3565C4.15039 26.3417 5.79768 27.9033 7.76999 27.9033L7.77 25.9033C6.84877 25.9033 6.15039 25.1844 6.15039 24.3565H4.15039ZM28.7268 27.9033C30.6992 27.9033 32.3464 26.3417 32.3464 24.3565H30.3464C30.3464 25.1844 29.6481 25.9033 28.7268 25.9033L28.7268 27.9033ZM21.2088 8.62012C21.6032 8.62012 21.9806 8.7575 22.2734 9.00147L23.5538 7.46503C22.897 6.91769 22.065 6.62012 21.2088 6.62012V8.62012ZM6.15039 10.167C6.15039 9.33904 6.84877 8.62013 7.76999 8.62013L7.76999 6.62013C5.79768 6.62013 4.15039 8.18173 4.15039 10.167H6.15039ZM22.1778 25.9033H14.319V27.9033H22.1778V25.9033Z" fill="#0000AC"/>
</svg>
