<svg width="35" height="36" viewBox="0 0 35 36" fill="none" xmlns="http://www.w3.org/2000/svg">
<path d="M12.6673 5.08008C12.6673 4.52779 12.2196 4.08008 11.6673 4.08008C11.115 4.08008 10.6673 4.52779 10.6673 5.08008H12.6673ZM10.6673 6.53545C10.6673 7.08773 11.115 7.53545 11.6673 7.53545C12.2196 7.53545 12.6673 7.08773 12.6673 6.53545H10.6673ZM5.82535 5.10064C5.43482 4.71012 4.80166 4.71012 4.41113 5.10064C4.02061 5.49116 4.02061 6.12433 4.41113 6.51485L5.82535 5.10064ZM5.74167 7.8454C6.1322 8.23592 6.76536 8.23592 7.15589 7.8454C7.54641 7.45487 7.54641 6.82171 7.15589 6.43118L5.74167 7.8454ZM4.39062 11.3568C3.83834 11.3568 3.39062 11.8046 3.39062 12.3568C3.39062 12.9091 3.83834 13.3568 4.39062 13.3568V11.3568ZM5.84596 13.3568C6.39825 13.3568 6.84596 12.9091 6.84596 12.3568C6.84596 11.8046 6.39825 11.3568 5.84596 11.3568V13.3568ZM21.3993 19.6334C21.3993 19.0812 20.9516 18.6334 20.3993 18.6334C19.847 18.6334 19.3993 19.0812 19.3993 19.6334H21.3993ZM19.3993 21.0887C19.3993 21.641 19.847 22.0887 20.3993 22.0887C20.9516 22.0887 21.3993 21.641 21.3993 21.0887H19.3993ZM10.6673 5.08008V6.53545H12.6673V5.08008H10.6673ZM4.41113 6.51485L5.74167 7.8454L7.15589 6.43118L5.82535 5.10064L4.41113 6.51485ZM4.39062 13.3568H5.84596V11.3568H4.39062V13.3568ZM19.3993 19.6334V21.0887H21.3993V19.6334H19.3993ZM24.7653 24.4548H10.212V26.4548H24.7653V24.4548ZM11.212 25.4548V18.1781H9.21197V25.4548H11.212ZM24.7653 30.2761H10.212V32.2761H24.7653V30.2761ZM10.212 30.2761C9.15674 30.2761 8.3013 29.4207 8.3013 28.3655H6.3013C6.3013 30.5253 8.05217 32.2761 10.212 32.2761V30.2761ZM26.676 28.3655C26.676 29.4207 25.8206 30.2761 24.7653 30.2761V32.2761C26.9251 32.2761 28.676 30.5253 28.676 28.3655H26.676ZM24.7653 26.4548C25.8206 26.4548 26.676 27.3102 26.676 28.3655H28.676C28.676 26.2057 26.9251 24.4548 24.7653 24.4548V26.4548ZM10.212 24.4548C8.05217 24.4548 6.3013 26.2057 6.3013 28.3655H8.3013C8.3013 27.3102 9.15673 26.4548 10.212 26.4548V24.4548ZM25.7653 25.4548V18.1781H23.7653V25.4548H25.7653ZM11.212 18.1781C11.212 14.7116 14.0221 11.9014 17.4887 11.9014V9.90142C12.9176 9.90142 9.21197 13.607 9.21197 18.1781H11.212ZM17.4887 11.9014C20.9552 11.9014 23.7653 14.7116 23.7653 18.1781H25.7653C25.7653 13.607 22.0597 9.90142 17.4887 9.90142V11.9014Z" fill="#0000AC"/>
</svg>
