<svg width="36" height="36" viewBox="0 0 36 36" fill="none" xmlns="http://www.w3.org/2000/svg">
<path d="M22.6319 30.9055H9.53958C7.93206 30.9055 6.62891 29.6024 6.62891 27.9949V7.62015C6.62891 6.01263 7.93206 4.70947 9.53958 4.70947H18.2716C19.8791 4.70947 21.1823 6.01263 21.1823 7.62015V13.5629M22.6319 30.9055C24.8685 30.907 27.1056 30.0544 28.8121 28.348C32.2222 24.9379 32.2222 19.4091 28.8121 15.999C27.3068 14.4937 25.3886 13.6529 23.4221 13.4766C22.6758 13.4096 21.9226 13.4384 21.1823 13.5629M22.6319 30.9055C20.3991 30.9041 18.1667 30.0515 16.4632 28.348C14.9635 26.8483 14.0862 24.86 13.9056 22.9012C13.6755 20.4059 14.5528 17.9094 16.4632 15.999C17.7967 14.6655 19.4542 13.8535 21.1823 13.5629M10.9876 10.5308H11.0022M10.9876 17.8075H11.0022M10.9876 25.0842H11.0022M16.809 10.5308H16.8235M13.9056 22.1735H31.3697" stroke="#0000AC" stroke-width="2" stroke-linecap="round" stroke-linejoin="round"/>
</svg>
