<svg width="36" height="36" viewBox="0 0 36 36" fill="none" xmlns="http://www.w3.org/2000/svg">
<path d="M14.0881 5.80778L13.2073 5.33425V5.33425L14.0881 5.80778ZM15.354 5.80779L16.2348 5.33425V5.33425L15.354 5.80779ZM27.4584 5.08008V4.08008H25.4584V5.08008H27.4584ZM25.4584 10.9014V11.9014H27.4584V10.9014H25.4584ZM29.3691 8.99075H30.3691V6.99075H29.3691V8.99075ZM23.5478 6.99075H22.5478V8.99075H23.5478V6.99075ZM20.9307 23.6501C20.9307 25.9771 20.2072 27.6087 19.1443 28.658C18.0756 29.7129 16.5657 30.2762 14.8157 30.2762V32.2762C16.9953 32.2762 19.0429 31.5684 20.5493 30.0813C22.0615 28.5886 22.9307 26.4072 22.9307 23.6501H20.9307ZM14.8157 30.2762C13.0636 30.2762 11.507 29.7112 10.3953 28.6472C9.29343 27.5927 8.53906 25.9623 8.53906 23.6501H6.53906C6.53906 26.422 7.45829 28.6047 9.01241 30.0921C10.5567 31.5701 12.6384 32.2762 14.8157 32.2762V30.2762ZM8.53906 23.6501C8.53906 22.7477 8.80791 21.4151 9.2859 19.8058C9.75718 18.2192 10.4069 16.4437 11.1143 14.6877C12.5304 11.173 14.1524 7.8 14.9689 6.28132L13.2073 5.33425C12.3523 6.92449 10.6998 10.3649 9.25923 13.9403C8.53837 15.7295 7.86419 17.5682 7.36869 19.2364C6.87991 20.882 6.53906 22.4448 6.53906 23.6501H8.53906ZM14.4733 6.28132C15.2904 7.80116 16.9194 11.1748 18.3423 14.6893C19.0532 16.4452 19.7062 18.2207 20.18 19.8072C20.6605 21.4165 20.9307 22.7486 20.9307 23.6501H22.9307C22.9307 22.444 22.5878 20.8805 22.0964 19.235C21.5982 17.5666 20.9204 15.7279 20.1961 13.9388C18.7485 10.3632 17.0892 6.92334 16.2348 5.33425L14.4733 6.28132ZM14.9689 6.28132C14.916 6.37971 14.843 6.43167 14.7985 6.45381C14.7575 6.47423 14.731 6.47553 14.7211 6.47553C14.7111 6.47553 14.6846 6.47423 14.6436 6.45381C14.5991 6.43167 14.5262 6.37971 14.4733 6.28132L16.2348 5.33425C15.8886 4.69022 15.2192 4.47554 14.7211 4.47553C14.223 4.47553 13.5536 4.69022 13.2073 5.33425L14.9689 6.28132ZM25.4584 5.08008V7.99075H27.4584V5.08008H25.4584ZM25.4584 7.99075V10.9014H27.4584V7.99075H25.4584ZM29.3691 6.99075H26.4584V8.99075H29.3691V6.99075ZM26.4584 6.99075H23.5478V8.99075H26.4584V6.99075Z" fill="#0000AC"/>
</svg>
