<svg width="35" height="36" viewBox="0 0 35 36" fill="none" xmlns="http://www.w3.org/2000/svg">
<path d="M13.8732 5.80784L12.9925 5.3343V5.3343L13.8732 5.80784ZM15.1392 5.80784L16.02 5.3343V5.3343L15.1392 5.80784ZM29.1543 8.9908H30.1543V6.9908H29.1543V8.9908ZM23.3329 6.9908H22.3329V8.9908H23.3329V6.9908ZM20.7159 23.6502C20.7159 25.9771 19.9924 27.6088 18.9294 28.6581C17.8608 29.713 16.3509 30.2762 14.6009 30.2762V32.2762C16.7804 32.2762 18.828 31.5685 20.3345 30.0814C21.8467 28.5886 22.7159 26.4073 22.7159 23.6502H20.7159ZM14.6009 30.2762C12.8487 30.2762 11.2921 29.7113 10.1804 28.6473C9.07858 27.5927 8.32422 25.9624 8.32422 23.6502H6.32422C6.32422 26.422 7.24345 28.6047 8.79756 30.0922C10.3418 31.5702 12.4236 32.2762 14.6009 32.2762V30.2762ZM8.32422 23.6502C8.32422 22.7478 8.59307 21.4151 9.07106 19.8059C9.54234 18.2192 10.192 16.4437 10.8995 14.6878C12.3156 11.1731 13.9375 7.80005 14.754 6.28137L12.9925 5.3343C12.1375 6.92454 10.4849 10.365 9.04438 13.9404C8.32353 15.7295 7.64935 17.5682 7.15385 19.2364C6.66506 20.882 6.32422 22.4449 6.32422 23.6502H8.32422ZM14.2584 6.28137C15.0755 7.80121 16.7046 11.1749 18.1274 14.6894C18.8383 16.4453 19.4914 18.2207 19.9651 19.8073C20.4457 21.4166 20.7159 22.7486 20.7159 23.6502H22.7159C22.7159 22.4441 22.3729 20.8806 21.8815 19.235C21.3833 17.5667 20.7056 15.7279 19.9813 13.9388C18.5336 10.3632 16.8743 6.92339 16.02 5.3343L14.2584 6.28137ZM14.754 6.28137C14.7011 6.37977 14.6281 6.43172 14.5837 6.45387C14.5427 6.47428 14.5162 6.47559 14.5062 6.47559C14.4962 6.47559 14.4698 6.47428 14.4288 6.45387C14.3843 6.43172 14.3113 6.37977 14.2584 6.28137L16.02 5.3343C15.6737 4.69027 15.0043 4.47559 14.5062 4.47559C14.0081 4.47559 13.3387 4.69027 12.9925 5.3343L14.754 6.28137ZM29.1543 6.9908H26.2436V8.9908H29.1543V6.9908ZM26.2436 6.9908H23.3329V8.9908H26.2436V6.9908Z" fill="#0000AC"/>
</svg>
