<svg width="36" height="36" viewBox="0 0 36 36" fill="none" xmlns="http://www.w3.org/2000/svg">
<path d="M27.6044 17.0327C28.5941 17.1161 29.6127 16.7791 30.37 16.0218C31.7344 14.6573 31.7344 12.4451 30.37 11.0807C29.5521 10.2627 28.3337 10.0309 27.489 9.97635C26.7401 9.97635 26.3254 9.53051 26.3254 8.8128C26.2709 7.96806 26.039 6.74972 25.2211 5.93178C23.8566 4.56734 21.6445 4.56734 20.28 5.93178C19.5227 6.68911 19.1857 7.70762 19.2691 8.69738C19.3826 10.045 19.5048 11.6481 18.5485 12.6044L12.8932 18.2597C11.9369 19.216 10.3338 19.0938 8.9862 18.9803C7.99644 18.8969 6.97793 19.2339 6.22059 19.9912C4.85616 21.3556 4.85616 23.5678 6.22059 24.9323C7.03854 25.7502 8.25687 25.9821 9.10162 26.0366C9.90152 26.0366 10.2652 26.5202 10.2652 27.2001C10.3197 28.0449 10.5516 29.2632 11.3695 30.0812C12.7339 31.4456 14.9461 31.4456 16.3106 30.0812C17.0679 29.3238 17.4049 28.3053 17.3215 27.3156C17.2079 25.9679 17.0858 24.3649 18.0421 23.4086L23.6974 17.7533C24.6537 16.797 26.2567 16.9191 27.6044 17.0327Z" stroke="#0000AC" stroke-width="2" stroke-linecap="round" stroke-linejoin="round"/>
</svg>
