<svg width="35" height="36" viewBox="0 0 35 36" fill="none" xmlns="http://www.w3.org/2000/svg">
<path d="M21.4453 31.1045L21.4453 30.2952C21.4453 27.8839 23.8893 25.908 24.9803 23.7576C25.253 23.2201 25.4067 22.6119 25.4067 21.9678C25.4067 20.6817 24.7937 19.5387 23.844 18.815M21.4453 4.90845L21.4453 8.79023C21.4453 10.3977 22.9086 11.6448 24.101 12.7229C24.9029 13.4478 25.4067 14.4962 25.4067 15.6622C25.4067 16.9484 24.7937 18.0914 23.844 18.815M23.844 18.815C23.1783 19.3224 22.347 19.6236 21.4453 19.6236C20.1338 19.6236 18.9712 18.8327 18.2502 18.1992C17.6505 17.6846 17.3848 17.7016 16.8186 18.1992C16.0976 18.8327 14.935 19.6236 13.6234 19.6236C12.7218 19.6236 11.8905 19.3224 11.2248 18.815M13.6235 31.1045L13.6235 30.2952C13.6235 27.8839 11.1795 25.908 10.0885 23.7576C9.81581 23.2201 9.66211 22.6119 9.66211 21.9678C9.66211 20.6817 10.275 19.5387 11.2248 18.815M13.6235 4.90845L13.6235 8.79023C13.6235 10.3977 12.1602 11.6448 10.9678 12.7229C10.1659 13.4478 9.66211 14.4962 9.66211 15.6622C9.66211 16.9484 10.275 18.0914 11.2248 18.815" stroke="#0000AC" stroke-width="2" stroke-linecap="round" stroke-linejoin="round"/>
</svg>
