<svg width="36" height="36" viewBox="0 0 36 36" fill="none" xmlns="http://www.w3.org/2000/svg">
<path d="M13.1547 4.99536L13.1547 7.61497M6.60573 6.30517L8.45804 8.15753M5.15039 12.9997L7.76999 12.9997M27.5575 17.1196C28.5473 17.203 29.5658 16.866 30.3231 16.1087C31.6876 14.7442 31.6876 12.532 30.3231 11.1676C29.5052 10.3497 28.2868 10.1178 27.4421 10.0633C26.6932 10.0633 26.2785 9.61743 26.2785 8.89972C26.224 8.05498 25.9921 6.83664 25.1742 6.01869C23.8098 4.65425 21.5976 4.65425 20.2331 6.01869C19.4758 6.77603 19.1388 7.79454 19.2222 8.7843C19.3358 10.1319 19.9926 11.0801 19.0363 12.0364L18.7977 12.2751C18.7559 12.3169 18.7086 12.3528 18.6572 12.3819L17.6727 12.9392C17.087 13.2707 17.3222 14.164 17.9952 14.164H22.7125L23.3421 18.1114C24.2984 17.1551 26.2099 17.0061 27.5575 17.1196ZM12.7389 18.1114L13.4304 19.9431C13.5319 20.2117 13.7965 20.383 14.0832 20.3654L18.3279 20.1052C18.7259 20.0808 19.0532 20.4149 19.0207 20.8124L18.8608 22.7639C18.8508 22.886 18.8068 23.0021 18.7349 23.0994C18.6888 23.1619 18.6213 23.2038 18.5509 23.2366L17.9952 23.4955C17.0389 24.4518 17.1611 26.0548 17.2746 27.4025C17.358 28.3922 17.021 29.4108 16.2637 30.1681C14.8993 31.5325 12.6871 31.5325 11.3226 30.1681C10.5047 29.3501 10.2728 28.1318 10.2183 27.2871C10.2183 26.6071 9.85465 26.1235 9.05474 26.1235C8.21 26.069 6.99166 25.8371 6.17372 25.0192C4.80928 23.6547 4.80928 21.4426 6.17372 20.0781C6.93105 19.3208 7.94957 18.9838 8.93933 19.0672C10.287 19.1807 11.7826 19.0677 12.7389 18.1114Z" stroke="#0000AC" stroke-width="2" stroke-linecap="round" stroke-linejoin="round"/>
</svg>
