<svg width="35" height="36" viewBox="0 0 35 36" fill="none" xmlns="http://www.w3.org/2000/svg">
<path d="M20.7917 20.9624L23.2866 23.4572M23.2866 23.4572L25.7814 25.9521M23.2866 23.4572L25.7814 20.9624M23.2866 23.4572L20.7917 25.9521M8.7332 29.2786H7.27786C5.67034 29.2786 4.36719 27.9754 4.36719 26.3679V14.7252M30.5632 10.3592V9.63152C30.5632 8.024 29.2601 6.72085 27.6526 6.72085H26.1972M4.36719 14.7252H8.7332M4.36719 14.7252V9.63152C4.36719 8.024 5.67034 6.72085 7.27786 6.72085H8.7332M26.1972 4.53784V6.72085M26.1972 6.72085H17.4652M17.4652 4.53784V6.72085M17.4652 6.72085H8.7332M8.7332 4.53784V6.72085M32.0186 23.4572C32.0186 28.2798 28.1091 32.1892 23.2866 32.1892C18.464 32.1892 14.5545 28.2798 14.5545 23.4572C14.5545 18.6347 18.464 14.7252 23.2866 14.7252C28.1091 14.7252 32.0186 18.6347 32.0186 23.4572Z" stroke="#0000AC" stroke-width="2" stroke-linecap="round" stroke-linejoin="round"/>
</svg>
