<svg width="36" height="36" viewBox="0 0 36 36" fill="none" xmlns="http://www.w3.org/2000/svg">
<path d="M25.6291 25.6402L24.8005 24.8117C24.3326 24.3438 24.0698 23.7092 24.0698 23.0475V20.5465M9.5164 29.2786H8.06106C6.45354 29.2786 5.15039 27.9754 5.15039 26.3679V14.7252M31.3464 10.3592V9.63152C31.3464 8.024 30.0433 6.72085 28.4358 6.72085H26.9804M5.15039 14.7252H9.5164M5.15039 14.7252V9.63152C5.15039 8.024 6.45354 6.72085 8.06106 6.72085H9.5164M26.9804 4.53784V6.72085M26.9804 6.72085H18.2484M18.2484 4.53784V6.72085M18.2484 6.72085H9.5164M9.5164 4.53784V6.72085M32.8018 23.4572C32.8018 28.2798 28.8923 32.1892 24.0698 32.1892C19.2472 32.1892 15.3377 28.2798 15.3377 23.4572C15.3377 18.6347 19.2472 14.7252 24.0698 14.7252C28.8923 14.7252 32.8018 18.6347 32.8018 23.4572Z" stroke="#0000AC" stroke-width="2" stroke-linecap="round" stroke-linejoin="round"/>
</svg>
