<svg width="35" height="36" viewBox="0 0 35 36" fill="none" xmlns="http://www.w3.org/2000/svg">
<path d="M8.80351 29.7361H7.34817C5.74065 29.7361 4.4375 28.4329 4.4375 26.8254V15.1827M30.6336 10.8167V10.089C30.6336 8.48152 29.3304 7.17837 27.7229 7.17837H26.2675M4.4375 15.1827H8.80351M4.4375 15.1827V10.089C4.4375 8.48152 5.74065 7.17837 7.34817 7.17837H8.80351M26.2675 4.99536V7.17837M26.2675 7.17837H17.5355M17.5355 4.99536V7.17837M17.5355 7.17837H8.80351M8.80351 4.99536V7.17837M19.6146 23.9798L22.1807 26.4096L27.0992 21.4199M32.0889 23.9147C32.0889 28.7373 28.1794 32.6468 23.3569 32.6468C18.5343 32.6468 14.6249 28.7373 14.6249 23.9147C14.6249 19.0922 18.5343 15.1827 23.3569 15.1827C28.1794 15.1827 32.0889 19.0922 32.0889 23.9147Z" stroke="#0000AC" stroke-width="2" stroke-linecap="round" stroke-linejoin="round"/>
</svg>
