<svg width="35" height="36" viewBox="0 0 35 36" fill="none" xmlns="http://www.w3.org/2000/svg">
<path d="M4.36549 4.70947V11.9862M4.36549 4.70947H2.91016M4.36549 4.70947H13.0975M4.36549 11.9862L4.36549 19.2628L8.7315 23.6288M4.36549 11.9862H13.0975M13.0975 4.70947L13.0975 19.2628L8.7315 23.6288M13.0975 4.70947H13.8252M8.7315 23.6288V30.9055M8.7315 23.6288V17.8268" stroke="#0000AC" stroke-width="2" stroke-linecap="round" stroke-linejoin="round"/>
<path d="M21.8303 4.70947V11.9862M21.8303 4.70947H20.375M21.8303 4.70947H30.5624M21.8303 11.9862L21.8303 19.2435L26.1963 23.6096M21.8303 11.9862H30.5624M30.5624 4.70947L30.5624 19.2435L26.1963 23.6096M30.5624 4.70947H32.0177M26.1963 23.6096V30.9055M26.1963 23.6096V17.8075" stroke="#0000AC" stroke-width="2" stroke-linecap="round" stroke-linejoin="round"/>
</svg>
