<svg width="36" height="36" viewBox="0 0 36 36" fill="none" xmlns="http://www.w3.org/2000/svg">
<path d="M10.9961 4.62256C10.9961 5.12604 10.9987 5.61093 11.0042 6.07789M25.5495 30.8186C25.5495 30.316 25.5465 29.831 25.5401 29.3633M14.3292 23.5419H11.4182M11.4182 23.5419C12.1568 19.1567 14.0296 17.7206 18.2773 17.7206C24.0456 17.7206 25.4262 15.7343 25.5413 6.07789M11.4182 23.5419C11.1054 25.3998 10.9961 27.787 10.9961 30.8186M11.0042 6.07789H25.5413M11.0042 6.07789C11.1186 15.7343 12.4914 17.7206 18.2683 17.7206C22.5223 17.7206 24.3926 19.1567 25.129 23.5419M25.129 23.5419H18.9955M25.129 23.5419C25.3892 25.0918 25.5079 27.0099 25.5401 29.3633M25.5413 6.07789C25.5469 5.61093 25.5495 5.12604 25.5495 4.62256M16.8174 29.3633H25.5401M11.3879 11.8992H16.8174" stroke="#0000AC" stroke-width="2" stroke-linecap="round"/>
</svg>
