<svg width="35" height="36" viewBox="0 0 35 36" fill="none" xmlns="http://www.w3.org/2000/svg">
<path d="M12.4982 4.70947V3.70947C11.9459 3.70947 11.4982 4.15719 11.4982 4.70947H12.4982ZM22.4776 4.70947H23.4776C23.4776 4.15719 23.0299 3.70947 22.4776 3.70947V4.70947ZM18.4879 22.1735V21.1735H16.4879V22.1735H18.4879ZM16.4879 26.5395V27.5395H18.4879V26.5395H16.4879ZM19.6709 25.3565H20.6709V23.3565H19.6709V25.3565ZM15.3049 23.3565H14.3049V25.3565H15.3049V23.3565ZM20.6465 16.6243L19.9946 15.866L20.6465 16.6243ZM25.2199 23.7016V28.2859H27.2199V23.7016H25.2199ZM23.725 29.9055H11.2507V31.9055H23.725V29.9055ZM9.75586 28.2859V23.7016H7.75586V28.2859H9.75586ZM11.2507 29.9055C10.4705 29.9055 9.75586 29.2269 9.75586 28.2859H7.75586C7.75586 30.2384 9.27515 31.9055 11.2507 31.9055V29.9055ZM25.2199 28.2859C25.2199 29.2269 24.5052 29.9055 23.725 29.9055V31.9055C25.7006 31.9055 27.2199 30.2384 27.2199 28.2859H25.2199ZM12.4982 5.70947H22.4776V3.70947H12.4982V5.70947ZM21.4776 4.70947V9.94868H23.4776V4.70947H21.4776ZM22.4776 8.94868H12.4982V10.9487H22.4776V8.94868ZM13.4982 9.94868V4.70947H11.4982V9.94868H13.4982ZM16.4879 22.1735V24.3565H18.4879V22.1735H16.4879ZM16.4879 24.3565V26.5395H18.4879V24.3565H16.4879ZM19.6709 23.3565H17.4879V25.3565H19.6709V23.3565ZM17.4879 23.3565H15.3049V25.3565H17.4879V23.3565ZM17.4879 16.8075C16.5425 16.8075 15.6708 16.4589 14.9811 15.866L13.6774 17.3827C14.7082 18.2688 16.0363 18.8075 17.4879 18.8075V16.8075ZM14.9811 15.866C14.0824 15.0934 13.4982 13.9093 13.4982 12.5683H11.4982C11.4982 14.4975 12.3407 16.2336 13.6774 17.3827L14.9811 15.866ZM14.1338 15.6436C10.4685 16.3743 7.75586 19.7328 7.75586 23.7016H9.75586C9.75586 20.6373 11.8425 18.1397 14.5248 17.605L14.1338 15.6436ZM21.4776 12.5683C21.4776 13.9093 20.8934 15.0934 19.9946 15.866L21.2984 17.3827C22.6351 16.2336 23.4776 14.4975 23.4776 12.5683H21.4776ZM19.9946 15.866C19.3049 16.4589 18.4333 16.8075 17.4879 16.8075V18.8075C18.9395 18.8075 20.2675 18.2688 21.2984 17.3827L19.9946 15.866ZM20.451 17.605C23.1333 18.1397 25.2199 20.6373 25.2199 23.7016H27.2199C27.2199 19.7328 24.5072 16.3743 20.842 15.6436L20.451 17.605ZM13.4982 12.5683V9.94868H11.4982V12.5683H13.4982ZM21.4776 9.94868V12.5683H23.4776V9.94868H21.4776Z" fill="#0000AC"/>
</svg>
