<svg width="35" height="36" viewBox="0 0 35 36" fill="none" xmlns="http://www.w3.org/2000/svg">
<path d="M8.7332 11.5423H4.36719M8.7332 16.7121H4.36719M9.60637 23.8206V25.7593C9.60637 28.6145 11.952 30.9291 14.8456 30.9291C17.7391 30.9291 20.0848 28.6145 20.0848 25.7593L20.0848 18.0046C20.0848 15.8632 21.8441 14.1272 24.0143 14.1272C26.1844 14.1273 27.9436 15.8632 27.9436 18.0046V18.6509M30.1861 27.1133L28.0587 23.2539C28.0091 23.164 27.8782 23.164 27.8286 23.2539L25.7012 27.1133C25.4618 27.5273 25.324 28.013 25.324 28.5324C25.324 30.0477 26.4969 31.2761 27.9436 31.2761C29.3904 31.2761 30.5632 30.0477 30.5632 28.5324C30.5632 28.013 30.4255 27.5273 30.1861 27.1133ZM12.0291 6.37253H12.226C13.6728 6.37253 14.8456 7.52983 14.8456 8.95743V19.297C14.8456 20.7246 13.6728 21.8819 12.226 21.8819H12.1914C12.0059 22.9105 11.095 23.6914 9.99934 23.6914H9.21346C8.11778 23.6914 7.20694 22.9105 7.02135 21.8819H6.98679C5.54002 21.8819 4.36719 20.7246 4.36719 19.297V8.95743C4.36719 7.52983 5.54002 6.37253 6.98679 6.37253H7.18372C7.53317 5.61036 8.31056 5.08008 9.21346 5.08008H9.99934C10.9022 5.08008 11.6796 5.61036 12.0291 6.37253Z" stroke="#0000AC" stroke-width="2" stroke-linecap="round" stroke-linejoin="round"/>
</svg>
