<svg width="36" height="36" viewBox="0 0 36 36" fill="none" xmlns="http://www.w3.org/2000/svg">
<path d="M26.3574 4.62256V7.53323M26.3574 7.53323V10.4439M26.3574 7.53323H29.2681M26.3574 7.53323H23.4467M20.0685 20.0323C21.2604 18.8382 23.1929 18.8382 24.3848 20.0323L28.3741 24.0291C29.566 25.2233 29.566 27.1593 28.3741 28.3535L28.0334 28.6655C24.9903 31.5787 20.1644 31.5352 17.1727 28.5379L6.80324 18.1492C3.79155 15.1319 3.76873 10.2533 6.7357 7.20834L6.99943 6.97349C8.19134 5.77936 10.1238 5.77936 11.3157 6.97349L15.3051 10.9703C16.497 12.1644 16.497 14.1005 15.3051 15.2946L14.9443 15.656C14.6608 15.94 14.6608 16.4 14.9443 16.6841L18.6624 20.4091C18.9467 20.6939 19.4082 20.6939 19.6925 20.4091L20.0685 20.0323Z" stroke="#0000AC" stroke-width="2" stroke-miterlimit="2.20439" stroke-linecap="square"/>
</svg>
