<svg width="35" height="36" viewBox="0 0 35 36" fill="none" xmlns="http://www.w3.org/2000/svg">
<path d="M25.5682 25.6403C23.0022 27.3574 20.6591 28.0696 17.9703 28.0696H17.007C11.0851 28.0696 5.92322 24.119 4.48696 18.4876C4.35851 17.984 4.35851 17.4571 4.48696 16.9535C5.17541 14.2542 6.71989 11.941 8.79376 10.2641C9.31771 9.89814 9.57026 9.95878 9.57026 9.95878M25.5682 25.6403L29.3662 29.3633M25.5682 25.6403L21.0458 21.2073M14.8119 7.55492C15.5276 7.43416 16.2613 7.37151 17.007 7.37151H17.9703C23.8922 7.37151 29.0541 11.3221 30.4904 16.9535C30.6188 17.4571 30.6188 17.984 30.4904 18.4876C30.2738 19.3366 29.9726 20.1473 29.5969 20.9121M18.7306 13.0564C20.4284 13.4896 21.7692 14.79 22.2313 16.4462M5.61106 6.07788L9.57026 9.95878M14.0301 14.3304C13.0936 15.2118 12.6795 16.3525 12.6795 17.7256C12.6795 20.4005 14.8917 22.569 17.6206 22.569C18.9502 22.569 20.1576 22.0446 21.0458 21.2073M14.0301 14.3304L21.0458 21.2073M14.0301 14.3304L9.57026 9.95878" stroke="#0000AC" stroke-width="2" stroke-linecap="round"/>
</svg>
