<svg width="36" height="36" viewBox="0 0 36 36" fill="none" xmlns="http://www.w3.org/2000/svg">
<path d="M18.1851 7.5332H17.2218C11.3 7.5332 6.13806 11.4221 4.7018 16.9655C4.57336 17.4612 4.57336 17.9799 4.7018 18.4756C6.13806 24.019 11.3 27.9079 17.2218 27.9079H18.1851C24.107 27.9079 29.2689 24.019 30.7052 18.4756C30.8336 17.9799 30.8336 17.4613 30.7052 16.9655C29.2689 11.4221 24.107 7.5332 18.1851 7.5332Z" stroke="#0000AC" stroke-width="2" stroke-linejoin="round"/>
<path d="M17.7035 22.2249C20.2817 22.2249 22.3717 20.2083 22.3717 17.7206C22.3717 15.2329 20.2817 13.2162 17.7035 13.2162C15.1253 13.2162 13.0353 15.2329 13.0353 17.7206C13.0353 20.2083 15.1253 22.2249 17.7035 22.2249Z" stroke="#0000AC" stroke-width="2" stroke-linejoin="round"/>
</svg>
