<svg width="35" height="36" viewBox="0 0 35 36" fill="none" xmlns="http://www.w3.org/2000/svg">
<path d="M4.4375 25.2036H3.4375H4.4375ZM4.4375 12.9788H5.4375H4.4375ZM24.0846 8.61277L25.0846 8.61281V8.61277H24.0846ZM23.0845 10.3591C23.0845 10.9114 23.5322 11.3592 24.0845 11.3592C24.6368 11.3592 25.0845 10.9115 25.0845 10.3592L23.0845 10.3591ZM9.98651 10.3591C9.98649 10.9114 10.4342 11.3592 10.9865 11.3592C11.5388 11.3592 11.9865 10.9115 11.9865 10.3592L9.98651 10.3591ZM10.9866 8.61277L11.9866 8.61281V8.61277H10.9866ZM18.5355 16.1805V15.1805H16.5355V16.1805H18.5355ZM16.5355 22.0019V23.0019H18.5355V22.0019H16.5355ZM20.4462 20.0912H21.4462V18.0912H20.4462V20.0912ZM14.6249 18.0912H13.6249V20.0912H14.6249V18.0912ZM29.6336 12.9788V25.2036H31.6336V12.9788H29.6336ZM28.0139 26.8232H7.05711V28.8232H28.0139V26.8232ZM5.4375 25.2036L5.4375 12.9788L3.4375 12.9788L3.4375 25.2036H5.4375ZM7.05711 11.3592H28.0139V9.35917H7.05711V11.3592ZM7.05711 26.8232C6.16262 26.8232 5.4375 26.0981 5.4375 25.2036H3.4375C3.4375 27.2027 5.05806 28.8232 7.05711 28.8232V26.8232ZM29.6336 25.2036C29.6336 26.0981 28.9084 26.8232 28.0139 26.8232V28.8232C30.013 28.8232 31.6336 27.2027 31.6336 25.2036H29.6336ZM31.6336 12.9788C31.6336 10.9797 30.013 9.35917 28.0139 9.35917V11.3592C28.9084 11.3592 29.6336 12.0843 29.6336 12.9788H31.6336ZM5.4375 12.9788C5.4375 12.0843 6.16262 11.3592 7.05711 11.3592V9.35917C5.05805 9.35917 3.4375 10.9797 3.4375 12.9788H5.4375ZM23.0846 8.61273L23.0845 10.3591L25.0845 10.3592L25.0846 8.61281L23.0846 8.61273ZM11.9865 10.3592L11.9866 8.61281L9.98658 8.61273L9.98651 10.3591L11.9865 10.3592ZM13.6062 6.99316H21.465V4.99316H13.6062V6.99316ZM25.0846 8.61277C25.0846 6.61372 23.4641 4.99316 21.465 4.99316V6.99316C22.3595 6.99316 23.0846 7.71829 23.0846 8.61277H25.0846ZM11.9866 8.61277C11.9866 7.71829 12.7117 6.99316 13.6062 6.99316V4.99316C11.6071 4.99316 9.98658 6.61372 9.98658 8.61277H11.9866ZM16.5355 16.1805V19.0912H18.5355V16.1805H16.5355ZM16.5355 19.0912V22.0019H18.5355V19.0912H16.5355ZM20.4462 18.0912H17.5355V20.0912H20.4462V18.0912ZM17.5355 18.0912H14.6249V20.0912H17.5355V18.0912Z" fill="#0000AC"/>
</svg>
