<svg width="36" height="35" viewBox="0 0 36 35" fill="none" xmlns="http://www.w3.org/2000/svg">
<path d="M16.84 4.36597C15.2324 4.36597 13.9293 5.66912 13.9293 7.27664V13.098H8.10794C6.50042 13.098 5.19727 14.4011 5.19727 16.0087V18.9193C5.19727 20.5269 6.50042 21.83 8.10794 21.83H13.9293V27.6514C13.9293 29.2589 15.2324 30.562 16.84 30.562H19.7506C21.3582 30.562 22.6613 29.2589 22.6613 27.6514V21.83H28.4826C30.0902 21.83 31.3933 20.5269 31.3933 18.9193V16.0087C31.3933 14.4011 30.0902 13.098 28.4826 13.098H22.6613V7.27664C22.6613 5.66912 21.3582 4.36597 19.7506 4.36597H16.84Z" stroke="#0000AC" stroke-width="2" stroke-linecap="round" stroke-linejoin="round"/>
</svg>
