<svg width="36" height="36" viewBox="0 0 36 36" fill="none" xmlns="http://www.w3.org/2000/svg">
<path d="M29.938 25.0654L29.4373 24.1998L29.938 25.0654ZM28.938 29.8208C28.938 30.3731 29.3857 30.8208 29.938 30.8208C30.4903 30.8208 30.938 30.3731 30.938 29.8208H28.938ZM5.6526 29.8208C5.6526 30.3731 6.10032 30.8208 6.6526 30.8208C7.20489 30.8208 7.6526 30.3731 7.6526 29.8208H5.6526ZM30.938 12.3567C30.938 11.8045 30.4903 11.3567 29.938 11.3567C29.3857 11.3567 28.938 11.8045 28.938 12.3567H30.938ZM29.938 18.5675L29.4373 19.4331L29.938 18.5675ZM6.6526 18.5675L7.15333 19.4331L6.6526 18.5675ZM7.6526 12.3567C7.6526 11.8045 7.20489 11.3567 6.6526 11.3567C6.10032 11.3567 5.6526 11.8045 5.6526 12.3567H7.6526ZM19.2953 6.5354V5.5354H17.2953V6.5354H19.2953ZM17.2953 12.3567V13.3567H19.2953V12.3567H17.2953ZM21.206 10.4461H22.206V8.44607H21.206V10.4461ZM15.3846 8.44607H14.3846V10.4461H15.3846V8.44607ZM28.938 25.0654V29.8208H30.938V25.0654H28.938ZM7.6526 29.8208L7.6526 25.0654H5.6526L5.6526 29.8208H7.6526ZM28.938 12.3567V18.5675H30.938V12.3567H28.938ZM7.6526 18.5675L7.6526 12.3567H5.6526L5.6526 18.5675H7.6526ZM8.10794 19.1781H28.4826V17.1781H8.10794V19.1781ZM30.3933 21.0888V22.5441H32.3933V21.0888H30.3933ZM28.4826 24.4548H8.10794V26.4548H28.4826V24.4548ZM6.19727 22.5441V21.0888H4.19727V22.5441H6.19727ZM17.2953 6.5354V9.44607H19.2953V6.5354H17.2953ZM17.2953 9.44607V12.3567H19.2953V9.44607H17.2953ZM21.206 8.44607H18.2953V10.4461H21.206V8.44607ZM18.2953 8.44607H15.3846V10.4461H18.2953V8.44607ZM30.3933 22.5441C30.3933 23.2501 30.011 23.8679 29.4373 24.1998L30.4387 25.931C31.605 25.2563 32.3933 23.9929 32.3933 22.5441H30.3933ZM29.4373 24.1998C29.1572 24.3618 28.8323 24.4548 28.4826 24.4548V26.4548C29.1933 26.4548 29.8625 26.2643 30.4387 25.931L29.4373 24.1998ZM8.10794 24.4548C7.75826 24.4548 7.43334 24.3618 7.15333 24.1998L6.15187 25.931C6.7281 26.2643 7.3973 26.4548 8.10794 26.4548V24.4548ZM7.15333 24.1998C6.57962 23.8679 6.19727 23.2501 6.19727 22.5441H4.19727C4.19727 23.9929 4.98558 25.2563 6.15187 25.931L7.15333 24.1998ZM8.10794 17.1781C7.3973 17.1781 6.7281 17.3686 6.15187 17.7019L7.15333 19.4331C7.43334 19.2711 7.75826 19.1781 8.10794 19.1781V17.1781ZM6.15187 17.7019C4.98558 18.3765 4.19727 19.64 4.19727 21.0888H6.19727C6.19727 20.3828 6.57962 19.765 7.15333 19.4331L6.15187 17.7019ZM28.4826 19.1781C28.8323 19.1781 29.1572 19.2711 29.4373 19.4331L30.4387 17.7019C29.8625 17.3686 29.1933 17.1781 28.4826 17.1781V19.1781ZM29.4373 19.4331C30.011 19.765 30.3933 20.3828 30.3933 21.0888H32.3933C32.3933 19.64 31.605 18.3765 30.4387 17.7019L29.4373 19.4331Z" fill="#0000AC"/>
</svg>
