<svg width="36" height="36" viewBox="0 0 36 36" fill="none" xmlns="http://www.w3.org/2000/svg">
<path d="M21.1825 18.2053C18.8011 16.9738 17.7426 16.9738 15.3612 18.2053M9.93675 13.2795L8.62031 12.5988C7.03687 11.78 5.17383 12.9708 5.17383 14.8017L5.17383 17.1851C5.17383 17.8383 5.42177 18.4627 5.87649 18.9161C7.53381 20.5683 10.6975 21.8996 10.6975 21.8996M9.93675 13.2795C13.5089 13.2795 13.5089 10.8167 18.2719 10.8167C23.0348 10.8167 23.0348 13.2795 26.607 13.2795M9.93675 13.2795C9.93675 13.2795 9.65584 15.8941 9.86584 18.5292C9.96156 19.7303 10.6975 21.8996 10.6975 21.8996M10.6975 21.8996C12.0627 24.6434 14.96 26.0977 18.2719 26.0977C21.5837 26.0977 24.481 24.6434 25.8462 21.8996M26.607 13.2795L27.9234 12.5988C29.5068 11.78 31.3699 12.9708 31.3699 14.8017V17.1851C31.3699 17.8383 31.1219 18.4627 30.6672 18.9161C29.0099 20.5683 25.8462 21.8996 25.8462 21.8996M26.607 13.2795C26.607 13.2795 26.8879 15.8941 26.6779 18.5292C26.5822 19.7303 25.8462 21.8996 25.8462 21.8996" stroke="#0000AC" stroke-width="2" stroke-linecap="round" stroke-linejoin="round"/>
</svg>
