<svg width="35" height="36" viewBox="0 0 35 36" fill="none" xmlns="http://www.w3.org/2000/svg">
<path d="M5.86914 11.272H4.86914V13.272H5.86914V11.272ZM8.77981 13.272H9.77981V11.272H8.77981V13.272ZM5.86914 17.0934H4.86914V19.0934H5.86914V17.0934ZM8.77981 19.0934H9.77981V17.0934H8.77981V19.0934ZM5.86914 22.9147H4.86914V24.9147H5.86914V22.9147ZM8.77981 24.9147H9.77981V22.9147H8.77981V24.9147ZM18.5118 15.1827V14.1827H16.5118V15.1827H18.5118ZM16.5118 21.0041V22.0041H18.5118V21.0041H16.5118ZM20.4225 19.0934H21.4225V17.0934H20.4225V19.0934ZM14.6012 17.0934H13.6012V19.0934H14.6012V17.0934ZM10.2352 5.99536H24.7885V3.99536H10.2352V5.99536ZM26.6992 7.90603V28.2807H28.6992V7.90603H26.6992ZM24.7885 30.1914H10.2352V32.1914H24.7885V30.1914ZM8.32448 28.2807V23.9147H6.32448V28.2807H8.32448ZM8.32448 23.9147V18.0934H6.32448V23.9147H8.32448ZM8.32448 18.0934V12.272H6.32448V18.0934H8.32448ZM8.32448 12.272V7.90603H6.32448V12.272H8.32448ZM10.2352 30.1914C9.17992 30.1914 8.32448 29.336 8.32448 28.2807H6.32448C6.32448 30.4405 8.07535 32.1914 10.2352 32.1914V30.1914ZM26.6992 28.2807C26.6992 29.336 25.8438 30.1914 24.7885 30.1914V32.1914C26.9483 32.1914 28.6992 30.4405 28.6992 28.2807H26.6992ZM24.7885 5.99536C25.8438 5.99536 26.6992 6.8508 26.6992 7.90603H28.6992C28.6992 5.74623 26.9483 3.99536 24.7885 3.99536V5.99536ZM10.2352 3.99536C8.07535 3.99536 6.32448 5.74623 6.32448 7.90603H8.32448C8.32448 6.8508 9.17992 5.99536 10.2352 5.99536V3.99536ZM5.86914 13.272H7.32448V11.272H5.86914V13.272ZM7.32448 13.272H8.77981V11.272H7.32448V13.272ZM5.86914 19.0934H7.32448V17.0934H5.86914V19.0934ZM7.32448 19.0934H8.77981V17.0934H7.32448V19.0934ZM5.86914 24.9147H7.32448V22.9147H5.86914V24.9147ZM7.32448 24.9147H8.77981V22.9147H7.32448V24.9147ZM16.5118 15.1827V18.0934H18.5118V15.1827H16.5118ZM16.5118 18.0934V21.0041H18.5118V18.0934H16.5118ZM20.4225 17.0934H17.5118V19.0934H20.4225V17.0934ZM17.5118 17.0934H14.6012V19.0934H17.5118V17.0934Z" fill="#0000AC"/>
</svg>
