<svg width="36" height="35" viewBox="0 0 36 35" fill="none" xmlns="http://www.w3.org/2000/svg">
<path d="M13.8838 18.9194H15.0158L16.6328 16.7363L19.7052 21.83L21.6456 18.9194H22.6159M12.4285 7.27663H10.9732C9.36565 7.27663 8.0625 8.57978 8.0625 10.1873V27.6513C8.0625 29.2588 9.36565 30.562 10.9732 30.562H25.5265C27.1341 30.562 28.4372 29.2588 28.4372 27.6513V10.1873C28.4372 8.57979 27.1341 7.27663 25.5265 7.27663H24.0712M12.4285 7.27663C12.4285 8.88415 13.7317 10.1873 15.3392 10.1873H21.1605C22.7681 10.1873 24.0712 8.88415 24.0712 7.27663M12.4285 7.27663C12.4285 5.66911 13.7317 4.36597 15.3392 4.36597H21.1605C22.7681 4.36597 24.0712 5.66911 24.0712 7.27663" stroke="#0000AC" stroke-width="2" stroke-linecap="round" stroke-linejoin="round"/>
</svg>
