<svg width="35" height="36" viewBox="0 0 35 36" fill="none" xmlns="http://www.w3.org/2000/svg">
<path d="M5.89258 25.0369C5.34029 25.0369 4.89258 25.4846 4.89258 26.0369C4.89258 26.5892 5.34029 27.0369 5.89258 27.0369V25.0369ZM15.5235 27.0369C16.0758 27.0369 16.5235 26.5892 16.5235 26.0369C16.5235 25.4846 16.0758 25.0369 15.5235 25.0369V27.0369ZM7.1767 30.2761C6.62441 30.2761 6.1767 30.7238 6.1767 31.2761C6.1767 31.8284 6.62441 32.2761 7.1767 32.2761V30.2761ZM27.7226 32.2761C28.2749 32.2761 28.7226 31.8284 28.7226 31.2761C28.7226 30.7238 28.2749 30.2761 27.7226 30.2761V32.2761ZM18.2932 7.69968L19.0072 6.99961C18.8192 6.80778 18.5618 6.69968 18.2932 6.69968C18.0245 6.69968 17.7672 6.80778 17.5791 6.99961L18.2932 7.69968ZM21.9252 11.4044L22.6393 12.1044C23.0205 11.7156 23.0205 11.0932 22.6393 10.7043L21.9252 11.4044ZM13.9502 19.5389L13.2361 20.2389C13.4242 20.4308 13.6815 20.5389 13.9502 20.5389C14.2188 20.5389 14.4762 20.4308 14.6643 20.2389L13.9502 19.5389ZM10.3182 15.8342L9.60408 15.1341C9.22285 15.523 9.22285 16.1454 9.60408 16.5342L10.3182 15.8342ZM20.1092 9.55202L19.3951 10.2521L20.1092 9.55202ZM22.0655 4.38259C21.6803 3.98682 21.0472 3.97827 20.6514 4.36348C20.2557 4.74869 20.2471 5.3818 20.6323 5.77757L22.0655 4.38259ZM23.7843 9.01591C24.1695 9.41167 24.8026 9.42022 25.1984 9.03501C25.5942 8.6498 25.6027 8.01669 25.2175 7.62093L23.7843 9.01591ZM14.6643 18.8388L11.0322 15.1341L9.60408 16.5342L13.2361 20.2389L14.6643 18.8388ZM11.0322 16.5342L19.0072 8.39976L17.5791 6.99961L9.60408 15.1341L11.0322 16.5342ZM26.7226 21.9832C26.7226 26.5578 22.991 30.2761 18.3756 30.2761V32.2761C24.0846 32.2761 28.7226 27.6733 28.7226 21.9832H26.7226ZM20.1921 13.9124C23.8942 14.7818 26.7226 18.0849 26.7226 21.9832H28.7226C28.7226 17.0929 25.1919 13.0322 20.6494 11.9654L20.1921 13.9124ZM22.2132 5.99677L19.3975 8.84955L20.8209 10.2545L23.6366 7.40172L22.2132 5.99677ZM20.6323 5.77757L22.2083 7.39673L23.6415 6.00176L22.0655 4.38259L20.6323 5.77757ZM22.2083 7.39674L23.7843 9.01591L25.2175 7.62093L23.6415 6.00176L22.2083 7.39674ZM18.3756 30.2761C15.0694 30.2761 12.2132 28.367 10.861 25.5981L9.06382 26.4757C10.7407 29.9094 14.2809 32.2761 18.3756 32.2761V30.2761ZM5.89258 27.0369H9.96239V25.0369H5.89258V27.0369ZM9.96239 27.0369H15.5235V25.0369H9.96239V27.0369ZM7.1767 32.2761H18.3756V30.2761H7.1767V32.2761ZM18.3756 32.2761H27.7226V30.2761H18.3756V32.2761ZM21.2111 10.7043L19.7067 12.2388L21.1348 13.639L22.6393 12.1044L21.2111 10.7043ZM19.7067 12.2388L13.2361 18.8388L14.6643 20.2389L21.1348 13.639L19.7067 12.2388ZM17.5791 8.39976L19.3951 10.2521L20.8232 8.85195L19.0072 6.99961L17.5791 8.39976ZM19.3951 10.2521L21.2111 12.1044L22.6393 10.7043L20.8232 8.85195L19.3951 10.2521Z" fill="#0000AC"/>
</svg>
