<svg width="36" height="36" viewBox="0 0 36 36" fill="none" xmlns="http://www.w3.org/2000/svg">
<path d="M25.1169 30.8186V29.3633C25.1169 27.7557 23.8137 26.4526 22.2062 26.4526M10.5635 30.8186V29.3633C10.5635 27.7557 11.8667 26.4526 13.4742 26.4526M13.4742 26.4526H22.2062M13.4742 26.4526H7.65286C6.04534 26.4526 4.74219 25.1494 4.74219 23.5419V8.98855C4.74219 7.38103 6.04534 6.07788 7.65286 6.07788H28.0276C29.6351 6.07788 30.9382 7.38103 30.9382 8.98855V23.5419C30.9382 25.1494 29.6351 26.4526 28.0276 26.4526H22.2062M10.5635 16.2652H14.6061L16.2232 11.8992L19.2956 20.6312L21.236 16.2652H25.1169" stroke="#0000AC" stroke-width="2" stroke-linecap="round" stroke-linejoin="round"/>
</svg>
