<svg width="35" height="36" viewBox="0 0 35 36" fill="none" xmlns="http://www.w3.org/2000/svg">
<path d="M17.4642 11.8992H18.9195M17.4642 11.8992C13.4454 11.8992 10.1875 15.1571 10.1875 19.1759L10.1875 28.2314C10.1875 29.6603 11.6768 30.8186 13.514 30.8186L22.8697 30.8186C24.7069 30.8186 26.1962 29.6603 26.1962 28.2314V19.1759C26.1962 15.1571 22.9383 11.8992 18.9195 11.8992M17.4642 11.8992H12.3705C11.9686 11.8992 11.6428 11.5735 11.6428 11.1716V7.53323C11.6428 5.92571 12.946 4.62256 14.5535 4.62256H21.8302C23.4377 4.62256 24.7409 5.92571 24.7409 7.53323V11.1716C24.7409 11.5735 24.4151 11.8992 24.0132 11.8992H18.9195M18.1919 19.9036V22.0866M18.1919 22.0866V24.2696M18.1919 22.0866H20.3749M18.1919 22.0866H16.0088" stroke="#0000AC" stroke-width="2" stroke-miterlimit="2.20439" stroke-linecap="square"/>
</svg>
