<svg width="35" height="36" viewBox="0 0 35 36" fill="none" xmlns="http://www.w3.org/2000/svg">
<path d="M13.0534 25.7756C13.4996 26.3689 13.9096 27.2361 13.9096 28.0353L13.9096 29.2746M13.9096 29.2746C10.9804 29.8828 7.80636 29.0292 7.33823 25.7756C6.86363 22.477 9.19436 20.5146 10.4022 19.7337C10.8356 19.4535 11.2299 19.1041 11.4153 18.6291C11.6447 18.0416 11.9456 17.0873 12.1457 15.7552C12.4905 13.4602 13.203 7.9409 13.2715 7.4095C13.2754 7.37931 13.2792 7.35302 13.2847 7.32307C13.5314 5.97695 14.7064 4.99536 16.0806 4.99536H18.8449C20.2191 4.99536 21.3941 5.97695 21.6408 7.32307C21.6463 7.35302 21.6501 7.37931 21.654 7.4095C21.7225 7.9409 22.435 13.4602 22.7798 15.7552C22.9799 17.0873 23.2808 18.0416 23.5102 18.6291C23.6956 19.1041 24.0899 19.4535 24.5233 19.7337C25.7311 20.5146 28.0619 22.477 27.5873 25.7756C27.1191 29.0292 23.9451 29.8828 21.0159 29.2746M13.9096 29.2746C14.4539 30.2849 14.9584 31.1914 17.4627 31.1914C19.967 31.1914 20.4716 30.2849 21.0159 29.2746M21.8721 25.7756C21.4259 26.3689 21.0159 27.2361 21.0159 28.0353L21.0159 29.2746" stroke="#0000AC" stroke-width="2" stroke-linecap="round" stroke-linejoin="round"/>
</svg>
