<svg width="35" height="36" viewBox="0 0 35 36" fill="none" xmlns="http://www.w3.org/2000/svg">
<path d="M27.3122 24.9705L26.541 24.3339C26.5294 24.3479 26.5182 24.3622 26.5075 24.3768L27.3122 24.9705ZM18.4887 15.1827V14.1827H16.4887V15.1827H18.4887ZM16.4887 21.004V22.004H18.4887V21.004H16.4887ZM20.3993 19.0933H21.3993V17.0933H20.3993V19.0933ZM14.578 17.0933H13.578V19.0933H14.578V17.0933ZM7.66513 24.9705L8.46986 24.3768C8.45906 24.3622 8.44787 24.3479 8.4363 24.3339L7.66513 24.9705ZM17.4887 10.3613C20.3149 10.3613 23.4636 10.8105 25.8687 11.7148C27.0729 12.1676 28.03 12.712 28.671 13.3192C29.2976 13.9128 29.5867 14.5269 29.5867 15.1827H31.5867C31.5867 13.8476 30.9662 12.7386 30.0465 11.8673C29.1412 11.0097 27.9153 10.3477 26.5726 9.8428C23.884 8.8319 20.4838 8.36133 17.4887 8.36133V10.3613ZM26.5075 24.3768C26.5195 24.3606 26.4846 24.411 26.3251 24.5033C26.1755 24.5899 25.9632 24.6864 25.6823 24.7865C25.1205 24.9868 24.3684 25.1722 23.4822 25.3294C21.7139 25.6431 19.5216 25.8254 17.4887 25.8254V27.8254C19.6247 27.8254 21.9348 27.6351 23.8314 27.2987C24.7776 27.1309 25.6485 26.9219 26.354 26.6704C26.7067 26.5446 27.0391 26.4009 27.3269 26.2343C27.6049 26.0734 27.9002 25.8578 28.1169 25.5641L26.5075 24.3768ZM16.4887 15.1827V18.0933H18.4887V15.1827H16.4887ZM16.4887 18.0933V21.004H18.4887V18.0933H16.4887ZM20.3993 17.0933H17.4887V19.0933H20.3993V17.0933ZM17.4887 17.0933H14.578V19.0933H17.4887V17.0933ZM28.0833 25.6071C29.288 24.1479 31.5867 20.1214 31.5867 15.1827H29.5867C29.5867 19.5581 27.5193 23.1488 26.541 24.3339L28.0833 25.6071ZM17.4887 8.36133C14.4935 8.36133 11.0933 8.8319 8.40469 9.8428C7.06198 10.3477 5.83615 11.0097 4.93085 11.8673C4.01109 12.7386 3.39062 13.8476 3.39062 15.1827H5.39062C5.39062 14.5269 5.67974 13.9128 6.30628 13.3192C6.94728 12.712 7.90445 12.1676 9.10858 11.7148C11.5137 10.8105 14.6624 10.3613 17.4887 10.3613V8.36133ZM6.86041 25.5641C7.07708 25.8578 7.37239 26.0734 7.65039 26.2343C7.93818 26.4009 8.27056 26.5446 8.62332 26.6704C9.32878 26.9219 10.1997 27.1309 11.1459 27.2987C13.0425 27.6351 15.3526 27.8254 17.4887 27.8254V25.8254C15.4557 25.8254 13.2634 25.6431 11.4951 25.3294C10.6089 25.1722 9.85678 24.9868 9.29498 24.7865C9.01411 24.6864 8.80182 24.5899 8.65217 24.5033C8.49273 24.411 8.45784 24.3606 8.46986 24.3768L6.86041 25.5641ZM8.4363 24.3339C7.45799 23.1488 5.39062 19.5581 5.39062 15.1827H3.39062C3.39062 20.1214 5.68927 24.1479 6.89397 25.6071L8.4363 24.3339Z" fill="#0000AC"/>
</svg>
