<svg width="36" height="36" viewBox="0 0 36 36" fill="none" xmlns="http://www.w3.org/2000/svg">
<path d="M18.2484 9.28969L14.6215 5.66278C13.6158 4.65701 11.9851 4.65701 10.9793 5.66278L5.90471 10.7374C4.89895 11.7432 4.89895 13.3738 5.90472 14.3796L9.53162 18.0065M18.2484 9.28969L9.53162 18.0065M18.2484 9.28969L21.8753 5.66277C22.8811 4.65701 24.5118 4.65701 25.5175 5.66277L30.5921 10.7374C31.5979 11.7431 31.5979 13.3738 30.5921 14.3796L26.9652 18.0065M26.9652 18.0065L30.5921 21.6334C31.5979 22.6392 31.5979 24.2698 30.5921 25.2756L25.5175 30.3502C24.5118 31.356 22.8811 31.356 21.8753 30.3502L18.2484 26.7232M26.9652 18.0065L18.2484 26.7232M9.53162 18.0065L5.90473 21.6334C4.89896 22.6392 4.89897 24.2698 5.90473 25.2756L10.9793 30.3502C11.9851 31.356 13.6158 31.356 14.6215 30.3502L18.2484 26.7232M22.1425 14.09L22.1534 14.0202M18.3763 17.8674L18.3872 17.7975M14.6101 21.6448L14.621 21.575" stroke="#0000AC" stroke-width="2" stroke-linecap="round"/>
</svg>
