<svg width="36" height="36" viewBox="0 0 36 36" fill="none" xmlns="http://www.w3.org/2000/svg">
<path d="M18.2953 12.7138C18.2953 14.7232 16.6663 16.3522 14.6569 16.3522C12.6475 16.3522 11.0186 14.7232 11.0186 12.7138C11.0186 14.7232 9.38965 16.3522 7.38025 16.3522C7.13042 16.3522 6.88647 16.3184 6.65221 16.2551M30.6653 9.80315L29.2386 6.47374C28.78 5.40345 27.7276 4.70947 26.5632 4.70947H9.90681C8.80433 4.70947 7.79647 5.33236 7.30343 6.31845L4.65459 11.6161C4.5314 11.8625 4.41767 12.1158 4.36218 12.3856C3.99785 14.1572 5.11728 15.8404 6.65221 16.2551M6.65221 16.2551V30.9055H9.56288" stroke="#0000AC" stroke-width="2" stroke-linecap="round" stroke-linejoin="round"/>
<path d="M21.5287 21.0411L28.1597 27.6721M21.5287 21.0411L18.2132 24.3566C16.3821 26.1878 16.3821 29.1566 18.2132 30.9877C20.0443 32.8188 23.0131 32.8188 24.8442 30.9877L28.1597 27.6721M21.5287 21.0411L24.8442 17.7256C26.6753 15.8945 29.6441 15.8945 31.4752 17.7256C33.3063 19.5567 33.3063 22.5255 31.4752 24.3566L28.1597 27.6721" stroke="#0000AC" stroke-width="2" stroke-linejoin="round"/>
</svg>
