<svg width="35" height="35" viewBox="0 0 35 35" fill="none" xmlns="http://www.w3.org/2000/svg">
<path d="M10.5522 10.5041L6.21188 14.8444C3.81479 17.2415 3.81479 21.1279 6.21188 23.525C8.60896 25.9221 12.4954 25.7552 14.8925 23.3581M10.5522 10.5041L14.8925 6.16378C17.2896 3.7667 21.176 3.7667 23.5731 6.16378C25.9702 8.56086 25.8544 12.4789 23.4573 14.876M10.5522 10.5041L17.1943 17.1462M14.8925 23.3581C15.055 25.1211 15.8446 26.9105 17.1943 28.2602C20.2633 31.3293 25.2393 31.3293 28.3083 28.2602C31.3774 25.1912 31.3774 20.2152 28.3083 17.1462C26.9535 15.7914 25.2272 15.0347 23.4573 14.876M14.8925 23.3581C14.6854 21.1124 15.4749 18.8655 17.1943 17.1462M23.4573 14.876C21.2178 14.6752 18.9086 15.4319 17.1943 17.1462M14.8925 22.7032H30.6101" stroke="#0000AC" stroke-width="2" stroke-linecap="round" stroke-linejoin="round"/>
</svg>
