<svg width="36" height="36" viewBox="0 0 36 36" fill="none" xmlns="http://www.w3.org/2000/svg">
<path d="M5.88911 27.0538L5.18894 26.3398L5.88911 27.0538ZM9.45595 30.5517L10.1561 31.2657L9.45595 30.5517ZM7.15036 21.7191L6.45048 21.0048L6.45019 21.0051L7.15036 21.7191ZM14.4632 28.8905L13.7642 28.1754L13.763 28.1766L14.4632 28.8905ZM29.2839 11.6151L28.5838 10.9012C28.392 11.0892 28.2839 11.3465 28.2839 11.6151C28.2839 11.8837 28.392 12.141 28.5838 12.3291L29.2839 11.6151ZM30.483 12.791L29.7828 13.505L30.483 12.791ZM30.483 16.8795L29.7828 16.1656L30.483 16.8795ZM26.3138 16.8795L27.014 16.1656L26.3138 16.8795ZM19.3144 10.0154L18.6142 10.7294L19.3144 10.0154ZM19.3144 5.92684L18.6142 5.21287L19.3144 5.92684ZM23.4835 5.92684L24.1837 5.21287V5.21287L23.4835 5.92684ZM24.652 7.07277L23.9519 7.78674C24.3407 8.16811 24.9633 8.16811 25.3522 7.78674L24.652 7.07277ZM25.3041 6.43328L24.6039 5.7193V5.7193L25.3041 6.43328ZM29.936 6.43328L29.2359 7.14725L29.936 6.43328ZM29.936 10.9756L29.2359 10.2617V10.2617L29.936 10.9756ZM5.93547 27.0095L6.61744 27.7409C6.91074 27.4674 7.01229 27.0451 6.87543 26.6682L5.93547 27.0095ZM9.71009 30.2611L9.91733 29.2828C9.5357 29.2019 9.1419 29.3504 8.90861 29.663L9.71009 30.2611ZM17.248 21.8073C17.6423 21.4206 17.6485 20.7875 17.2618 20.3932C16.8751 19.9989 16.242 19.9927 15.8477 20.3794L17.248 21.8073ZM13.3148 22.8632C12.9205 23.2499 12.9143 23.883 13.301 24.2774C13.6877 24.6717 14.3209 24.6779 14.7152 24.2912L13.3148 22.8632ZM6.58928 29.8377C6.00409 29.2639 6.00409 28.3417 6.58928 27.7678L5.18894 26.3398C3.80421 27.6978 3.80421 29.9077 5.18894 31.2657L6.58928 29.8377ZM8.75578 29.8377C8.15971 30.4223 7.18535 30.4223 6.58928 29.8377L5.18894 31.2657C6.56278 32.613 8.78228 32.613 10.1561 31.2657L8.75578 29.8377ZM25.844 16.3671L13.7642 28.1754L15.1622 29.6056L27.2421 17.7973L25.844 16.3671ZM7.85024 22.4333L19.9072 10.6191L18.5075 9.1906L6.45048 21.0048L7.85024 22.4333ZM28.5838 12.3291L29.7828 13.505L31.1832 12.077L29.9841 10.9012L28.5838 12.3291ZM29.7828 13.505C30.5343 14.2419 30.5343 15.4286 29.7828 16.1656L31.1832 17.5935C32.7342 16.0725 32.7342 13.5981 31.1832 12.077L29.7828 13.505ZM29.7828 16.1656C29.0204 16.9132 27.7764 16.9132 27.014 16.1656L25.6137 17.5935C27.1538 19.1039 29.643 19.1039 31.1832 17.5935L29.7828 16.1656ZM27.014 16.1656L20.0145 9.30141L18.6142 10.7294L25.6137 17.5935L27.014 16.1656ZM20.0145 9.30141C19.263 8.56444 19.263 7.3778 20.0145 6.64082L18.6142 5.21287C17.0631 6.73393 17.0631 9.2083 18.6142 10.7294L20.0145 9.30141ZM20.0145 6.64082C20.7769 5.89316 22.0209 5.89316 22.7833 6.64082L24.1837 5.21287C22.6435 3.70248 20.1544 3.70248 18.6142 5.21287L20.0145 6.64082ZM22.7833 6.64082L23.9519 7.78674L25.3522 6.35879L24.1837 5.21287L22.7833 6.64082ZM25.3522 7.78674L26.0043 7.14725L24.6039 5.7193L23.9519 6.35879L25.3522 7.78674ZM26.0043 7.14725C26.8945 6.27428 28.3457 6.27428 29.2359 7.14725L30.6362 5.7193C28.9683 4.0836 26.2719 4.0836 24.6039 5.7193L26.0043 7.14725ZM29.2359 7.14725C30.1152 8.00955 30.1152 9.39937 29.2359 10.2617L30.6362 11.6896C32.315 10.0432 32.315 7.36568 30.6362 5.7193L29.2359 7.14725ZM29.2359 10.2617L28.5838 10.9012L29.9841 12.3291L30.6362 11.6896L29.2359 10.2617ZM6.87543 26.6682C6.35655 25.2391 6.67928 23.5817 7.85053 22.4331L6.45019 21.0051C4.70384 22.7177 4.21664 25.2056 4.99551 27.3508L6.87543 26.6682ZM6.58928 27.7678C6.5986 27.7586 6.60799 27.7497 6.61744 27.7409L5.25349 26.2781C5.23175 26.2984 5.21023 26.319 5.18894 26.3398L6.58928 27.7678ZM13.763 28.1766C12.7242 29.1953 11.2672 29.5687 9.91733 29.2828L9.50286 31.2393C11.4734 31.6568 13.6215 31.1165 15.1634 29.6045L13.763 28.1766ZM8.90861 29.663C8.86351 29.7235 8.81266 29.7819 8.75578 29.8377L10.1561 31.2657C10.2865 31.1379 10.405 31.0019 10.5116 30.8591L8.90861 29.663ZM15.8477 20.3794L13.3148 22.8632L14.7152 24.2912L17.248 21.8073L15.8477 20.3794Z" fill="#0000AC"/>
</svg>
