<svg width="36" height="36" viewBox="0 0 36 36" fill="none" xmlns="http://www.w3.org/2000/svg">
<path d="M24.0924 9.6314H12.4446M24.0924 9.6314C24.6226 9.6314 25.1196 9.77315 25.5477 10.0208M24.0924 9.6314C24.6118 9.6314 25.0994 9.76745 25.5216 10.0058M12.4446 9.6314C11.9252 9.6314 11.4376 9.76745 11.0154 10.0058M12.4446 9.6314C11.9144 9.6314 11.4174 9.77315 10.9893 10.0208M20.0651 4.45044H16.3807C15.0132 4.45044 13.833 5.40327 13.4664 6.72075C12.8794 8.83061 11.7444 9.56313 11.0154 10.0058M11.0154 10.0058C11.0066 10.0112 10.9979 10.0162 10.9893 10.0208M10.9893 10.0208C10.1192 10.5241 9.53906 11.6672 9.53906 12.7446V22.2042C9.53906 23.2816 10.1192 24.0197 10.9893 24.523M25.5477 10.0208C26.4177 10.5241 27.0031 11.4647 27.0031 12.5421M25.5477 10.0208C25.5391 10.0162 25.5303 10.0112 25.5216 10.0058M20.065 30.7338H16.3806C15.0131 30.7338 13.833 29.7809 13.4664 28.4634C12.8722 26.3282 11.6624 24.9124 10.9893 24.523M10.9893 24.523C11.4174 24.7706 11.9144 24.9124 12.4446 24.9124H15.3144M27.0031 12.5421V15.4641M27.0031 12.5421V22.0017C27.0031 23.0791 26.4177 24.0197 25.5477 24.523M16.472 4.45044H20.1564C21.5239 4.45044 22.7041 5.40327 23.0706 6.72075C23.6577 8.83061 24.7926 9.56313 25.5216 10.0058M16.4719 30.7338H20.1563C21.5239 30.7338 22.704 29.7809 23.0706 28.4634C23.6647 26.3282 24.8746 24.9124 25.5477 24.523M25.5477 24.523C25.1196 24.7706 24.6226 24.9124 24.0924 24.9124H11.9966" stroke="#0000AC" stroke-width="2" stroke-linecap="round" stroke-linejoin="round"/>
</svg>
