<svg width="36" height="36" viewBox="0 0 36 36" fill="none" xmlns="http://www.w3.org/2000/svg">
<path d="M11.0759 10.7541C11.8056 10.3223 12.9178 8.88939 13.4969 6.80816C13.8635 5.49068 15.0436 4.53784 16.4112 4.53784H20.0905C21.4391 4.53784 22.6081 5.46449 22.99 6.75797C23.6218 8.89816 24.9 10.3963 25.5732 10.7857M11.0759 10.7541C11.0569 10.7653 11.0382 10.7758 11.0198 10.7857C10.1498 11.289 9.56445 12.2296 9.56445 13.307L9.5645 22.0019C9.5645 23.0792 10.1498 24.0199 11.0198 24.5232M11.0759 10.7541C11.4911 10.526 11.9679 10.3963 12.4751 10.3963H24.1178C24.648 10.3963 25.145 10.538 25.5732 10.7857M25.5732 10.7857C26.4432 11.289 27.0285 12.2296 27.0285 13.307V14.7252M16.8411 30.7339H16.4112C15.0437 30.7339 13.8636 29.7811 13.497 28.4636C12.9028 26.3283 11.693 24.9126 11.0198 24.5232M11.0198 24.5232C11.448 24.7708 11.945 24.9126 12.4752 24.9126H13.9305M26.0256 21.5019C25.8528 21.6808 25.58 22.081 25.58 22.081C25.58 22.081 25.3071 21.6808 25.1343 21.5019C23.9036 20.2281 21.9083 20.2281 20.6776 21.5019C19.4469 22.7758 19.4509 24.8011 20.644 26.2515C20.644 26.2515 24.0661 30.7339 25.58 30.7339C27.0938 30.7339 30.4114 26.3939 30.4114 26.3939C31.7073 24.9027 31.713 22.7758 30.4823 21.5019C29.2517 20.2281 27.2563 20.2281 26.0256 21.5019Z" stroke="#0000AC" stroke-width="2" stroke-linecap="round" stroke-linejoin="round"/>
</svg>
