<svg width="35" height="36" viewBox="0 0 35 36" fill="none" xmlns="http://www.w3.org/2000/svg">
<path d="M10.2924 10.716C11.0222 10.2849 12.1331 8.88777 12.7118 6.80816C13.0784 5.49068 14.2585 4.53784 15.626 4.53784H19.3053C20.654 4.53784 21.823 5.46449 22.2048 6.75797C22.8367 8.89816 24.1149 10.3592 24.788 10.7486M10.2924 10.716C10.2729 10.7276 10.2536 10.7384 10.2346 10.7486C9.36463 11.2519 8.7793 12.1925 8.7793 13.2699V22.0019C8.7793 23.0792 9.36463 24.0199 10.2346 24.5232M10.2924 10.716C10.7072 10.4886 11.1835 10.3592 11.69 10.3592H23.3327C23.8628 10.3592 24.3599 10.5009 24.788 10.7486M24.788 10.7486C25.658 11.2519 26.2433 12.1925 26.2433 13.2699V16.1805M19.3053 30.7339H15.626C14.2585 30.7339 13.0784 29.7811 12.7118 28.4636C12.1176 26.3283 10.9078 24.9126 10.2346 24.5232M10.2346 24.5232C10.6628 24.7708 11.1598 24.9126 11.69 24.9126H13.1453M18.9667 23.4572L21.8773 19.0912L24.788 26.3679L27.6987 22.0019L28.7252 24.1849H30.6093" stroke="#0000AC" stroke-width="2" stroke-linecap="round" stroke-linejoin="round"/>
</svg>
