<svg width="36" height="36" viewBox="0 0 36 36" fill="none" xmlns="http://www.w3.org/2000/svg">
<path d="M12.2352 4.62256H13.2352C13.2352 4.25376 13.0322 3.9149 12.707 3.74088C12.3819 3.56686 11.9873 3.58594 11.6805 3.79051L12.2352 4.62256ZM23.389 6.23711L23.9437 5.40506V5.40506L23.389 6.23711ZM20.9672 4.62256L21.5219 3.79051C21.215 3.58594 20.8205 3.56686 20.4953 3.74088C20.1702 3.9149 19.9672 4.25376 19.9672 4.62256H20.9672ZM11.2352 6.80556C11.2352 7.35785 11.6829 7.80556 12.2352 7.80556C12.7874 7.80556 13.2352 7.35785 13.2352 6.80556H11.2352ZM19.9672 6.80556C19.9672 7.35785 20.4149 7.80556 20.9672 7.80556C21.5195 7.80556 21.9672 7.35785 21.9672 6.80556H19.9672ZM24.3332 9.86985V14.8099H26.3332V9.86985H24.3332ZM19.5118 19.6313H13.6905V21.6313H19.5118V19.6313ZM8.86914 14.8099V9.86985H6.86914V14.8099H8.86914ZM10.368 7.06916L12.7899 5.45461L11.6805 3.79051L9.25862 5.40506L10.368 7.06916ZM23.9437 5.40506L21.5219 3.79051L20.4125 5.45461L22.8343 7.06916L23.9437 5.40506ZM11.2352 4.62256V6.80556H13.2352V4.62256H11.2352ZM19.9672 4.62256V6.80556H21.9672V4.62256H19.9672ZM13.6905 19.6313C11.0277 19.6313 8.86914 17.4727 8.86914 14.8099H6.86914C6.86914 18.5772 9.92316 21.6313 13.6905 21.6313V19.6313ZM24.3332 14.8099C24.3332 17.4727 22.1746 19.6313 19.5118 19.6313V21.6313C23.2792 21.6313 26.3332 18.5772 26.3332 14.8099H24.3332ZM26.3332 9.86985C26.3332 8.07571 25.4365 6.40027 23.9437 5.40506L22.8343 7.06916C23.7707 7.69344 24.3332 8.74441 24.3332 9.86985H26.3332ZM8.86914 9.86985C8.86914 8.74441 9.4316 7.69344 10.368 7.06916L9.25862 5.40506C7.76581 6.40027 6.86914 8.07571 6.86914 9.86985H8.86914ZM15.6012 20.6313V29.3633H17.6012V20.6313H15.6012ZM18.0565 31.8186H20.9672V29.8186H18.0565V31.8186ZM23.4225 29.3633V26.9818H21.4225V29.3633H23.4225ZM23.8778 26.5265H25.3332V24.5265H23.8778V26.5265ZM23.4225 26.9818C23.4225 26.7303 23.6264 26.5265 23.8778 26.5265V24.5265C22.5218 24.5265 21.4225 25.6258 21.4225 26.9818H23.4225ZM20.9672 31.8186C22.3232 31.8186 23.4225 30.7193 23.4225 29.3633H21.4225C21.4225 29.6148 21.2186 29.8186 20.9672 29.8186V31.8186ZM15.6012 29.3633C15.6012 30.7193 16.7005 31.8186 18.0565 31.8186V29.8186C17.805 29.8186 17.6012 29.6148 17.6012 29.3633H15.6012ZM28.6992 25.5258C28.6992 26.1792 28.1695 26.7088 27.5162 26.7088V28.7088C29.2741 28.7088 30.6992 27.2837 30.6992 25.5258H28.6992ZM27.5162 26.7088C26.8624 26.7088 26.3332 26.1794 26.3332 25.5265H24.3332C24.3332 27.2848 25.7587 28.7088 27.5162 28.7088V26.7088ZM26.3332 25.5265C26.3332 24.8727 26.8632 24.3428 27.5162 24.3428V22.3428C25.7579 22.3428 24.3332 23.769 24.3332 25.5265H26.3332ZM27.5162 24.3428C28.1695 24.3428 28.6992 24.8725 28.6992 25.5258H30.6992C30.6992 23.7679 29.2741 22.3428 27.5162 22.3428V24.3428Z" fill="#0000AC"/>
</svg>
