<svg width="35" height="35" viewBox="0 0 35 35" fill="none" xmlns="http://www.w3.org/2000/svg">
<path d="M7.70789 27.2679L4.4375 30.5383M7.70789 27.2679L9.76731 29.3422C10.4059 29.9855 11.4412 29.9855 12.0798 29.3422L28.8427 12.9623M7.70789 27.2679L5.36811 24.9112C4.72953 24.2679 4.72953 23.2251 5.36812 22.5819L8.7253 19.211M29.1782 5.83425L25.4734 9.5686M29.1782 5.83425L27.7099 4.36597M29.1782 5.83425L30.6336 7.28958M25.4734 9.5686L28.8427 12.9623M25.4734 9.5686L21.9051 5.97441M15.3567 17.4769L12.898 15.0182M12.898 15.0182L17.8114 10.0848M12.898 15.0182L8.7253 19.211M21.9051 5.97441L20.2967 4.36597M21.9051 5.97441L17.8114 10.0848M28.8427 12.9623L30.6336 14.7531M11.1303 21.616L8.7253 19.211M20.3238 12.5972L17.8114 10.0848" stroke="#0000AC" stroke-width="2" stroke-linecap="round" stroke-linejoin="round"/>
</svg>
