<svg width="35" height="36" viewBox="0 0 35 36" fill="none" xmlns="http://www.w3.org/2000/svg">
<path d="M29.1561 29.4504L22.1335 27.3436C21.3702 27.1829 20.6412 26.8062 20.0437 26.2084L4.73648 10.8921C4.51975 10.6753 4.40124 10.3792 4.40854 10.0727C4.47842 7.13748 6.84324 4.77569 9.7785 4.70958L9.86745 4.70758C10.1788 4.70057 10.4794 4.82115 10.6996 5.04133L12.9481 7.29001M29.1561 29.4504L27.7008 22.9014C27.5958 21.9939 26.6458 20.9875 25.9559 20.2977L25.5834 19.9251M29.1561 29.4504L30.6116 30.9056M12.9481 7.29001L10.6995 9.53858M12.9481 7.29001L16.8513 11.1931M16.8513 11.1931L14.6027 13.4416M16.8513 11.1931L21.2173 15.5591M21.2173 15.5591L18.9687 17.8076M21.2173 15.5591L25.5834 19.9251M25.5834 19.9251L23.3348 22.1737" stroke="#0000AC" stroke-width="2" stroke-linecap="round"/>
</svg>
