<svg width="36" height="36" viewBox="0 0 36 36" fill="none" xmlns="http://www.w3.org/2000/svg">
<path d="M12.4503 4.90845C13.0664 4.90845 13.6602 5.00537 14.2176 5.18497C15.5506 5.61451 16.8727 6.21825 18.2716 6.21825C19.6705 6.21825 20.9926 5.61451 22.3256 5.18497C22.883 5.00537 23.4768 4.90845 24.0929 4.90845C27.308 4.90845 29.9143 7.54733 29.9143 10.8026C29.9143 14.8634 29.9143 18.0065 27.9738 20.7516C27.3541 25.0827 27.3137 27.0379 27.3209 27.6275C27.325 27.6945 27.327 27.762 27.327 27.83C27.327 29.6385 25.8791 31.1045 24.0929 31.1045C22.3068 31.1045 20.3738 29.6385 20.3738 27.83C20.3738 27.3337 20.3215 26.8391 20.2033 26.3571C20.0953 25.917 19.9363 25.2973 19.7269 24.5555L19.0801 23.2457C19.0801 23.2457 18.9184 21.9359 18.2716 21.9359C17.6248 21.9359 17.3822 23.2457 17.3822 23.2457L16.8164 24.3914C16.7625 24.5006 16.7187 24.6145 16.6856 24.7319C16.5151 25.3361 16.3808 25.8558 16.2831 26.2519C16.147 26.8033 16.0886 27.3697 16.0886 27.9377C16.0886 29.7462 14.2364 31.1045 12.4503 31.1045C10.6641 31.1045 9.21617 29.6385 9.21617 27.83C9.21617 27.762 9.21822 27.6945 9.22225 27.6275C9.22948 27.0379 9.18909 25.0827 8.56935 20.7516C6.62891 18.0065 6.62891 14.8634 6.62891 10.8026C6.62891 7.54733 9.23521 4.90845 12.4503 4.90845Z" stroke="#0000AC" stroke-width="2" stroke-linecap="round" stroke-linejoin="round"/>
</svg>
