<svg width="35" height="36" viewBox="0 0 35 36" fill="none" xmlns="http://www.w3.org/2000/svg">
<path d="M18.6193 9.32841C17.9302 8.63931 17.9302 7.52205 18.6193 6.83295L20.0993 5.35302C20.6676 4.78467 21.5891 4.78467 22.1574 5.35302L30.1173 13.3128C30.6856 13.8812 30.6856 14.8027 30.1173 15.371L28.6373 16.8509C27.9482 17.54 26.831 17.54 26.1419 16.8509M18.6193 9.32841L8.67766 19.2791M18.6193 9.32841L26.1419 16.8509M26.1419 16.8509L22.3377 20.6461M8.67766 19.2791L22.3377 20.6461M8.67766 19.2791L5.82106 22.1357C3.75375 24.203 3.76731 27.5683 5.83462 29.6356C7.90192 31.7029 11.2672 31.7165 13.3345 29.6492L22.3377 20.6461" stroke="#0000AC" stroke-width="2" stroke-linecap="round" stroke-linejoin="round"/>
</svg>
