<svg width="35" height="36" viewBox="0 0 35 36" fill="none" xmlns="http://www.w3.org/2000/svg">
<path d="M27.1908 18.0065H30.5867M27.1908 18.0065C27.1908 15.3066 26.088 12.8643 24.3083 11.1054M27.1908 18.0065C27.1908 20.6857 26.1049 23.1112 24.3491 24.867M17.4886 27.7087V31.1045M17.4886 27.7087C20.1678 27.7087 22.5933 26.6228 24.3491 24.867M17.4886 27.7087C14.7887 27.7087 12.3464 26.6059 10.5876 24.8263M7.78633 18.0065H4.39062M7.78633 18.0065C7.78633 20.665 8.85561 23.0738 10.5876 24.8263M7.78633 18.0065C7.78633 15.3273 8.8723 12.9017 10.6281 11.1459M17.4886 8.30423V4.90845M17.4886 8.30423C20.1471 8.30423 22.5559 9.37349 24.3083 11.1054M17.4886 8.30423C14.8094 8.30423 12.3838 9.39019 10.6281 11.1459M17.4886 31.1045H15.8715M17.4886 31.1045H19.1056M30.5867 18.0065V19.6235M30.5867 18.0065V16.3894M4.39062 18.0065V19.6235M4.39062 18.0065V16.3894M17.4886 4.90845H15.8715M17.4886 4.90845H19.1056M24.3491 24.867L26.7411 27.259M10.5876 24.8263L8.02897 27.3848M20.3993 15.0958V15.001M10.6281 11.1459L8.15476 8.67265M24.3083 11.1054L26.7411 8.67265M13.1226 16.6459V16.5511M17.4887 21.0119V20.9171" stroke="#0000AC" stroke-width="2" stroke-linecap="round"/>
</svg>
