<svg width="35" height="36" viewBox="0 0 35 36" fill="none" xmlns="http://www.w3.org/2000/svg">
<path d="M9.7264 7.81912H7.32474C5.71722 7.81912 4.41406 9.12227 4.41406 10.7298V28.1938C4.41406 29.8014 5.71722 31.1045 7.32474 31.1045H27.6994C29.307 31.1045 30.6101 29.8014 30.6101 28.1938V10.7298C30.6101 9.12227 29.307 7.81912 27.6994 7.81912H25.2978M9.7264 7.81912C9.72344 6.26328 10.9844 4.90845 12.6388 4.90845H22.3853C24.0398 4.90845 25.3007 6.26328 25.2978 7.81912M9.7264 7.81912C9.7269 8.08178 9.76342 8.35018 9.84016 8.61875L11.0876 12.9848C11.4446 14.2343 12.5867 15.0958 13.8863 15.0958H17.5121M25.2978 7.81912C25.2973 8.08178 25.2608 8.35017 25.184 8.61874L23.9366 12.9848C23.5796 14.2343 22.4375 15.0958 21.1379 15.0958H17.5121M17.5121 15.0958L18.9674 11.4575M14.6014 25.2832H20.4228" stroke="#0000AC" stroke-width="2" stroke-linecap="round"/>
</svg>
