<svg width="35" height="36" viewBox="0 0 35 36" fill="none" xmlns="http://www.w3.org/2000/svg">
<path d="M15.201 10.3592H20.3988M15.201 10.3592C11.1822 10.3592 7.30078 13.2699 7.30078 19.0912V28.1466C7.30078 29.5755 8.7901 30.7339 10.6273 30.7339H24.349C26.1862 30.7339 27.6755 29.5755 27.6755 28.1466V19.0912C27.6755 13.2699 24.4176 10.3592 20.3988 10.3592M15.201 10.3592H8.02845C7.62657 10.3592 7.30078 10.0334 7.30078 9.63152V7.44851C7.30078 5.84099 8.60393 4.53784 10.2115 4.53784H24.7648C26.3723 4.53784 27.6755 5.84099 27.6755 7.44851V9.63152C27.6755 10.0334 27.3497 10.3592 26.9478 10.3592H20.3988M17.4881 17.6359V20.5465M17.4881 20.5465V23.4572M17.4881 20.5465H20.3988M17.4881 20.5465H14.5775" stroke="#0000AC" stroke-width="2" stroke-miterlimit="2.20439" stroke-linecap="square"/>
</svg>
