<svg viewBox="0 0 68 68" xmlns="http://www.w3.org/2000/svg"><g data-name="Icon 4"><path d="M47.28 31.44v7.35a1.003 1.003 0 0 1-1 1h-7.56v7.33a1.003 1.003 0 0 1-1 1h-7.35a1.003 1.003 0 0 1-1-1v-7.33h-7.65a1.003 1.003 0 0 1-1-1v-7.35a1.003 1.003 0 0 1 1-1h7.65v-7.87a1.003 1.003 0 0 1 1-1h7.35a1.003 1.003 0 0 1 1 1v7.87h7.56a1.003 1.003 0 0 1 1 1Z" fill="#280559" class="fill-404a6b"></path><path d="M30.33 55.39a1.684 1.684 0 0 0-1.23.53 21.134 21.134 0 0 1-8.19-3.82.642.642 0 0 0-.13-.1 21.284 21.284 0 0 1-8.23-16.78v-.01a21.247 21.247 0 0 1 7.94-16.56 4.916 4.916 0 0 0 .45-.28l.01-.01c.2-.13.51-.3.89-.5 2.67-1.45 8.93-4.83 8.44-11.33a.993.993 0 0 0-.99-.92 10.38 10.38 0 0 0-6.86 2.95c-1.97 2-2.99 4.84-3.04 8.42a.555.555 0 0 0-.08.06 22.417 22.417 0 0 0-3.24 3.14c.06-3.22-.62-7.69-4.21-10.6a.99.99 0 0 0-.84-.2 1.005 1.005 0 0 0-.69.53c-.14.29-3.44 7.07-1.16 11.5a6.28 6.28 0 0 0 3.96 3.14 22.12 22.12 0 0 0-2.1 6.01c-1.35-2.77-3.81-5.87-8.11-6.31a.997.997 0 0 0-.77.26.964.964 0 0 0-.33.73c0 .33.01 6.42 3.55 9.44a6.946 6.946 0 0 0 4.68 1.66 4.785 4.785 0 0 0 .53-.02 22.818 22.818 0 0 0 1.39 6.87 15.602 15.602 0 0 0-10.15.52.998.998 0 0 0-.59.63.972.972 0 0 0 .12.86c.12.18 2.98 4.41 6.96 4.45h.07a7.076 7.076 0 0 0 5.31-2.8 23.065 23.065 0 0 0 3.95 5.07c-2.99.46-7.48 2.33-8.47 9.33a.989.989 0 0 0 .26.82.97.97 0 0 0 .73.32h.07c.08-.01 8.23-.65 10.6-7.9a22.783 22.783 0 0 0 8.02 3.42 1.697 1.697 0 1 0 1.48-2.52ZM66.77 44.34a.998.998 0 0 0-.59-.63 15.602 15.602 0 0 0-10.15-.52 22.818 22.818 0 0 0 1.39-6.87 4.785 4.785 0 0 0 .53.02 6.946 6.946 0 0 0 4.68-1.66c3.54-3.02 3.55-9.11 3.55-9.44a.964.964 0 0 0-.33-.73.997.997 0 0 0-.77-.26c-4.3.44-6.76 3.54-8.11 6.31a22.12 22.12 0 0 0-2.1-6.01 6.28 6.28 0 0 0 3.96-3.14c2.28-4.43-1.02-11.21-1.16-11.5a1.005 1.005 0 0 0-.69-.53.99.99 0 0 0-.84.2c-3.59 2.91-4.27 7.38-4.21 10.6a22.417 22.417 0 0 0-3.24-3.14.555.555 0 0 0-.08-.06c-.05-3.58-1.07-6.42-3.04-8.42a10.38 10.38 0 0 0-6.86-2.95.993.993 0 0 0-.99.92c-.49 6.5 5.77 9.88 8.44 11.33.38.21.7.37.88.49 0 .01.01.01.02.02a4.916 4.916 0 0 0 .45.28 21.247 21.247 0 0 1 7.94 16.56v.01a21.288 21.288 0 0 1-8.36 16.88 21.026 21.026 0 0 1-8.36 3.86 1.672 1.672 0 0 0-1.04-.42 1.701 1.701 0 0 0-.14 3.4 1.677 1.677 0 0 0 1.63-1.04 22.802 22.802 0 0 0 7.99-3.41c2.37 7.25 10.52 7.89 10.6 7.9h.07a.97.97 0 0 0 .73-.32.989.989 0 0 0 .26-.82c-.99-7-5.48-8.87-8.47-9.33a23.065 23.065 0 0 0 3.95-5.07 7.076 7.076 0 0 0 5.31 2.8h.07c3.98-.04 6.84-4.27 6.96-4.45a.972.972 0 0 0 .12-.86Z" fill="#280559" class="fill-404a6b"></path></g></svg>