<svg width="33" height="33" viewBox="0 0 33 33" fill="none" xmlns="http://www.w3.org/2000/svg">
<path d="M8.55176 3.38672L20.417 3.38672C21.1163 3.38672 21.787 3.66451 22.2814 4.159C22.7759 4.65348 23.0537 5.32414 23.0537 6.02344V8.66016H20.417V6.02344L8.55176 6.02344L8.55176 27.1172H20.417V24.4805H23.0537V27.1172C23.0537 27.8165 22.7759 28.4871 22.2814 28.9816C21.787 29.4761 21.1163 29.7539 20.417 29.7539H8.55176C7.85246 29.7539 7.1818 29.4761 6.68732 28.9816C6.19284 28.4871 5.91504 27.8165 5.91504 27.1172L5.91504 6.02344C5.91504 5.32414 6.19284 4.65348 6.68732 4.159C7.1818 3.66451 7.85246 3.38672 8.55176 3.38672Z" fill="#828282"/>
<path d="M21.854 21.3032L23.7129 23.1621L30.3047 16.5703L23.7129 9.97852L21.854 11.8374L25.2554 15.252H12.5068V17.8887H25.2554L21.854 21.3032Z" fill="#828282"/>
</svg>
