<svg width="202" height="48" viewBox="0 0 202 48" fill="none" xmlns="http://www.w3.org/2000/svg">
<path d="M37.8055 19.7031V7.95106C37.8055 7.70673 37.6778 7.48017 37.4688 7.35363L26.4319 0.67161C26.2039 0.533556 25.9171 0.537343 25.6928 0.681371L15.946 6.93999C15.5066 7.22217 15.521 7.8692 15.9725 8.13155L25.7118 13.7897C25.9269 13.9147 26.0593 14.1447 26.0593 14.3936V26.2672C26.0593 26.8178 26.6668 27.1519 27.1318 26.857L37.4811 20.2928C37.6831 20.1647 37.8055 19.9422 37.8055 19.7031Z" fill="#280559" stroke="#280559" stroke-width="0.817783"/>
<path d="M1.22446 28.5103V16.4255C1.22446 16.1766 1.35686 15.9466 1.57202 15.8216L11.9538 9.79017C12.1679 9.66576 12.4319 9.66406 12.6476 9.7857L22.6311 15.4152C23.1049 15.6823 23.1049 16.3647 22.6311 16.6318L12.6548 22.2573C12.4352 22.3811 12.2994 22.6136 12.2994 22.8656V34.7248C12.2994 35.2772 11.6885 35.6109 11.2237 35.3125L1.5455 29.0979C1.34543 28.9695 1.22446 28.748 1.22446 28.5103Z" fill="#280559" stroke="#280559" stroke-width="0.817783"/>
<path d="M15.7447 37.6349L26.1027 43.404C26.3061 43.5173 26.5518 43.5213 26.7579 43.4146L37.4308 37.891C37.6617 37.7715 37.8067 37.5321 37.8067 37.2702L37.8067 24.7483C37.8067 24.1958 37.201 23.8582 36.7376 24.1525L26.8012 30.4631C26.5815 30.6026 26.3023 30.6068 26.0775 30.4739L16.4306 24.7698C15.9665 24.4954 15.3838 24.8301 15.3838 25.371L15.3838 37.0193C15.3838 37.275 15.5221 37.5109 15.7447 37.6349Z" fill="#280559" stroke="#280559" stroke-width="0.817783"/>
<path d="M58.2613 33.2683H54.8716V12.0821H58.2613L66.3121 26.2163L74.3326 12.0821H77.7526V33.2683H74.3326V18.5288L67.4319 30.7562H65.1923L58.2613 18.5288V33.2683ZM88.7271 17.1366C90.765 17.1366 92.5103 17.8327 93.9631 19.2249V17.53H97.1108V33.2683H93.9631V31.5734C92.5103 32.9657 90.765 33.6618 88.7271 33.6618C86.5278 33.6618 84.6816 32.8749 83.1884 31.301C81.7155 29.7474 80.979 27.7801 80.979 25.3992C80.979 23.0182 81.7155 21.051 83.1884 19.4973C84.6816 17.9235 86.5278 17.1366 88.7271 17.1366ZM89.06 20.2842C87.7081 20.2842 86.5681 20.7786 85.64 21.7672C84.7118 22.7156 84.2477 23.9262 84.2477 25.3992C84.2477 26.8519 84.7118 28.0727 85.64 29.0613C86.5883 30.0299 87.7283 30.5141 89.06 30.5141C90.4321 30.5141 91.5822 30.0299 92.5103 29.0613C93.4385 28.0727 93.9026 26.8519 93.9026 25.3992C93.9026 23.9262 93.4385 22.7156 92.5103 21.7672C91.5822 20.7786 90.4321 20.2842 89.06 20.2842ZM107.909 17.1366C109.947 17.1366 111.693 17.8327 113.145 19.2249V17.53H116.293V32.7235C116.293 34.9228 115.526 36.759 113.993 38.2319C112.459 39.725 110.603 40.4716 108.424 40.4716C106.81 40.4716 105.296 40.058 103.884 39.2307C102.512 38.4236 101.533 37.3643 100.948 36.0528L104.126 35.1145C104.469 35.7602 105.024 36.2848 105.791 36.6884C106.557 37.1121 107.395 37.3239 108.303 37.3239C109.655 37.3239 110.805 36.88 111.753 35.9922C112.681 35.1246 113.145 34.035 113.145 32.7235V31.5734C111.693 32.9657 109.947 33.6618 107.909 33.6618C105.71 33.6618 103.864 32.8749 102.371 31.301C100.898 29.7474 100.161 27.7801 100.161 25.3992C100.161 23.0182 100.898 21.051 102.371 19.4973C103.864 17.9235 105.71 17.1366 107.909 17.1366ZM108.242 20.2842C106.89 20.2842 105.75 20.7786 104.822 21.7672C103.894 22.7156 103.43 23.9262 103.43 25.3992C103.43 26.8519 103.894 28.0727 104.822 29.0613C105.771 30.0299 106.911 30.5141 108.242 30.5141C109.614 30.5141 110.764 30.0299 111.693 29.0613C112.621 28.0727 113.085 26.8519 113.085 25.3992C113.085 23.9262 112.621 22.7156 111.693 21.7672C110.764 20.7786 109.614 20.2842 108.242 20.2842ZM123.187 33.2683H120.04V17.53H123.187V33.2683ZM120.13 15.1995C119.747 14.796 119.555 14.3016 119.555 13.7165C119.555 13.1314 119.747 12.637 120.13 12.2335C120.534 11.8299 121.028 11.6282 121.613 11.6282C122.199 11.6282 122.693 11.8299 123.096 12.2335C123.5 12.637 123.702 13.1314 123.702 13.7165C123.702 14.3016 123.5 14.796 123.096 15.1995C122.693 15.6031 122.199 15.8049 121.613 15.8049C121.028 15.8049 120.534 15.6031 120.13 15.1995ZM142.15 22.1002L138.972 23.0384C138.569 22.191 137.973 21.5251 137.186 21.0409C136.4 20.5364 135.502 20.2842 134.493 20.2842C133.08 20.2842 131.89 20.7786 130.921 21.7672C129.973 22.7559 129.499 23.9666 129.499 25.3992C129.499 26.8318 129.973 28.0525 130.921 29.0613C131.89 30.0299 133.08 30.5141 134.493 30.5141C135.502 30.5141 136.4 30.272 137.186 29.7877C137.973 29.2833 138.569 28.6074 138.972 27.7599L142.15 28.6982C141.525 30.2114 140.526 31.4221 139.154 32.3301C137.802 33.2179 136.248 33.6618 134.493 33.6618C132.132 33.6618 130.165 32.8749 128.591 31.301C127.017 29.7272 126.23 27.7599 126.23 25.3992C126.23 23.0384 127.017 21.0711 128.591 19.4973C130.165 17.9235 132.132 17.1366 134.493 17.1366C136.248 17.1366 137.802 17.5905 139.154 18.4985C140.526 19.3863 141.525 20.5869 142.15 22.1002ZM159.279 16.4102L155.919 17.409C155.738 16.7229 155.274 16.1479 154.527 15.6838C153.78 15.1995 152.913 14.9574 151.924 14.9574C150.834 14.9574 149.927 15.2197 149.2 15.7443C148.474 16.2488 148.111 16.8944 148.111 17.6813C147.989 18.3674 148.504 19.0534 149.654 19.7394C149.856 19.8605 150.249 20.0219 150.834 20.2237C151.581 20.4658 152.015 20.6071 152.136 20.6474L153.74 21.1014C155.334 21.5251 156.686 22.0699 157.796 22.7358C159.289 23.6437 160.035 25.1066 160.035 27.1243C160.035 29.0815 159.309 30.6654 157.856 31.8761C156.383 33.0665 154.517 33.6618 152.257 33.6618C150.199 33.6618 148.433 33.1876 146.96 32.2393C145.508 31.2708 144.569 30.0601 144.146 28.6074L147.505 27.548C147.687 28.3551 148.211 29.0311 149.079 29.5759C149.967 30.1207 151.026 30.393 152.257 30.393C153.508 30.393 154.547 30.1207 155.374 29.5759C156.202 29.0109 156.615 28.2845 156.615 27.3967C156.615 26.8116 156.383 26.3071 155.919 25.8834C155.516 25.4799 155.102 25.1873 154.678 25.0057C154.255 24.8039 153.619 24.5921 152.772 24.3701C150.209 23.6236 148.514 23.0384 147.687 22.6147C145.709 21.5453 144.721 19.9816 144.721 17.9235C144.721 16.0672 145.387 14.564 146.718 13.4138C148.05 12.2637 149.765 11.6887 151.864 11.6887C153.72 11.6887 155.324 12.1427 156.676 13.0507C158.008 13.9183 158.875 15.0381 159.279 16.4102ZM170.611 33.6618C168.25 33.6618 166.283 32.8749 164.709 31.301C163.135 29.7272 162.348 27.7599 162.348 25.3992C162.348 23.0384 163.135 21.0711 164.709 19.4973C166.283 17.9235 168.25 17.1366 170.611 17.1366C172.972 17.1366 174.939 17.9235 176.513 19.4973C178.107 21.0711 178.904 23.0384 178.904 25.3992C178.904 27.7599 178.107 29.7272 176.513 31.301C174.939 32.8749 172.972 33.6618 170.611 33.6618ZM170.611 30.5141C172.064 30.5141 173.254 30.0299 174.182 29.0613C175.151 28.0727 175.635 26.8519 175.635 25.3992C175.635 23.9464 175.151 22.7358 174.182 21.7672C173.254 20.7786 172.064 20.2842 170.611 20.2842C169.199 20.2842 168.008 20.7786 167.04 21.7672C166.091 22.7559 165.617 23.9666 165.617 25.3992C165.617 26.8318 166.091 28.0525 167.04 29.0613C168.008 30.0299 169.199 30.5141 170.611 30.5141ZM186.078 15.8049V17.53H190.073V20.2842H186.078V33.2683H182.931V20.2842H180.419V17.53H182.931V15.3811C182.931 14.0091 183.415 12.8691 184.383 11.9611C185.332 11.0329 186.522 10.5688 187.955 10.5688H190.073V13.5954H188.197C187.592 13.5954 187.087 13.8073 186.684 14.231C186.28 14.6547 186.078 15.1794 186.078 15.8049ZM190.822 20.2842V17.53H193.213V14.4126H196.36V17.53H200.537V20.2842H196.36V28.0323C196.36 28.6578 196.562 29.1824 196.966 29.6061C197.369 30.0299 197.874 30.2417 198.479 30.2417H200.537V33.2683H198.237C196.824 33.2683 195.634 32.8143 194.666 31.9063C193.697 30.958 193.213 29.8079 193.213 28.456V20.2842H190.822Z" fill="#280559"/>
</svg>
