<svg width="33" height="38" viewBox="0 0 33 38" fill="none" xmlns="http://www.w3.org/2000/svg">
<path d="M13.7508 1C13.7508 1 11.3267 6.56001 6.59694 6.26001C1.86712 5.96001 2.59631 14.32 2.47807 15.32C2.35982 16.32 1 19.04 1 21.8" stroke="#0000AC" stroke-miterlimit="10" stroke-linecap="round" stroke-linejoin="round"/>
<path d="M4.29102 25.1401V25.1401C4.50389 24.9366 7.95325 25.2185 8.02489 25.5042C8.16625 26.0679 8.26255 26.4918 8.27192 26.7201C8.31133 27.6801 8.56753 30.4801 7.77923 31.8601C6.99093 33.2401 6.75446 34.5401 6.75446 37.0001" stroke="#0000AC" stroke-miterlimit="10" stroke-linecap="round" stroke-linejoin="round"/>
<path d="M19.25 1C19.25 1 21.674 6.56001 26.4039 6.26001C31.1337 5.96001 30.4045 14.32 30.5227 15.32C30.641 16.32 32.0008 19.04 32.0008 21.8" stroke="#0000AC" stroke-miterlimit="10" stroke-linecap="round" stroke-linejoin="round"/>
<path d="M28.7276 25.1401V25.1401C28.5147 24.9365 25.0654 25.2185 24.9937 25.5043C24.8524 26.0679 24.7561 26.4918 24.7467 26.7201C24.7073 27.6801 24.4511 30.4801 25.2394 31.8601C26.0277 33.2401 26.2642 34.5401 26.2642 37.0001" stroke="#0000AC" stroke-miterlimit="10" stroke-linecap="round" stroke-linejoin="round"/>
<path d="M11.721 10.28C12.3414 10.28 12.8443 9.76962 12.8443 9.14001C12.8443 8.51041 12.3414 8 11.721 8C11.1006 8 10.5977 8.51041 10.5977 9.14001C10.5977 9.76962 11.1006 10.28 11.721 10.28Z" fill="#0079AB"/>
<path d="M5.47408 15.24C5.8006 15.24 6.06528 14.9714 6.06528 14.64C6.06528 14.3087 5.8006 14.04 5.47408 14.04C5.14755 14.04 4.88281 14.3087 4.88281 14.64C4.88281 14.9714 5.14755 15.24 5.47408 15.24Z" fill="#0079AB"/>
<path d="M19.6031 25.4802C19.8208 25.4802 19.9973 25.3011 19.9973 25.0802C19.9973 24.8593 19.8208 24.6802 19.6031 24.6802C19.3854 24.6802 19.209 24.8593 19.209 25.0802C19.209 25.3011 19.3854 25.4802 19.6031 25.4802Z" fill="#0079AB"/>
<path d="M15.8192 17.9998C15.9934 17.9998 16.1346 17.8566 16.1346 17.6798C16.1346 17.5031 15.9934 17.3599 15.8192 17.3599C15.6451 17.3599 15.5039 17.5031 15.5039 17.6798C15.5039 17.8566 15.6451 17.9998 15.8192 17.9998Z" fill="#0079AB"/>
<path d="M10.755 29.3198C11.1794 29.3198 11.5235 28.9705 11.5235 28.5398C11.5235 28.109 11.1794 27.7598 10.755 27.7598C10.3305 27.7598 9.98633 28.109 9.98633 28.5398C9.98633 28.9705 10.3305 29.3198 10.755 29.3198Z" fill="#0079AB"/>
<path d="M22.5996 12.5798C22.9588 12.5798 23.2499 12.2843 23.2499 11.9198C23.2499 11.5553 22.9588 11.2598 22.5996 11.2598C22.2404 11.2598 21.9492 11.5553 21.9492 11.9198C21.9492 12.2843 22.2404 12.5798 22.5996 12.5798Z" fill="#0079AB"/>
<path d="M19.8804 35.2201C20.4573 35.2201 20.9249 34.7455 20.9249 34.1601C20.9249 33.5747 20.4573 33.1001 19.8804 33.1001C19.3036 33.1001 18.8359 33.5747 18.8359 34.1601C18.8359 34.7455 19.3036 35.2201 19.8804 35.2201Z" fill="#0079AB"/>
<path d="M14.2638 36.0801C14.3944 36.0801 14.5003 35.9726 14.5003 35.8401C14.5003 35.7075 14.3944 35.6001 14.2638 35.6001C14.1332 35.6001 14.0273 35.7075 14.0273 35.8401C14.0273 35.9726 14.1332 36.0801 14.2638 36.0801Z" fill="#0079AB"/>
</svg>
