<svg width="22" height="38" viewBox="0 0 22 38" fill="none" xmlns="http://www.w3.org/2000/svg">
<path d="M12.9096 9.72C15.3266 9.72 17.286 7.76796 17.286 5.36C17.286 2.95204 15.3266 1 12.9096 1C10.4926 1 8.5332 2.95204 8.5332 5.36C8.5332 7.76796 10.4926 9.72 12.9096 9.72Z" stroke="#0000AC" stroke-miterlimit="10" stroke-linecap="round" stroke-linejoin="round"/>
<path d="M19.1531 23.3201L15.9009 25.6801L14.4555 26.7201L13.4317 27.4601C11.8056 28.6401 9.57726 28.5001 8.11177 27.1401L2.65134 22.0601C0.543455 20.1001 0.44309 16.8001 2.41045 14.7201C3.43428 13.6401 4.7994 13.1001 6.18458 13.1001V13.1001C7.74667 13.1001 9.43121 12.953 10.9101 12.45C11.5375 12.2366 12.2023 12.1201 12.8897 12.1201C16.6638 12.1201 19.7152 15.4601 19.7152 19.6001V19.6001C19.7152 21.6605 18.7278 23.596 17.0597 24.8054L15.8808 25.6601L14.4355 26.7001C14.1343 26.9001 13.8131 27.0001 13.4718 27.0001C13.0904 27.0001 12.6889 26.8601 12.3878 26.6001C11.6651 25.9801 11.6249 24.8801 12.3075 24.2001L15.8407 20.6801C15.8608 20.6601 15.8608 20.6201 15.8407 20.6001L9.83824 14.6201C9.47688 14.2601 9.09545 13.9801 8.67388 13.7401" stroke="#0000AC" stroke-miterlimit="10" stroke-linecap="round" stroke-linejoin="round"/>
<path d="M6.10444 18.3401C7.55686 18.3401 8.73428 17.1671 8.73428 15.7201C8.73428 14.2731 7.55686 13.1001 6.10444 13.1001C4.65202 13.1001 3.47461 14.2731 3.47461 15.7201C3.47461 17.1671 4.65202 18.3401 6.10444 18.3401Z" stroke="#0000AC" stroke-miterlimit="10" stroke-linecap="round" stroke-linejoin="round"/>
<path d="M7.87072 26.9199L5.36133 36.9999" stroke="#0000AC" stroke-miterlimit="10" stroke-linecap="round" stroke-linejoin="round"/>
<path d="M17.8477 24.2803L20.9994 37.0003" stroke="#0000AC" stroke-miterlimit="10" stroke-linecap="round" stroke-linejoin="round"/>
</svg>
