<svg width="38" height="28" viewBox="0 0 38 28" fill="none" xmlns="http://www.w3.org/2000/svg">
<path d="M32.08 12.1117C33.5 11.8745 34.5 11.8547 36.2 11.7559C37 11.7559 37 12.4479 37 12.9817V25.6357C37 26.387 36.38 27 35.62 27H2.38C1.62 27 1 26.387 1 25.6357V12.9817V12.9817C1 12.9374 1.03473 12.9008 1.07899 12.8984C2.14721 12.8406 3.1107 12.7878 4.35999 12.9422" stroke="#0000AC" stroke-miterlimit="10" stroke-linecap="round" stroke-linejoin="round"/>
<path d="M21.1797 14.8403C24.6597 14.6821 25.8197 14.1088 27.4197 13.4365" stroke="#0000AC" stroke-miterlimit="10" stroke-linecap="round" stroke-linejoin="round"/>
<path d="M8.64062 13.9111C10.7806 14.3857 12.9407 14.6229 16.7007 14.7811" stroke="#0000AC" stroke-miterlimit="10" stroke-linecap="round" stroke-linejoin="round"/>
<path d="M6.02069 7.86079C7.56709 7.86079 8.82071 6.62151 8.82071 5.09275C8.82071 3.564 7.56709 2.32471 6.02069 2.32471C4.47429 2.32471 3.2207 3.564 3.2207 5.09275C3.2207 6.62151 4.47429 7.86079 6.02069 7.86079Z" stroke="#0000AC" stroke-miterlimit="10" stroke-linecap="round" stroke-linejoin="round"/>
<path d="M6.52109 18.3599L6.12109 7.84131" stroke="#0000AC" stroke-miterlimit="10" stroke-linecap="round" stroke-linejoin="round"/>
<path d="M31.4406 6.53615C32.987 6.53615 34.2406 5.29686 34.2406 3.7681C34.2406 2.23935 32.987 1 31.4406 1C29.8942 1 28.6406 2.23935 28.6406 3.7681C28.6406 5.29686 29.8942 6.53615 31.4406 6.53615Z" stroke="#0000AC" stroke-miterlimit="10" stroke-linecap="round" stroke-linejoin="round"/>
<path d="M28.8789 16.7979L30.9189 6.47705" stroke="#0000AC" stroke-miterlimit="10" stroke-linecap="round" stroke-linejoin="round"/>
<path d="M18.9797 10.6094C20.5261 10.6094 21.7797 9.3701 21.7797 7.84135C21.7797 6.31259 20.5261 5.07324 18.9797 5.07324C17.4333 5.07324 16.1797 6.31259 16.1797 7.84135C16.1797 9.3701 17.4333 10.6094 18.9797 10.6094Z" stroke="#0000AC" stroke-miterlimit="10" stroke-linecap="round" stroke-linejoin="round"/>
<path d="M18.9805 21.128V10.6094" stroke="#0000AC" stroke-miterlimit="10" stroke-linecap="round" stroke-linejoin="round"/>
</svg>
