<svg width="33" height="38" viewBox="0 0 33 38" fill="none" xmlns="http://www.w3.org/2000/svg">
<path d="M1.01758 5.64002C1.01758 5.64002 11.8421 5.12001 11.8421 13.98V25.52C11.8421 26.78 12.8701 27.8 14.1401 27.8H26.557" stroke="#0000AC" stroke-miterlimit="10" stroke-linecap="round" stroke-linejoin="round"/>
<path d="M1.0181 16.7202V28.4531C1.0181 29.7236 0.895405 31.0099 1.14145 32.2563C1.52883 34.2188 2.92242 37.0002 7.71037 37.0002C15.1081 37.0002 26.5576 37.0002 26.5576 37.0002" stroke="#0000AC" stroke-miterlimit="10" stroke-linecap="round" stroke-linejoin="round"/>
<path d="M24.8036 19.3C20.8326 19.3 17.6074 16.1 17.6074 12.16V10.14C17.6074 6.20001 20.8326 3 24.8036 3C28.7746 3 31.9998 6.20001 31.9998 10.14V12.16C31.9796 16.1 28.7746 19.3 24.8036 19.3Z" stroke="#0000AC" stroke-miterlimit="10" stroke-linecap="round" stroke-linejoin="round"/>
<path d="M25.5498 1H24.1993C23.6349 1 23.1914 1.44 23.1914 2C23.1914 2.56 23.6349 3 24.1993 3H25.5498C26.1143 3 26.5577 2.56 26.5577 2C26.5577 1.46 26.1143 1 25.5498 1Z" stroke="#0000AC" stroke-miterlimit="10" stroke-linecap="round" stroke-linejoin="round"/>
<path d="M31.9791 7.66016H20.3281" stroke="#0000AC" stroke-miterlimit="10" stroke-linecap="round" stroke-linejoin="round"/>
<path d="M23.6338 22.0491V20.7114C23.6338 19.921 22.993 19.2803 22.2026 19.2803C21.4122 19.2803 20.7715 19.921 20.7715 20.7114V22.0491C20.7715 22.8395 21.4122 23.4803 22.2026 23.4803C22.993 23.4803 23.6338 22.8395 23.6338 22.0491Z" stroke="#0000AC" stroke-miterlimit="10" stroke-linecap="round" stroke-linejoin="round"/>
<path d="M26.1543 20.5903C26.1543 21.3138 26.7511 21.9003 27.4746 21.9003C28.1981 21.9003 28.7949 21.3138 28.7949 20.5903C28.7949 19.8668 28.1981 19.2803 27.4746 19.2803C26.7511 19.2803 26.1543 19.8668 26.1543 20.5903Z" stroke="#0000AC" stroke-miterlimit="10" stroke-linecap="round" stroke-linejoin="round"/>
<path d="M22.2034 23.48V26.4342C22.2034 28.2355 22.7128 30.4137 21.3616 31.605C20.8784 32.031 20.1307 32.34 18.9782 32.34C15.2692 32.34 13.4551 32.34 13.4551 32.34" stroke="#0000AC" stroke-miterlimit="10" stroke-linecap="round" stroke-linejoin="round"/>
<path d="M13.4545 32.8579V31.6823C13.4545 30.8195 12.7551 30.1201 11.8923 30.1201C11.0295 30.1201 10.3301 30.8195 10.3301 31.6823V32.8579C10.3301 33.7207 11.0295 34.4201 11.8923 34.4201C12.7551 34.4201 13.4545 33.7207 13.4545 32.8579Z" stroke="#0000AC" stroke-miterlimit="10" stroke-linecap="round" stroke-linejoin="round"/>
<path d="M24.8033 17.0203C25.9926 17.0203 26.9601 16.0803 26.9601 14.9203C26.9601 14.5203 26.8392 14.2003 26.7384 13.8403L26.8594 14.2803V14.2803C26.7707 13.9285 26.6323 13.592 26.4948 13.2562C26.0597 12.1935 25.0512 9.82031 24.7227 9.82031C24.4407 9.82031 23.6933 11.6048 23.2259 12.7959C22.9536 13.4899 22.6465 14.1948 22.6465 14.9403V14.9403C22.6465 16.0803 23.6141 17.0203 24.8033 17.0203ZM24.8033 17.0203C25.2468 17.0203 25.6499 16.8803 25.9926 16.6603" stroke="#0000AC" stroke-miterlimit="10" stroke-linecap="round" stroke-linejoin="round"/>
</svg>
