<svg width="34" height="38" viewBox="0 0 34 38" fill="none" xmlns="http://www.w3.org/2000/svg">
<path d="M14.1621 1C14.1621 1 11.6599 6.55691 6.7775 6.25708C1.89511 5.95724 2.64781 14.3126 2.52575 15.3121C2.40369 16.3115 1 19.03 1 21.7885" stroke="#0000AC" stroke-miterlimit="10" stroke-linecap="round" stroke-linejoin="round"/>
<path d="M5.8418 6.33691C5.8418 6.33691 6.81827 13.0732 6.81827 16.7911C6.81827 20.509 8.46608 25.7661 8.52711 26.7256C8.58814 27.6851 8.83226 30.4835 8.01853 31.8627C7.2048 33.242 6.96068 34.5412 6.96068 36.9999" stroke="#0000AC" stroke-miterlimit="10" stroke-linecap="round" stroke-linejoin="round"/>
<path d="M6.83768 17.6108C6.83768 17.6108 6.51219 23.1678 4.39648 25.1267" stroke="#0000AC" stroke-miterlimit="10" stroke-linecap="round" stroke-linejoin="round"/>
<path d="M19.8379 1C19.8379 1 22.3401 6.55691 27.2225 6.25708C32.1049 5.95724 31.3522 14.3126 31.4743 15.3121C31.5963 16.3115 33 19.03 33 21.7885" stroke="#0000AC" stroke-miterlimit="10" stroke-linecap="round" stroke-linejoin="round"/>
<path d="M28.1793 6.33691C28.1793 6.33691 27.2028 13.0732 27.2028 16.7911C27.2028 20.509 25.555 25.7661 25.494 26.7256C25.433 27.6851 25.1888 30.4835 26.0026 31.8627C26.8163 33.242 27.0604 34.5412 27.0604 36.9999" stroke="#0000AC" stroke-miterlimit="10" stroke-linecap="round" stroke-linejoin="round"/>
<path d="M27.1621 17.6108C27.1621 17.6108 27.4876 23.1678 29.6033 25.1267" stroke="#0000AC" stroke-miterlimit="10" stroke-linecap="round" stroke-linejoin="round"/>
<path d="M12.0673 9.73564C12.4044 9.73564 12.6776 9.46701 12.6776 9.13564C12.6776 8.80427 12.4044 8.53564 12.0673 8.53564C11.7303 8.53564 11.457 8.80427 11.457 9.13564C11.457 9.46701 11.7303 9.73564 12.0673 9.73564Z" fill="#0079AB"/>
<path d="M17.0107 4.63848C17.3477 4.63848 17.621 4.36985 17.621 4.03848C17.621 3.70711 17.3477 3.43848 17.0107 3.43848C16.6736 3.43848 16.4004 3.70711 16.4004 4.03848C16.4004 4.36985 16.6736 4.63848 17.0107 4.63848Z" fill="#0079AB"/>
<path d="M22.0556 9.63604C22.3927 9.63604 22.6659 9.36741 22.6659 9.03604C22.6659 8.70467 22.3927 8.43604 22.0556 8.43604C21.7186 8.43604 21.4453 8.70467 21.4453 9.03604C21.4453 9.36741 21.7186 9.63604 22.0556 9.63604Z" fill="#0079AB"/>
<path d="M17.0498 14.6531C17.3868 14.6531 17.66 14.3845 17.66 14.0531C17.66 13.7218 17.3868 13.4531 17.0498 13.4531C16.7127 13.4531 16.4395 13.7218 16.4395 14.0531C16.4395 14.3845 16.7127 14.6531 17.0498 14.6531Z" fill="#0079AB"/>
<path d="M11.9853 19.5506C12.3224 19.5506 12.5956 19.282 12.5956 18.9506C12.5956 18.6192 12.3224 18.3506 11.9853 18.3506C11.6482 18.3506 11.375 18.6192 11.375 18.9506C11.375 19.282 11.6482 19.5506 11.9853 19.5506Z" fill="#0079AB"/>
<path d="M22.0556 19.5506C22.3927 19.5506 22.6659 19.282 22.6659 18.9506C22.6659 18.6192 22.3927 18.3506 22.0556 18.3506C21.7186 18.3506 21.4453 18.6192 21.4453 18.9506C21.4453 19.282 21.7186 19.5506 22.0556 19.5506Z" fill="#0079AB"/>
<path d="M22.0556 29.5848C22.3927 29.5848 22.6659 29.3161 22.6659 28.9848C22.6659 28.6534 22.3927 28.3848 22.0556 28.3848C21.7186 28.3848 21.4453 28.6534 21.4453 28.9848C21.4453 29.3161 21.7186 29.5848 22.0556 29.5848Z" fill="#0079AB"/>
<path d="M11.9853 29.5848C12.3224 29.5848 12.5956 29.3161 12.5956 28.9848C12.5956 28.6534 12.3224 28.3848 11.9853 28.3848C11.6482 28.3848 11.375 28.6534 11.375 28.9848C11.375 29.3161 11.6482 29.5848 11.9853 29.5848Z" fill="#0079AB"/>
<path d="M17.0498 24.5877C17.3868 24.5877 17.66 24.3191 17.66 23.9877C17.66 23.6563 17.3868 23.3877 17.0498 23.3877C16.7127 23.3877 16.4395 23.6563 16.4395 23.9877C16.4395 24.3191 16.7127 24.5877 17.0498 24.5877Z" fill="#0079AB"/>
<path d="M17.0498 34.5818C17.3868 34.5818 17.66 34.3132 17.66 33.9818C17.66 33.6505 17.3868 33.3818 17.0498 33.3818C16.7127 33.3818 16.4395 33.6505 16.4395 33.9818C16.4395 34.3132 16.7127 34.5818 17.0498 34.5818Z" fill="#0079AB"/>
</svg>
