<svg width="37" height="38" viewBox="0 0 37 38" fill="none" xmlns="http://www.w3.org/2000/svg">
<path d="M14.0973 28.7188C18.2338 28.7188 21.5872 25.4052 21.5872 21.3176C21.5872 17.2301 18.2338 13.9165 14.0973 13.9165C9.96075 13.9165 6.60742 17.2301 6.60742 21.3176C6.60742 25.4052 9.96075 28.7188 14.0973 28.7188Z" stroke="#0000AC" stroke-miterlimit="10" stroke-linecap="round" stroke-linejoin="round"/>
<path d="M24.7918 30.2833L21.3671 26.741C20.8069 26.1616 19.8777 26.1403 19.2916 26.6936C18.7056 27.2468 18.6846 28.165 19.2448 28.7445L22.6695 32.2868C23.2296 32.8662 24.1589 32.8874 24.7449 32.3342C25.331 31.781 25.3519 30.8627 24.7918 30.2833Z" stroke="#0000AC" stroke-miterlimit="10" stroke-linecap="round" stroke-linejoin="round"/>
<path d="M12.2956 5.79541C12.2956 10.9562 1 15.7169 1 21.3978C1 27.0787 12.2956 31.8394 12.2956 37.0001" stroke="#0000AC" stroke-miterlimit="10" stroke-linecap="round" stroke-linejoin="round"/>
<path d="M1 36.9998C1 33.9394 4.98785 30.999 8.20648 27.9585" stroke="#0000AC" stroke-miterlimit="10" stroke-linecap="round" stroke-linejoin="round"/>
<path d="M1 5.79541C1 8.85587 4.94738 11.7763 8.18624 14.8168" stroke="#0000AC" stroke-miterlimit="10" stroke-linecap="round" stroke-linejoin="round"/>
<path d="M1.89062 8.41553H11.425" stroke="#0000AC" stroke-miterlimit="10" stroke-linecap="round" stroke-linejoin="round"/>
<path d="M1.89062 34.3994H11.506" stroke="#0000AC" stroke-miterlimit="10" stroke-linecap="round" stroke-linejoin="round"/>
<path d="M2.61914 25.3184H6.38433" stroke="#0000AC" stroke-miterlimit="10" stroke-linecap="round" stroke-linejoin="round"/>
<path d="M2.61914 17.5171H6.38433" stroke="#0000AC" stroke-miterlimit="10" stroke-linecap="round" stroke-linejoin="round"/>
<path d="M1 21.3975H5.25103" stroke="#0000AC" stroke-miterlimit="10" stroke-linecap="round" stroke-linejoin="round"/>
<path d="M30.5742 15.816H25.7362C22.7605 15.816 20.3516 13.416 20.3516 10.496C20.3516 10.176 20.6147 9.896 20.9589 9.896H35.3921C35.716 9.896 35.9993 10.156 35.9993 10.496C35.9588 13.416 33.5297 15.816 30.5742 15.816Z" stroke="#0000AC" stroke-miterlimit="10" stroke-linecap="round" stroke-linejoin="round"/>
<path d="M23.9551 6.27484V6.27484C23.9551 6.27484 29.5742 5.83107 30.4626 4.79821C30.6293 4.60436 30.808 4.4096 30.9996 4.21484" stroke="#0000AC" stroke-miterlimit="10" stroke-linecap="round" stroke-linejoin="round"/>
<path d="M25.3719 7.93506C25.3719 7.93506 23.7728 8.81506 22.5987 7.93506V7.93506C21.0373 6.76478 21.868 4.2673 23.8182 4.20281C24.0528 4.19505 24.2949 4.20423 24.542 4.23505C26.627 4.49505 26.5865 7.65509 26.5865 7.65509" stroke="#0000AC" stroke-miterlimit="10" stroke-linecap="round" stroke-linejoin="round"/>
<path d="M29.523 7.99563C29.523 7.99563 34.1384 7.33551 34.1182 4.53509V4.53509C34.1062 2.88379 32.3046 0.936754 30.7176 1.39317C29.7889 1.66025 28.8698 2.10362 28.2275 2.83488C26.3651 4.9752 28.4906 7.65562 28.4906 7.65562" stroke="#0000AC" stroke-miterlimit="10" stroke-linecap="round" stroke-linejoin="round"/>
</svg>
