<svg width="37" height="37" viewBox="0 0 37 37" fill="none" xmlns="http://www.w3.org/2000/svg">
<path d="M33.3677 3.62994C29.859 0.123352 24.1803 0.123352 20.692 3.62994L18.0895 6.23089C14.5878 9.73058 14.5878 15.4069 18.0895 18.9065V18.9065C21.5884 22.4034 27.259 22.4034 30.7579 18.9065L33.3677 16.2983C36.8763 12.7917 36.8763 7.11626 33.3677 3.62994Z" stroke="#0000AC" stroke-miterlimit="10" stroke-linecap="round" stroke-linejoin="round"/>
<path d="M30.4893 6.50796C28.3192 4.33914 24.77 4.33914 22.6 6.50796L20.9899 8.11713C18.8104 10.2953 18.8104 13.8282 20.9899 16.0064V16.0064C23.1676 18.1828 26.697 18.1828 28.8746 16.0064L30.4893 14.3927C32.6593 12.2239 32.6593 8.69704 30.4893 6.50796Z" stroke="#0000AC" stroke-miterlimit="10" stroke-linecap="round" stroke-linejoin="round"/>
<path d="M17.5366 29.1418C21.0005 27.1783 21.6408 22.4545 18.8245 19.6398L17.3497 18.1658C14.5332 15.351 9.80965 15.9934 7.84715 19.458V19.458C6.51033 21.8181 6.91509 24.7804 8.83602 26.6953L10.3127 28.1674C12.2287 30.0774 15.183 30.4759 17.5366 29.1418V29.1418Z" stroke="#0000AC" stroke-miterlimit="10" stroke-linecap="round" stroke-linejoin="round"/>
<path d="M9.70721 32.7159C11.2961 31.6199 11.5005 29.3508 10.1331 27.9885L8.98636 26.8461C7.62494 25.4897 5.36822 25.6946 4.27327 27.2739V27.2739C3.42304 28.5002 3.57231 30.1592 4.62779 31.2141L5.7727 32.3583C6.82616 33.4112 8.48121 33.5616 9.70721 32.7159V32.7159Z" stroke="#0000AC" stroke-miterlimit="10" stroke-linecap="round" stroke-linejoin="round"/>
<path d="M12.2356 25.6826C12.7509 25.6826 13.1686 25.2652 13.1686 24.7502C13.1686 24.2353 12.7509 23.8179 12.2356 23.8179C11.7204 23.8179 11.3027 24.2353 11.3027 24.7502C11.3027 25.2652 11.7204 25.6826 12.2356 25.6826Z" fill="#0079AB"/>
<path d="M17.4271 20.4936C17.9423 20.4936 18.36 20.0762 18.36 19.5613C18.36 19.0463 17.9423 18.6289 17.4271 18.6289C16.9118 18.6289 16.4941 19.0463 16.4941 19.5613C16.4941 20.0762 16.9118 20.4936 17.4271 20.4936Z" fill="#0079AB"/>
<path d="M12.2552 20.21C12.7704 20.21 13.1881 19.7926 13.1881 19.2776C13.1881 18.7627 12.7704 18.3452 12.2552 18.3452C11.7399 18.3452 11.3223 18.7627 11.3223 19.2776C11.3223 19.7926 11.7399 20.21 12.2552 20.21Z" fill="#0079AB"/>
<path d="M17.7122 25.6627C18.2274 25.6627 18.6451 25.2452 18.6451 24.7303C18.6451 24.2153 18.2274 23.7979 17.7122 23.7979C17.197 23.7979 16.7793 24.2153 16.7793 24.7303C16.7793 25.2452 17.197 25.6627 17.7122 25.6627Z" fill="#0079AB"/>
<path d="M2.9668 35.9997L6.19148 32.7769" stroke="#0000AC" stroke-miterlimit="10" stroke-linecap="round" stroke-linejoin="round"/>
<path d="M1 34.0338L4.22468 30.811" stroke="#0000AC" stroke-miterlimit="10" stroke-linecap="round" stroke-linejoin="round"/>
</svg>
