<svg width="38" height="38" viewBox="0 0 38 38" fill="none" xmlns="http://www.w3.org/2000/svg">
<path d="M26.1397 20.8145C28.4546 18.6276 32.267 19.5654 31.2702 22.59C30.8822 23.7672 30.204 24.8685 29.2397 25.7823L23.3997 31.291C20.2997 34.2155 15.4397 34.0553 12.5197 30.9504L11.5797 29.9488C8.65967 26.844 8.81967 21.9763 11.9197 19.0718L17.7597 13.5631C19.1044 12.2917 20.7851 11.6048 22.4941 11.4878C25.6038 11.2749 25.945 15.1279 23.6797 17.269V17.269C22.8868 18.024 21.8659 18.3899 20.8475 18.3831C19.8433 18.3764 18.7673 18.4944 18.0359 19.1823V19.1823C16.9313 20.2212 16.9943 22.0381 18.4323 22.5195C21.0283 23.3886 24.0067 22.8313 26.1397 20.8145V20.8145Z" stroke="#0000AC" stroke-miterlimit="10" stroke-linecap="round" stroke-linejoin="round"/>
<path d="M27.1408 19.8732C27.1608 19.9934 27.1608 20.1135 27.1408 20.2337C27.1008 21.2754 26.6808 22.317 25.8408 23.0982L20.9208 27.7255C19.2808 29.288 16.6808 29.2078 15.1208 27.5452C14.3408 26.7239 13.9808 25.6622 14.0008 24.6006C14.0408 23.5589 14.4608 22.5173 15.3008 21.7361L15.9608 21.1151L19.2408 18.0303L20.2208 17.1088C21.4408 15.947 23.2008 15.7067 24.6608 16.3276" stroke="#0000AC" stroke-miterlimit="10" stroke-linecap="round" stroke-linejoin="round"/>
<path d="M13.1805 17.8901C11.5405 14.8854 12.0605 11.0594 14.6605 8.5955L20.5005 3.08686C23.5805 0.182304 28.4605 0.322551 31.3605 3.42742L32.3005 4.42899C35.2005 7.51383 35.0605 12.4015 31.9605 15.306L30.7005 16.4879L27.1005 19.8732L26.1005 20.8147C23.2405 23.5189 18.8605 23.579 15.9205 21.1352" stroke="#0000AC" stroke-miterlimit="10" stroke-linecap="round" stroke-linejoin="round"/>
<path d="M16.7806 14.5048C16.7606 14.3846 16.7606 14.2645 16.7806 14.1443C16.8206 13.1026 17.2406 12.061 18.0806 11.2797L23.0006 6.65248C24.6606 5.09003 27.2406 5.17015 28.8006 6.83275C29.5806 7.65404 29.9406 8.71571 29.9206 9.77738C29.9006 10.839 29.4606 11.8607 28.6206 12.6419L27.9806 13.2629L24.7006 16.3477L23.7206 17.2692C22.5006 18.431 20.7406 18.6713 19.2806 18.0504" stroke="#0000AC" stroke-miterlimit="10" stroke-linecap="round" stroke-linejoin="round"/>
<path d="M27.78 27.1445C33.28 28.0459 37 29.7686 37 31.7517C37 34.6563 28.94 37 19 37C9.06 37 1 34.6563 1 31.7517C1 29.8087 4.58 28.1261 9.92 27.2046" stroke="#0000AC" stroke-miterlimit="10" stroke-linecap="round" stroke-linejoin="round"/>
<path d="M14.5 26.6434C15.94 26.5234 17.46 26.4834 19.02 26.4834C20.1 26.4834 21.16 26.5034 22.18 26.5634" stroke="#0000AC" stroke-miterlimit="10" stroke-linecap="round" stroke-linejoin="round"/>
</svg>
