<svg width="27" height="38" viewBox="0 0 27 38" fill="none" xmlns="http://www.w3.org/2000/svg">
<path d="M15.2225 1C15.2225 1 14.4134 5.46478 14.6108 11.0747C14.6306 11.6377 14.6987 12.2242 14.4645 12.7366C14.1577 13.4078 13.3503 14.348 11.2403 14.98C7.04026 16.22 4.12793 19.38 2.85999 21.68C0.700523 25.56 0.482614 30.7 1.88924 33.52C3.29586 36.34 7.61477 36.34 10.4082 34.68C13.2016 33.02 11.5969 26.96 11.1809 25.52C10.7648 24.08 10.9431 19.68 13.1422 19.74C15.3413 19.78 15.2026 23.02 15.2026 25.52C15.2026 28.02 16.0545 37 16.0545 37" stroke="#0000AC" stroke-miterlimit="10" stroke-linecap="round" stroke-linejoin="round"/>
<path d="M26.0002 3.64014C26.0002 3.64014 17.2632 11.2201 21.8793 36.4001" stroke="#0000AC" stroke-miterlimit="10" stroke-linecap="round" stroke-linejoin="round"/>
<path d="M10.7062 17.3398C10.7062 17.3398 3.45508 23.4998 3.59376 28.9598" stroke="#0000AC" stroke-miterlimit="10" stroke-linecap="round" stroke-linejoin="round" stroke-dasharray="6 6"/>
</svg>
