<svg width="38" height="32" viewBox="0 0 38 32" fill="none" xmlns="http://www.w3.org/2000/svg">
<path d="M31.86 31H6.14C3.32 31 1 28.666 1 25.829V6.17101C1 3.33399 3.32 1 6.14 1H31.86C34.68 1 37 3.33399 37 6.17101V25.829C37 28.666 34.68 31 31.86 31Z" stroke="#0000AC" stroke-miterlimit="10" stroke-linecap="round" stroke-linejoin="round"/>
<path d="M1 15.9899H5.70917C6.30818 15.9899 6.88575 15.767 7.32938 15.3645L8.49708 14.305C9.1766 13.6885 10.2626 13.9391 10.6032 14.7911V14.7911C11.0738 15.9682 12.7731 15.8646 13.0973 14.6391L13.3384 13.7277C13.8122 11.9364 16.4329 12.2023 16.5372 14.0523L16.6903 16.7658C16.8066 18.8274 19.6835 19.2134 20.339 17.2552L20.5905 16.504C21.0357 15.1741 22.8747 15.0655 23.4733 16.3337L23.6511 16.7104C24.1332 17.7319 25.5806 17.7484 26.0858 16.7381V16.7381C26.3151 16.2796 26.7838 15.9899 27.2965 15.9899H31.58" stroke="#0000AC" stroke-miterlimit="10" stroke-linecap="round" stroke-linejoin="round"/>
<path d="M31.5798 17.8207C32.5849 17.8207 33.3998 17.0009 33.3998 15.9897C33.3998 14.9785 32.5849 14.1587 31.5798 14.1587C30.5746 14.1587 29.7598 14.9785 29.7598 15.9897C29.7598 17.0009 30.5746 17.8207 31.5798 17.8207Z" fill="#0079AB"/>
</svg>
