<svg width="34" height="38" viewBox="0 0 34 38" fill="none" xmlns="http://www.w3.org/2000/svg">
<path d="M24.0332 17.7104V17.6904" stroke="#0000AC" stroke-miterlimit="10" stroke-linecap="round" stroke-linejoin="round"/>
<path d="M3.86523 23.8076C3.86523 30.1841 8.74426 35.3612 14.7689 35.3612C16.0726 35.3612 17.3171 35.1213 18.4627 34.6816" stroke="#0000AC" stroke-miterlimit="10" stroke-linecap="round" stroke-linejoin="round"/>
<path d="M3.86523 23.8072V18.1104" stroke="#0000AC" stroke-miterlimit="10" stroke-linecap="round" stroke-linejoin="round"/>
<path d="M25.6914 20.9487V18.6699" stroke="#0000AC" stroke-miterlimit="10" stroke-linecap="round" stroke-linejoin="round"/>
<path d="M26.3235 18.6302C26.2127 18.7984 25.9898 18.8506 25.8159 18.749L11.7853 10.5547C9.37542 9.15551 8.54581 6.03725 9.94827 3.5986C11.331 1.15995 14.4124 0.320405 16.8223 1.73962L22.7679 5.2177C27.4099 7.93619 28.9901 13.9328 26.3235 18.6302V18.6302Z" stroke="#0000AC" stroke-miterlimit="10" stroke-linecap="round" stroke-linejoin="round"/>
<path d="M14.2939 12.0139L2.79766 18.7256C2.62424 18.8268 2.40148 18.7658 2.30391 18.5902V18.5902C-0.382494 13.8928 1.21747 7.89616 5.85943 5.17767L11.7063 1.75956L11.8051 1.69959C11.9039 1.63963 12.0026 1.59968 12.1014 1.53971C12.4372 1.3798 12.773 1.23987 13.1088 1.15991C13.2668 1.11994 13.4248 1.07995 13.5829 1.05996C13.8199 1.01999 14.0767 1 14.3137 1L15.0446 1.05996C15.2026 1.07995 15.3606 1.11994 15.5186 1.15991L16.526 1.53971C16.6643 1.59968 16.7828 1.6796 16.9211 1.75956" stroke="#0000AC" stroke-miterlimit="10" stroke-linecap="round" stroke-linejoin="round"/>
<path d="M8.05273 20.4893C8.05273 20.4893 9.90953 22.2493 11.6478 20.4893" stroke="#0000AC" stroke-miterlimit="10" stroke-linecap="round" stroke-linejoin="round"/>
<path d="M21.0892 20.4893C21.0892 20.4893 19.2324 22.2493 17.4941 20.4893" stroke="#0000AC" stroke-miterlimit="10" stroke-linecap="round" stroke-linejoin="round"/>
<path d="M10.7779 25.886C10.1655 26.0459 10.0865 27.2252 9.43467 27.7849C9.03961 28.1247 8.4668 26.2258 8.4668 25.6861C8.4668 25.1464 9.67174 24.8466 10.2051 24.8266C11.0544 24.8066 13.8001 25.1264 10.7779 25.886Z" fill="#0079AB"/>
<path d="M27.2321 29.1845C26.126 29.4644 26.0074 31.5832 24.8223 32.6226C24.1111 33.2423 23.084 29.8242 23.084 28.8647C23.084 27.9053 25.2568 27.3456 26.2049 27.3056C27.7259 27.2456 32.6444 27.8053 27.2321 29.1845Z" fill="#0079AB"/>
<path d="M25.8884 36.9999C29.8157 36.9999 32.9995 33.7782 32.9995 29.8039C32.9995 25.8297 29.8157 22.6079 25.8884 22.6079C21.961 22.6079 18.7773 25.8297 18.7773 29.8039C18.7773 33.7782 21.961 36.9999 25.8884 36.9999Z" stroke="#0000AC" stroke-miterlimit="10" stroke-linecap="round" stroke-linejoin="round"/>
</svg>
