<svg width="38" height="37" viewBox="0 0 38 37" fill="none" xmlns="http://www.w3.org/2000/svg">
<path d="M13.1877 34.9722C12.0069 35.617 10.6661 35.9998 9.2252 35.9998C4.68233 35.9998 1 32.2923 1 27.7183V27.7183C1 22.6215 5.13177 18.4897 10.2286 18.4897H14.0082" stroke="#0000AC" stroke-miterlimit="10" stroke-linecap="round" stroke-linejoin="round"/>
<path d="M14.0082 18.4899H10.2084C5.12275 18.4899 1 14.3672 1 9.28152V9.28152C1 4.70754 4.68233 1 9.2252 1C11.4866 1 13.5479 1.92689 15.0289 3.41797C16.5098 4.90905 17.4304 6.98447 17.4304 9.26138V14.3189" stroke="#0000AC" stroke-miterlimit="10" stroke-linecap="round" stroke-linejoin="round"/>
<path d="M4.0217 21.3712C4.44143 21.3712 4.78171 21.0284 4.78171 20.6055C4.78171 20.1826 4.44143 19.8398 4.0217 19.8398C3.60196 19.8398 3.26172 20.1826 3.26172 20.6055C3.26172 21.0284 3.60196 21.3712 4.0217 21.3712Z" fill="#0079AB"/>
<path d="M9.18576 21.3712C9.6055 21.3712 9.94577 21.0284 9.94577 20.6055C9.94577 20.1826 9.6055 19.8398 9.18576 19.8398C8.76602 19.8398 8.42578 20.1826 8.42578 20.6055C8.42578 21.0284 8.76602 21.3712 9.18576 21.3712Z" fill="#0079AB"/>
<path d="M4.0217 26.2272C4.44143 26.2272 4.78171 25.8844 4.78171 25.4615C4.78171 25.0386 4.44143 24.6958 4.0217 24.6958C3.60196 24.6958 3.26172 25.0386 3.26172 25.4615C3.26172 25.8844 3.60196 26.2272 4.0217 26.2272Z" fill="#0079AB"/>
<path d="M9.74429 25.401C9.74429 25.8242 9.58431 26.2272 9.16431 26.2272C8.74431 26.2272 8.4043 25.8846 8.4043 25.4615C8.4043 25.0383 8.74431 24.6958 9.16431 24.6958C9.60431 24.6958 9.74429 24.9779 9.74429 25.401Z" fill="#0079AB"/>
<path d="M4.0217 31.0836C4.44143 31.0836 4.78171 30.7408 4.78171 30.3179C4.78171 29.8951 4.44143 29.5522 4.0217 29.5522C3.60196 29.5522 3.26172 29.8951 3.26172 30.3179C3.26172 30.7408 3.60196 31.0836 4.0217 31.0836Z" fill="#0079AB"/>
<path d="M9.86575 30.3784C9.86575 30.8015 9.60576 31.0836 9.18576 31.0836C8.76576 31.0836 8.42578 30.7411 8.42578 30.3179C8.42578 29.8948 8.76576 29.5522 9.18576 29.5522C9.60576 29.5522 9.86575 29.9552 9.86575 30.3784Z" fill="#0079AB"/>
<path d="M6.56274 23.7892C6.98248 23.7892 7.32275 23.4464 7.32275 23.0235C7.32275 22.6006 6.98248 22.2578 6.56274 22.2578C6.14301 22.2578 5.80273 22.6006 5.80273 23.0235C5.80273 23.4464 6.14301 23.7892 6.56274 23.7892Z" fill="#0079AB"/>
<path d="M6.56274 28.6451C6.98248 28.6451 7.32275 28.3023 7.32275 27.8795C7.32275 27.4566 6.98248 27.1138 6.56274 27.1138C6.14301 27.1138 5.80273 27.4566 5.80273 27.8795C5.80273 28.3023 6.14301 28.6451 6.56274 28.6451Z" fill="#0079AB"/>
<path d="M6.56274 33.6022C6.98248 33.6022 7.32275 33.2594 7.32275 32.8365C7.32275 32.4136 6.98248 32.0708 6.56274 32.0708C6.14301 32.0708 5.80273 32.4136 5.80273 32.8365C5.80273 33.2594 6.14301 33.6022 6.56274 33.6022Z" fill="#0079AB"/>
<path d="M22.8824 20.5814C19.4113 17.6737 18.9384 12.5093 21.8235 9.01949L22.4731 8.23379C25.3749 4.72775 30.5582 4.24416 34.0404 7.16586C37.5226 10.0876 38.0029 15.3063 35.101 18.8124L34.5196 19.5157C31.6079 23.0377 26.3854 23.516 22.8824 20.5814V20.5814Z" stroke="#0000AC" stroke-miterlimit="10" stroke-linecap="round" stroke-linejoin="round"/>
<path d="M10.7658 22.3987L11.3275 21.7188C14.2389 18.1953 19.4625 17.7162 22.9662 20.6513V20.6513C26.4366 23.5584 26.9101 28.7215 24.0266 32.2114L23.3938 32.9773C20.4919 36.4833 15.3087 36.9669 11.8265 34.0452C10.0854 32.5743 9.08471 30.5392 8.90459 28.4436C8.70447 26.3481 9.30486 24.1517 10.7658 22.3987Z" stroke="#0000AC" stroke-miterlimit="10" stroke-linecap="round" stroke-linejoin="round"/>
<path d="M28.2561 23.0836C28.6758 23.0836 29.0161 22.7408 29.0161 22.3179C29.0161 21.8951 28.6758 21.5522 28.2561 21.5522C27.8363 21.5522 27.4961 21.8951 27.4961 22.3179C27.4961 22.7408 27.8363 23.0836 28.2561 23.0836Z" fill="#0079AB"/>
<path d="M24.3147 19.7794C24.7344 19.7794 25.0747 19.4366 25.0747 19.0137C25.0747 18.5909 24.7344 18.248 24.3147 18.248C23.8949 18.248 23.5547 18.5909 23.5547 19.0137C23.5547 19.4366 23.8949 19.7794 24.3147 19.7794Z" fill="#0079AB"/>
<path d="M20.3518 16.4547C20.7715 16.4547 21.1118 16.1119 21.1118 15.689C21.1118 15.2661 20.7715 14.9233 20.3518 14.9233C19.9321 14.9233 19.5918 15.2661 19.5918 15.689C19.5918 16.1119 19.9321 16.4547 20.3518 16.4547Z" fill="#0079AB"/>
<path d="M31.3381 19.3561C31.7579 19.3561 32.0981 19.0133 32.0981 18.5904C32.0981 18.1675 31.7579 17.8247 31.3381 17.8247C30.9184 17.8247 30.5781 18.1675 30.5781 18.5904C30.5781 19.0133 30.9184 19.3561 31.3381 19.3561Z" fill="#0079AB"/>
<path d="M27.3967 16.0514C27.8165 16.0514 28.1567 15.7086 28.1567 15.2857C28.1567 14.8628 27.8165 14.52 27.3967 14.52C26.977 14.52 26.6367 14.8628 26.6367 15.2857C26.6367 15.7086 26.977 16.0514 27.3967 16.0514Z" fill="#0079AB"/>
<path d="M23.4338 12.7272C23.8536 12.7272 24.1938 12.3844 24.1938 11.9615C24.1938 11.5386 23.8536 11.1958 23.4338 11.1958C23.0141 11.1958 22.6738 11.5386 22.6738 11.9615C22.6738 12.3844 23.0141 12.7272 23.4338 12.7272Z" fill="#0079AB"/>
<path d="M34.4202 15.6285C34.8399 15.6285 35.1802 15.2857 35.1802 14.8629C35.1802 14.44 34.8399 14.0972 34.4202 14.0972C34.0004 14.0972 33.6602 14.44 33.6602 14.8629C33.6602 15.2857 34.0004 15.6285 34.4202 15.6285Z" fill="#0079AB"/>
<path d="M30.4787 12.3038C30.8985 12.3038 31.2387 11.961 31.2387 11.5381C31.2387 11.1153 30.8985 10.7725 30.4787 10.7725C30.059 10.7725 29.7188 11.1153 29.7188 11.5381C29.7188 11.961 30.059 12.3038 30.4787 12.3038Z" fill="#0079AB"/>
<path d="M26.5159 8.99915C26.9356 8.99915 27.2759 8.65635 27.2759 8.23347C27.2759 7.81059 26.9356 7.46777 26.5159 7.46777C26.0961 7.46777 25.7559 7.81059 25.7559 8.23347C25.7559 8.65635 26.0961 8.99915 26.5159 8.99915Z" fill="#0079AB"/>
<path d="M27.8557 19.5978C28.2754 19.5978 28.6157 19.255 28.6157 18.8321C28.6157 18.4092 28.2754 18.0664 27.8557 18.0664C27.436 18.0664 27.0957 18.4092 27.0957 18.8321C27.0957 19.255 27.436 19.5978 27.8557 19.5978Z" fill="#0079AB"/>
<path d="M23.9143 16.2731C24.334 16.2731 24.6743 15.9303 24.6743 15.5074C24.6743 15.0845 24.334 14.7417 23.9143 14.7417C23.4946 14.7417 23.1543 15.0845 23.1543 15.5074C23.1543 15.9303 23.4946 16.2731 23.9143 16.2731Z" fill="#0079AB"/>
<path d="M30.9377 15.8702C31.3575 15.8702 31.6977 15.5274 31.6977 15.1045C31.6977 14.6817 31.3575 14.3389 30.9377 14.3389C30.518 14.3389 30.1777 14.6817 30.1777 15.1045C30.1777 15.5274 30.518 15.8702 30.9377 15.8702Z" fill="#0079AB"/>
<path d="M26.9963 12.5455C27.4161 12.5455 27.7563 12.2027 27.7563 11.7799C27.7563 11.357 27.4161 11.0142 26.9963 11.0142C26.5766 11.0142 26.2363 11.357 26.2363 11.7799C26.2363 12.2027 26.5766 12.5455 26.9963 12.5455Z" fill="#0079AB"/>
<path d="M34.0998 12.0621C34.5196 12.0621 34.8598 11.7193 34.8598 11.2964C34.8598 10.8736 34.5196 10.5308 34.0998 10.5308C33.6801 10.5308 33.3398 10.8736 33.3398 11.2964C33.3398 11.7193 33.6801 12.0621 34.0998 12.0621Z" fill="#0079AB"/>
<path d="M30.1389 8.75745C30.5587 8.75745 30.8989 8.41463 30.8989 7.99176C30.8989 7.56888 30.5587 7.22607 30.1389 7.22607C29.7192 7.22607 29.3789 7.56888 29.3789 7.99176C29.3789 8.41463 29.7192 8.75745 30.1389 8.75745Z" fill="#0079AB"/>
</svg>
