<svg width="37" height="35" viewBox="0 0 37 35" fill="none" xmlns="http://www.w3.org/2000/svg">
<path d="M27.4723 25.3525C25.8774 26.9451 23.2858 26.9451 21.6909 25.3323L8.77246 12.1481C7.19753 10.5353 7.19755 7.91455 8.79241 6.30179C10.3873 4.7092 12.9789 4.70922 14.5738 6.32197L27.4922 19.5062C29.0671 21.119 29.0671 23.7599 27.4723 25.3525Z" stroke="#0000AC" stroke-miterlimit="10" stroke-linecap="round" stroke-linejoin="round"/>
<path d="M8.81259 6.30192L3.60938 1" stroke="#0000AC" stroke-miterlimit="10" stroke-linecap="round" stroke-linejoin="round"/>
<path d="M30.8381 25.5822L30.5992 25.3386C29.7425 24.4652 28.3478 24.4595 27.484 25.3258C26.6202 26.1922 26.6144 27.6026 27.4711 28.476L27.71 28.7196C28.5667 29.593 29.9614 29.5987 30.8252 28.7324C31.689 27.866 31.6948 26.4556 30.8381 25.5822Z" stroke="#0000AC" stroke-miterlimit="10" stroke-linecap="round" stroke-linejoin="round"/>
<path d="M33.475 31.4649C35.4215 29.5127 36.4024 27.3213 35.6658 26.5703C34.9292 25.8193 32.7541 26.7932 30.8076 28.7454C28.8611 30.6977 27.8803 32.8891 28.6169 33.64C29.3535 34.391 31.5285 33.4172 33.475 31.4649Z" stroke="#0000AC" stroke-miterlimit="10" stroke-linecap="round" stroke-linejoin="round"/>
<path d="M20.9727 24.5865L22.3283 23.2358" stroke="#0000AC" stroke-miterlimit="10" stroke-linecap="round" stroke-linejoin="round"/>
<path d="M11.1641 14.5876L12.5197 13.2168" stroke="#0000AC" stroke-miterlimit="10" stroke-linecap="round" stroke-linejoin="round"/>
<path d="M15.709 19.2243L17.0646 17.8535" stroke="#0000AC" stroke-miterlimit="10" stroke-linecap="round" stroke-linejoin="round"/>
<path d="M18.3398 21.9053L21.5097 18.7402" stroke="#0000AC" stroke-miterlimit="10" stroke-linecap="round" stroke-linejoin="round"/>
<path d="M13.4375 16.9059L16.6073 13.7207" stroke="#0000AC" stroke-miterlimit="10" stroke-linecap="round" stroke-linejoin="round"/>
<path d="M3.96652 12.4506C4.70415 12.4506 5.2823 11.8459 5.2823 11.1C5.2823 10.8379 5.22247 10.6363 5.14273 10.4146L5.22249 10.6968C5.17633 10.4634 5.08138 10.2433 4.99461 10.0217C4.72487 9.33308 4.10714 7.81396 3.90672 7.81396C3.73436 7.81396 3.27985 8.9553 2.99471 9.71986C2.82751 10.1682 2.63086 10.6215 2.63086 11.1C2.63086 11.8459 3.2289 12.4506 3.96652 12.4506C4.22569 12.4506 4.48485 12.37 4.70414 12.2289L3.96652 12.4506Z" fill="#0079AB"/>
<path d="M1.33567 8.33778C2.05335 8.33778 2.65144 7.73298 2.65144 6.96692C2.65144 6.70485 2.59161 6.50327 2.51187 6.26136L2.59163 6.54359C2.54544 6.31006 2.45081 6.08997 2.3646 5.86808C2.09531 5.17499 1.47649 3.64062 1.27586 3.64062C1.10279 3.64062 0.645239 4.80935 0.360338 5.58586C0.195589 6.03489 0 6.48862 0 6.96692C0.0199358 7.71282 0.59804 8.33778 1.33567 8.33778C1.59483 8.33778 1.85403 8.25714 2.05339 8.11603L1.33567 8.33778Z" fill="#0079AB"/>
</svg>
