<svg width="38" height="35" viewBox="0 0 38 35" fill="none" xmlns="http://www.w3.org/2000/svg">
<path d="M1 25.2023C2.52 25.8553 6.06 26.2906 8.44 25.1033C10.92 23.8765 13.1 23.837 15.66 25.1033C18.22 26.3697 21.48 26.3499 24 25.1033C26.52 23.8567 29.14 23.7974 31.76 25.1033C33.56 25.9938 35.44 26.0729 37 25.7563" stroke="#0000AC" stroke-miterlimit="10" stroke-linecap="round" stroke-linejoin="round"/>
<path d="M23.36 19.3452H24.1201C24.1201 19.3452 24.1201 19.3452 24.1201 19.3452C24.1201 19.3452 25.64 19.3452 27.36 19.3452C29.08 19.3452 29 21.0865 30.54 21.0865C32.08 21.0865 31.76 19.3452 33.58 19.3452C35.42 19.3452 35.86 19.3452 35.86 19.3452C35.86 19.3452 35.86 19.3452 35.86 19.3452H36.14V19.3452C36.615 19.3452 37 19.7302 37 20.2052V28.3332C37 31.462 34.5645 34.4451 31.76 33.0577V33.0577C29.14 31.7518 26.52 31.8111 24 33.0577C21.48 34.3043 18.22 34.3241 15.66 33.0577C13.1 31.7914 10.92 31.8309 8.44 33.0577C7.83683 33.3536 7.16044 33.5465 6.46162 33.6594C3.15174 34.1939 1 30.968 1 27.6152V27.6152C1 23.0478 4.70261 19.3452 9.27001 19.3452H14.72H23.36Z" stroke="#0000AC" stroke-miterlimit="10" stroke-linecap="round" stroke-linejoin="round"/>
<path d="M25.5518 10.5344C25.6238 10.761 25.73 10.9752 25.8669 11.1696L26.4297 11.9691C26.8651 12.5877 26.7121 13.4427 26.0892 13.8719V13.8719C25.475 14.2951 24.6347 14.1447 24.2054 13.5348L23.6248 12.7101C23.4893 12.5176 23.326 12.3462 23.1401 12.2017L21.6956 11.0781C20.9141 10.4703 20.1964 9.7847 19.5533 9.03196L17.6804 6.83971C17.1804 6.2461 17.3004 5.37548 17.9404 4.94016L20.5004 3.1791C21.1404 2.74378 22.0204 2.94165 22.4004 3.61442L23.8323 6.13293C24.3164 6.98434 24.7099 7.88413 25.0064 8.81757L25.5518 10.5344Z" stroke="#0000AC" stroke-miterlimit="10" stroke-linecap="round" stroke-linejoin="round"/>
<path d="M25.6599 10.876L23.4199 12.4194" stroke="#0000AC" stroke-miterlimit="10" stroke-linecap="round" stroke-linejoin="round"/>
<path d="M26.0801 13.8643L27.5201 15.9023" stroke="#0000AC" stroke-miterlimit="10" stroke-linecap="round" stroke-linejoin="round"/>
<path d="M5.74023 11.5688C7.66023 14.3192 10.0002 14.6951 11.6602 13.5673C13.3202 12.4196 13.2202 10.5002 11.7602 8.44238C10.3002 6.36472 9.54023 4.48491 13.3002 1.89279C16.5402 -0.323381 18.4002 2.18961 18.8602 2.96131C18.9602 3.1394 19.0802 3.29768 19.1802 3.47577L19.4802 3.91109" stroke="#0000AC" stroke-miterlimit="10" stroke-linecap="round" stroke-linejoin="round"/>
<path d="M30.4805 11.6479V15.0909" stroke="#0000AC" stroke-miterlimit="10" stroke-linecap="round" stroke-linejoin="round"/>
<path d="M35.0193 14.6357L32.7793 16.8519" stroke="#0000AC" stroke-miterlimit="10" stroke-linecap="round" stroke-linejoin="round"/>
<path d="M20.2202 30.9998C20.8056 30.9998 21.2802 30.5303 21.2802 29.9511C21.2802 29.3719 20.8056 28.9023 20.2202 28.9023C19.6347 28.9023 19.1602 29.3719 19.1602 29.9511C19.1602 30.5303 19.6347 30.9998 20.2202 30.9998Z" fill="#0079AB"/>
<path d="M11.8397 29.6543C12.7565 29.6543 13.4996 28.919 13.4996 28.012C13.4996 27.1049 12.7565 26.3696 11.8397 26.3696C10.9229 26.3696 10.1797 27.1049 10.1797 28.012C10.1797 28.919 10.9229 29.6543 11.8397 29.6543Z" stroke="#0000AC" stroke-miterlimit="10" stroke-linecap="round" stroke-linejoin="round"/>
<path d="M28.2811 29.8125C29.1979 29.8125 29.941 29.0772 29.941 28.1702C29.941 27.2631 29.1979 26.5278 28.2811 26.5278C27.3643 26.5278 26.6211 27.2631 26.6211 28.1702C26.6211 29.0772 27.3643 29.8125 28.2811 29.8125Z" stroke="#0000AC" stroke-miterlimit="10" stroke-linecap="round" stroke-linejoin="round"/>
</svg>
