<svg width="22" height="38" viewBox="0 0 22 38" fill="none" xmlns="http://www.w3.org/2000/svg">
<path d="M13.3414 25.4864C11.936 27.0056 10.0824 27.945 8.06596 27.945C5.24847 27.945 3.3198 26.7038 2.05683 24.8224C-1.06538 20.1715 2.64554 14.3833 4.80699 9.21544V9.21544C4.94957 8.89562 5.07178 8.59577 5.17362 8.3559V8.3559C7.04964 3.89862 11.4145 1 16.2505 1H19.5742C20.3686 1 21 1.61965 21 2.39922V8.81567V35.6008C21 36.3804 20.3686 37 19.5742 37H6.23278C5.96799 37 5.78468 36.7202 5.88652 36.4803L6.88458 34.0417C7.16974 33.362 7.88264 32.0028 7.88264 30.6835L8.04559 28.1249" stroke="#0000AC" stroke-miterlimit="10" stroke-linecap="round" stroke-linejoin="round"/>
<path d="M2.3418 17.4907C2.3418 17.4907 4.56198 25.8261 10.5911 24.5468" stroke="#0000AC" stroke-miterlimit="10" stroke-linecap="round" stroke-linejoin="round" stroke-dasharray="6 6"/>
<path d="M5.84675 17.271C5.84675 17.271 5.6227 19.6896 9.04462 20.6091C12.4665 21.5086 14.4627 21.5086 15.3792 22.668" stroke="#0000AC" stroke-miterlimit="10" stroke-linecap="round" stroke-linejoin="round" stroke-dasharray="6 6"/>
<path d="M3.25977 16.3515C3.25977 16.3515 5.86694 13.7529 9.22776 15.412C12.5886 17.0711 11.8553 18.7102 14.768 19.2299" stroke="#0000AC" stroke-miterlimit="10" stroke-linecap="round" stroke-linejoin="round" stroke-dasharray="6 6"/>
</svg>
