<svg width="34" height="38" viewBox="0 0 34 38" fill="none" xmlns="http://www.w3.org/2000/svg">
<path d="M24.0312 17.7104V17.6904" stroke="#0000AC" stroke-miterlimit="10" stroke-linecap="round" stroke-linejoin="round"/>
<path d="M3.86523 23.8076C3.86523 30.1841 8.74419 35.3612 14.7688 35.3612C16.0725 35.3612 17.317 35.1213 18.4627 34.6816" stroke="#0000AC" stroke-miterlimit="10" stroke-linecap="round" stroke-linejoin="round"/>
<path d="M3.86523 23.8072V18.1104" stroke="#0000AC" stroke-miterlimit="10" stroke-linecap="round" stroke-linejoin="round"/>
<path d="M25.6914 20.9487V18.6699" stroke="#0000AC" stroke-miterlimit="10" stroke-linecap="round" stroke-linejoin="round"/>
<path d="M26.3235 18.6302C26.2127 18.7984 25.9897 18.8505 25.8159 18.749L11.7853 10.5547C9.37544 9.15551 8.5458 6.03725 9.94826 3.5986C11.331 1.15995 14.4124 0.320405 16.8223 1.73962L22.7679 5.2177C27.4099 7.93619 28.9901 13.9328 26.3235 18.6302V18.6302Z" stroke="#0000AC" stroke-miterlimit="10" stroke-linecap="round" stroke-linejoin="round"/>
<path d="M14.294 12.0139L2.79765 18.7256C2.62423 18.8268 2.40147 18.7658 2.3039 18.5902V18.5902C-0.382498 13.8928 1.2175 7.89616 5.85944 5.17767L11.7063 1.75956L11.8051 1.69959C11.9038 1.63963 12.0026 1.59968 12.1014 1.53971C12.4372 1.3798 12.773 1.23987 13.1088 1.15991C13.2668 1.11994 13.4248 1.07995 13.5828 1.05996C13.8199 1.01999 14.0767 1 14.3137 1L15.0445 1.05996C15.2026 1.07995 15.3606 1.11994 15.5186 1.15991L16.526 1.53971C16.6643 1.59968 16.7828 1.6796 16.9211 1.75956" stroke="#0000AC" stroke-miterlimit="10" stroke-linecap="round" stroke-linejoin="round"/>
<path d="M8.05273 20.4893C8.05273 20.4893 9.9095 22.2493 11.6478 20.4893" stroke="#0000AC" stroke-miterlimit="10" stroke-linecap="round" stroke-linejoin="round"/>
<path d="M21.0892 20.4893C21.0892 20.4893 19.2324 22.2493 17.4941 20.4893" stroke="#0000AC" stroke-miterlimit="10" stroke-linecap="round" stroke-linejoin="round"/>
<path d="M9.82917 28.246C10.2655 28.246 10.6193 27.8878 10.6193 27.446C10.6193 27.0042 10.2655 26.646 9.82917 26.646C9.3928 26.646 9.03906 27.0042 9.03906 27.446C9.03906 27.8878 9.3928 28.246 9.82917 28.246Z" fill="#0079AB"/>
<path d="M13.4835 28.246C13.9199 28.246 14.2736 27.8878 14.2736 27.446C14.2736 27.0042 13.9199 26.646 13.4835 26.646C13.0471 26.646 12.6934 27.0042 12.6934 27.446C12.6934 27.8878 13.0471 28.246 13.4835 28.246Z" fill="#0079AB"/>
<path d="M23.4001 33.2819C24.1528 33.2819 24.763 32.6644 24.763 31.9026C24.763 31.1409 24.1528 30.5234 23.4001 30.5234C22.6473 30.5234 22.0371 31.1409 22.0371 31.9026C22.0371 32.6644 22.6473 33.2819 23.4001 33.2819Z" fill="#0079AB"/>
<path d="M28.3786 33.2819C29.1313 33.2819 29.7415 32.6644 29.7415 31.9026C29.7415 31.1409 29.1313 30.5234 28.3786 30.5234C27.6258 30.5234 27.0156 31.1409 27.0156 31.9026C27.0156 32.6644 27.6258 33.2819 28.3786 33.2819Z" fill="#0079AB"/>
<path d="M25.8688 29.1042C26.6216 29.1042 27.2317 28.4867 27.2317 27.7249C27.2317 26.9632 26.6216 26.3457 25.8688 26.3457C25.1161 26.3457 24.5059 26.9632 24.5059 27.7249C24.5059 28.4867 25.1161 29.1042 25.8688 29.1042Z" fill="#0079AB"/>
<path d="M25.8884 36.9999C29.8157 36.9999 32.9995 33.7782 32.9995 29.8039C32.9995 25.8297 29.8157 22.6079 25.8884 22.6079C21.9611 22.6079 18.7773 25.8297 18.7773 29.8039C18.7773 33.7782 21.9611 36.9999 25.8884 36.9999Z" stroke="#0000AC" stroke-miterlimit="10" stroke-linecap="round" stroke-linejoin="round"/>
</svg>
