<svg width="33" height="38" viewBox="0 0 33 38" fill="none" xmlns="http://www.w3.org/2000/svg">
<path d="M16.4994 9C18.6887 9 20.4635 7.20914 20.4635 5C20.4635 2.79086 18.6887 1 16.4994 1C14.31 1 12.5352 2.79086 12.5352 5C12.5352 7.20914 14.31 9 16.4994 9Z" stroke="#0000AC" stroke-miterlimit="10" stroke-linecap="round"/>
<path d="M16.5 25.58V35.32C16.5 36.24 17.2532 37 18.165 37H18.7794C19.6912 37 20.4444 36.24 20.4444 35.32V31.2V17.02C20.4444 15.76 21.4552 14.74 22.704 14.74H28.7097H30.4341C31.2864 14.74 32 14.04 32 13.16V13.08C32 12.22 31.3063 11.5 30.4341 11.5H10.0978H2.56586C1.71356 11.5 1 12.2 1 13.08V13.16C1 14.02 1.69374 14.74 2.56586 14.74H11.0889C11.8817 14.74 12.5358 15.4 12.5358 16.2V22.22V35.32C12.5358 36.24 13.289 37 14.2008 37H14.8152C15.727 37 16.4802 36.24 16.4802 35.32" stroke="#0000AC" stroke-miterlimit="10" stroke-linecap="round"/>
</svg>
