<svg width="38" height="38" viewBox="0 0 38 38" fill="none" xmlns="http://www.w3.org/2000/svg">
<path d="M24.8594 1C24.8594 1 34.0594 3.19096 36.9994 13.5025" stroke="#0000AC" stroke-miterlimit="10" stroke-linecap="round" stroke-linejoin="round"/>
<path d="M23.7207 5.4624C23.7207 5.4624 30.5007 7.65337 32.5407 14.4875" stroke="#0000AC" stroke-miterlimit="10" stroke-linecap="round" stroke-linejoin="round"/>
<path d="M22.8789 9.62305C22.8789 9.62305 27.0589 11.6733 28.1389 15.3115" stroke="#0000AC" stroke-miterlimit="10" stroke-linecap="round" stroke-linejoin="round"/>
<path d="M22.4993 15.4725C24.4256 17.4084 25.4642 19.1677 26.0241 20.4987C26.6716 22.0378 26.017 23.6758 24.8393 24.8594V24.8594C24.6193 25.0805 24.2793 25.1408 23.9993 24.98C22.5193 24.1358 19.3793 24.2765 18.9793 24.6986V24.6986C18.9793 24.6986 18.5707 25.1092 18.5707 25.1092L10.5793 33.1408C10.3793 33.3418 10.0993 33.4624 9.7993 33.4624V33.4624C6.85226 33.6341 4.40828 31.2099 4.55601 28.2616L4.5593 28.1961C4.5793 27.9348 4.6993 27.6936 4.8793 27.4926L12.8929 19.4387C12.8929 19.4387 13.3193 19.0102 13.3193 19.0102V19.0102C13.7393 18.5881 13.8793 15.4323 13.0393 13.9649C12.8793 13.7036 12.9393 13.3418 13.1593 13.1207V13.1207C14.174 12.1009 16.1843 11.3766 17.5087 11.9384C18.83 12.4989 20.5748 13.5383 22.4993 15.4725Z" stroke="#0000AC" stroke-miterlimit="10" stroke-linecap="round" stroke-linejoin="round"/>
<path d="M15.4395 22.4873L13.0195 24.9194" stroke="#0000AC" stroke-miterlimit="10" stroke-linecap="round" stroke-linejoin="round"/>
<path d="M4.3 33.7837L1 36.9998" stroke="#0000AC" stroke-miterlimit="10" stroke-linecap="round" stroke-linejoin="round"/>
</svg>
