<svg width="37" height="38" viewBox="0 0 37 38" fill="none" xmlns="http://www.w3.org/2000/svg">
<path d="M4.52231 7.07666C6.26319 13.3932 7.43724 24.1272 1 37" stroke="#0000AC" stroke-miterlimit="10" stroke-linecap="round" stroke-linejoin="round"/>
<path d="M18.5091 33.7818C19.1128 33.7818 19.6022 33.2986 19.6022 32.7024C19.6022 32.1063 19.1128 31.623 18.5091 31.623C17.9054 31.623 17.416 32.1063 17.416 32.7024C17.416 33.2986 17.9054 33.7818 18.5091 33.7818Z" fill="#0079AB"/>
<path d="M18.5102 1C18.5102 1 18.6519 7.91616 11.8098 9.05552C10.0689 9.33537 7.76122 8.95558 6.76932 8.57579C2.80171 7.09661 2.27539 2.03942 2.27539 2.03942" stroke="#0000AC" stroke-miterlimit="10" stroke-linecap="round" stroke-linejoin="round"/>
<path d="M32.4772 7.07666C30.7363 13.3932 29.5622 24.1472 35.9995 37" stroke="#0000AC" stroke-miterlimit="10" stroke-linecap="round" stroke-linejoin="round"/>
<path d="M18.51 1C18.51 1 18.3683 7.91616 25.2104 9.05552C26.9513 9.33537 29.259 8.95558 30.2509 8.57579C34.2185 7.09661 34.7448 2.03942 34.7448 2.03942" stroke="#0000AC" stroke-miterlimit="10" stroke-linecap="round" stroke-linejoin="round"/>
<path d="M5.35156 5.09801C5.35156 5.09801 11.8698 6.83801 16.2828 4.45801" stroke="#0000AC" stroke-miterlimit="10" stroke-linecap="round" stroke-linejoin="round" stroke-dasharray="1 1"/>
<path d="M31.6675 5.09801C31.6675 5.09801 25.1493 6.83801 20.7363 4.45801" stroke="#0000AC" stroke-miterlimit="10" stroke-linecap="round" stroke-linejoin="round" stroke-dasharray="1 1"/>
<path d="M12.0918 12.0337L12.9218 16.811" stroke="#0000AC" stroke-miterlimit="10" stroke-linecap="round" stroke-linejoin="round"/>
<path d="M10.4727 14.0724L11.9099 12.2534C12.0111 12.1335 12.173 12.0935 12.3147 12.1734L14.3997 13.4127" stroke="#0000AC" stroke-miterlimit="10" stroke-linecap="round" stroke-linejoin="round"/>
<path d="M24.9276 12.0337L24.0977 16.811" stroke="#0000AC" stroke-miterlimit="10" stroke-linecap="round" stroke-linejoin="round"/>
<path d="M26.5267 14.0724L25.0894 12.2534C24.9882 12.1335 24.8263 12.0935 24.6846 12.1734L22.5996 13.4127" stroke="#0000AC" stroke-miterlimit="10" stroke-linecap="round" stroke-linejoin="round"/>
</svg>
