<svg width="37" height="38" viewBox="0 0 37 38" fill="none" xmlns="http://www.w3.org/2000/svg">
<path d="M4.54251 6.91992C6.2834 13.2399 7.43725 24.1399 1 36.9999" stroke="#0000AC" stroke-miterlimit="10" stroke-linecap="round" stroke-linejoin="round"/>
<path d="M5.91926 2.04004C5.91926 2.04004 16.061 18.22 5.04883 33.8" stroke="#0000AC" stroke-miterlimit="10" stroke-linecap="round" stroke-linejoin="round" stroke-dasharray="3 3"/>
<path d="M18.7123 33.8001C19.316 33.8001 19.8054 33.3166 19.8054 32.7201C19.8054 32.1237 19.316 31.6401 18.7123 31.6401C18.1086 31.6401 17.6191 32.1237 17.6191 32.7201C17.6191 33.3166 18.1086 33.8001 18.7123 33.8001Z" fill="#0079AB"/>
<path d="M11.8105 9.06C18.6324 7.84 18.5109 1 18.5109 1" stroke="#0000AC" stroke-miterlimit="10" stroke-linecap="round" stroke-linejoin="round"/>
<path d="M2.29492 2.04004C2.29492 2.04004 2.92245 6.82003 6.78885 8.58003" stroke="#0000AC" stroke-miterlimit="10" stroke-linecap="round" stroke-linejoin="round"/>
<path d="M32.4577 6.91992C30.7168 13.2399 29.563 24.1399 36.0002 36.9999" stroke="#0000AC" stroke-miterlimit="10" stroke-linecap="round" stroke-linejoin="round"/>
<path d="M31.102 2.04004C31.102 2.04004 20.9603 18.22 31.9724 33.8" stroke="#0000AC" stroke-miterlimit="10" stroke-linecap="round" stroke-linejoin="round" stroke-dasharray="3 3"/>
<path d="M25.1908 9.06C18.3689 7.84 18.4904 1 18.4904 1" stroke="#0000AC" stroke-miterlimit="10" stroke-linecap="round" stroke-linejoin="round"/>
<path d="M34.7244 2.04004C34.7244 2.04004 34.0969 6.82003 30.2305 8.58003" stroke="#0000AC" stroke-miterlimit="10" stroke-linecap="round" stroke-linejoin="round"/>
</svg>
