<svg width="33" height="38" viewBox="0 0 33 38" fill="none" xmlns="http://www.w3.org/2000/svg">
<path d="M5.94676 1C5.94676 1 6.73674 6.32 3.2325 11.92C-1.36554 19.26 2.38176 33.42 3.51608 37" stroke="#0000AC" stroke-miterlimit="10" stroke-linecap="round" stroke-linejoin="round"/>
<path d="M4.93359 23.7403C4.93359 23.7403 6.28662 24.508 8.17596 24.9432C13.9597 26.2753 16.4996 19.2555 16.4996 13.3203V13.3203" stroke="#0000AC" stroke-miterlimit="10" stroke-linecap="round" stroke-linejoin="round"/>
<path d="M15.1225 36.7C15.1225 36.7 16.9455 29.6799 14.9199 23.9399" stroke="#0000AC" stroke-miterlimit="10" stroke-linecap="round" stroke-linejoin="round"/>
<path d="M27.0529 1C27.0529 1 26.2629 6.32 29.7671 11.92C34.3652 19.26 30.6178 33.42 29.4835 37" stroke="#0000AC" stroke-miterlimit="10" stroke-linecap="round" stroke-linejoin="round"/>
<path d="M28.0667 23.7403C28.0667 23.7403 26.7044 24.5111 24.8047 24.9458C19.0191 26.2697 16.4805 19.2555 16.4805 13.3203V13.3203" stroke="#0000AC" stroke-miterlimit="10" stroke-linecap="round" stroke-linejoin="round"/>
<path d="M17.8577 36.7C17.8577 36.7 16.0549 29.7 18.0603 23.96" stroke="#0000AC" stroke-miterlimit="10" stroke-linecap="round" stroke-linejoin="round"/>
</svg>
