<svg width="36" height="33" viewBox="0 0 36 33" fill="none" xmlns="http://www.w3.org/2000/svg">
<path d="M24.991 11.791C23.6171 9.217 20.9368 7.60938 18.0191 7.60938V7.60938C15.1013 7.60938 12.421 9.21701 11.0471 11.791L10.7696 12.311C9.37546 14.923 9.37398 18.0579 10.7657 20.6713L11.0511 21.2073C12.4223 23.7822 15.1018 25.391 18.0191 25.391V25.391C20.9363 25.391 23.6158 23.7822 24.987 21.2073L25.2724 20.6713C26.6641 18.0579 26.6627 14.923 25.2685 12.311L24.991 11.791Z" stroke="#0000AC" stroke-miterlimit="10" stroke-linecap="round" stroke-linejoin="round"/>
<path d="M8.5408 16.4897H1.30078" stroke="#0000AC" stroke-miterlimit="10" stroke-linecap="round" stroke-linejoin="round"/>
<path d="M34.74 16.4897H27.5" stroke="#0000AC" stroke-miterlimit="10" stroke-linecap="round" stroke-linejoin="round"/>
<path d="M34.199 1.27148H26.959" stroke="#0000AC" stroke-miterlimit="10" stroke-linecap="round" stroke-linejoin="round"/>
<path d="M33.6599 1.27148H26.4199" stroke="#0000AC" stroke-miterlimit="10" stroke-linecap="round" stroke-linejoin="round"/>
<path d="M26.4208 1.27148L22.8008 7.60911" stroke="#0000AC" stroke-miterlimit="10" stroke-linecap="round" stroke-linejoin="round"/>
<path d="M13.2802 25.3906L9.66016 31.7282" stroke="#0000AC" stroke-miterlimit="10" stroke-linecap="round" stroke-linejoin="round"/>
<path d="M9.66016 1.27148L13.2802 7.60911" stroke="#0000AC" stroke-miterlimit="10" stroke-linecap="round" stroke-linejoin="round"/>
<path d="M22.8008 25.3906L26.4208 31.7282" stroke="#0000AC" stroke-miterlimit="10" stroke-linecap="round" stroke-linejoin="round"/>
<path d="M1.26001 17.7614C1.95589 17.7614 2.51999 17.1921 2.51999 16.4898C2.51999 15.7876 1.95589 15.2183 1.26001 15.2183C0.564131 15.2183 0 15.7876 0 16.4898C0 17.1921 0.564131 17.7614 1.26001 17.7614Z" fill="#0079AB"/>
<path d="M34.7404 17.7614C35.4363 17.7614 36.0005 17.1921 36.0005 16.4898C36.0005 15.7876 35.4363 15.2183 34.7404 15.2183C34.0446 15.2183 33.4805 15.7876 33.4805 16.4898C33.4805 17.1921 34.0446 17.7614 34.7404 17.7614Z" fill="#0079AB"/>
<path d="M9.6604 2.54312C10.3563 2.54312 10.9204 1.97382 10.9204 1.27155C10.9204 0.569291 10.3563 0 9.6604 0C8.96452 0 8.40039 0.569291 8.40039 1.27155C8.40039 1.97382 8.96452 2.54312 9.6604 2.54312Z" fill="#0079AB"/>
<path d="M9.6604 33.0001C10.3563 33.0001 10.9204 32.4308 10.9204 31.7286C10.9204 31.0263 10.3563 30.457 9.6604 30.457C8.96452 30.457 8.40039 31.0263 8.40039 31.7286C8.40039 32.4308 8.96452 33.0001 9.6604 33.0001Z" fill="#0079AB"/>
<path d="M26.4202 2.54312C27.116 2.54312 27.6801 1.97382 27.6801 1.27155C27.6801 0.569291 27.116 0 26.4202 0C25.7243 0 25.1602 0.569291 25.1602 1.27155C25.1602 1.97382 25.7243 2.54312 26.4202 2.54312Z" fill="#0079AB"/>
</svg>
