<svg width="38" height="36" viewBox="0 0 38 36" fill="none" xmlns="http://www.w3.org/2000/svg">
<path d="M13.6406 28.3203C15.4006 30.2365 17.5206 31.5476 19.0006 31.5476C20.6406 31.5476 22.7206 30.2971 24.4006 28.4414" stroke="#0000AC" stroke-miterlimit="10" stroke-linecap="round" stroke-linejoin="round"/>
<path d="M27.5 21.4015C27.5 16.4799 23.7 13.7568 19 13.7568C14.3 13.7568 10.5 16.5 10.5 21.4015" stroke="#0000AC" stroke-miterlimit="10" stroke-linecap="round" stroke-linejoin="round"/>
<path d="M27.4194 20.2923C27.4194 20.2923 32.1795 13.757 25.9395 9.23877" stroke="#0000AC" stroke-miterlimit="10" stroke-linecap="round" stroke-linejoin="round"/>
<path d="M10.5795 20.1712C10.5795 20.1712 7.75951 16.016 10.5795 10.8321C13.3995 5.64821 17.6595 4.63969 19.7795 4.45816C21.8995 4.27662 25.5195 4.98258 25.7195 7.96785C25.9195 10.9531 25.4595 13.1316 22.2195 14.3822" stroke="#0000AC" stroke-miterlimit="10" stroke-linecap="round" stroke-linejoin="round"/>
<path d="M10.7196 10.5901C10.7196 10.5901 8.5396 6.09207 13.8596 2.50168C19.1796 -1.08872 23.8796 2.56218 23.6196 5.10369" stroke="#0000AC" stroke-miterlimit="10" stroke-linecap="round" stroke-linejoin="round"/>
<path d="M20.5993 9.84367C20.5993 9.84367 14.8993 7.86692 10.2793 11.4371" stroke="#0000AC" stroke-miterlimit="10" stroke-linecap="round" stroke-linejoin="round"/>
<path d="M15.1797 32.556V29.7725" stroke="#0000AC" stroke-miterlimit="10" stroke-linecap="round" stroke-linejoin="round"/>
<path d="M22.8398 29.7725V32.556" stroke="#0000AC" stroke-miterlimit="10" stroke-linecap="round" stroke-linejoin="round"/>
<path d="M1 15.0683L2.11317 27.0435C2.17105 27.6661 2.2368 28.2899 2.43594 28.8827C2.87465 30.1885 4.06311 32.5686 7.08 33.7061C11.36 35.3197 12.2 35.0777 12.88 34.7953C13.56 34.5129 14.18 33.0808 12.68 32.6168C11.18 32.1529 8.2 29.208 7.72 28.7037C7.22 28.1994 7.08 25.5369 7.72 25.315C8.36 25.0932 10.54 26.5455 11.88 26.2026C13.2 25.8395 13.3 25.0327 12.54 24.4679C11.78 23.9031 8.81999 22.3298 8.31999 22.3096V22.3096C7.32713 22.2679 6.42268 21.6578 6.33086 20.6683L5.8 14.9473" stroke="#0000AC" stroke-miterlimit="10" stroke-linecap="round" stroke-linejoin="round"/>
<path d="M36.9994 15.0683L35.8862 27.0435C35.8284 27.6661 35.7626 28.2899 35.5635 28.8827C35.1248 30.1885 33.9363 32.5686 30.9194 33.7061C26.6394 35.3197 25.7994 35.0777 25.1194 34.7953C24.4394 34.5129 23.8194 33.0808 25.3194 32.6168C26.8194 32.1529 29.7994 29.208 30.2794 28.7037C30.7794 28.1994 30.9194 25.5369 30.2794 25.315C29.6394 25.0932 27.4594 26.5455 26.1194 26.2026C24.7794 25.8597 24.6994 25.0327 25.4594 24.4679C26.2194 23.9031 29.1794 22.3298 29.6794 22.3096V22.3096C30.6723 22.2679 31.5767 21.6578 31.6685 20.6683L32.1994 14.9473" stroke="#0000AC" stroke-miterlimit="10" stroke-linecap="round" stroke-linejoin="round"/>
</svg>
