<svg width="38" height="36" viewBox="0 0 38 36" fill="none" xmlns="http://www.w3.org/2000/svg">
<path d="M4.48 31.5163C6.40195 31.5163 7.96 29.9655 7.96 28.0526C7.96 26.1396 6.40195 24.5889 4.48 24.5889C2.55804 24.5889 1 26.1396 1 28.0526C1 29.9655 2.55804 31.5163 4.48 31.5163Z" stroke="#0000AC" stroke-miterlimit="10" stroke-linecap="round"/>
<path d="M2.86086 31.8149H35.5209C36.3409 31.8149 37.0009 32.4719 37.0009 33.288V33.5269C37.0009 34.343 36.3409 35 35.5209 35H2.86086C2.04086 35 1.38086 34.343 1.38086 33.5269V33.288C1.38086 32.4918 2.04086 31.8149 2.86086 31.8149Z" stroke="#0000AC" stroke-miterlimit="10" stroke-linecap="round"/>
<path d="M15.0794 27.8339H23.3394C24.3794 27.8339 25.2394 28.7098 25.2394 29.7847C25.2394 30.8596 24.3994 31.7355 23.3394 31.7355H13.4994C11.4994 31.7355 9.85938 30.0435 9.85938 27.9732C9.85938 25.903 11.4794 24.2109 13.4994 24.2109H33.9394C35.6394 24.2109 36.9994 25.6243 36.9994 27.376V28.4908C36.9994 30.3023 35.5194 31.7952 33.6794 31.7952" stroke="#0000AC" stroke-miterlimit="10" stroke-linecap="round"/>
<path d="M20.0403 17.2036L18.3603 18.8757C18.0803 19.1544 18.0403 19.5924 18.2603 19.9109L19.6803 21.9612C19.7803 22.1006 19.8203 22.2598 19.8203 22.4191V24.2305" stroke="#0000AC" stroke-miterlimit="10" stroke-linecap="round"/>
<path d="M27.5391 17.2036L29.2191 18.8757C29.4991 19.1544 29.5391 19.5924 29.3191 19.9109L27.8991 21.9612C27.7991 22.1006 27.7591 22.2598 27.7591 22.4191V24.2305" stroke="#0000AC" stroke-miterlimit="10" stroke-linecap="round"/>
<path d="M31.6792 24.2305V23.2352C31.6792 22.9963 31.7592 22.7574 31.8792 22.5584L33.7792 19.7118C34.2192 19.0549 34.1192 18.179 33.5792 17.6216L29.1792 13.1427C28.8592 12.8242 28.4392 12.645 27.9792 12.645H23.1992" stroke="#0000AC" stroke-miterlimit="10" stroke-linecap="round"/>
<path d="M15.9405 24.2304V23.2351C15.9405 22.9962 15.8605 22.7573 15.7405 22.5583L13.8405 19.6917C13.4005 19.0348 13.5005 18.159 14.0405 17.6016L18.4405 13.1227C18.7605 12.8042 19.1805 12.625 19.6405 12.625H24.4205" stroke="#0000AC" stroke-miterlimit="10" stroke-linecap="round"/>
<path d="M20.9609 5.4192V2.69203C20.9609 1.75644 21.7209 1 22.6609 1H25.4009C26.3409 1 27.1009 1.75644 27.1009 2.69203V5.4192" stroke="#0000AC" stroke-miterlimit="10" stroke-linecap="round"/>
<path d="M24.0406 10.5153C25.9625 10.5153 27.5205 8.96454 27.5205 7.05159C27.5205 5.13864 25.9625 3.58789 24.0406 3.58789C22.1186 3.58789 20.5605 5.13864 20.5605 7.05159C20.5605 8.96454 22.1186 10.5153 24.0406 10.5153Z" stroke="#0000AC" stroke-miterlimit="10" stroke-linecap="round"/>
<path d="M21.0402 7.84766H27.0402C27.2202 7.84766 27.3402 8.04672 27.2402 8.18606L26.9104 8.79422C26.6805 9.21819 26.3488 9.57832 25.9451 9.84219C25.4721 10.1514 24.9192 10.316 24.3541 10.316H23.9006C23.2362 10.316 22.5877 10.113 22.0419 9.73416C21.5945 9.42368 21.2321 9.00609 20.9877 8.51952L20.8202 8.18606C20.7402 8.02681 20.8602 7.84766 21.0402 7.84766Z" fill="#0079AB"/>
</svg>
