<svg width="29" height="38" viewBox="0 0 29 38" fill="none" xmlns="http://www.w3.org/2000/svg">
<path d="M21.52 23.28C21.4 22.7999 21.2583 22.3053 21.0994 21.7791C20.8777 21.0452 20.6268 20.3322 20.3465 19.6186C18.739 15.5264 12.907 1 11.12 1C9.32202 1 3.74311 16.0191 2.26336 20.0917C2.0171 20.7695 1.79348 21.445 1.61286 22.1431C1.24594 23.5613 1 24.9471 1 26.54C1 32.32 5.68001 37 11.46 37C13.62 37 15.62 36.36 17.28 35.22" stroke="#0000AC" stroke-miterlimit="10" stroke-linecap="round" stroke-linejoin="round"/>
<path d="M21.3397 36.5998C25.0179 36.5998 27.9997 33.618 27.9997 29.9398C27.9997 26.2616 25.0179 23.2798 21.3397 23.2798C17.6615 23.2798 14.6797 26.2616 14.6797 29.9398C14.6797 33.618 17.6615 36.5998 21.3397 36.5998Z" stroke="#0000AC" stroke-miterlimit="10" stroke-linecap="round" stroke-linejoin="round"/>
<path d="M24.2402 28.8599C23.2351 28.8599 22.4202 28.045 22.4202 27.0399C22.4202 26.9399 22.3402 26.8398 22.2202 26.8398H20.4602C20.3402 26.8398 20.2602 26.9199 20.2602 27.0399C20.2602 28.045 19.4454 28.8599 18.4402 28.8599C18.3402 28.8599 18.2402 28.9398 18.2402 29.0598V30.8199C18.2402 30.9199 18.3202 31.0199 18.4402 31.0199C19.4454 31.0199 20.2602 31.8347 20.2602 32.8398C20.2602 32.9398 20.3402 33.0399 20.4602 33.0399H22.2202C22.3202 33.0399 22.4202 32.9598 22.4202 32.8398C22.4202 31.8347 23.2351 31.0199 24.2402 31.0199C24.3602 31.0199 24.4402 30.9399 24.4402 30.8199V29.0598C24.4402 28.9598 24.3602 28.8599 24.2402 28.8599Z" fill="#0079AB"/>
</svg>
