<svg width="38" height="33" viewBox="0 0 38 33" fill="none" xmlns="http://www.w3.org/2000/svg">
<path d="M19.19 12.0249C19.6098 12.8152 19.8296 13.7043 19.8296 14.6527C19.8296 17.8535 17.2111 20.4615 13.9529 20.4615C10.7147 20.4615 8.07617 17.8732 8.07617 14.6527C8.07617 13.7043 8.29605 12.8152 8.71582 12.0249" stroke="#0000AC" stroke-miterlimit="10" stroke-linecap="round" stroke-linejoin="round"/>
<path d="M18.9629 8.37889C19.0855 10.355 17.5158 12.025 15.5359 12.025H12.3617C10.3831 12.025 8.81268 10.3596 8.92871 8.38443L9.02492 6.74654C9.05459 6.24145 9.40514 5.81246 9.89419 5.68275V5.68275C12.4927 4.97147 15.2312 4.95173 17.8298 5.64326V5.64326C18.4143 5.79655 18.8345 6.30761 18.8719 6.91075L18.9629 8.37889Z" stroke="#0000AC" stroke-miterlimit="10" stroke-linecap="round" stroke-linejoin="round"/>
<path d="M11.5547 8.68555H16.2121" stroke="#0000AC" stroke-miterlimit="10" stroke-linecap="round" stroke-linejoin="round"/>
<path d="M13.873 10.9778V6.39404" stroke="#0000AC" stroke-miterlimit="10" stroke-linecap="round" stroke-linejoin="round"/>
<path d="M1.01 27.2976C1.01552 27.2976 1.01999 27.2931 1.02002 27.2875C1.0334 24.3878 6.84498 22.042 13.9728 22.042C21.1088 22.042 26.8856 24.3932 26.8856 27.2976V27.2976C26.8856 29.8946 24.7803 31.9999 22.1833 31.9999H19.7496H8.15603H3.35119C2.05266 31.9999 1 30.9473 1 29.6488V27.3076C1 27.3021 1.00448 27.2976 1.01 27.2976V27.2976Z" stroke="#0000AC" stroke-miterlimit="10" stroke-linecap="round" stroke-linejoin="round"/>
<path d="M13.953 32.0002L9.43555 22.3584" stroke="#0000AC" stroke-miterlimit="10" stroke-linecap="round" stroke-linejoin="round"/>
<path d="M13.9531 32.0002L18.4706 22.3584" stroke="#0000AC" stroke-miterlimit="10" stroke-linecap="round" stroke-linejoin="round"/>
<path d="M32.9347 5.31826C32.3481 4.25131 31.227 3.58838 30.0094 3.58838V3.58838C28.7868 3.58838 27.6619 4.25678 27.0774 5.33066L26.993 5.48573C26.4031 6.56938 26.4031 7.87824 26.993 8.96189L27.0774 9.11696C27.6619 10.1908 28.7868 10.8592 30.0094 10.8592V10.8592C31.227 10.8592 32.3481 10.1963 32.9347 9.12936L33.0194 8.97539C33.6191 7.88467 33.6191 6.56295 33.0194 5.47223L32.9347 5.31826Z" stroke="#0000AC" stroke-miterlimit="10" stroke-linecap="round" stroke-linejoin="round"/>
<path d="M26.0457 7.22363H23.0273" stroke="#0000AC" stroke-miterlimit="10" stroke-linecap="round" stroke-linejoin="round"/>
<path d="M37.0007 7.22363H33.9824" stroke="#0000AC" stroke-miterlimit="10" stroke-linecap="round" stroke-linejoin="round"/>
<path d="M36.7805 1H33.7422" stroke="#0000AC" stroke-miterlimit="10" stroke-linecap="round" stroke-linejoin="round"/>
<path d="M36.5398 1H33.5215" stroke="#0000AC" stroke-miterlimit="10" stroke-linecap="round" stroke-linejoin="round"/>
<path d="M33.5219 1L32.002 3.58827" stroke="#0000AC" stroke-miterlimit="10" stroke-linecap="round" stroke-linejoin="round"/>
<path d="M28.0454 10.8594L26.5254 13.4476" stroke="#0000AC" stroke-miterlimit="10" stroke-linecap="round" stroke-linejoin="round"/>
<path d="M26.5254 1L28.0454 3.58827" stroke="#0000AC" stroke-miterlimit="10" stroke-linecap="round" stroke-linejoin="round"/>
<path d="M32.002 10.8594L33.5219 13.4476" stroke="#0000AC" stroke-miterlimit="10" stroke-linecap="round" stroke-linejoin="round"/>
</svg>
