<svg width="33" height="38" viewBox="0 0 33 38" fill="none" xmlns="http://www.w3.org/2000/svg">
<path d="M16.5092 37C8.54622 37 2.0293 22.54 2.0293 14.5C2.0293 7.08 8.05102 1 15.3999 1H17.6184C24.9673 1 30.989 7.08 30.989 14.5C30.989 22.56 24.4721 37 16.5092 37Z" stroke="#0000AC" stroke-miterlimit="10" stroke-linecap="round"/>
<path d="M4.44727 25.04C5.4773 25.04 6.44791 25.22 7.35909 25.58" stroke="#0000AC" stroke-miterlimit="10" stroke-linecap="round"/>
<path d="M9.7168 26.96C11.1034 28.12 12.1334 29.74 12.5296 31.58" stroke="#0000AC" stroke-miterlimit="10" stroke-linecap="round" stroke-dasharray="2.07 2.07"/>
<path d="M12.7266 32.9399C12.7266 33.0999 12.7466 33.2599 12.7466 33.4199V35.9399" stroke="#0000AC" stroke-miterlimit="10" stroke-linecap="round"/>
<path d="M28.5153 25.04C27.4853 25.04 26.5147 25.22 25.6035 25.58" stroke="#0000AC" stroke-miterlimit="10" stroke-linecap="round"/>
<path d="M23.2464 26.96C21.8598 28.12 20.8298 29.74 20.4336 31.58" stroke="#0000AC" stroke-miterlimit="10" stroke-linecap="round" stroke-dasharray="2.07 2.07"/>
<path d="M20.2348 32.9399C20.2348 33.0999 20.2148 33.2599 20.2148 33.4199V35.9399" stroke="#0000AC" stroke-miterlimit="10" stroke-linecap="round"/>
<path d="M13.4605 19.7402C13.4605 20.6402 12.8861 21.3802 11.3806 21.3802C9.91483 21.3802 9.30078 20.6402 9.30078 19.7402" stroke="#0000AC" stroke-miterlimit="10" stroke-linecap="round"/>
<path d="M23.5015 19.7402C23.5015 20.6402 22.9271 21.3802 21.4217 21.3802C19.9558 21.3802 19.3418 20.6402 19.3418 19.7402" stroke="#0000AC" stroke-miterlimit="10" stroke-linecap="round"/>
<path d="M2.1687 16.7798L2.09104 18.3087C2.04576 19.2002 1 20.0271 1 20.9198V20.9198C1 22.1398 1.59424 23.2998 2.60447 23.9798L4.54569 25.3198" stroke="#0000AC" stroke-miterlimit="10" stroke-linecap="round"/>
<path d="M30.8321 16.7803L30.9097 18.3092C30.955 19.2007 32.0008 20.0276 32.0008 20.9203V20.9203C32.0008 22.1403 31.4065 23.3003 30.3963 23.9803L28.4551 25.3203" stroke="#0000AC" stroke-miterlimit="10" stroke-linecap="round"/>
<path d="M5.69531 17.3999L9.04291 13.7399C9.57773 13.1399 9.9541 12.3999 10.0928 11.5999L10.687 8.15987C10.8058 7.45987 11.6972 7.23987 12.1132 7.81987L13.5196 9.73987C14.2921 10.7799 15.4806 11.3999 16.7681 11.3999H22.4729C25.0282 11.3999 27.1081 13.4999 27.1081 16.0799V17.3999" stroke="#0000AC" stroke-miterlimit="10" stroke-linecap="round"/>
</svg>
