<svg width="36" height="38" viewBox="0 0 36 38" fill="none" xmlns="http://www.w3.org/2000/svg">
<path d="M14.9783 7.56287C16.7775 7.56287 18.236 6.09372 18.236 4.28143C18.236 2.46915 16.7775 1 14.9783 1C13.1792 1 11.7207 2.46915 11.7207 4.28143C11.7207 6.09372 13.1792 7.56287 14.9783 7.56287Z" stroke="#0000AC" stroke-miterlimit="10" stroke-linecap="round" stroke-linejoin="round"/>
<path d="M28.8433 13.4054C32.2441 13.4054 35.001 10.6284 35.001 7.20271C35.001 3.77705 32.2441 1 28.8433 1C25.4425 1 22.6855 3.77705 22.6855 7.20271C22.6855 10.6284 25.4425 13.4054 28.8433 13.4054Z" stroke="#0000AC" stroke-miterlimit="10" stroke-linecap="round" stroke-linejoin="round"/>
<path d="M32.159 9.12358L31.8027 8.91727C29.9701 7.85611 28.8418 5.8989 28.8418 3.78125V3.78125" stroke="#0000AC" stroke-miterlimit="10" stroke-linecap="round" stroke-linejoin="round"/>
<path d="M7.17114 22.7093L13.011 28.3318C13.5871 28.8921 14.0042 29.5924 14.2028 30.3727L15.494 35.3149C15.8118 36.5354 17.0632 37.2557 18.2749 36.9156C19.4468 36.5754 20.142 35.3749 19.8441 34.1944L18.4139 28.3518C18.3146 27.9116 18.0961 27.4914 17.7981 27.1513L14.717 23.4637C14.1335 22.7655 13.9287 21.8259 14.1684 20.9481L14.4041 20.0855C14.8573 18.4265 16.9263 17.8652 18.1557 19.0678V19.0678C18.3543 19.2678 18.5927 19.4079 18.831 19.528L22.3668 21.0286C23.2606 21.4088 24.2935 20.9686 24.6709 20.0682C25.0086 19.1878 24.6114 18.2074 23.7771 17.8072L20.142 16.1665C19.7646 16.0064 19.4468 15.7463 19.2085 15.4061L15.4344 10.3639C15.1563 10.0038 14.7193 9.78369 14.2624 9.78369H11.0445C10.7466 9.78369 10.4287 9.86373 10.1705 10.0038L5.08545 12.765C4.52927 13.0651 4.09229 13.5253 3.79433 14.0656L1.19218 19.0477C0.755182 19.8881 1.09286 20.9086 1.90727 21.3287C2.72168 21.7489 3.69501 21.4288 4.13201 20.6284L6.49018 16.2827C6.62198 16.0398 6.83616 15.852 7.09415 15.753V15.753C7.97475 15.4151 8.86905 16.2135 8.63268 17.1266L7.03208 23.3096C6.97249 23.5497 6.93277 23.7698 6.89305 24.0099L6.33687 28.4719C6.29714 28.752 6.17796 29.0321 5.99919 29.2522L2.30457 33.5541C1.52989 34.4545 1.66891 35.8351 2.62236 36.5554C3.49636 37.2157 4.72791 37.0756 5.42313 36.2353L9.81299 31.013C10.1507 30.5928 10.3692 30.0926 10.4288 29.5523L10.7664 26.0508" stroke="#0000AC" stroke-miterlimit="10" stroke-linecap="round" stroke-linejoin="round"/>
</svg>
