<svg width="36" height="38" viewBox="0 0 36 38" fill="none" xmlns="http://www.w3.org/2000/svg">
<path d="M18.0209 19.48C22.4788 19.48 26.0926 15.3431 26.0926 10.24C26.0926 5.13689 22.4788 1 18.0209 1C13.563 1 9.94922 5.13689 9.94922 10.24C9.94922 15.3431 13.563 19.48 18.0209 19.48Z" stroke="#0000AC" stroke-miterlimit="10" stroke-linecap="round" stroke-linejoin="round"/>
<path d="M8.73811 11.76C9.40679 11.76 9.94885 11.1422 9.94885 10.38C9.94885 9.61785 9.40679 9 8.73811 9C8.06943 9 7.52734 9.61785 7.52734 10.38C7.52734 11.1422 8.06943 11.76 8.73811 11.76Z" stroke="#0000AC" stroke-miterlimit="10" stroke-linecap="round" stroke-linejoin="round"/>
<path d="M27.3221 11.76C27.9907 11.76 28.5328 11.1422 28.5328 10.38C28.5328 9.61785 27.9907 9 27.3221 9C26.6534 9 26.1113 9.61785 26.1113 10.38C26.1113 11.1422 26.6534 11.76 27.3221 11.76Z" stroke="#0000AC" stroke-miterlimit="10" stroke-linecap="round" stroke-linejoin="round"/>
<path d="M10.3926 7.19995V7.19995C10.3926 7.19995 18.2743 6.4652 21.3888 8.07863C22.8611 8.84131 24.4866 9.33965 26.0517 9.11995" stroke="#0000AC" stroke-miterlimit="10" stroke-linecap="round" stroke-linejoin="round"/>
<path d="M12.7539 10.9002C12.7539 10.9002 14.3279 9.56024 15.6799 10.9002" stroke="#0000AC" stroke-miterlimit="10" stroke-linecap="round" stroke-linejoin="round"/>
<path d="M16.5664 15.3799C16.5664 15.3799 18.1404 16.7199 19.4924 15.3799" stroke="#0000AC" stroke-miterlimit="10" stroke-linecap="round" stroke-linejoin="round"/>
<path d="M22.9045 10.9002C22.9045 10.9002 21.3305 9.56024 19.9785 10.9002" stroke="#0000AC" stroke-miterlimit="10" stroke-linecap="round" stroke-linejoin="round"/>
<path d="M23.0858 17.4399L31.7831 19.7399C32.9333 20.0399 33.9624 20.7599 34.5274 21.7999C34.81 22.3199 35.0319 22.9399 35.0319 23.6999V23.6999C35.0319 30.8651 29.8287 36.9999 22.6635 36.9999H18.041" stroke="#0000AC" stroke-miterlimit="10" stroke-linecap="round" stroke-linejoin="round"/>
<path d="M12.9147 17.4399L4.21745 19.7399C3.06724 20.0399 2.03809 20.7599 1.47308 21.7999C1.19057 22.3199 0.968595 22.9399 0.968595 23.6999V23.6999C0.968595 30.8651 6.17183 36.9999 13.337 36.9999H17.9595" stroke="#0000AC" stroke-miterlimit="10" stroke-linecap="round" stroke-linejoin="round"/>
<path d="M25.7293 18.1401L21.6312 22.2019C19.2948 24.5175 17.9805 27.6706 17.9805 30.9601V30.9601" stroke="#0000AC" stroke-miterlimit="10" stroke-linecap="round" stroke-linejoin="round"/>
<path d="M10.2109 18.1401L17.9598 25.8201" stroke="#0000AC" stroke-miterlimit="10" stroke-linecap="round" stroke-linejoin="round"/>
<path d="M17.9594 33.78C18.7395 33.78 19.372 33.1532 19.372 32.38C19.372 31.6068 18.7395 30.98 17.9594 30.98C17.1793 30.98 16.5469 31.6068 16.5469 32.38C16.5469 33.1532 17.1793 33.78 17.9594 33.78Z" stroke="#0000AC" stroke-miterlimit="10" stroke-linecap="round" stroke-linejoin="round"/>
<path d="M31.8414 29.0536C31.7678 29.0349 31.682 28.9929 31.6581 28.9208C31.0633 27.1325 29.2445 25.8398 27.0805 25.8398C24.9225 25.8398 23.1079 27.1252 22.508 28.9058C22.4774 28.9965 22.3937 29.0598 22.298 29.0598V29.0598C21.511 29.0598 21.168 29.5599 21.168 30.1799C21.168 30.7999 21.511 31.2999 22.298 31.2999V31.2999C22.3937 31.2999 22.4774 31.3632 22.508 31.4539C23.1079 33.2344 24.9225 34.5199 27.0805 34.5199C29.2385 34.5199 31.0531 33.2344 31.653 31.4539C31.6836 31.3632 31.7673 31.2999 31.863 31.2999V31.2999C32.65 31.2999 33.0334 30.7999 33.0334 30.1799C33.0334 29.5651 32.6564 29.0683 31.8828 29.06C31.8698 29.0598 31.854 29.0568 31.8414 29.0536V29.0536Z" stroke="#0000AC" stroke-miterlimit="10" stroke-linecap="round" stroke-linejoin="round"/>
<path d="M26.232 25.8999C26.232 25.8999 25.9293 27.3999 28.0279 28.2799" stroke="#0000AC" stroke-miterlimit="10" stroke-linecap="round" stroke-linejoin="round"/>
<path d="M25.4049 30.5802C25.7169 30.5802 25.9699 30.3742 25.9699 30.1201C25.9699 29.8661 25.7169 29.6602 25.4049 29.6602C25.0928 29.6602 24.8398 29.8661 24.8398 30.1201C24.8398 30.3742 25.0928 30.5802 25.4049 30.5802Z" fill="#0079AB"/>
<path d="M29.0982 30.5802C29.4103 30.5802 29.6632 30.3742 29.6632 30.1201C29.6632 29.8661 29.4103 29.6602 29.0982 29.6602C28.7862 29.6602 28.5332 29.8661 28.5332 30.1201C28.5332 30.3742 28.7862 30.5802 29.0982 30.5802Z" fill="#0079AB"/>
<path d="M27.2623 32.2797C27.5743 32.2797 27.8273 32.1544 27.8273 31.9997C27.8273 31.8451 27.5743 31.7197 27.2623 31.7197C26.9502 31.7197 26.6973 31.8451 26.6973 31.9997C26.6973 32.1544 26.9502 32.2797 27.2623 32.2797Z" fill="#0079AB"/>
</svg>
