<svg width="37" height="37" viewBox="0 0 37 37" fill="none" xmlns="http://www.w3.org/2000/svg">
<path d="M27.1449 33.186V34.0657C27.1449 35.1252 26.2873 36.0048 25.2304 36.0048H11.7489C10.6919 36.0048 9.81445 35.1452 9.81445 34.0657V33.186" stroke="#0000AC" stroke-miterlimit="10"/>
<path d="M23.9145 33.6257H13.0656C6.42453 33.6257 1 28.188 1 21.5308C1 20.7911 1.61822 20.1714 2.35611 20.1714H34.6438C35.3817 20.1714 36 20.7911 36 21.5308C35.9801 28.188 30.5555 33.6257 23.9145 33.6257Z" stroke="#0000AC" stroke-miterlimit="10"/>
<path d="M7.16211 11.0756V11.0756C7.16211 11.0756 22.7641 8.40737 24.4967 6.75587C25.4824 5.81625 26.629 4.90081 27.9626 4.03857" stroke="#0000AC" stroke-miterlimit="10" stroke-linecap="round" stroke-linejoin="round"/>
<path d="M12.2884 15.7734C12.2884 15.7734 8.69864 17.7725 6.08611 15.7734V15.7734C2.57407 13.0859 4.46306 7.41621 8.88343 7.28496C9.39286 7.26984 9.91774 7.29065 10.4536 7.35694C15.1202 7.93669 15.0205 15.1137 15.0205 15.1137" stroke="#0000AC" stroke-miterlimit="10" stroke-linecap="round" stroke-linejoin="round"/>
<path d="M21.5613 15.8534C21.5613 15.8534 31.8718 14.354 31.832 8.01673V8.01673C31.8083 4.26347 27.7458 -0.151578 24.1476 0.916281C22.0939 1.52577 20.0689 2.53105 18.6497 4.17835C14.4816 9.0163 19.2081 15.1137 19.2081 15.1137" stroke="#0000AC" stroke-miterlimit="10" stroke-linecap="round" stroke-linejoin="round"/>
</svg>
