<svg width="35" height="38" viewBox="0 0 35 38" fill="none" xmlns="http://www.w3.org/2000/svg">
<path d="M20.3187 36.9791C20.3187 36.9684 20.327 36.9593 20.3377 36.9581C21.7981 36.7959 22.451 36.2791 22.7683 35.8415C23.1268 35.342 22.9674 35.0823 23.4255 34.503C23.9234 33.8637 24.3217 33.9036 25.2179 33.1245C25.6162 32.7649 25.9348 32.4852 26.2137 32.0457C26.7713 31.1467 26.4925 30.6073 26.8709 29.4486C27.0103 29.049 27.309 28.5696 27.9065 27.6106C29.0815 25.7527 29.3404 25.7327 29.6192 24.9336C29.9976 23.8348 29.8184 22.8359 29.6989 22.1367C29.4001 20.3986 28.7429 20.2987 28.5836 18.7605C28.4641 17.7216 28.7429 17.5418 28.7429 16.1234C28.7429 14.8848 28.7429 14.1056 28.3645 13.2066C28.0459 12.4075 27.5878 11.8681 27.2891 11.4885C26.4327 10.4497 26.1539 10.6295 25.7556 9.95024C25.1382 8.89142 25.6959 8.2721 25.0984 7.23326C24.7001 6.55401 24.4412 6.77377 23.5649 5.89475C22.4098 4.73604 22.5094 3.99688 21.2746 2.63839V2.63839C20.9219 2.23837 20.3654 2.58525 20.49 3.10383C21.8015 8.56297 25.6714 27.1486 20.2493 36.9459C20.2357 36.9705 20.2537 37.0002 20.2819 37.0002H20.2976C20.3093 37.0002 20.3187 36.9908 20.3187 36.9791V36.9791Z" stroke="#0000AC" stroke-miterlimit="10" stroke-linecap="round" stroke-linejoin="round"/>
<path d="M27.209 1C27.7865 1.75916 28.384 2.55827 28.9616 3.43729" stroke="#0000AC" stroke-linecap="round" stroke-linejoin="round"/>
<path d="M30.874 6.75391C32.6863 10.31 34.0007 14.4853 34.0007 18.9403C34.0007 23.9748 32.3079 28.6496 30.1172 32.5053" stroke="#0000AC" stroke-linecap="round" stroke-linejoin="round" stroke-dasharray="2.89 2.89"/>
<path d="M29.1213 34.1436C28.5637 35.0226 27.9861 35.8217 27.3887 36.5808" stroke="#0000AC" stroke-linecap="round" stroke-linejoin="round"/>
<path d="M14.6812 36.9791C14.6812 36.9684 14.6729 36.9593 14.6622 36.9581C13.2018 36.7959 12.5489 36.2791 12.2316 35.8415C11.8732 35.342 12.0325 35.0823 11.5744 34.503C11.0765 33.8637 10.6782 33.9036 9.782 33.1245C9.38369 32.7649 9.06504 32.4852 8.78622 32.0457C8.22859 31.1467 8.5074 30.6073 8.12901 29.4486C7.9896 29.049 7.69089 28.5696 7.09342 27.6106C5.91841 25.7527 5.6595 25.7327 5.38069 24.9336C5.00229 23.8348 5.18151 22.8359 5.30101 22.1367C5.59974 20.3986 6.25695 20.2987 6.41627 18.7605C6.53576 17.7216 6.25697 17.5418 6.25697 16.1234C6.25697 14.8848 6.25695 14.1056 6.63534 13.2066C6.95399 12.4075 7.41207 11.8681 7.7108 11.4885C8.56717 10.4497 8.84599 10.6295 9.2443 9.95024C9.86168 8.89142 9.30402 8.2721 9.90149 7.23326C10.2998 6.55401 10.5587 6.77377 11.435 5.89475C12.5901 4.73604 12.4905 3.99688 13.7253 2.63839V2.63839C14.0781 2.23837 14.6345 2.58525 14.5099 3.10383C13.1984 8.56297 9.32847 27.1486 14.7506 36.9459C14.7642 36.9705 14.7462 37.0002 14.7181 37.0002H14.7023C14.6907 37.0002 14.6812 36.9908 14.6812 36.9791V36.9791Z" stroke="#0000AC" stroke-miterlimit="10" stroke-linecap="round" stroke-linejoin="round"/>
<path d="M7.81117 1C7.23362 1.75916 6.63614 2.55827 6.05859 3.43729" stroke="#0000AC" stroke-linecap="round" stroke-linejoin="round"/>
<path d="M4.12672 6.75391C2.31441 10.31 1 14.4853 1 18.9403C1 23.9748 2.69281 28.6496 4.88352 32.5053" stroke="#0000AC" stroke-linecap="round" stroke-linejoin="round" stroke-dasharray="2.89 2.89"/>
<path d="M5.87891 34.1436C6.43654 35.0226 7.01409 35.8217 7.59164 36.5808" stroke="#0000AC" stroke-linecap="round" stroke-linejoin="round"/>
</svg>
