<svg width="35" height="38" viewBox="0 0 35 38" fill="none" xmlns="http://www.w3.org/2000/svg">
<path d="M19.625 34.6813C19.9084 34.0017 20.9207 31.9828 20.9207 30.6636L21.0827 28.105" stroke="#0000AC" stroke-miterlimit="10" stroke-linecap="round" stroke-linejoin="round"/>
<path d="M26.3682 25.5064C24.9712 27.0255 23.1289 27.965 21.1246 27.965C18.3114 27.965 16.3897 26.7124 15.1347 24.8167C12.0539 20.1629 15.7099 14.3951 17.8853 9.25542V9.25542C18.0271 8.9156 18.1688 8.59578 18.27 8.35591V8.35591C20.1339 3.90038 24.4912 1 29.3209 1H32.5835C33.3731 1 34.0007 1.61966 34.0007 2.39922V7.6563V35.6008C34.0007 36.3803 33.3731 37 32.5835 37H19.3227C19.0596 37 18.8774 36.7202 18.9786 36.4803L19.6669 34.7013" stroke="#0000AC" stroke-miterlimit="10" stroke-linecap="round" stroke-linejoin="round"/>
<path d="M17.6217 1.28027C17.6217 1.28027 17.1763 2.35968 16.3867 4.01875" stroke="#0000AC" stroke-linecap="round" stroke-linejoin="round"/>
<path d="M14.7866 7.13672C13.3896 9.67531 11.5473 12.6736 9.40129 15.2522C9.11786 15.612 8.9559 16.0518 8.99639 16.4915C9.1786 18.5704 9.64425 25.2666 13.4909 29.0645" stroke="#0000AC" stroke-linecap="round" stroke-linejoin="round" stroke-dasharray="2.64 2.64"/>
<path d="M14.8672 30.2041C15.677 30.7441 16.588 31.1641 17.6206 31.4441" stroke="#0000AC" stroke-linecap="round" stroke-linejoin="round"/>
<path d="M1 25.0269H4.36072" stroke="#0000AC" stroke-miterlimit="10" stroke-linecap="round"/>
<path d="M6.60742 25.0269H7.92339" stroke="#0000AC" stroke-miterlimit="10" stroke-linecap="round"/>
<path d="M2.51802 23.4077L1.18182 24.8669C1.10084 24.9668 1.08059 25.1068 1.18182 25.2067L2.53826 26.7658" stroke="#0000AC" stroke-miterlimit="10" stroke-linecap="round"/>
<path d="M7.92325 9.91504H4.5625" stroke="#0000AC" stroke-miterlimit="10" stroke-linecap="round"/>
<path d="M2.31594 9.91504H1" stroke="#0000AC" stroke-miterlimit="10" stroke-linecap="round"/>
<path d="M6.40503 11.5539L7.7412 10.0947C7.82219 9.9948 7.84243 9.85488 7.7412 9.75494L6.38477 8.1958" stroke="#0000AC" stroke-miterlimit="10" stroke-linecap="round"/>
</svg>
