<svg width="38" height="34" viewBox="0 0 38 34" fill="none" xmlns="http://www.w3.org/2000/svg">
<path d="M27.0601 19.0073H30.0036C33.8676 19.0073 37 22.1397 37 26.0037V26.0037C37 29.8678 33.8676 33.0002 30.0036 33.0002H7.99641C4.1324 33.0002 1 29.8678 1 26.0037V26.0037C1 22.1397 4.1324 19.0073 7.99641 19.0073H10.94" stroke="#0000AC" stroke-miterlimit="10" stroke-linecap="round" stroke-linejoin="round"/>
<path d="M21.4993 26.043C21.4993 27.3313 20.4393 28.3817 19.1393 28.3817C17.8393 28.3817 16.7793 27.3313 16.7793 26.043" stroke="#0000AC" stroke-miterlimit="10" stroke-linecap="round" stroke-linejoin="round"/>
<path d="M16.7793 26.0432C16.7928 25.8154 16.8094 25.5851 16.8288 25.3525C16.8889 24.6314 21.4793 26.0432 21.4793 26.0432V26.0432" stroke="#0000AC" stroke-miterlimit="10" stroke-linecap="round" stroke-linejoin="round"/>
<path d="M23.2398 26.0034C23.2398 28.3223 21.3398 30.2053 18.9998 30.2053C16.6598 30.2053 14.7598 28.3223 14.7598 26.0034" stroke="#0000AC" stroke-miterlimit="10" stroke-linecap="round" stroke-linejoin="round"/>
<path d="M14.7395 26.0037C14.7395 26.0037 14.7595 24.7947 15.1995 24.101C15.6395 23.4073 15.9995 19.0073 10.9395 19.0073" stroke="#0000AC" stroke-miterlimit="10" stroke-linecap="round" stroke-linejoin="round"/>
<path d="M23.2407 26.0037C23.2407 26.0037 23.2207 24.7947 22.7807 24.101C22.3407 23.4073 21.9807 19.0073 27.0407 19.0073" stroke="#0000AC" stroke-miterlimit="10" stroke-linecap="round" stroke-linejoin="round"/>
<path d="M29.3317 23.7323C29.4269 23.5458 29.6308 23.4205 29.8307 23.4828C30.0151 23.5402 30.1259 23.7353 30.045 23.9106C29.9417 24.1344 29.8002 24.3145 29.6205 24.4377C29.3805 24.6161 29.0605 24.7152 28.6805 24.7152C28.2005 24.7152 27.8205 24.5567 27.5205 24.2395C27.2205 23.9224 27.0605 23.4864 27.0605 22.9314C27.0605 22.3368 27.2205 21.881 27.5205 21.5639C27.8205 21.2467 28.2405 21.0684 28.7405 21.0684C29.1805 21.0684 29.5405 21.1873 29.8005 21.4449C29.8865 21.5301 29.9608 21.6324 30.0237 21.7518C30.1187 21.9325 29.9958 22.1398 29.7977 22.1889C29.6017 22.2375 29.4089 22.1062 29.2838 21.9477C29.252 21.9075 29.2172 21.8716 29.1805 21.8414C29.0405 21.7423 28.8805 21.6828 28.7005 21.6828C28.4405 21.6828 28.2205 21.7819 28.0605 21.9603C27.9005 22.1585 27.8205 22.4558 27.8205 22.872C27.8205 23.3278 27.9005 23.645 28.0605 23.8233C28.2205 24.0215 28.4405 24.1008 28.7005 24.1008C28.9005 24.1008 29.0605 24.0413 29.2005 23.9224C29.2455 23.8779 29.2904 23.8133 29.3317 23.7323Z" fill="#0079AB"/>
<path d="M31.0507 24.6757C30.8684 24.6757 30.7207 24.5279 30.7207 24.3457V21.7382C30.7207 21.4012 30.9939 21.1279 31.331 21.1279H31.3774C31.6269 21.1279 31.8452 21.2959 31.909 21.5372C32.0535 22.0829 32.8279 22.0829 32.9724 21.5372C33.0362 21.2959 33.2545 21.1279 33.504 21.1279H33.5504C33.8875 21.1279 34.1607 21.4012 34.1607 21.7382V24.3357C34.1607 24.5235 34.0085 24.6757 33.8207 24.6757H33.7875C33.6181 24.6757 33.4807 24.5383 33.4807 24.3689C33.4807 24.0071 32.9641 23.9434 32.8762 24.2943L32.8422 24.4303C32.806 24.5745 32.6764 24.6757 32.5277 24.6757H32.3336C32.185 24.6757 32.0554 24.5745 32.0192 24.4303L31.9852 24.2943C31.8973 23.9434 31.3807 24.0071 31.3807 24.3689C31.3807 24.5383 31.2433 24.6757 31.0738 24.6757H31.0507Z" fill="#0079AB"/>
<path d="M16.8595 5.4502C16.8595 5.4502 14.4995 13.5565 6.43945 14.0917" stroke="#0000AC" stroke-miterlimit="10" stroke-linecap="round" stroke-linejoin="round"/>
<path d="M17.7795 7.59091L16.9595 5.68817C16.8995 5.54943 16.7596 5.49 16.6196 5.52964L14.5195 6.12421" stroke="#0000AC" stroke-miterlimit="10" stroke-linecap="round" stroke-linejoin="round"/>
</svg>
