<svg width="38" height="35" viewBox="0 0 38 35" fill="none" xmlns="http://www.w3.org/2000/svg">
<path d="M22.0039 5.36079V2.66318C22.0039 1.75046 22.7438 1 23.6436 1H26.303C27.2028 1 27.9427 1.75046 27.9427 2.66318V5.36079" stroke="#0000AC" stroke-miterlimit="10" stroke-linecap="round" stroke-linejoin="round"/>
<path d="M24.9824 10.3912C26.8376 10.3912 28.3417 8.86558 28.3417 6.98367C28.3417 5.10176 26.8376 3.57617 24.9824 3.57617C23.1271 3.57617 21.623 5.10176 21.623 6.98367C21.623 8.86558 23.1271 10.3912 24.9824 10.3912Z" stroke="#0000AC" stroke-miterlimit="10" stroke-linecap="round" stroke-linejoin="round"/>
<path d="M5.60735 17.8956C7.46265 17.8956 8.96666 16.37 8.96666 14.4881C8.96666 12.6062 7.46265 11.0806 5.60735 11.0806C3.75206 11.0806 2.24805 12.6062 2.24805 14.4881C2.24805 16.37 3.75206 17.8956 5.60735 17.8956Z" stroke="#0000AC" stroke-miterlimit="10" stroke-linecap="round" stroke-linejoin="round"/>
<path d="M22.0633 7.75439H27.8621C28.0421 7.75439 28.142 7.93694 28.0621 8.0992L27.7396 8.70382C27.5182 9.1189 27.196 9.47161 26.8025 9.72948C26.3458 10.0289 25.8116 10.1883 25.2654 10.1883H24.8392C24.1911 10.1883 23.5589 9.98705 23.0301 9.6123C22.6056 9.31146 22.2628 8.9095 22.0327 8.4428L21.8633 8.0992C21.7834 7.93694 21.9033 7.75439 22.0633 7.75439Z" fill="#0079AB"/>
<path d="M17.1041 29.1828C17.1041 29.1884 17.0996 29.1929 17.094 29.1929C16.6375 29.1905 16.1817 29.0285 15.8244 28.7467L4.74668 20.0859C3.80687 19.3355 2.42716 19.518 1.68731 20.4916L1.44736 20.7958C0.72751 21.7491 0.887478 23.1486 1.84728 23.8991L14.0048 33.3914C14.5047 33.7971 15.1245 33.9999 15.7644 33.9999H34.6205C35.2804 33.9999 35.8602 33.7362 36.3001 33.29C36.7201 32.8641 37 32.2556 37 31.5862C37 30.2679 35.9402 29.1726 34.6205 29.1726H17.1143C17.1087 29.1726 17.1041 29.1771 17.1041 29.1828V29.1828Z" stroke="#0000AC" stroke-miterlimit="10" stroke-linecap="round" stroke-linejoin="round"/>
<path d="M16.0836 28.8482C16.2636 28.9902 16.5035 29.0714 16.7435 29.0714L22.5822 29.1931C22.9222 29.1931 23.2621 29.1119 23.562 28.9699L26.8614 27.3879C27.3613 27.1445 27.9411 27.0836 28.481 27.2459L34.9597 29.0105C35.5996 29.1931 36.2794 28.9091 36.6193 28.3209C37.0792 27.5299 36.7393 26.5157 35.8995 26.1709L28.0011 22.8446C27.3613 22.5809 26.6614 22.5809 26.0215 22.8243L21.6424 24.5483C21.5025 24.6092 21.3425 24.6294 21.2025 24.6294H17.6833C17.3033 24.6294 16.9234 24.5077 16.6235 24.2643L10.5847 19.5588C10.2248 19.2748 9.78489 19.1328 9.34498 19.1328C8.74511 19.1328 8.14523 19.4168 7.74531 19.9238C7.06545 20.8163 7.22542 22.0941 8.10524 22.7837L16.0836 28.8482Z" stroke="#0000AC" stroke-miterlimit="10" stroke-linecap="round" stroke-linejoin="round"/>
<path d="M12.6445 21.141L19.943 13.6364C20.5029 13.0482 21.2827 12.7236 22.1026 12.7236H28.0214C28.8212 12.7236 29.601 13.0482 30.1809 13.6364L35.2599 18.8693C35.6998 19.3155 35.7797 20.0254 35.4398 20.5528L32.7404 24.8121" stroke="#0000AC" stroke-miterlimit="10" stroke-linecap="round" stroke-linejoin="round"/>
<path d="M28.6016 17.5713L30.2016 19.3156C30.6216 19.7618 30.6616 20.4514 30.3216 20.9585L28.8216 23.1693" stroke="#0000AC" stroke-miterlimit="10" stroke-linecap="round" stroke-linejoin="round"/>
<path d="M15.584 23.4327L20.503 18.22C20.7229 17.9969 21.1028 18.1389 21.1028 18.4634V24.6293" stroke="#0000AC" stroke-miterlimit="10" stroke-linecap="round" stroke-linejoin="round"/>
</svg>
