<svg width="37" height="37" viewBox="0 0 37 37" fill="none" xmlns="http://www.w3.org/2000/svg">
<path d="M20.0895 22.0514C20.3694 22.3482 20.5893 22.4669 21.089 22.5659C21.3689 22.6252 22.0485 22.7241 23.6477 21.7942C24.202 21.4731 24.93 20.9891 25.7204 20.2748C26.3879 19.6718 26.221 18.6544 25.7067 17.9163V17.9163C24.9542 16.8383 24.8883 15.702 24.8483 15.0461C24.8475 15.0336 24.8469 15.0234 24.8461 15.0109C24.8308 14.7719 24.6513 12.0189 24.3074 9.42849C23.9676 6.8762 23.7677 5.3923 22.6282 4.14584C22.5985 4.11344 22.5685 4.08162 22.5382 4.05037C20.6489 2.10006 17.7274 1 15.012 1V1C11.9535 1 10.0145 3.43358 9.59471 3.98757C7.99551 6.00566 7.67566 8.36009 7.41579 10.7541C7.19589 12.792 7.41579 13.801 6.7761 15.4828C6.51859 16.1677 6.18982 16.7693 5.83803 17.2901C5.09185 18.3948 4.95583 19.8985 6.01649 20.706V20.706C6.49625 21.082 7.23588 21.6162 8.29535 22.0119C9.27487 22.3878 10.8341 22.6252 11.6137 22.0316" stroke="#0000AC" stroke-miterlimit="10" stroke-linecap="round" stroke-linejoin="round"/>
<path d="M11.5543 22.0513C11.5543 22.0513 11.6742 23.6341 10.9346 24.3661C10.2149 25.0784 4.97753 26.7799 3.33834 28.0858V28.0858C0.49344 30.3521 2.94859 33.5267 6.58585 33.5267H15.6722" stroke="#0000AC" stroke-miterlimit="10" stroke-linecap="round" stroke-linejoin="round"/>
<path d="M20.0898 22.0513C20.0898 22.0513 20.1698 23.6341 20.8295 24.3859C21.5091 25.1773 22.9084 25.395 22.9084 25.395" stroke="#0000AC" stroke-miterlimit="10" stroke-linecap="round" stroke-linejoin="round"/>
<path d="M11.334 23.7334C11.334 23.7334 15.5119 26.8792 20.4495 23.7334" stroke="#0000AC" stroke-miterlimit="10" stroke-linecap="round" stroke-linejoin="round"/>
<path d="M17.2716 35.7624L17.1117 35.6041C16.8318 35.3073 16.8118 34.8522 17.0717 34.5555L26.1166 24.0215C26.9719 23.0254 28.4964 22.9744 29.4163 23.9112V23.9112C30.3501 24.8621 30.2528 26.4129 29.2075 27.2396L18.3311 35.8415C18.0112 36.0789 17.5515 36.0393 17.2716 35.7624Z" stroke="#0000AC" stroke-miterlimit="10" stroke-linecap="round" stroke-linejoin="round"/>
<path d="M35.883 21.339L35.6831 21.0027C34.9234 19.6969 33.844 18.6087 32.5646 17.7975L32.1648 17.5403C31.825 17.3226 31.3652 17.4018 31.1253 17.7183L29.2236 20.173C28.3548 21.2943 28.4481 22.8851 29.442 23.8972V23.8972C30.4309 24.9043 32.0097 25.031 33.1465 24.1946L35.6831 22.3283C36.0029 22.1107 36.1029 21.6754 35.883 21.339Z" stroke="#0000AC" stroke-miterlimit="10" stroke-linecap="round" stroke-linejoin="round"/>
<path d="M28.1861 28.0264H33.3636C33.9233 28.0264 34.3831 28.4814 34.3831 29.0354V34.971C34.3831 35.525 33.9233 35.98 33.3636 35.98H23.3086C22.7488 35.98 22.2891 35.525 22.2891 34.971V32.6759" stroke="#0000AC" stroke-miterlimit="10" stroke-linecap="round" stroke-linejoin="round"/>
<path d="M30.4453 28.0264V35.9998" stroke="#0000AC" stroke-miterlimit="10" stroke-linecap="round" stroke-linejoin="round"/>
<path d="M26.2871 36V32.0034V29.5303" stroke="#0000AC" stroke-miterlimit="10" stroke-linecap="round" stroke-linejoin="round"/>
<path d="M34.4228 32.0034H26.2869H23.1484" stroke="#0000AC" stroke-miterlimit="10" stroke-linecap="round" stroke-linejoin="round"/>
</svg>
