<svg width="38" height="29" viewBox="0 0 38 29" fill="none" xmlns="http://www.w3.org/2000/svg">
<path d="M17.8056 8.95752C18.1857 9.71107 18.4058 10.5665 18.4058 11.4626C18.4058 14.5175 15.965 16.9818 12.9841 16.9818C10.0032 16.9818 7.5625 14.4971 7.5625 11.4626C7.5625 10.5665 7.78256 9.71107 8.16268 8.95752" stroke="#0000AC" stroke-miterlimit="10" stroke-linecap="round" stroke-linejoin="round"/>
<path d="M17.6034 5.46458C17.7133 7.36002 16.2059 8.95743 14.3072 8.95743H11.6422C9.73262 8.95743 8.21654 7.35057 8.32747 5.44418L8.41712 3.90356C8.44473 3.42892 8.76733 3.02271 9.22338 2.88832V2.88832C11.6241 2.19587 14.1649 2.19586 16.5656 2.84758V2.84758C17.1034 2.99358 17.4876 3.46699 17.5199 4.02329L17.6034 5.46458Z" stroke="#0000AC" stroke-miterlimit="10" stroke-linecap="round" stroke-linejoin="round"/>
<path d="M10.7422 5.78027H15.0435" stroke="#0000AC" stroke-miterlimit="10" stroke-linecap="round" stroke-linejoin="round"/>
<path d="M12.9043 7.98028V3.60156" stroke="#0000AC" stroke-miterlimit="10" stroke-linecap="round" stroke-linejoin="round"/>
<path d="M1 23.5194C1 20.7496 6.38162 18.5093 12.9836 18.5093C19.5856 18.5093 24.9472 20.7496 24.9472 23.5194V23.5194C24.9472 25.9939 22.9412 27.9999 20.4667 27.9999H18.3452H7.62199H5.48055C3.00601 27.9999 1 25.9939 1 23.5194V23.5194Z" stroke="#0000AC" stroke-miterlimit="10" stroke-linecap="round" stroke-linejoin="round"/>
<path d="M12.9645 28.0001L8.7832 18.8149" stroke="#0000AC" stroke-miterlimit="10" stroke-linecap="round" stroke-linejoin="round"/>
<path d="M12.9629 28.0001L17.1442 18.8149" stroke="#0000AC" stroke-miterlimit="10" stroke-linecap="round" stroke-linejoin="round"/>
<path d="M21.9863 4.68075C22.1064 3.86611 22.4465 3.09217 23.1067 2.39972C24.0269 1.46288 25.3473 0.729696 26.9078 1.09629C28.1682 1.38141 28.9884 2.29791 29.3285 2.76633C29.4086 2.86816 29.5486 2.86816 29.6286 2.76633C29.9687 2.29791 30.789 1.40178 32.0494 1.09629C33.6098 0.729696 34.9302 1.46288 35.8505 2.39972C38.3112 4.94549 36.4507 8.99837 33.7499 10.8721C32.6495 11.646 30.949 12.8476 30.1688 13.6419C29.9487 13.8659 29.7487 14.0695 29.6286 14.2325C29.5486 14.3139 29.4286 14.3139 29.3485 14.2325C29.2085 14.0695 29.0285 13.8659 28.8084 13.6419C28.0281 12.8679 26.3276 11.646 25.2273 10.8721C24.6871 10.5055 24.187 10.0574 23.7469 9.54827" stroke="#0000AC" stroke-miterlimit="10" stroke-linecap="round" stroke-linejoin="round"/>
<path d="M22.3457 7.26708H24.297C24.4643 7.26708 24.6196 7.18002 24.7069 7.03726L24.7285 7.00204C24.9297 6.6731 25.4218 6.72215 25.5541 7.08433V7.08433C25.7146 7.52358 26.3518 7.47188 26.4393 7.01251L26.5401 6.48393C26.667 5.8181 27.623 5.82616 27.7387 6.49404L27.9438 7.67843C28.0622 8.36228 29.0133 8.43995 29.2411 7.78438L29.3482 7.47622C29.5238 6.97078 30.2401 6.97489 30.4099 7.48231V7.48231C30.5638 7.94215 31.1893 8.00322 31.4293 7.58184L31.4435 7.55691C31.5455 7.37773 31.7358 7.26708 31.942 7.26708H33.6691" stroke="#0000AC" stroke-miterlimit="10" stroke-linecap="round" stroke-linejoin="round"/>
<path d="M33.6694 7.83728C33.9787 7.83728 34.2294 7.58197 34.2294 7.26703C34.2294 6.95209 33.9787 6.69678 33.6694 6.69678C33.3601 6.69678 33.1094 6.95209 33.1094 7.26703C33.1094 7.58197 33.3601 7.83728 33.6694 7.83728Z" fill="#0079AB"/>
</svg>
