<svg width="25" height="38" viewBox="0 0 25 38" fill="none" xmlns="http://www.w3.org/2000/svg">
<path d="M2.20438 10.2828C2.20438 10.2828 2.10565 2.22279 12.0564 1.10279C22.0071 -0.0172111 23.9025 8.34278 23.9815 10.2828C24.0604 12.2228 23.9024 16.3028 23.2114 18.3028C22.5204 20.3028 20.2104 23.4828 18.9271 24.6828C15.2943 28.0828 14.3861 31.0828 13.6161 32.7428C12.8461 34.4028 11.0494 37.0028 7.61408 37.0028C4.17871 37.0028 1.61205 33.2628 1 31.9628" stroke="#0000AC" stroke-miterlimit="10" stroke-linecap="round" stroke-linejoin="round"/>
<path d="M11.385 5.52295C11.385 5.52295 6.92298 9.44294 6.844 11.7829C6.76503 14.1229 4.35636 15.783 4.35636 16.823C4.35636 17.863 5.99507 19.9429 7.8707 20.2029C9.74633 20.4629 4.25764 23.4829 4.35636 24.6629C4.43534 25.8429 3.15201 28.3629 7.8707 29.7629" stroke="#0000AC" stroke-miterlimit="10" stroke-linecap="round" stroke-linejoin="round"/>
<path d="M14.7812 9.10254C14.7812 9.10254 17.2689 12.6425 17.0912 14.6425C16.9135 16.6625 15.8079 19.5225 15.9461 20.6625" stroke="#0000AC" stroke-miterlimit="10" stroke-linecap="round" stroke-linejoin="round"/>
</svg>
