<svg width="33" height="38" viewBox="0 0 33 38" fill="none" xmlns="http://www.w3.org/2000/svg">
<path d="M7.46276 1L7.26521 2.17935C7.08743 3.21877 6.73188 4.21821 6.19853 5.1377L4.00589 8.9156C1.14163 13.8329 0.292223 19.6696 1.59596 25.2265L4.38121 37" stroke="#0000AC" stroke-miterlimit="10" stroke-linecap="round"/>
<path d="M25.5371 1L25.7347 2.17935C25.9124 3.21877 26.268 4.21821 26.8014 5.1377L28.994 8.9156C31.8582 13.8329 32.7076 19.6696 31.4039 25.2265L28.6187 37" stroke="#0000AC" stroke-miterlimit="10" stroke-linecap="round"/>
<path d="M3.49219 9.83496C3.49219 9.83496 14.8307 13.295 29.5076 9.83496" stroke="#0000AC" stroke-miterlimit="10" stroke-linecap="round"/>
<path d="M2.14844 13.0132C3.84724 13.0132 16.4895 18.3302 16.4895 25.8061V36.9999" stroke="#0000AC" stroke-miterlimit="10" stroke-linecap="round"/>
<path d="M30.8508 13.0132C29.152 13.0132 16.5098 18.3302 16.5098 25.8061V36.9999" stroke="#0000AC" stroke-miterlimit="10" stroke-linecap="round"/>
</svg>
