<svg width="32" height="38" viewBox="0 0 32 38" fill="none" xmlns="http://www.w3.org/2000/svg">
<path d="M26.5949 24.6203C26.8561 24.928 27.1495 25.207 27.47 25.4525L30.8071 28.0081C31.465 28.512 31.5869 29.4552 31.0786 30.1098V30.1098C30.5751 30.7583 29.6427 30.8788 28.9909 30.3796L25.6498 27.821C25.3214 27.5695 24.9667 27.3543 24.592 27.1791L21.667 25.8121C21.2575 25.6207 20.8821 25.3639 20.5554 25.0516L19.2822 23.8349C18.467 23.0558 18.3722 21.7867 19.0627 20.8951V20.8951C19.7472 20.0114 20.9853 19.7809 21.942 20.359L23.4796 21.2882C23.8697 21.5239 24.219 21.8213 24.5139 22.1688L26.5949 24.6203Z" stroke="#0000AC" stroke-miterlimit="10" stroke-linecap="round" stroke-linejoin="round"/>
<path d="M18.7082 19.4429C19.2599 19.7118 19.424 20.4203 19.0468 20.9044V20.9044C18.6745 21.3821 17.9593 21.4031 17.5597 20.9479L16.3113 19.526C16.127 19.3161 16.1168 19.0051 16.287 18.7835V18.7835C16.4564 18.5631 16.7574 18.4922 17.0073 18.614L18.7082 19.4429Z" stroke="#0000AC" stroke-miterlimit="10" stroke-linecap="round" stroke-linejoin="round"/>
<path d="M19.5586 24.0835C20.5451 24.7234 21.8537 24.5034 22.5785 23.5837C23.3032 22.6639 23.1623 21.3443 22.3167 20.5645" stroke="#0000AC" stroke-miterlimit="10" stroke-linecap="round" stroke-linejoin="round"/>
<path d="M15.7532 19.7049C16.4981 19.7049 17.102 19.105 17.102 18.3649C17.102 17.6248 16.4981 17.0249 15.7532 17.0249C15.0082 17.0249 14.4043 17.6248 14.4043 18.3649C14.4043 19.105 15.0082 19.7049 15.7532 19.7049Z" fill="#0079AB"/>
<path d="M18.4115 17.1449C18.4115 13.2659 15.3514 11.0864 11.5866 11.0864C7.82186 11.0864 4.76172 13.2459 4.76172 17.1449C4.76172 21.0239 9.23113 25.1628 11.5866 25.1628C12.9154 25.1628 14.5663 24.1631 15.9353 22.7034" stroke="#0000AC" stroke-miterlimit="10" stroke-linecap="round" stroke-linejoin="round"/>
<path d="M18.3499 16.2655C18.3499 16.2655 22.1751 11.1069 17.1621 7.50781" stroke="#0000AC" stroke-miterlimit="10" stroke-linecap="round" stroke-linejoin="round"/>
<path d="M4.80016 16.1853C4.80016 16.1853 2.52519 12.8862 4.80016 8.78723C7.055 4.68829 10.4976 3.88849 12.2089 3.74852C13.9202 3.60856 16.8193 4.16841 16.9803 6.52781C17.1414 8.8872 16.779 10.6067 14.1618 11.6065" stroke="#0000AC" stroke-miterlimit="10" stroke-linecap="round" stroke-linejoin="round"/>
<path d="M4.92244 8.5873C4.92244 8.5873 3.1709 5.02822 7.45912 2.18895C11.7473 -0.650314 15.5121 2.22894 15.2907 4.24842" stroke="#0000AC" stroke-miterlimit="10" stroke-linecap="round" stroke-linejoin="round"/>
<path d="M12.8532 7.98751C12.8532 7.98751 8.28311 6.42752 4.55859 9.24752" stroke="#0000AC" stroke-miterlimit="10" stroke-linecap="round" stroke-linejoin="round"/>
<path d="M14.6659 23.8632V23.8632C14.6659 25.076 15.5657 26.1019 16.7414 26.3997C18.7938 26.9197 21.7179 27.9879 22.3566 29.9416V29.9416C23.5827 33.6923 20.0032 36.9998 16.0571 36.9998H11.6259H11.5857H7.15416C3.20826 36.9998 -0.363922 33.6945 0.855027 29.9416V29.9416C1.48548 28.0006 4.34291 26.9379 6.3905 26.4148C7.60899 26.1035 8.54566 25.0408 8.54566 23.7832V23.7832" stroke="#0000AC" stroke-miterlimit="10" stroke-linecap="round" stroke-linejoin="round"/>
</svg>
