<svg width="38" height="38" viewBox="0 0 38 38" fill="none" xmlns="http://www.w3.org/2000/svg">
<path d="M23.6801 36.7384H1.94C1.42 36.7384 1 36.3158 1 35.7926V5.56791C1 5.04471 1.42 4.62213 1.94 4.62213H5.09108C8.22195 4.62213 11.2292 1 14.3601 1V1V1C17.4933 1 20.5 4.62213 23.6333 4.62213H26.78C27.3 4.62213 27.72 5.04471 27.72 5.56791V17.9033" stroke="#0000AC" stroke-miterlimit="10" stroke-linecap="round" stroke-linejoin="round"/>
<path d="M17.9602 4.62207H19.9296C20.8854 4.62207 21.6602 5.39688 21.6602 6.35265V6.35265C21.6602 7.30842 20.8854 8.08322 19.9296 8.08322H8.97081C8.01504 8.08322 7.24023 7.30842 7.24023 6.35265V6.35265C7.24023 5.39688 8.01504 4.62207 8.97081 4.62207H10.7602" stroke="#0000AC" stroke-miterlimit="10" stroke-linecap="round" stroke-linejoin="round"/>
<path d="M4.62109 15.3176C4.62109 17.3003 6.22839 18.9297 8.21109 18.9297C10.1938 18.9297 11.8011 17.3003 11.8011 15.3176C11.8011 13.3349 10.1938 11.7056 8.21109 11.7056C6.22839 11.7056 4.62109 13.3349 4.62109 15.3176Z" stroke="#0000AC" stroke-miterlimit="10" stroke-linecap="round" stroke-linejoin="round"/>
<path d="M14.8809 13.5366H24.4209" stroke="#0000AC" stroke-miterlimit="10" stroke-linecap="round" stroke-linejoin="round"/>
<path d="M14.8809 17.0981H24.4209" stroke="#0000AC" stroke-miterlimit="10" stroke-linecap="round" stroke-linejoin="round"/>
<path d="M4.62109 26.7473C4.62109 28.73 6.22839 30.3594 8.21109 30.3594C10.1938 30.3594 11.8011 28.73 11.8011 26.7473C11.8011 24.7646 10.1938 23.1353 8.21109 23.1353C6.22839 23.1353 4.62109 24.7646 4.62109 26.7473Z" stroke="#0000AC" stroke-miterlimit="10" stroke-linecap="round" stroke-linejoin="round"/>
<path d="M14.8809 24.9663H21.1209" stroke="#0000AC" stroke-miterlimit="10" stroke-linecap="round" stroke-linejoin="round"/>
<path d="M14.8809 28.5283H19.6609" stroke="#0000AC" stroke-miterlimit="10" stroke-linecap="round" stroke-linejoin="round"/>
<path d="M37.001 30.3592C37.001 34.5045 33.661 36.9997 29.521 36.9997C25.381 36.9997 22.041 34.5246 22.041 30.3592C22.041 26.2138 26.741 21.9478 29.521 21.9478C32.461 21.9478 37.001 26.1937 37.001 30.3592Z" stroke="#0000AC" stroke-miterlimit="10" stroke-linecap="round" stroke-linejoin="round"/>
<path d="M26.0605 18.8691V18.8691C26.0605 18.8691 31.4295 17.6856 31.4594 17.6618C32.1288 17.1281 33.0293 16.7481 34.2405 16.6958" stroke="#0000AC" stroke-miterlimit="10" stroke-linecap="round" stroke-linejoin="round"/>
<path d="M30.1602 34.9273C30.1602 34.9273 34.5201 33.9815 35.0201 30.3594" stroke="#0000AC" stroke-miterlimit="10" stroke-linecap="round" stroke-linejoin="round"/>
</svg>
