<svg width="31" height="37" viewBox="0 0 31 37" fill="none" xmlns="http://www.w3.org/2000/svg">
<path d="M12.8031 33.9617C6.61298 31.3032 1.93555 20.1494 1.93555 13.573C1.93555 6.65686 7.56837 1 14.4551 1H16.545C23.4318 1 29.0646 6.65686 29.0646 13.573C29.0646 20.3293 24.1085 31.9428 17.6597 34.1616" stroke="#0000AC" stroke-miterlimit="10" stroke-linecap="round"/>
<path d="M2.0748 15.7119L2.00619 17.139C1.96659 17.9628 1 18.7251 1 19.5498V19.5498C1 20.6891 1.5573 21.7685 2.51269 22.4082L4.32395 23.6475" stroke="#0000AC" stroke-miterlimit="10" stroke-linecap="round"/>
<path d="M28.9249 15.7119L28.9935 17.139C29.0331 17.9628 29.9997 18.7251 29.9997 19.5498V19.5498C29.9997 20.6891 29.4424 21.7685 28.487 22.4082L26.6758 23.6475" stroke="#0000AC" stroke-miterlimit="10" stroke-linecap="round"/>
<path d="M5.37891 16.2716L8.52373 12.8535C9.04123 12.2939 9.37958 11.6142 9.499 10.8547L10.0563 7.65643C10.1757 6.9968 11.0117 6.8169 11.3899 7.33661L12.7035 9.13561C13.4201 10.1151 14.5546 10.6748 15.7488 10.6748H21.0831C23.4716 10.6748 25.4221 12.6337 25.4221 15.0323V16.2716" stroke="#0000AC" stroke-miterlimit="10" stroke-linecap="round"/>
<path d="M10.6333 32.6623C10.6333 32.6623 9.12062 30.4235 10.6134 27.705C12.4247 24.3869 13.7582 21.9482 15.5098 21.9482" stroke="#0000AC" stroke-miterlimit="10" stroke-linecap="round"/>
<path d="M20.3866 32.6423C20.3866 32.6423 21.8794 30.4235 20.3866 27.705C18.5753 24.3869 17.1821 21.9482 15.4902 21.9482" stroke="#0000AC" stroke-miterlimit="10" stroke-linecap="round"/>
<path d="M16.8632 30.5635C16.8632 31.6029 16.2661 32.1026 15.5097 32.1026C14.7534 32.1026 14.1562 31.6029 14.1562 30.5635C14.1562 29.5241 15.0121 28.3447 15.5097 28.3447C16.0073 28.3447 16.8632 29.5241 16.8632 30.5635Z" fill="#0079AB"/>
<path d="M15.5095 36.9999C15.1114 36.9999 14.793 36.6801 14.793 36.2803V31.9027C14.793 31.5029 15.1114 31.1831 15.5095 31.1831C15.9076 31.1831 16.2261 31.5029 16.2261 31.9027V36.2803C16.2261 36.6601 15.9076 36.9999 15.5095 36.9999Z" fill="#0079AB"/>
<path d="M12.743 17.7905C12.743 18.6305 12.2056 19.3305 10.7924 19.3305C9.41903 19.3305 8.8418 18.6505 8.8418 17.7905" stroke="#0000AC" stroke-miterlimit="10" stroke-linecap="round"/>
<path d="M22.157 17.7905C22.157 18.6305 21.6196 19.3305 20.2064 19.3305C18.8331 19.3305 18.2559 18.6505 18.2559 17.7905" stroke="#0000AC" stroke-miterlimit="10" stroke-linecap="round"/>
</svg>
