<svg width="38" height="15" viewBox="0 0 38 15" fill="none" xmlns="http://www.w3.org/2000/svg">
<path d="M1 3.75049H13.1267" stroke="#0000AC" stroke-miterlimit="10" stroke-linecap="round" stroke-linejoin="round"/>
<path d="M19.2909 5.98631C20.6835 5.98631 21.8123 4.87008 21.8123 3.49316C21.8123 2.11623 20.6835 1 19.2909 1C17.8984 1 16.7695 2.11623 16.7695 3.49316C16.7695 4.87008 17.8984 5.98631 19.2909 5.98631Z" stroke="#0000AC" stroke-miterlimit="10" stroke-linecap="round" stroke-linejoin="round"/>
<path d="M13.3262 6.10489C14.3267 8.3606 16.628 9.92377 19.2695 9.92377V9.92377C24.8139 9.92377 30.1518 3.73047 35.6962 3.73047H36.9993" stroke="#0000AC" stroke-miterlimit="10" stroke-linecap="round" stroke-linejoin="round"/>
<path d="M8.66406 3.75049C8.80414 9.42933 13.5067 14.0001 19.29 14.0001C23.8125 14.0001 27.6746 11.2102 29.1955 7.27256" stroke="#0000AC" stroke-miterlimit="10" stroke-linecap="round" stroke-linejoin="round"/>
</svg>
