<svg width="38" height="32" viewBox="0 0 38 32" fill="none" xmlns="http://www.w3.org/2000/svg">
<path d="M27.74 6.45454H33.44C35.4 6.45454 37 8.05882 37 10.0241V27.4305C37 29.3957 35.4 31 33.44 31H4.56C2.6 31 1 29.3957 1 27.4305V10.0241C1 8.05882 2.6 6.45454 4.56 6.45454H8.51534C9.47889 6.45454 10.26 5.67343 10.26 4.70989V4.70989C10.26 2.66444 11.94 1 13.96 1H24.02C26.06 1 27.72 2.68449 27.72 4.70989V6.43454C27.72 6.44558 27.729 6.45454 27.74 6.45454V6.45454Z" stroke="#0000AC" stroke-miterlimit="10" stroke-linecap="round" stroke-linejoin="round"/>
<path d="M24.2992 6.47482H14.6217C14.1122 6.47482 13.6992 6.06181 13.6992 5.55235V5.55235C13.6992 4.73016 14.3792 4.04834 15.1992 4.04834H22.7792C23.5992 4.04834 24.2792 4.73016 24.2792 5.55235V6.45481C24.2792 6.46586 24.2882 6.47482 24.2992 6.47482V6.47482Z" stroke="#0000AC" stroke-miterlimit="10" stroke-linecap="round" stroke-linejoin="round"/>
<path d="M21.7998 21.3742V23.3795C21.7998 24.1616 21.1598 24.8033 20.3798 24.8033H17.5998C16.8198 24.8033 16.1798 24.1616 16.1798 23.3795V21.3742H14.1798C13.3998 21.3742 12.7598 20.7325 12.7598 19.9504V17.183C12.7598 16.4009 13.3998 15.7592 14.1798 15.7592H16.1798V13.7539C16.1798 12.9718 16.8198 12.3301 17.5998 12.3301H20.3798C21.1598 12.3301 21.7998 12.9718 21.7998 13.7539V15.7592H23.7998C24.5798 15.7592 25.2198 16.4009 25.2198 17.183V19.9504C25.2198 20.7325 24.5798 21.3742 23.7998 21.3742H21.7998Z" stroke="#0000AC" stroke-miterlimit="10" stroke-linecap="round" stroke-linejoin="round"/>
</svg>
