<svg width="37" height="30" viewBox="0 0 37 30" fill="none" xmlns="http://www.w3.org/2000/svg">
<path d="M22.1601 14.3627C22.1601 15.7157 22.5515 17.0398 23.2872 18.1754L24.2593 19.6758C26.8628 23.6944 23.9784 29 19.1901 29V29C14.4018 29 11.5174 23.6944 14.1209 19.6758L15.093 18.1754C15.8287 17.0398 16.2201 15.7157 16.2201 14.3627V3.43392C16.2201 3.16635 16.1137 2.90976 15.9243 2.72075V2.72075C15.2886 2.0863 15.7379 1 16.636 1H21.7442C22.6423 1 23.0916 2.0863 22.4559 2.72075V2.72075C22.2665 2.90976 22.1601 3.16635 22.1601 3.43392V14.3627Z" stroke="#0000AC" stroke-miterlimit="10" stroke-linecap="round" stroke-linejoin="round"/>
<path d="M13.8594 20.1011H24.5193" stroke="#0000AC" stroke-miterlimit="10" stroke-linecap="round" stroke-linejoin="round"/>
<path d="M8.56018 23.6851C7.92018 23.8276 7.24018 23.8684 6.56018 23.7869C4.02018 23.5018 1.48014 21.0378 1.08014 18.472C0.64014 15.6007 2.10013 13.0145 4.38013 11.7927C4.56013 11.6909 4.68018 11.5076 4.68018 11.304V9.31216C4.68018 7.88175 5.83976 6.72217 7.27017 6.72217V6.72217C8.70059 6.72217 9.86017 7.88175 9.86017 9.31216V11.1003C9.86017 11.4262 10.0202 11.7113 10.3002 11.8742C12.2202 12.9534 13.5402 15.0509 13.5402 17.4538" stroke="#0000AC" stroke-miterlimit="10" stroke-linecap="round" stroke-linejoin="round"/>
<path d="M1.48047 14.9897H13.0605" stroke="#0000AC" stroke-miterlimit="10" stroke-linecap="round" stroke-linejoin="round"/>
<path d="M25.6797 18.5331V11.0267C25.6797 8.84056 27.4519 7.06836 29.638 7.06836H34.8142C35.7507 7.06836 36.3109 8.11026 35.7945 8.89148V8.89148C35.6674 9.08371 35.5997 9.30905 35.5997 9.53948V17.4036C35.5997 20.8278 32.8238 23.6036 29.3997 23.6036V23.6036" stroke="#0000AC" stroke-miterlimit="10" stroke-linecap="round" stroke-linejoin="round"/>
<path d="M35.5997 13.6455H25.6797" stroke="#0000AC" stroke-miterlimit="10" stroke-linecap="round" stroke-linejoin="round"/>
</svg>
