<svg width="37" height="34" viewBox="0 0 37 34" fill="none" xmlns="http://www.w3.org/2000/svg">
<path d="M17.4694 19.765C17.7295 20.0287 17.9096 20.1301 18.3498 20.2316C18.5899 20.2924 19.1902 20.3736 20.5709 19.5418C21.0548 19.2556 21.6832 18.8321 22.3651 18.2036C22.956 17.6591 22.817 16.728 22.3518 16.0728V16.0728C21.7293 15.1549 21.6403 14.201 21.5986 13.6018C21.5937 13.5315 21.5893 13.4623 21.5846 13.392C21.5511 12.8867 21.3933 10.6334 21.1112 8.50601C20.811 6.21364 20.6309 4.89501 19.6504 3.79954C19.6206 3.76642 19.5905 3.73399 19.5601 3.70223C17.9218 1.99026 15.3768 1 13.0072 1V1C10.3459 1 8.66506 3.17067 8.28487 3.65755C6.90419 5.44276 6.60405 7.57283 6.38394 9.68262C6.18385 11.5084 6.38395 12.401 5.82367 13.9022C5.59413 14.5255 5.30076 15.0706 4.98761 15.5415C4.33859 16.5175 4.21377 17.8541 5.14331 18.5681V18.5681C5.56352 18.8926 6.20385 19.3795 7.1243 19.7447C7.98472 20.0693 9.32538 20.2924 10.0057 19.765" stroke="#0000AC" stroke-miterlimit="10" stroke-linecap="round" stroke-linejoin="round"/>
<path d="M10.0449 19.7651C10.0449 19.7651 10.145 21.1852 9.50466 21.8344C8.86435 22.4835 4.32211 23.9847 2.90142 25.1613V25.1613C0.424657 27.2126 2.60699 30.0098 5.82288 30.0098H13.6467" stroke="#0000AC" stroke-miterlimit="10" stroke-linecap="round" stroke-linejoin="round"/>
<path d="M17.4688 19.7651C17.4688 19.7651 17.5488 21.1852 18.1091 21.8547C18.6894 22.5647 19.93 22.7676 19.93 22.7676" stroke="#0000AC" stroke-miterlimit="10" stroke-linecap="round" stroke-linejoin="round"/>
<path d="M9.8457 21.2461C9.8457 21.2461 13.4675 24.0456 17.7696 21.2461" stroke="#0000AC" stroke-miterlimit="10" stroke-linecap="round" stroke-linejoin="round"/>
<path d="M21.2108 27.7777L25.4679 24.3366C26.3649 23.6116 26.4511 22.275 25.6547 21.4407V21.4407C24.8427 20.59 23.4714 20.6343 22.716 21.5358L14.8677 30.9018C14.8077 30.9627 14.7676 31.0235 14.7476 31.1047C14.6676 31.3481 14.7076 31.6321 14.9077 31.8147L15.0478 31.9567C15.1078 32.0176 15.1878 32.0784 15.2479 32.0987" stroke="#0000AC" stroke-miterlimit="10" stroke-linecap="round" stroke-linejoin="round"/>
<path d="M31.2153 19.1156L31.0352 18.8114C30.3749 17.655 29.4344 16.6813 28.3139 15.951L27.9737 15.7278C27.6736 15.5452 27.2734 15.6061 27.0733 15.8901L25.3745 18.1326C24.6352 19.1085 24.7131 20.4766 25.5585 21.3622V21.3622C26.4333 22.2786 27.856 22.394 28.8671 21.6305L31.0152 20.0083C31.3154 19.8257 31.3954 19.4199 31.2153 19.1156Z" stroke="#0000AC" stroke-miterlimit="10" stroke-linecap="round" stroke-linejoin="round"/>
<path d="M16.6003 32.5193L25.5105 27.9433C26.0273 27.6779 26.2358 27.0414 25.9761 26.5216C25.7164 26.0019 25.0869 25.7957 24.57 26.0612L15.6598 30.6371C15.143 30.9025 14.9345 31.539 15.1942 32.0588C15.4539 32.5785 16.0834 32.7847 16.6003 32.5193Z" stroke="#0000AC" stroke-miterlimit="10" stroke-linecap="round" stroke-linejoin="round"/>
<path d="M29.9491 26.2176C30.8341 25.9046 31.2439 24.8862 30.8224 24.0475V24.0475C30.3966 23.2003 29.3194 22.9261 28.5404 23.4667L26.3702 24.9726C25.8784 25.3139 25.7117 25.9643 25.9788 26.5V26.5C26.2502 27.0445 26.8851 27.3012 27.4587 27.0983L29.9491 26.2176Z" stroke="#0000AC" stroke-miterlimit="10" stroke-linecap="round" stroke-linejoin="round"/>
<path d="M30.3359 23.0919C30.396 23.0514 30.456 23.0311 30.496 23.0108C33.2574 21.5907 35.7186 20.8604 35.9787 21.3878C36.2333 21.904 34.2839 23.4111 31.6124 24.8063C31.4957 24.8672 31.3811 24.9364 31.2564 24.9786V24.9786" stroke="#0000AC" stroke-miterlimit="10" stroke-linecap="round" stroke-linejoin="round"/>
</svg>
