<svg width="38" height="36" viewBox="0 0 38 36" fill="none" xmlns="http://www.w3.org/2000/svg">
<path d="M13.9591 26.5557C18.057 26.5557 21.3791 23.184 21.3791 19.0249C21.3791 14.8658 18.057 11.4941 13.9591 11.4941C9.86111 11.4941 6.53906 14.8658 6.53906 19.0249C6.53906 23.184 9.86111 26.5557 13.9591 26.5557Z" stroke="#0000AC" stroke-miterlimit="10" stroke-linecap="round" stroke-linejoin="round"/>
<path d="M24.5466 28.1303L21.1604 24.5328C20.6037 23.9414 19.6798 23.9203 19.0967 24.4857C18.5137 25.051 18.4923 25.9887 19.0489 26.58L22.4352 30.1776C22.9918 30.7689 23.9157 30.79 24.4988 30.2247C25.0819 29.6594 25.1033 28.7217 24.5466 28.1303Z" stroke="#0000AC" stroke-miterlimit="10" stroke-linecap="round" stroke-linejoin="round"/>
<path d="M12.18 3.23291C12.18 8.49022 1 13.3212 1 19.1063C1 24.8914 12.18 29.7224 12.18 34.9797" stroke="#0000AC" stroke-miterlimit="10" stroke-linecap="round" stroke-linejoin="round"/>
<path d="M1 34.9997C1 31.8737 4.94 28.9101 8.14 25.7842" stroke="#0000AC" stroke-miterlimit="10" stroke-linecap="round" stroke-linejoin="round"/>
<path d="M1 3.23291C1 6.33858 4.92 9.30214 8.12 12.4078" stroke="#0000AC" stroke-miterlimit="10" stroke-linecap="round" stroke-linejoin="round"/>
<path d="M1.85938 5.89209H11.2994" stroke="#0000AC" stroke-miterlimit="10" stroke-linecap="round" stroke-linejoin="round"/>
<path d="M1.85938 32.3408H11.3794" stroke="#0000AC" stroke-miterlimit="10" stroke-linecap="round" stroke-linejoin="round"/>
<path d="M2.59961 23.105H6.3196" stroke="#0000AC" stroke-miterlimit="10" stroke-linecap="round" stroke-linejoin="round"/>
<path d="M2.59961 15.1685H6.3196" stroke="#0000AC" stroke-miterlimit="10" stroke-linecap="round" stroke-linejoin="round"/>
<path d="M1 19.1064H5.2" stroke="#0000AC" stroke-miterlimit="10" stroke-linecap="round" stroke-linejoin="round"/>
<path d="M34.2195 17.4621H27.2195C25.6795 17.4621 24.4395 16.2036 24.4395 14.6406V3.82146C24.4395 2.25848 25.6795 1 27.2195 1H34.2195C35.7595 1 36.9995 2.25848 36.9995 3.82146V14.6406C36.9995 16.2036 35.7595 17.4621 34.2195 17.4621Z" stroke="#0000AC" stroke-miterlimit="10" stroke-linecap="round" stroke-linejoin="round"/>
<path d="M30.6797 3.31396V7.75934" stroke="#0000AC" stroke-miterlimit="10" stroke-linecap="round" stroke-linejoin="round"/>
<path d="M26.6992 10.0127H34.7392" stroke="#0000AC" stroke-miterlimit="10" stroke-linecap="round" stroke-linejoin="round"/>
<path d="M26.6992 12.2861H34.7392" stroke="#0000AC" stroke-miterlimit="10" stroke-linecap="round" stroke-linejoin="round"/>
<path d="M26.6992 14.5391H31.0392" stroke="#0000AC" stroke-miterlimit="10" stroke-linecap="round" stroke-linejoin="round"/>
<path d="M28.8008 4.43066L32.5808 6.64319" stroke="#0000AC" stroke-miterlimit="10" stroke-linecap="round" stroke-linejoin="round"/>
<path d="M28.8008 6.64319L32.5808 4.43066" stroke="#0000AC" stroke-miterlimit="10" stroke-linecap="round" stroke-linejoin="round"/>
</svg>
