<svg width="33" height="38" viewBox="0 0 33 38" fill="none" xmlns="http://www.w3.org/2000/svg">
<path d="M8.25599 23.377C4.26022 23.377 1 26.6365 1 30.6759V33.4955C1 34.1354 1.51687 34.6553 2.15301 34.6553H11.5127C13.7105 34.6553 15.4921 32.8737 15.4921 30.6759V30.6759C15.512 26.6365 12.2716 23.377 8.25599 23.377Z" stroke="#0000AC" stroke-miterlimit="10" stroke-linecap="round"/>
<path d="M23.9804 23.377H21.5551C18.2153 23.377 15.5117 26.0966 15.5117 29.4561V30.0433C15.5117 32.5905 17.5766 34.6553 20.1237 34.6553V34.6553" stroke="#0000AC" stroke-miterlimit="10" stroke-linecap="round"/>
<path d="M10.7402 19.8774V23.5574" stroke="#0000AC" stroke-miterlimit="10" stroke-linecap="round"/>
<path d="M20.2832 19.8774V23.5574" stroke="#0000AC" stroke-miterlimit="10" stroke-linecap="round"/>
<path d="M24.3183 7.89886V11.4584C24.3183 16.3377 20.3623 21.7369 15.5117 21.7369C10.6611 21.7369 6.70508 16.3377 6.70508 11.4584V7.83887" stroke="#0000AC" stroke-miterlimit="10" stroke-linecap="round"/>
<path d="M23.9214 7.84L21.9334 7.6C17.6792 7.08 13.3654 7.08 9.11119 7.6L7.12325 7.84C6.56662 7.84 6.10938 7.38 6.10938 6.82V4.42C6.10938 2.54 7.64011 1 9.50878 1H21.5557C23.4244 1 24.9551 2.54 24.9551 4.42V6.82C24.9352 7.38 24.478 7.84 23.9214 7.84Z" stroke="#0000AC" stroke-miterlimit="10" stroke-linecap="round"/>
<path d="M6.22812 13.819C5.31367 13.759 4.57812 12.919 4.57812 11.879C4.57812 10.839 5.31367 9.97896 6.22812 9.93896" stroke="#0000AC" stroke-miterlimit="10" stroke-linecap="round"/>
<path d="M24.7949 13.819C25.7094 13.759 26.4449 12.919 26.4449 11.879C26.4449 10.839 25.7094 9.97896 24.7949 9.93896" stroke="#0000AC" stroke-miterlimit="10" stroke-linecap="round"/>
<path d="M16.5457 18.638H14.4981C13.2059 18.638 12.1523 17.578 12.1523 16.278C12.1523 14.978 13.2059 13.918 14.4981 13.918H16.5457C17.8379 13.918 18.8915 14.978 18.8915 16.278C18.8716 17.578 17.818 18.638 16.5457 18.638Z" stroke="#0000AC" stroke-miterlimit="10" stroke-linecap="round"/>
<path d="M7.02344 13.918C7.02344 13.918 9.0114 15.918 12.1325 16.538" stroke="#0000AC" stroke-miterlimit="10" stroke-linecap="round"/>
<path d="M23.9996 13.918C23.9996 13.918 22.0117 15.918 18.8906 16.538" stroke="#0000AC" stroke-miterlimit="10" stroke-linecap="round"/>
<path d="M19.2696 11.0588C19.7636 11.0588 20.1641 10.6558 20.1641 10.1588C20.1641 9.66173 19.7636 9.25879 19.2696 9.25879C18.7755 9.25879 18.375 9.66173 18.375 10.1588C18.375 10.6558 18.7755 11.0588 19.2696 11.0588Z" fill="#0079AB"/>
<path d="M12.1524 11.0588C12.6464 11.0588 13.047 10.6558 13.047 10.1588C13.047 9.66173 12.6464 9.25879 12.1524 9.25879C11.6583 9.25879 11.2578 9.66173 11.2578 10.1588C11.2578 10.6558 11.6583 11.0588 12.1524 11.0588Z" fill="#0079AB"/>
<path d="M23.5639 36.8949C21.9139 36.315 21.6952 33.2954 22.232 31.7556L25.5916 22.097C25.9494 21.0771 27.0428 20.5572 28.0368 20.9171L29.9452 21.5971C30.959 21.957 31.4759 23.0568 31.1181 24.0567L27.7584 33.7153C27.2416 35.2551 25.2934 37.5148 23.5639 36.8949Z" stroke="#0000AC" stroke-miterlimit="10" stroke-linecap="round"/>
<path d="M30.8804 22.2569C30.8804 22.2569 30.5027 21.397 31.1388 20.3772V20.3772C33.4269 16.709 27.9605 14.2358 27.9898 18.559C27.9902 18.6214 27.9916 18.6843 27.9939 18.7479C27.9961 18.8065 28.0002 18.8661 28.0006 18.9247C28.0031 19.297 27.9168 20.7466 26.4473 21.0771" stroke="#0000AC" stroke-miterlimit="10" stroke-linecap="round"/>
<path d="M26.8242 24.2568L28.9513 25.0168" stroke="#0000AC" stroke-miterlimit="10" stroke-linecap="round"/>
<path d="M26.1484 26.0361L28.2756 26.7961" stroke="#0000AC" stroke-miterlimit="10" stroke-linecap="round"/>
<path d="M25.4531 27.7959L27.6001 28.5359" stroke="#0000AC" stroke-miterlimit="10" stroke-linecap="round"/>
</svg>
