<svg width="32" height="38" viewBox="0 0 32 38" fill="none" xmlns="http://www.w3.org/2000/svg">
<path d="M23.5594 25.4864C22.194 27.0056 20.3932 27.945 18.4341 27.945C15.6737 27.945 13.7915 26.6827 12.5651 24.7747C9.55825 20.0966 13.1744 14.3674 15.2678 9.21544V9.21544C15.4064 8.89562 15.5251 8.59577 15.624 8.3559V8.3559C17.4433 3.90691 21.7725 1 26.5791 1H29.6148C30.3866 1 31 1.61965 31 2.39922V8.81567V35.6008C31 36.3804 30.3866 37 29.6148 37H16.6729C16.4156 37 16.2375 36.7202 16.3364 36.4803L17.3061 34.0417C17.5831 33.362 18.2758 31.9028 18.2758 30.6835L18.4341 28.1249" stroke="#0000AC" stroke-miterlimit="10" stroke-linecap="round" stroke-linejoin="round"/>
<path d="M15.0294 1.25977C15.0294 1.25977 14.594 2.33916 13.8223 3.99824" stroke="#0000AC" stroke-linecap="round" stroke-linejoin="round"/>
<path d="M12.2399 7.11621C10.8744 9.6548 9.07364 12.6531 6.97601 15.2317C6.69897 15.5915 6.54066 16.0313 6.58024 16.471C6.75834 18.5499 7.21348 25.2461 10.9734 29.044" stroke="#0000AC" stroke-linecap="round" stroke-linejoin="round" stroke-dasharray="2.64 2.64"/>
<path d="M12.3379 30.1836C13.1294 30.7236 14.02 31.1436 15.0292 31.4236" stroke="#0000AC" stroke-linecap="round" stroke-linejoin="round"/>
<path d="M5.88786 28.3247L1 29.6847" stroke="#0000AC" stroke-miterlimit="10" stroke-linecap="round" stroke-linejoin="round"/>
<path d="M4.89806 30.2836L5.78856 28.5246C5.84793 28.4047 5.80835 28.2647 5.7094 28.1848L4.02734 27.0454" stroke="#0000AC" stroke-miterlimit="10" stroke-linecap="round" stroke-linejoin="round"/>
<path d="M5.45251 9.83533L1 8.69531" stroke="#0000AC" stroke-miterlimit="10" stroke-linecap="round" stroke-linejoin="round"/>
<path d="M4.40314 7.896L5.33322 9.63502C5.39259 9.75495 5.35301 9.8949 5.25407 9.97486L3.5918 11.1542" stroke="#0000AC" stroke-miterlimit="10" stroke-linecap="round" stroke-linejoin="round"/>
</svg>
