<svg width="38" height="23" viewBox="0 0 38 23" fill="none" xmlns="http://www.w3.org/2000/svg">
<path d="M34.7813 22H3.21874C1.99942 22 1 21.041 1 19.8276V3.17242C1 1.97857 1.97943 1 3.21874 1H34.7813C36.0006 1 37 1.959 37 3.17242V19.8276C37 21.041 36.0006 22 34.7813 22Z" stroke="#0000AC" stroke-miterlimit="10" stroke-linecap="round" stroke-linejoin="round"/>
<path d="M21.2087 9.41553H27.0855C27.4853 9.41553 27.8051 9.72867 27.8051 10.1201V12.8992C27.8051 13.2906 27.4853 13.6038 27.0855 13.6038H10.9345C10.5347 13.6038 10.2148 13.2906 10.2148 12.8992V10.1201C10.2148 9.72867 10.5347 9.41553 10.9345 9.41553H18.1504" stroke="#0000AC" stroke-miterlimit="10" stroke-linecap="round" stroke-linejoin="round"/>
<path d="M5.55739 6.77358C6.51783 6.77358 7.29641 6.01126 7.29641 5.07089C7.29641 4.13051 6.51783 3.36816 5.55739 3.36816C4.59694 3.36816 3.81836 4.13051 3.81836 5.07089C3.81836 6.01126 4.59694 6.77358 5.55739 6.77358Z" stroke="#0000AC" stroke-miterlimit="10" stroke-linecap="round" stroke-linejoin="round"/>
<path d="M5.55739 13.2125C6.51783 13.2125 7.29641 12.4502 7.29641 11.5098C7.29641 10.5694 6.51783 9.80713 5.55739 9.80713C4.59694 9.80713 3.81836 10.5694 3.81836 11.5098C3.81836 12.4502 4.59694 13.2125 5.55739 13.2125Z" stroke="#0000AC" stroke-miterlimit="10" stroke-linecap="round" stroke-linejoin="round"/>
<path d="M32.9031 13.2125C33.8635 13.2125 34.6421 12.4502 34.6421 11.5098C34.6421 10.5694 33.8635 9.80713 32.9031 9.80713C31.9426 9.80713 31.1641 10.5694 31.1641 11.5098C31.1641 12.4502 31.9426 13.2125 32.9031 13.2125Z" stroke="#0000AC" stroke-miterlimit="10" stroke-linecap="round" stroke-linejoin="round"/>
<path d="M12.3933 6.77358C13.3538 6.77358 14.1324 6.01126 14.1324 5.07089C14.1324 4.13051 13.3538 3.36816 12.3933 3.36816C11.4329 3.36816 10.6543 4.13051 10.6543 5.07089C10.6543 6.01126 11.4329 6.77358 12.3933 6.77358Z" stroke="#0000AC" stroke-miterlimit="10" stroke-linecap="round" stroke-linejoin="round"/>
<path d="M19.2293 6.77358C20.1897 6.77358 20.9683 6.01126 20.9683 5.07089C20.9683 4.13051 20.1897 3.36816 19.2293 3.36816C18.2688 3.36816 17.4902 4.13051 17.4902 5.07089C17.4902 6.01126 18.2688 6.77358 19.2293 6.77358Z" stroke="#0000AC" stroke-miterlimit="10" stroke-linecap="round" stroke-linejoin="round"/>
<path d="M26.0653 6.77358C27.0257 6.77358 27.8043 6.01126 27.8043 5.07089C27.8043 4.13051 27.0257 3.36816 26.0653 3.36816C25.1048 3.36816 24.3262 4.13051 24.3262 5.07089C24.3262 6.01126 25.1048 6.77358 26.0653 6.77358Z" stroke="#0000AC" stroke-miterlimit="10" stroke-linecap="round" stroke-linejoin="round"/>
<path d="M32.9031 6.77358C33.8635 6.77358 34.6421 6.01126 34.6421 5.07089C34.6421 4.13051 33.8635 3.36816 32.9031 3.36816C31.9426 3.36816 31.1641 4.13051 31.1641 5.07089C31.1641 6.01126 31.9426 6.77358 32.9031 6.77358Z" stroke="#0000AC" stroke-miterlimit="10" stroke-linecap="round" stroke-linejoin="round"/>
<path d="M5.55739 20.1017C6.51783 20.1017 7.29641 19.3394 7.29641 18.399C7.29641 17.4586 6.51783 16.6963 5.55739 16.6963C4.59694 16.6963 3.81836 17.4586 3.81836 18.399C3.81836 19.3394 4.59694 20.1017 5.55739 20.1017Z" stroke="#0000AC" stroke-miterlimit="10" stroke-linecap="round" stroke-linejoin="round"/>
<path d="M12.3933 20.1017C13.3538 20.1017 14.1324 19.3394 14.1324 18.399C14.1324 17.4586 13.3538 16.6963 12.3933 16.6963C11.4329 16.6963 10.6543 17.4586 10.6543 18.399C10.6543 19.3394 11.4329 20.1017 12.3933 20.1017Z" stroke="#0000AC" stroke-miterlimit="10" stroke-linecap="round" stroke-linejoin="round"/>
<path d="M19.2293 20.1017C20.1897 20.1017 20.9683 19.3394 20.9683 18.399C20.9683 17.4586 20.1897 16.6963 19.2293 16.6963C18.2688 16.6963 17.4902 17.4586 17.4902 18.399C17.4902 19.3394 18.2688 20.1017 19.2293 20.1017Z" stroke="#0000AC" stroke-miterlimit="10" stroke-linecap="round" stroke-linejoin="round"/>
<path d="M26.0653 20.1017C27.0257 20.1017 27.8043 19.3394 27.8043 18.399C27.8043 17.4586 27.0257 16.6963 26.0653 16.6963C25.1048 16.6963 24.3262 17.4586 24.3262 18.399C24.3262 19.3394 25.1048 20.1017 26.0653 20.1017Z" stroke="#0000AC" stroke-miterlimit="10" stroke-linecap="round" stroke-linejoin="round"/>
<path d="M32.9031 20.1017C33.8635 20.1017 34.6421 19.3394 34.6421 18.399C34.6421 17.4586 33.8635 16.6963 32.9031 16.6963C31.9426 16.6963 31.1641 17.4586 31.1641 18.399C31.1641 19.3394 31.9426 20.1017 32.9031 20.1017Z" stroke="#0000AC" stroke-miterlimit="10" stroke-linecap="round" stroke-linejoin="round"/>
<path d="M16.1113 7.41943L18.1502 9.41571" stroke="#0000AC" stroke-miterlimit="10" stroke-linecap="round" stroke-linejoin="round"/>
<path d="M16.1113 11.3922L18.1502 9.41553" stroke="#0000AC" stroke-miterlimit="10" stroke-linecap="round" stroke-linejoin="round"/>
</svg>
