<svg width="36" height="38" viewBox="0 0 36 38" fill="none" xmlns="http://www.w3.org/2000/svg">
<path d="M17.509 18.6602C17.8892 19.3802 18.0894 20.2002 18.0894 21.0802C18.0894 24.0202 15.708 26.4002 12.7664 26.4002C9.8247 26.4002 7.44336 24.0202 7.44336 21.0802C7.44336 20.2202 7.64347 19.4002 8.02369 18.6602" stroke="#0000AC" stroke-miterlimit="10" stroke-linecap="round" stroke-linejoin="round"/>
<path d="M17.3192 15.3117C17.4224 17.1295 15.9761 18.6603 14.1553 18.6603H11.3733C9.54618 18.6603 8.09676 17.1208 8.20677 15.297L8.29792 13.7858C8.32551 13.3284 8.64214 12.9398 9.08451 12.8203V12.8203C11.4458 12.1603 13.9272 12.1403 16.2886 12.7803V12.7803C16.8259 12.9235 17.2104 13.3956 17.2419 13.9507L17.3192 15.3117Z" stroke="#0000AC" stroke-miterlimit="10" stroke-linecap="round" stroke-linejoin="round"/>
<path d="M10.5859 15.6001H14.7883" stroke="#0000AC" stroke-miterlimit="10" stroke-linecap="round" stroke-linejoin="round"/>
<path d="M12.6855 17.7V13.5" stroke="#0000AC" stroke-miterlimit="10" stroke-linecap="round" stroke-linejoin="round"/>
<path d="M1 32.6798C1 30.0198 6.28297 27.8398 12.7666 27.8398C19.2503 27.8398 24.4932 29.9998 24.4932 32.6798V32.6798C24.4932 35.0657 22.5591 36.9998 20.1732 36.9998H18.0296H7.50366H5.31999C2.93413 36.9998 1 35.0657 1 32.6798V32.6798Z" stroke="#0000AC" stroke-miterlimit="10" stroke-linecap="round" stroke-linejoin="round"/>
<path d="M12.7464 37.0002L8.66406 28.1602" stroke="#0000AC" stroke-miterlimit="10" stroke-linecap="round" stroke-linejoin="round"/>
<path d="M12.7461 37.0002L16.8484 28.1602" stroke="#0000AC" stroke-miterlimit="10" stroke-linecap="round" stroke-linejoin="round"/>
<path d="M28.7561 18.0999C28.7561 18.0999 19.9711 14.7999 20.0712 5.91992" stroke="#0000AC" stroke-miterlimit="10" stroke-linecap="round" stroke-linejoin="round"/>
<path d="M26.3145 18.9L28.4957 18.18C28.6358 18.14 28.7358 17.98 28.6958 17.82L28.2155 15.48" stroke="#0000AC" stroke-miterlimit="10" stroke-linecap="round" stroke-linejoin="round"/>
<path d="M26.3145 1.81982C26.3145 1.81982 35.0994 5.11982 34.9993 13.9998" stroke="#0000AC" stroke-miterlimit="10" stroke-linecap="round" stroke-linejoin="round"/>
<path d="M28.7555 1L26.5742 1.72C26.4342 1.76 26.3341 1.92 26.3741 2.08L26.8544 4.42" stroke="#0000AC" stroke-miterlimit="10" stroke-linecap="round" stroke-linejoin="round"/>
</svg>
