<svg width="38" height="34" viewBox="0 0 38 34" fill="none" xmlns="http://www.w3.org/2000/svg">
<path d="M11.674 18.7952C11.314 17.8513 10.814 16.9878 10.194 16.2045C8.914 14.5778 6.934 12.3888 5.634 10.6817C4.694 9.45665 4.87398 8.53284 5.27398 7.93035C5.61398 7.4082 6.33398 7.34795 6.77398 7.76969C7.09398 8.09102 7.534 8.41234 8.074 8.61317C9.254 9.03491 12.034 5.8819 11.994 4.5765C11.954 3.27111 7.93398 1.08207 6.27398 1.00174C4.83398 0.921404 2.35401 3.65269 1.67401 4.41584C1.55401 4.55642 1.47401 4.71709 1.45401 4.89783C1.29401 5.84173 0.793991 9.37632 1.09399 17.2488C1.39399 25.1414 7.374 30.0216 9.294 31.3872C9.634 31.6282 10.054 31.6282 10.394 31.4073C10.994 31.0257 12.074 30.4835 13.214 30.604C14.974 30.7847 16.754 35.2231 25.614 31.5479C32.914 28.5154 30.714 22.6913 31.554 21.6872C31.654 21.5667 31.774 21.4863 31.914 21.406C40.574 17.5501 35.714 9.7579 35.014 8.71359C34.974 8.63325 34.914 8.57301 34.834 8.51276C32.034 6.06264 29.834 5.8819 26.534 7.22745C23.954 8.27177 22.674 12.1679 22.214 13.895V13.895C22.104 14.3588 21.6324 14.6373 21.162 14.5607C16.6728 13.8292 14.2722 16.7812 13.1766 18.8091C12.8723 19.3723 11.9189 19.3867 11.674 18.7952V18.7952Z" stroke="#0000AC" stroke-miterlimit="10" stroke-linecap="round" stroke-linejoin="round"/>
<path d="M12.0137 30.6844C12.0137 30.6844 15.7537 27.6519 18.2337 27.672C20.6337 27.672 24.0937 26.8687 25.1937 25.7842C26.4537 24.519 28.6137 21.386 29.9137 21.2053C31.9537 20.9442 35.3937 18.9761 35.3937 18.9761" stroke="#0000AC" stroke-miterlimit="10" stroke-linecap="round" stroke-linejoin="round"/>
<path d="M17.0941 30.5438C17.4255 30.5438 17.6942 30.2741 17.6942 29.9414C17.6942 29.6086 17.4255 29.3389 17.0941 29.3389C16.7628 29.3389 16.4941 29.6086 16.4941 29.9414C16.4941 30.2741 16.7628 30.5438 17.0941 30.5438Z" fill="#0079AB"/>
<path d="M19.5746 32.1303C19.906 32.1303 20.1746 31.8605 20.1746 31.5278C20.1746 31.195 19.906 30.9253 19.5746 30.9253C19.2432 30.9253 18.9746 31.195 18.9746 31.5278C18.9746 31.8605 19.2432 32.1303 19.5746 32.1303Z" fill="#0079AB"/>
<path d="M22.1136 30.122C22.445 30.122 22.7137 29.8522 22.7137 29.5195C22.7137 29.1867 22.445 28.917 22.1136 28.917C21.7823 28.917 21.5137 29.1867 21.5137 29.5195C21.5137 29.8522 21.7823 30.122 22.1136 30.122Z" fill="#0079AB"/>
<path d="M24.2348 27.8124C24.5661 27.8124 24.8347 27.5427 24.8347 27.2099C24.8347 26.8772 24.5661 26.6074 24.2348 26.6074C23.9034 26.6074 23.6348 26.8772 23.6348 27.2099C23.6348 27.5427 23.9034 27.8124 24.2348 27.8124Z" fill="#0079AB"/>
<path d="M24.9945 31.7084C25.3259 31.7084 25.5945 31.4386 25.5945 31.1059C25.5945 30.7732 25.3259 30.5034 24.9945 30.5034C24.6631 30.5034 24.3945 30.7732 24.3945 31.1059C24.3945 31.4386 24.6631 31.7084 24.9945 31.7084Z" fill="#0079AB"/>
<path d="M26.5941 29.5194C26.9255 29.5194 27.1942 29.2497 27.1942 28.9169C27.1942 28.5842 26.9255 28.3145 26.5941 28.3145C26.2628 28.3145 25.9941 28.5842 25.9941 28.9169C25.9941 29.2497 26.2628 29.5194 26.5941 29.5194Z" fill="#0079AB"/>
<path d="M28.4145 26.6679C28.7458 26.6679 29.0145 26.3981 29.0145 26.0654C29.0145 25.7326 28.7458 25.4629 28.4145 25.4629C28.0831 25.4629 27.8145 25.7326 27.8145 26.0654C27.8145 26.3981 28.0831 26.6679 28.4145 26.6679Z" fill="#0079AB"/>
<path d="M30.0141 24.017C30.3454 24.017 30.614 23.7472 30.614 23.4145C30.614 23.0818 30.3454 22.812 30.0141 22.812C29.6827 22.812 29.4141 23.0818 29.4141 23.4145C29.4141 23.7472 29.6827 24.017 30.0141 24.017Z" fill="#0079AB"/>
<path d="M19.5746 28.7562C19.906 28.7562 20.1746 28.4865 20.1746 28.1538C20.1746 27.821 19.906 27.5513 19.5746 27.5513C19.2432 27.5513 18.9746 27.821 18.9746 28.1538C18.9746 28.4865 19.2432 28.7562 19.5746 28.7562Z" fill="#0079AB"/>
</svg>
