<svg width="37" height="38" viewBox="0 0 37 38" fill="none" xmlns="http://www.w3.org/2000/svg">
<path d="M18.5005 10.2051C21.0562 10.2051 23.128 8.14446 23.128 5.60254C23.128 3.06061 21.0562 1 18.5005 1C15.9448 1 13.873 3.06061 13.873 5.60254C13.873 8.14446 15.9448 10.2051 18.5005 10.2051Z" stroke="#0000AC" stroke-miterlimit="10" stroke-linecap="round" stroke-linejoin="round"/>
<path d="M18.5 12.4663H14.8382C13.108 12.4663 11.5185 13.4668 10.8143 15.0477L8.62131 19.8304C8.37988 20.3507 7.97749 20.7909 7.49463 21.1111L2.02212 24.473C0.996023 25.0933 0.694238 26.434 1.33806 27.4346C1.96177 28.4151 3.26952 28.7153 4.27549 28.115L10.5729 24.3129C11.0759 24.0127 11.4783 23.5925 11.7398 23.0722L13.8725 19.03" stroke="#0000AC" stroke-miterlimit="10" stroke-linecap="round" stroke-linejoin="round"/>
<path d="M12.2029 22.1719V25.8339C12.2029 26.7144 11.7603 27.5348 11.0158 28.0151L6.16704 31.1969C4.65808 32.1974 4.27583 34.2385 5.34216 35.6994C5.94575 36.5198 6.91148 37.0001 7.91746 37.0001H18.4802" stroke="#0000AC" stroke-miterlimit="10" stroke-linecap="round" stroke-linejoin="round"/>
<path d="M18.5 12.4663H22.1617C23.892 12.4663 25.4815 13.4668 26.1856 15.0477L28.3787 19.8304C28.6201 20.3507 29.0225 20.7909 29.5054 21.1111L34.9779 24.473C36.004 25.0933 36.3058 26.434 35.6619 27.4346C35.0382 28.4151 33.7304 28.7153 32.7245 28.115L26.4271 24.3129C25.9241 24.0127 25.5217 23.5925 25.2602 23.0722L23.1275 19.03" stroke="#0000AC" stroke-miterlimit="10" stroke-linecap="round" stroke-linejoin="round"/>
<path d="M24.7968 22.1719V25.8339C24.7968 26.7144 25.2394 27.5348 25.9839 28.0151L30.8327 31.1969C32.3416 32.1974 32.7239 34.2385 31.6575 35.6994C31.054 36.5198 30.0882 37.0001 29.0822 37.0001H18.5195H14.8376C13.3085 37.0001 12.041 35.7594 12.041 34.2186C12.041 32.7577 13.1677 31.5571 14.6364 31.457L23.1269 30.8567" stroke="#0000AC" stroke-miterlimit="10" stroke-linecap="round" stroke-linejoin="round"/>
<path d="M18.841 28.1152C18.7032 28.1152 18.6107 27.9862 18.513 27.8891L16.648 26.0341C16.0444 25.4337 16.0444 24.4332 16.648 23.8328C16.9498 23.5327 17.3321 23.3726 17.7546 23.3726C18.4353 23.3726 19.287 23.3726 19.9677 23.3726C20.3902 23.3726 20.7725 23.5327 21.0743 23.8328C21.3761 24.133 21.537 24.5132 21.537 24.9334C21.537 25.3336 21.3761 25.7339 21.0743 26.0341L19.232 27.8664C19.119 27.9788 19.0004 28.1152 18.841 28.1152Z" fill="#0079AB"/>
</svg>
