<svg width="36" height="37" viewBox="0 0 36 37" fill="none" xmlns="http://www.w3.org/2000/svg">
<path d="M13.1711 28.3201C17.0184 28.3201 20.1372 25.2398 20.1372 21.4401C20.1372 17.6403 17.0184 14.5601 13.1711 14.5601C9.32389 14.5601 6.20508 17.6403 6.20508 21.4401C6.20508 25.2398 9.32389 28.3201 13.1711 28.3201Z" stroke="#0000AC" stroke-miterlimit="10" stroke-linecap="round" stroke-linejoin="round"/>
<path d="M23.1174 29.7289L19.943 26.447C19.4212 25.9076 18.5557 25.8878 18.0099 26.4029C17.464 26.9179 17.4445 27.7727 17.9662 28.3122L21.1407 31.594C21.6625 32.1334 22.528 32.1532 23.0738 31.6381C23.6197 31.1231 23.6392 30.2683 23.1174 29.7289Z" stroke="#0000AC" stroke-miterlimit="10" stroke-linecap="round" stroke-linejoin="round"/>
<path d="M11.4896 7C11.4896 11.8 1 16.22 1 21.5C1 26.78 11.4896 31.2 11.4896 36" stroke="#0000AC" stroke-miterlimit="10" stroke-linecap="round" stroke-linejoin="round"/>
<path d="M1 36.0001C1 33.1401 4.70577 30.4401 7.70279 27.6001" stroke="#0000AC" stroke-miterlimit="10" stroke-linecap="round" stroke-linejoin="round"/>
<path d="M1 7C1 9.84 4.68556 12.54 7.68258 15.38" stroke="#0000AC" stroke-miterlimit="10" stroke-linecap="round" stroke-linejoin="round"/>
<path d="M1.81055 9.43994H10.6801" stroke="#0000AC" stroke-miterlimit="10" stroke-linecap="round" stroke-linejoin="round"/>
<path d="M1.81055 33.5801H10.7611" stroke="#0000AC" stroke-miterlimit="10" stroke-linecap="round" stroke-linejoin="round"/>
<path d="M2.49805 25.1401H6.00128" stroke="#0000AC" stroke-miterlimit="10" stroke-linecap="round" stroke-linejoin="round"/>
<path d="M2.49805 17.8999H6.00128" stroke="#0000AC" stroke-miterlimit="10" stroke-linecap="round" stroke-linejoin="round"/>
<path d="M1 21.5H4.9488" stroke="#0000AC" stroke-miterlimit="10" stroke-linecap="round" stroke-linejoin="round"/>
<path d="M31.9634 7.87988V7.87988C33.641 7.87988 35.0009 9.23983 35.0009 10.9174V11.5899C35.0009 13.6389 33.3399 15.2999 31.2909 15.2999H24.0499C22.0009 15.2999 20.3398 13.6389 20.3398 11.5899V10.9174C20.3398 9.23983 21.6998 7.87988 23.3774 7.87988V7.87988" stroke="#0000AC" stroke-miterlimit="10" stroke-linecap="round" stroke-linejoin="round"/>
<path d="M28.8248 11.54C28.8248 12.1 28.359 12.58 27.7717 12.58C27.2047 12.58 26.7188 12.12 26.7188 11.54" fill="#0079AB"/>
<path d="M26.7383 11.54C26.7441 11.4382 26.7513 11.3353 26.7597 11.2314C26.7865 10.9042 28.824 11.54 28.824 11.54" fill="#0079AB"/>
<path d="M29.9384 11.6001C29.9384 12.8401 28.9259 13.8401 27.6703 13.8401C26.4148 13.8401 25.4023 12.8401 25.4023 11.6001" stroke="#0000AC" stroke-miterlimit="10" stroke-linecap="round" stroke-linejoin="round"/>
<path d="M25.4215 11.5999C25.4215 11.5999 25.4216 10.9599 25.6646 10.5999C25.9076 10.2399 26.0898 7.8999 23.3965 7.8999" stroke="#0000AC" stroke-miterlimit="10" stroke-linecap="round" stroke-linejoin="round"/>
<path d="M29.9376 11.5999C29.9376 11.5999 29.9376 10.9599 29.6946 10.5999C29.4516 10.2399 29.2693 7.8999 31.9626 7.8999" stroke="#0000AC" stroke-miterlimit="10" stroke-linecap="round" stroke-linejoin="round"/>
<path d="M13.1711 28.3201C17.0184 28.3201 20.1372 25.2398 20.1372 21.4401C20.1372 17.6403 17.0184 14.5601 13.1711 14.5601C9.32389 14.5601 6.20508 17.6403 6.20508 21.4401C6.20508 25.2398 9.32389 28.3201 13.1711 28.3201Z" stroke="#0000AC" stroke-miterlimit="10" stroke-linecap="round" stroke-linejoin="round"/>
<path d="M23.1174 29.7289L19.943 26.447C19.4212 25.9076 18.5557 25.8878 18.0099 26.4029C17.464 26.9179 17.4445 27.7727 17.9662 28.3122L21.1407 31.594C21.6625 32.1334 22.528 32.1532 23.0738 31.6381C23.6197 31.1231 23.6392 30.2683 23.1174 29.7289Z" stroke="#0000AC" stroke-miterlimit="10" stroke-linecap="round" stroke-linejoin="round"/>
<path d="M11.4896 7C11.4896 11.8 1 16.22 1 21.5C1 26.78 11.4896 31.2 11.4896 36" stroke="#0000AC" stroke-miterlimit="10" stroke-linecap="round" stroke-linejoin="round"/>
<path d="M1 36.0001C1 33.1401 4.70577 30.4401 7.70279 27.6001" stroke="#0000AC" stroke-miterlimit="10" stroke-linecap="round" stroke-linejoin="round"/>
<path d="M1 7C1 9.84 4.68556 12.54 7.68258 15.38" stroke="#0000AC" stroke-miterlimit="10" stroke-linecap="round" stroke-linejoin="round"/>
<path d="M1.81055 9.43994H10.6801" stroke="#0000AC" stroke-miterlimit="10" stroke-linecap="round" stroke-linejoin="round"/>
<path d="M1.81055 33.5801H10.7611" stroke="#0000AC" stroke-miterlimit="10" stroke-linecap="round" stroke-linejoin="round"/>
<path d="M2.49805 25.1401H6.00128" stroke="#0000AC" stroke-miterlimit="10" stroke-linecap="round" stroke-linejoin="round"/>
<path d="M2.49805 17.8999H6.00128" stroke="#0000AC" stroke-miterlimit="10" stroke-linecap="round" stroke-linejoin="round"/>
<path d="M1 21.5H4.9488" stroke="#0000AC" stroke-miterlimit="10" stroke-linecap="round" stroke-linejoin="round"/>
<path d="M31.9634 7.87988V7.87988C33.641 7.87988 35.0009 9.23983 35.0009 10.9174V11.5899C35.0009 13.6389 33.3399 15.2999 31.2909 15.2999H24.0499C22.0009 15.2999 20.3398 13.6389 20.3398 11.5899V10.9174C20.3398 9.23983 21.6998 7.87988 23.3774 7.87988V7.87988" stroke="#0000AC" stroke-miterlimit="10" stroke-linecap="round" stroke-linejoin="round"/>
<path d="M29.9384 11.6001C29.9384 12.8401 28.9259 13.8401 27.6703 13.8401C26.4148 13.8401 25.4023 12.8401 25.4023 11.6001" stroke="#0000AC" stroke-miterlimit="10" stroke-linecap="round" stroke-linejoin="round"/>
<path d="M25.4215 11.5999C25.4215 11.5999 25.4216 10.9599 25.6646 10.5999C25.9076 10.2399 26.0898 7.8999 23.3965 7.8999" stroke="#0000AC" stroke-miterlimit="10" stroke-linecap="round" stroke-linejoin="round"/>
<path d="M29.9376 11.5999C29.9376 11.5999 29.9376 10.9599 29.6946 10.5999C29.4516 10.2399 29.2693 7.8999 31.9626 7.8999" stroke="#0000AC" stroke-miterlimit="10" stroke-linecap="round" stroke-linejoin="round"/>
</svg>
