<svg width="33" height="38" viewBox="0 0 33 38" fill="none" xmlns="http://www.w3.org/2000/svg">
<path d="M18.2267 17.1449C18.2267 13.2659 15.197 11.0864 11.4698 11.0864C7.74253 11.0864 4.71289 13.2459 4.71289 17.1449C4.71289 21.0239 9.13776 25.1628 11.4698 25.1628C13.3235 25.1628 15.8349 23.1833 17.2301 20.684" stroke="#0000AC" stroke-miterlimit="10" stroke-linecap="round" stroke-linejoin="round"/>
<path d="M18.1682 16.2655C18.1682 16.2655 21.9552 11.1069 16.9922 7.50781" stroke="#0000AC" stroke-miterlimit="10" stroke-linecap="round" stroke-linejoin="round"/>
<path d="M4.77341 16.1853C4.77341 16.1853 2.54105 12.8862 4.77341 8.78723C7.02571 4.68829 10.4141 3.88849 12.1084 3.74852C13.8026 3.60856 16.6727 4.16841 16.8322 6.52781C16.9916 8.8872 16.8123 10.5468 14.2211 11.5265" stroke="#0000AC" stroke-miterlimit="10" stroke-linecap="round" stroke-linejoin="round"/>
<path d="M4.87203 8.5873C4.87203 8.5873 3.13795 5.02822 7.38344 2.18895C11.6289 -0.650314 15.3562 2.22894 15.1369 4.24842" stroke="#0000AC" stroke-miterlimit="10" stroke-linecap="round" stroke-linejoin="round"/>
<path d="M12.7256 7.98751C12.7256 7.98751 8.20106 6.42752 4.51367 9.24752" stroke="#0000AC" stroke-miterlimit="10" stroke-linecap="round" stroke-linejoin="round"/>
<path d="M10.9922 15.6855L12.6864 17.3655" stroke="#0000AC" stroke-miterlimit="10" stroke-linecap="round" stroke-linejoin="round"/>
<path d="M9.83594 18.9648H12.0683" stroke="#0000AC" stroke-miterlimit="10" stroke-linecap="round" stroke-linejoin="round"/>
<path d="M11.2305 22.1241L12.6656 20.7041" stroke="#0000AC" stroke-miterlimit="10" stroke-linecap="round" stroke-linejoin="round"/>
<path d="M13.7422 18.9648H20.7383" stroke="#0000AC" stroke-miterlimit="10" stroke-linecap="round" stroke-linejoin="round"/>
<path d="M23.3693 20.5048H22.293C21.4359 20.5048 20.7383 19.8048 20.7383 18.9448C20.7383 18.0848 21.4359 17.3848 22.293 17.3848H23.3693C23.6483 17.3848 23.8676 17.6048 23.8676 17.8848V20.0448C23.8676 20.2848 23.6483 20.5048 23.3693 20.5048Z" stroke="#0000AC" stroke-miterlimit="10" stroke-linecap="round" stroke-linejoin="round"/>
<path d="M29.7272 21.2243H24.5847C24.1861 21.2243 23.8672 20.9044 23.8672 20.5045V17.3653C23.8672 16.9654 24.1861 16.6455 24.5847 16.6455H29.7272C30.9829 16.6455 31.9994 17.6652 31.9994 18.9249C31.9994 20.2046 30.9829 21.2243 29.7272 21.2243Z" stroke="#0000AC" stroke-miterlimit="10" stroke-linecap="round" stroke-linejoin="round"/>
<path d="M28.7109 16.665V21.2239" stroke="#0000AC" stroke-miterlimit="10" stroke-linecap="round" stroke-linejoin="round"/>
<path d="M14.5198 23.8632V23.8632C14.5198 25.0764 15.4194 26.1029 16.5944 26.4048C18.6253 26.9266 21.5035 27.9943 22.1337 29.9416V29.9416C23.3485 33.695 19.7727 36.9998 15.8276 36.9998H11.5101H11.4702H7.15237C3.2074 36.9998 -0.361153 33.6972 0.846506 29.9416V29.9416C1.46857 28.0071 4.28061 26.9451 6.30631 26.4201C7.52411 26.1045 8.46049 25.0412 8.46049 23.7832V23.7832" stroke="#0000AC" stroke-miterlimit="10" stroke-linecap="round" stroke-linejoin="round"/>
</svg>
