<svg width="37" height="38" viewBox="0 0 37 38" fill="none" xmlns="http://www.w3.org/2000/svg">
<path d="M3.24414 23.5925V23.5925C3.24414 20.6859 5.60044 18.3296 8.50708 18.3296H28.8582C31.7649 18.3296 34.1212 20.6859 34.1212 23.5925V23.5925C34.1212 29.1156 29.6932 33.6181 24.2176 33.6181H13.1279C12.5547 33.6181 11.9814 33.5581 11.4279 33.478" stroke="#0000AC" stroke-miterlimit="10" stroke-linecap="round" stroke-linejoin="round"/>
<path d="M21.4701 37H15.8956V37C12.9617 37 14.9136 33.5981 17.8475 33.5981H19.5307C22.4596 33.5981 24.399 37 21.4701 37V37Z" stroke="#0000AC" stroke-miterlimit="10" stroke-linecap="round" stroke-linejoin="round"/>
<path d="M19.0781 18.3293L27.3608 7.98356C27.4596 7.86349 27.4991 7.6834 27.4991 7.52331C27.4793 7.38324 27.4794 7.22314 27.4794 7.08307C27.4794 4.66172 29.4561 2.70064 31.8678 2.78069C34.1213 2.84072 35.9794 4.7818 35.9992 7.06307C36.019 8.96412 34.8131 10.565 33.1527 11.1653C32.9747 11.2254 32.8166 11.3655 32.7573 11.5656L30.484 18.3693" stroke="#0000AC" stroke-miterlimit="10" stroke-linecap="round" stroke-linejoin="round"/>
<path d="M9.70963 27.1545C9.74916 27.2945 9.74916 27.4346 9.76893 27.5547C9.78869 27.9149 9.70963 28.2751 9.53173 28.5753C9.28701 29.0517 8.86302 29.4192 8.34513 29.5914C8.29338 29.6086 8.24205 29.6359 8.18751 29.6359V29.6359V29.6359C8.1331 29.6359 8.08167 29.662 8.028 29.671C7.48181 29.7624 6.94067 29.6199 6.50728 29.2957C6.23054 29.0956 5.99332 28.8154 5.85495 28.4752C5.79565 28.3551 5.7561 28.2151 5.71656 28.095C5.67703 27.9749 5.67703 27.8148 5.65726 27.6948C5.63749 27.3346 5.71658 26.9744 5.89449 26.6742C6.13901 26.1982 6.56249 25.8309 7.07979 25.6585C7.13178 25.6411 7.18387 25.6136 7.23868 25.6136V25.6136V25.6136C7.29311 25.6136 7.34456 25.5874 7.39825 25.5784C7.94443 25.4871 8.48556 25.6295 8.91893 25.9538C9.19568 26.1539 9.4329 26.4341 9.57127 26.7743C9.63057 26.8943 9.67009 27.0344 9.70963 27.1545Z" stroke="#0000AC" stroke-miterlimit="10" stroke-linecap="round" stroke-linejoin="round"/>
<path d="M5.89367 26.6942C5.65645 26.214 5.49832 25.5936 5.34017 24.8932C5.32041 24.7731 5.28085 24.6731 5.26109 24.553C4.80643 22.632 5.57737 20.7909 6.09132 20.6709C6.60528 20.5508 8.08786 21.8315 8.54252 23.7726C8.56228 23.8927 8.60181 24.0127 8.62157 24.1128" stroke="#0000AC" stroke-miterlimit="10" stroke-linecap="round" stroke-linejoin="round"/>
<path d="M8.91797 25.9736V25.9536" stroke="#0000AC" stroke-miterlimit="10" stroke-linecap="round" stroke-linejoin="round"/>
<path d="M5.34021 24.893C5.20183 24.853 5.04367 24.793 4.88553 24.753C3.00761 24.1927 1.16924 24.833 1.0111 25.3533C0.872724 25.8536 2.03901 27.4545 3.91694 28.0148C4.27275 28.1148 4.60879 28.2149 4.92507 28.3149C5.26112 28.395 5.57741 28.475 5.85415 28.5151" stroke="#0000AC" stroke-miterlimit="10" stroke-linecap="round" stroke-linejoin="round"/>
<path d="M4.9241 28.3149C4.68689 28.5351 4.42991 28.7752 4.15317 29.0353C2.7299 30.3961 2.37408 32.3572 2.7299 32.7374C3.10548 33.1376 5.04271 32.8775 6.46597 31.5167C6.58458 31.4167 6.70318 31.2966 6.80202 31.1965C7.35551 30.6763 7.82994 30.176 8.10669 29.6957" stroke="#0000AC" stroke-miterlimit="10" stroke-linecap="round" stroke-linejoin="round"/>
<path d="M11.9628 22.392C12.3186 22.372 12.5756 22.432 12.6942 22.5521C13.05 22.9323 12.6942 24.8934 11.2709 26.2541C11.014 26.5143 10.757 26.7544 10.5 26.9745" stroke="#0000AC" stroke-miterlimit="10" stroke-linecap="round" stroke-linejoin="round"/>
<path d="M7.31641 25.6135C7.59315 25.1332 8.06755 24.6329 8.62105 24.1126C8.73965 24.0126 8.83849 23.8925 8.95709 23.7725C9.53035 23.2121 10.2025 22.852 10.8153 22.6318" stroke="#0000AC" stroke-miterlimit="10" stroke-linecap="round" stroke-linejoin="round"/>
<path d="M9.57031 26.7744C9.86683 26.8144 10.1831 26.8745 10.4994 26.9745C10.8157 27.0546 11.1517 27.1746 11.5075 27.2747C13.3855 27.835 14.5715 29.4359 14.4134 29.9362C14.2552 30.4565 12.4168 31.1168 10.5389 30.5365C10.3808 30.4965 10.2424 30.4364 10.0843 30.3964" stroke="#0000AC" stroke-miterlimit="10" stroke-linecap="round" stroke-linejoin="round"/>
<path d="M6.50586 29.3354V29.3154" stroke="#0000AC" stroke-miterlimit="10" stroke-linecap="round" stroke-linejoin="round"/>
<path d="M6.80273 31.1766C6.8225 31.2967 6.86205 31.3968 6.88182 31.5169C7.33648 33.4379 8.8388 34.7386 9.33299 34.6186C9.84694 34.4985 10.6179 32.6575 10.1632 30.7364C10.1435 30.6163 10.1039 30.5163 10.0842 30.3962C9.92602 29.7158 9.74812 29.0755 9.53067 28.5952" stroke="#0000AC" stroke-miterlimit="10" stroke-linecap="round" stroke-linejoin="round"/>
<path d="M8.62201 12.9866C9.38622 12.9866 10.0058 12.3595 10.0058 11.5858C10.0058 10.8122 9.38622 10.1851 8.62201 10.1851C7.85779 10.1851 7.23828 10.8122 7.23828 11.5858C7.23828 12.3595 7.85779 12.9866 8.62201 12.9866Z" stroke="#0000AC" stroke-miterlimit="10" stroke-linecap="round" stroke-linejoin="round"/>
<path d="M14.6696 10.3251C15.3793 10.3251 15.9546 9.74274 15.9546 9.02437C15.9546 8.306 15.3793 7.72363 14.6696 7.72363C13.96 7.72363 13.3848 8.306 13.3848 9.02437C13.3848 9.74274 13.96 10.3251 14.6696 10.3251Z" stroke="#0000AC" stroke-miterlimit="10" stroke-linecap="round" stroke-linejoin="round"/>
<path d="M10.0056 3.92161C10.8025 3.92161 11.4486 3.26759 11.4486 2.4608C11.4486 1.65402 10.8025 1 10.0056 1C9.20859 1 8.5625 1.65402 8.5625 2.4608C8.5625 3.26759 9.20859 3.92161 10.0056 3.92161Z" stroke="#0000AC" stroke-miterlimit="10" stroke-linecap="round" stroke-linejoin="round"/>
</svg>
