<svg width="30" height="38" viewBox="0 0 30 38" fill="none" xmlns="http://www.w3.org/2000/svg">
<path d="M25.3751 24.245C25.4559 23.4441 25.7994 21.7422 25.5569 20.9814C25.4249 20.5713 25.2621 19.8304 25.1205 19.125C24.8945 17.9994 24.204 17.0368 23.4082 16.2094C23.2895 16.0859 23.1784 15.9623 23.0745 15.8395C21.9508 14.5111 18.585 13.1586 16.9357 12.6045V12.6045C14.6607 11.8402 12.7216 13.0182 10.5593 14.0595C9.64591 14.4994 8.708 14.86 7.88928 15.1396C6.3578 15.6627 5.07905 16.7149 4.94625 18.3278C4.87712 19.1674 4.80705 20.0829 4.56404 20.9814C4.24655 22.1239 4.27454 22.842 4.29373 23.6678C4.30201 24.0246 4.3023 23.9617 4.28916 24.3183V24.3183C4.23847 25.6948 5.70475 27.209 5.99208 28.5561C6.64887 31.6354 8.62458 36.9425 14.4442 36.9993C19.7533 37.0511 22.1088 33.0354 23.11 30.0543C23.7621 28.1127 25.1573 26.2393 25.3953 24.205V24.205" stroke="#0000AC" stroke-miterlimit="10" stroke-linecap="round" stroke-linejoin="round"/>
<path d="M4.40305 21.5823C4.40305 21.5823 1.90454 21.4108 1.46577 19.0837C1.05165 16.8874 1.49669 15.6107 1.0736 13.4161V13.4161C0.645981 11.198 2.75385 7.71162 3.92987 5.78293C4.20443 5.33265 4.57145 4.92447 5.06158 4.62269C6.63753 3.65235 8.61064 3.00421 10.1798 2.02293V2.02293C10.2559 1.97536 10.4204 1.87551 10.4981 1.83062C11.0841 1.49193 13.8595 0.105275 17.364 1.89983C19.2787 2.88026 20.2153 3.44043 22.3622 3.57457V3.57457C24.696 3.72038 26.9679 8.20969 28.0393 10.2881C28.3959 10.9798 28.7008 11.8581 28.8914 12.9727C29.7198 17.8181 25.5374 21.0016 25.5374 21.0016" stroke="#0000AC" stroke-miterlimit="10" stroke-linecap="round" stroke-linejoin="round"/>
<path d="M7.81836 25.4664C7.81836 25.4664 11.1926 24.7664 13.0312 25.4664" stroke="#0000AC" stroke-linecap="round" stroke-linejoin="round" stroke-dasharray="2.6 2.6"/>
<path d="M22.2637 25.4664C22.2637 25.4664 18.8894 24.7664 17.0508 25.4664" stroke="#0000AC" stroke-linecap="round" stroke-linejoin="round" stroke-dasharray="2.6 2.6"/>
<path d="M12.1406 29.9717C12.1406 29.9717 16.2422 31.4317 17.8586 29.9717" stroke="#0000AC" stroke-miterlimit="10" stroke-linecap="round" stroke-linejoin="round"/>
<path d="M10.7669 22.9236C11.7266 22.9236 12.5045 22.5381 12.5045 22.0626C12.5045 21.5871 11.7266 21.2017 10.7669 21.2017C9.80726 21.2017 9.0293 21.5871 9.0293 22.0626C9.0293 22.5381 9.80726 22.9236 10.7669 22.9236Z" fill="#0079AB"/>
<path d="M19.3958 22.9236C20.3555 22.9236 21.1335 22.5381 21.1335 22.0626C21.1335 21.5871 20.3555 21.2017 19.3958 21.2017C18.4362 21.2017 17.6582 21.5871 17.6582 22.0626C17.6582 22.5381 18.4362 22.9236 19.3958 22.9236Z" fill="#0079AB"/>
</svg>
