<svg width="38" height="38" viewBox="0 0 38 38" fill="none" xmlns="http://www.w3.org/2000/svg">
<path d="M1 26.0451L6.10155 24.0891C9.08245 22.9396 12.4034 23.0606 15.3043 24.452L23.4668 28.3439C24.4471 28.8077 24.8672 29.9975 24.4271 30.9856C24.007 31.9132 22.9667 32.377 22.0064 32.0543L14.7242 29.7757" stroke="#0000AC" stroke-miterlimit="10" stroke-linecap="round" stroke-linejoin="round"/>
<path d="M1 36.4708L4.10095 34.3131C6.06154 32.9419 8.5623 32.6595 10.763 33.5266L18.7654 36.6523C20.4059 37.2976 22.2664 37.0354 23.6468 35.9465L36.1106 26.2873C37.1109 25.521 37.291 24.0893 36.5307 23.0811C35.8105 22.1333 34.4901 21.9115 33.5098 22.5567L23.987 28.7274" stroke="#0000AC" stroke-miterlimit="10" stroke-linecap="round" stroke-linejoin="round"/>
<path d="M22.0475 20.473C22.0475 21.4121 21.2862 22.1735 20.347 22.1735V22.1735C19.4078 22.1735 18.6465 21.4121 18.6465 20.473V2.714C18.6465 1.76623 19.4067 1 20.347 1C21.2873 1 22.0475 1.76623 22.0475 2.714V20.473Z" stroke="#0000AC" stroke-miterlimit="10" stroke-linecap="round" stroke-linejoin="round"/>
<path d="M22.0469 4.26678L24.4076 4.1256C24.7877 4.10544 25.1678 4.18607 25.5079 4.34739L28.8289 6.00096" stroke="#0000AC" stroke-miterlimit="10" stroke-linecap="round" stroke-linejoin="round"/>
<path d="M31.5294 14.309C31.5294 16.3054 29.9289 17.9388 27.9483 17.9388C26.9307 17.9388 26.0134 17.5129 25.362 16.8253C24.1035 15.4968 24.7275 13.4388 25.4275 11.748V11.748" stroke="#0000AC" stroke-miterlimit="10" stroke-linecap="round" stroke-linejoin="round"/>
<path d="M30.4695 11.7482C30.9745 12.9678 30.0781 14.3092 28.758 14.3092H27.1194C25.7994 14.3092 24.903 12.9678 25.408 11.7482V11.7482V11.7482C26.3388 9.48759 29.545 9.48501 30.4695 11.7482V11.7482V11.7482Z" stroke="#0000AC" stroke-miterlimit="10" stroke-linecap="round" stroke-linejoin="round"/>
<path d="M16.2852 10.9819C16.2852 12.9782 14.6847 14.6116 12.7041 14.6116C11.6865 14.6116 10.7692 14.1858 10.1178 13.4981C8.85933 12.1696 9.48334 10.1117 10.1834 8.4209V8.4209" stroke="#0000AC" stroke-miterlimit="10" stroke-linecap="round" stroke-linejoin="round"/>
<path d="M15.2449 8.42056C15.7419 9.64408 14.8416 10.9815 13.521 10.9815H11.8872C10.5666 10.9815 9.66635 9.64408 10.1634 8.42056V8.42056V8.42056C11.0975 6.15183 14.3107 6.15183 15.2449 8.42056V8.42056V8.42056Z" stroke="#0000AC" stroke-miterlimit="10" stroke-linecap="round" stroke-linejoin="round"/>
<path d="M18.6464 3.41983L17.0259 2.31077C16.7458 2.10911 16.4058 2.0083 16.0456 2.0083H11.3242" stroke="#0000AC" stroke-miterlimit="10" stroke-linecap="round" stroke-linejoin="round"/>
</svg>
