<svg width="28" height="38" viewBox="0 0 28 38" fill="none" xmlns="http://www.w3.org/2000/svg">
<path d="M13.1793 36.8187C13.34 33.8959 12.4962 32.1018 11.9135 31.1746C10.929 29.6225 3.0933 22.7892 1.30515 18.1933C1.08415 17.6289 1.02388 17.0242 1.00379 16.4195C0.963609 14.9077 1.20469 13.8999 3.59559 11.8035C3.69605 11.7229 6.64953 9.2234 8.53813 6.865C8.98015 6.17966 9.04041 5.81686 9.06051 5.5145C9.0806 4.809 8.65867 4.32522 8.77922 4.24459C8.91987 4.1438 14.7464 8.05429 15.7711 9.4653C16.1528 10.0095 16.8761 11.0174 17.0369 12.4486C17.278 14.6256 16.0925 16.3188 15.4496 17.2258C14.8469 18.0926 14.4049 18.3949 12.7975 19.8865C11.6724 20.9347 10.4669 22.0635 9.22124 23.3133" stroke="#0000AC" stroke-miterlimit="10" stroke-linecap="round" stroke-linejoin="round"/>
<path d="M9.40215 10.4932C8.47794 11.0979 7.31262 12.0049 6.68978 13.4764C5.22309 17.0241 4.96193 20.4911 11.1702 25.5707C14.5657 28.3726 13.4205 36.0323 13.1794 36.9999" stroke="#0000AC" stroke-miterlimit="10" stroke-linecap="round" stroke-linejoin="round"/>
<path d="M7.23242 12.5091C7.59407 12.2269 8.03608 12.0253 8.57855 11.985C10.8087 11.7834 11.5722 13.3355 11.2909 14.9683C11.1503 15.8149 9.94478 19.9874 8.07626 22.5474" stroke="#0000AC" stroke-miterlimit="10" stroke-linecap="round" stroke-linejoin="round"/>
<path d="M8.07592 22.124C8.07592 22.124 7.67409 20.0679 7.83483 18.2739" stroke="#0000AC" stroke-miterlimit="10" stroke-linecap="round" stroke-linejoin="round"/>
<path d="M19.7293 8.7617C20.8325 8.56414 21.5119 7.19575 21.2468 5.70535C20.9816 4.21494 19.8723 3.16691 18.7691 3.36447C17.6658 3.56202 16.9864 4.93035 17.2516 6.42075C17.5167 7.91116 18.626 8.95925 19.7293 8.7617Z" stroke="#0000AC" stroke-miterlimit="10" stroke-linecap="round" stroke-linejoin="round"/>
<path d="M26.8241 4.22787C27.474 2.86146 27.181 1.36118 26.1695 0.876908C25.1581 0.392636 23.8112 1.10774 23.1612 2.47414C22.5113 3.84055 22.8043 5.34083 23.8158 5.8251C24.8272 6.30938 26.1741 5.59427 26.8241 4.22787Z" stroke="#0000AC" stroke-miterlimit="10" stroke-linecap="round" stroke-linejoin="round"/>
<path d="M25.7097 12.5342C26.4151 10.9727 26.0612 9.28588 24.9192 8.76659C23.7772 8.2473 22.2795 9.09217 21.5741 10.6537C20.8687 12.2151 21.2227 13.9019 22.3647 14.4212C23.5068 14.9405 25.0043 14.0956 25.7097 12.5342Z" stroke="#0000AC" stroke-miterlimit="10" stroke-linecap="round" stroke-linejoin="round"/>
</svg>
