<svg width="38" height="33" viewBox="0 0 38 33" fill="none" xmlns="http://www.w3.org/2000/svg">
<path d="M18.8743 12.0254C19.2742 12.8083 19.4941 13.7117 19.4941 14.6552C19.4941 17.8471 16.9149 20.4569 13.7158 20.4569C10.5367 20.4569 7.9375 17.8672 7.9375 14.6552C7.9375 13.7117 8.15743 12.8083 8.55732 12.0254" stroke="#0000AC" stroke-miterlimit="10" stroke-linecap="round" stroke-linejoin="round"/>
<path d="M18.6606 8.37595C18.777 10.3557 17.2029 12.0251 15.2197 12.0251H12.2397C10.2532 12.0251 8.67642 10.3529 8.79299 8.36986L8.88935 6.7305C8.91846 6.23525 9.25958 5.81346 9.73779 5.68142V5.68142C12.297 4.95872 14.9963 4.95874 17.5555 5.64129V5.64129C18.1289 5.7972 18.5387 6.30188 18.5736 6.89509L18.6606 8.37595Z" stroke="#0000AC" stroke-miterlimit="10" stroke-linecap="round" stroke-linejoin="round"/>
<path d="M11.3574 8.69287H15.9361" stroke="#0000AC" stroke-miterlimit="10" stroke-linecap="round" stroke-linejoin="round"/>
<path d="M13.6562 11.0015V6.4043" stroke="#0000AC" stroke-miterlimit="10" stroke-linecap="round" stroke-linejoin="round"/>
<path d="Mnan nanL1 27.3026C1 24.3917 6.71833 22.043 13.7363 22.043C20.7543 22.043 26.4526 24.3917 26.4526 27.3026V27.3026C26.4526 29.897 24.3494 32.0002 21.7551 32.0002H19.4347H8.03797H3.34877C2.05158 32.0002 1 30.9486 1 29.6514V27.3026Lnan nanLnan nanZ" stroke="#0000AC" stroke-miterlimit="10" stroke-linecap="round" stroke-linejoin="round"/>
<path d="M13.7161 31.9997L9.27734 22.3638" stroke="#0000AC" stroke-miterlimit="10" stroke-linecap="round" stroke-linejoin="round"/>
<path d="M13.7168 31.9997L18.1555 22.3638" stroke="#0000AC" stroke-miterlimit="10" stroke-linecap="round" stroke-linejoin="round"/>
<path d="M33.3305 1.84714C33.3305 1.82714 33.3105 1.82713 33.3105 1.80713" stroke="#0000AC" stroke-miterlimit="10" stroke-linecap="round" stroke-linejoin="round"/>
<path d="M28.1724 11.3027L23.8936 16.2613C23.8136 16.3616 23.8137 16.5022 23.9136 16.5825L26.2729 18.6301C26.3729 18.7104 26.5129 18.7104 26.5928 18.61L30.5117 14.0731" stroke="#0000AC" stroke-miterlimit="10" stroke-linecap="round" stroke-linejoin="round"/>
<path d="M32.8706 11.3426L34.0302 10.0177C36.5895 7.06665 33.8103 2.58994 33.3304 1.84717C33.5704 2.28882 34.3701 4.11565 31.9109 6.9663L30.5312 8.55221" stroke="#0000AC" stroke-miterlimit="10" stroke-linecap="round" stroke-linejoin="round"/>
<path d="M36.9096 16.5222L34.5303 18.5297C34.4303 18.61 34.2903 18.59 34.2104 18.5097L30.5314 14.0931L28.2121 11.3027L26.9325 9.77703C24.3532 6.70555 27.4123 2.12845 27.7922 1.58643C27.6323 1.8474 27.0324 2.95153 27.8122 4.75828C28.0721 5.36053 28.472 6.023 29.0918 6.76578L30.5914 8.55245L32.9307 11.3429L36.7663 15.9338C36.9128 16.1091 37.0877 16.3791 36.9096 16.5222V16.5222Z" stroke="#0000AC" stroke-miterlimit="10" stroke-linecap="round" stroke-linejoin="round"/>
<path d="M31.9113 6.96649V6.96649C31.1869 7.79921 29.8899 7.78773 29.1804 6.94234L29.0321 6.76573C28.4123 6.02295 28.0124 5.36048 27.7525 4.75823C26.9895 2.99041 27.5473 1.87604 27.7216 1.60317C27.729 1.5916 27.7437 1.57513 27.7534 1.5654V1.5654C27.7702 1.54851 27.7835 1.54096 27.8053 1.53126C28.1263 1.38828 30.7501 0.299094 33.188 1.72955C33.2296 1.75392 33.2694 1.78415 33.2909 1.82726V1.82726C33.5308 2.18861 34.4506 4.05562 31.9113 6.96649Z" stroke="#0000AC" stroke-miterlimit="10" stroke-linecap="round" stroke-linejoin="round"/>
<path d="M27.7734 4.75747C27.7734 4.75747 29.5729 4.33747 33.3118 4.75747" stroke="#0000AC" stroke-miterlimit="10" stroke-linecap="round" stroke-linejoin="round"/>
</svg>
