<svg width="38" height="30" viewBox="0 0 38 30" fill="none" xmlns="http://www.w3.org/2000/svg">
<path d="M1 21.5187C5.91727 21.6179 8.17602 21.598 9.31538 21.5584C9.41533 21.5584 9.61521 21.5385 9.87507 21.5584C11.714 21.6377 13.0333 22.5704 13.4931 22.8681C15.7118 24.2968 18.4703 24.2571 18.95 24.2571C21.6086 24.2373 24.2471 22.9474 24.9667 22.6101C25.3465 22.4315 26.4858 21.8362 28.1249 21.6179C28.4248 21.5782 28.6646 21.5584 28.8246 21.5584C30.8434 21.4194 35.3809 21.5187 37 21.5584" stroke="#0000AC" stroke-miterlimit="10" stroke-linecap="round" stroke-linejoin="round"/>
<path d="M1 26.2614C5.91727 26.3606 8.17602 26.3407 9.31538 26.301C9.41533 26.301 9.61521 26.2812 9.87507 26.301C11.714 26.3804 13.0333 27.3131 13.4931 27.6107C15.7118 29.0395 18.4703 28.9998 18.95 28.9998C21.6086 28.98 24.2471 27.6901 24.9667 27.3528C25.3465 27.1742 26.4858 26.5788 28.1249 26.3606C28.4248 26.3209 28.6646 26.301 28.8246 26.301C30.8434 26.1621 35.3809 26.2613 37 26.301" stroke="#0000AC" stroke-miterlimit="10" stroke-linecap="round" stroke-linejoin="round"/>
<path d="M7.11719 1V12.192" stroke="#0000AC" stroke-miterlimit="10" stroke-linecap="round" stroke-linejoin="round"/>
<path d="M7.11719 15.7046V17.431" stroke="#0000AC" stroke-miterlimit="10" stroke-linecap="round" stroke-linejoin="round"/>
<path d="M9.29591 2.98432L7.35699 1.2182C7.21706 1.09914 7.01715 1.09914 6.89722 1.2182L4.81836 2.98432" stroke="#0000AC" stroke-miterlimit="10" stroke-linecap="round" stroke-linejoin="round"/>
<path d="M18.8496 1V12.192" stroke="#0000AC" stroke-miterlimit="10" stroke-linecap="round" stroke-linejoin="round"/>
<path d="M18.8496 15.7046V17.431" stroke="#0000AC" stroke-miterlimit="10" stroke-linecap="round" stroke-linejoin="round"/>
<path d="M21.0087 2.98432L19.0698 1.2182C18.9299 1.09914 18.73 1.09914 18.6101 1.2182L16.5312 2.98432" stroke="#0000AC" stroke-miterlimit="10" stroke-linecap="round" stroke-linejoin="round"/>
<path d="M30.8242 1V12.192" stroke="#0000AC" stroke-miterlimit="10" stroke-linecap="round" stroke-linejoin="round"/>
<path d="M30.8242 15.7046V17.431" stroke="#0000AC" stroke-miterlimit="10" stroke-linecap="round" stroke-linejoin="round"/>
<path d="M33.0029 2.98432L31.064 1.2182C30.924 1.09914 30.7242 1.09914 30.6043 1.2182L28.5254 2.98432" stroke="#0000AC" stroke-miterlimit="10" stroke-linecap="round" stroke-linejoin="round"/>
</svg>
