<svg width="38" height="32" viewBox="0 0 38 32" fill="none" xmlns="http://www.w3.org/2000/svg">
<path d="M16.339 14.0386C16.679 14.7146 16.879 15.4703 16.879 16.2656C16.879 18.9898 14.659 21.197 11.919 21.197C9.17901 21.197 6.95898 18.9898 6.95898 16.2656C6.95898 15.4703 7.15896 14.6948 7.49896 14.0386" stroke="#0000AC" stroke-miterlimit="10" stroke-linecap="round" stroke-linejoin="round"/>
<path d="M16.1367 10.9121C16.2468 12.605 14.9034 14.0386 13.2069 14.0386H10.6323C8.9323 14.0386 7.58235 12.6087 7.6801 10.9115L7.75931 9.53617C7.78374 9.11209 8.07233 8.74924 8.48004 8.63001V8.63001C10.66 8.01359 12.9801 8.01358 15.1801 8.59024V8.59024C15.6701 8.72096 16.0222 9.14969 16.0551 9.6558L16.1367 10.9121Z" stroke="#0000AC" stroke-miterlimit="10" stroke-linecap="round" stroke-linejoin="round"/>
<path d="M9.90039 11.2148H13.8204" stroke="#0000AC" stroke-miterlimit="10" stroke-linecap="round" stroke-linejoin="round"/>
<path d="M11.8594 13.1638V9.24658" stroke="#0000AC" stroke-miterlimit="10" stroke-linecap="round" stroke-linejoin="round"/>
<path d="Mnan nanL1 27.0033C1 24.5376 5.92 22.5293 11.94 22.5293C17.96 22.5293 22.84 24.5376 22.84 27.0033V27.0033C22.84 29.2107 21.0506 31.0001 18.8432 31.0001H16.82H7.04004H2.99839C1.89471 31.0001 1 30.1054 1 29.0017V27.0033Lnan nanLnan nanZ" stroke="#0000AC" stroke-miterlimit="10" stroke-linecap="round" stroke-linejoin="round"/>
<path d="M11.9196 31.0002L8.09961 22.8276" stroke="#0000AC" stroke-miterlimit="10" stroke-linecap="round" stroke-linejoin="round"/>
<path d="M11.9199 31.0002L15.7199 22.8276" stroke="#0000AC" stroke-miterlimit="10" stroke-linecap="round" stroke-linejoin="round"/>
<path d="M34.0604 7.65576V7.65576C35.684 7.65576 37.0003 8.97202 37.0003 10.5957V11.2648C37.0003 13.258 35.3845 14.8739 33.3913 14.8739H26.4294C24.4361 14.8739 22.8203 13.258 22.8203 11.2648V10.5958C22.8203 8.97205 24.1366 7.65576 25.7603 7.65576V7.65576" stroke="#0000AC" stroke-miterlimit="10" stroke-linecap="round" stroke-linejoin="round"/>
<path d="M31.0204 11.2148C31.0204 11.7716 30.5604 12.2289 30.0004 12.2289C29.4404 12.2289 28.9805 11.7716 28.9805 11.2148" fill="#0079AB"/>
<path d="M29 11.2149C29.0056 11.1176 29.0125 11.0193 29.0207 10.92C29.0463 10.6067 31.02 11.2149 31.02 11.2149" fill="#0079AB"/>
<path d="M32.1002 11.2544C32.1002 12.4475 31.1202 13.4218 29.9202 13.4218C28.7202 13.4218 27.7402 12.4475 27.7402 11.2544" stroke="#0000AC" stroke-miterlimit="10" stroke-linecap="round" stroke-linejoin="round"/>
<path d="M27.7198 11.2549C27.7198 11.2549 27.7198 10.6385 27.9598 10.2805C28.1798 9.92261 28.3798 7.65576 25.7598 7.65576" stroke="#0000AC" stroke-miterlimit="10" stroke-linecap="round" stroke-linejoin="round"/>
<path d="M32.0998 11.2549C32.0998 11.2549 32.0998 10.6385 31.8598 10.2805C31.6198 9.92261 31.4398 7.65576 34.0598 7.65576" stroke="#0000AC" stroke-miterlimit="10" stroke-linecap="round" stroke-linejoin="round"/>
</svg>
