<svg width="38" height="38" viewBox="0 0 38 38" fill="none" xmlns="http://www.w3.org/2000/svg">
<path d="M30.2 36.9999H7.6C3.96 36.9999 1 34.025 1 30.3668V7.65319C1 3.9949 3.96 1.02002 7.6 1.02002H30.2C33.84 1.02002 36.8 3.9949 36.8 7.65319V30.3668C36.8 34.025 33.84 36.9999 30.2 36.9999Z" stroke="#0000AC" stroke-miterlimit="10" stroke-linecap="round" stroke-linejoin="round"/>
<path d="M12.9395 36.8996L36.9995 12.7388" stroke="#0000AC" stroke-miterlimit="10" stroke-linecap="round" stroke-linejoin="round"/>
<path d="M1 22.2261L22.1 1" stroke="#0000AC" stroke-miterlimit="10" stroke-linecap="round" stroke-linejoin="round"/>
<path d="M3.33984 19.8745L10.4598 27.0303" stroke="#0000AC" stroke-miterlimit="10" stroke-linecap="round" stroke-linejoin="round"/>
<path d="M11.7598 11.3921L18.8798 18.5479" stroke="#0000AC" stroke-miterlimit="10" stroke-linecap="round" stroke-linejoin="round"/>
<path d="M20.0996 3.01025L27.2196 10.166" stroke="#0000AC" stroke-miterlimit="10" stroke-linecap="round" stroke-linejoin="round"/>
<path d="M15.8203 7.33154L19.8803 11.3919" stroke="#0000AC" stroke-miterlimit="10" stroke-linecap="round" stroke-linejoin="round"/>
<path d="M7.51953 15.6533L11.5795 19.7337" stroke="#0000AC" stroke-miterlimit="10" stroke-linecap="round" stroke-linejoin="round"/>
</svg>
