<svg width="38" height="32" viewBox="0 0 38 32" fill="none" xmlns="http://www.w3.org/2000/svg">
<path d="M5.24167 30.9998C5.24167 29.6076 5.10158 28.6331 5.58187 26.8432C5.89592 25.6865 5.98828 24.5087 6.07737 23.427C6.24933 21.3393 7.89618 19.9672 9.87674 19.2849C10.9314 18.9216 12.138 18.4539 13.3122 17.8843C16.08 16.5418 18.5625 15.025 21.479 16.0035V16.0035C23.5971 16.7141 27.9273 18.4525 29.3647 20.1629C29.502 20.3262 29.6491 20.4905 29.8067 20.6548C30.827 21.7177 31.7126 22.9536 32.0047 24.3977C32.1894 25.3111 32.4029 26.2724 32.5781 26.8034C32.8982 27.7779 32.3579 29.9457 32.3579 30.9799" stroke="#0000AC" stroke-miterlimit="10" stroke-linecap="round" stroke-linejoin="round"/>
<path d="M5.38226 27.5792C5.38226 27.5792 2.15579 27.3555 1.59451 24.3509C1.06544 21.5186 1.6409 19.8714 1.09515 17.0423V17.0423C0.543758 14.184 3.25629 9.69132 4.76765 7.20341C5.11923 6.62465 5.58889 6.09926 6.21566 5.70889C8.24916 4.44236 10.8063 3.5862 12.8313 2.30601V2.30601C12.9197 2.25011 13.1077 2.13446 13.198 2.08162C13.9159 1.66145 17.506 -0.171737 22.0488 2.1612C24.5088 3.42452 25.709 4.15009 28.4694 4.31664V4.31664C31.4791 4.49822 34.4061 10.3061 35.774 12.993C36.2293 13.8873 36.6182 15.0222 36.8611 16.4618C37.9218 22.7265 32.5585 26.8235 32.5585 26.8235" stroke="#0000AC" stroke-miterlimit="10" stroke-linecap="round" stroke-linejoin="round"/>
<path d="M9.24414 25.3716C9.24414 25.3716 13.9069 23.522 16.9888 25.8688" stroke="#0000AC" stroke-miterlimit="10" stroke-linecap="round" stroke-linejoin="round"/>
<path d="M28.897 25.3716C28.897 25.3716 24.2342 23.522 21.1523 25.8688" stroke="#0000AC" stroke-miterlimit="10" stroke-linecap="round" stroke-linejoin="round"/>
<path d="M15.589 27.5791C15.589 28.6332 14.9086 29.4884 13.1275 29.4884C11.4065 29.4884 10.666 28.6332 10.666 27.5791" stroke="#0000AC" stroke-miterlimit="10" stroke-linecap="round" stroke-linejoin="round"/>
<path d="M27.4757 27.5791C27.4757 28.6332 26.7953 29.4884 25.0142 29.4884C23.2932 29.4884 22.5527 28.6332 22.5527 27.5791" stroke="#0000AC" stroke-miterlimit="10" stroke-linecap="round" stroke-linejoin="round"/>
</svg>
