<svg width="33" height="38" viewBox="0 0 33 38" fill="none" xmlns="http://www.w3.org/2000/svg">
<path d="M24.5614 25.4864C23.1963 27.0056 21.3961 27.945 19.4376 27.945C16.6778 27.945 14.796 26.6825 13.57 24.7742C10.5644 20.0959 14.1795 14.3672 16.2723 9.21543V9.21543C16.4108 8.89561 16.5295 8.59578 16.6284 8.35591V8.35591C18.4471 3.907 22.7759 1 27.5822 1H30.615C31.3865 1 31.9998 1.61965 31.9998 2.39922V8.81566V35.6008C31.9998 36.3804 31.3865 37 30.615 37H17.6571C17.3999 37 17.2219 36.7202 17.3208 36.4803L18.2902 34.0417C18.5671 33.362 19.2595 31.9428 19.2595 30.6835L19.4178 28.1249" stroke="#0000AC" stroke-miterlimit="10" stroke-linecap="round" stroke-linejoin="round"/>
<path d="M16.0349 1.25977C16.0349 1.25977 15.5997 2.33917 14.8281 3.99825" stroke="#0000AC" stroke-linecap="round" stroke-linejoin="round"/>
<path d="M13.246 7.11621C11.8809 9.6548 10.0807 12.6531 7.98367 15.2317C7.70671 15.5915 7.54848 16.0313 7.58805 16.471C7.7661 18.5499 8.22111 25.2461 11.9799 29.044" stroke="#0000AC" stroke-linecap="round" stroke-linejoin="round" stroke-dasharray="2.64 2.64"/>
<path d="M13.3457 30.1836C14.137 30.7236 15.0272 31.1436 16.0362 31.4236" stroke="#0000AC" stroke-linecap="round" stroke-linejoin="round"/>
<path d="M1.45508 29.0048L5.25344 27.9448" stroke="#0000AC" stroke-miterlimit="10" stroke-linecap="round" stroke-linejoin="round"/>
<path d="M2.44353 27.0454L1.55327 28.8044C1.49392 28.9244 1.53351 29.0643 1.63242 29.1442L3.31399 30.2836" stroke="#0000AC" stroke-miterlimit="10" stroke-linecap="round" stroke-linejoin="round"/>
<path d="M1 9.21533L5.2534 10.2953" stroke="#0000AC" stroke-miterlimit="10" stroke-linecap="round" stroke-linejoin="round"/>
<path d="M2.02801 11.1542L1.09821 9.41516C1.03886 9.29522 1.07838 9.1553 1.1773 9.07534L2.83912 7.896" stroke="#0000AC" stroke-miterlimit="10" stroke-linecap="round" stroke-linejoin="round"/>
</svg>
