<svg width="38" height="37" viewBox="0 0 38 37" fill="none" xmlns="http://www.w3.org/2000/svg">
<path d="M15.0969 1V1C15.0969 1 9.38623 2.37074 6.94089 3.47349C5.7178 4.02506 4.48782 4.9515 3.63928 6.50087V6.50087C1.83684 9.79194 0.983681 14.9823 0.996157 18.7346C0.997192 19.046 1.01106 19.3676 1.03984 19.6989" stroke="#0000AC" stroke-miterlimit="10" stroke-linecap="round" stroke-linejoin="round"/>
<path d="M5.07812 22.0767V22.0767C5.07812 22.0767 9.02307 22.0714 9.29397 22.7658C9.30993 22.8067 9.32608 22.8476 9.34242 22.8884C9.37792 22.9773 9.39347 23.0695 9.38611 23.1649C9.30846 24.1709 8.86579 30.2578 9.39723 31.809C9.97711 33.5016 13.7763 36.0002 13.7763 36.0002" stroke="#0000AC" stroke-miterlimit="10" stroke-linecap="round" stroke-linejoin="round"/>
<path d="M22.8945 1V1C22.8945 1 28.6052 2.37074 31.0506 3.47349C32.2736 4.02506 33.5036 4.9515 34.3522 6.50087V6.50087C36.1546 9.79194 37.0078 14.9823 36.9953 18.7346C36.9942 19.046 36.9804 19.3676 36.9516 19.6989" stroke="#0000AC" stroke-miterlimit="10" stroke-linecap="round" stroke-linejoin="round"/>
<path d="M32.913 22.0767V22.0767C32.913 22.0767 28.9681 22.0714 28.6972 22.7658C28.6812 22.8067 28.6651 22.8476 28.6488 22.8884C28.6132 22.9773 28.5977 23.0695 28.6051 23.1649C28.6827 24.1709 29.1254 30.2578 28.5939 31.809C28.0141 33.5016 24.2148 36.0002 24.2148 36.0002" stroke="#0000AC" stroke-miterlimit="10" stroke-linecap="round" stroke-linejoin="round"/>
<path d="M14.3774 19.3764C14.6646 19.3764 14.8974 19.1418 14.8974 18.8525C14.8974 18.5632 14.6646 18.3286 14.3774 18.3286C14.0902 18.3286 13.8574 18.5632 13.8574 18.8525C13.8574 19.1418 14.0902 19.3764 14.3774 19.3764Z" fill="#0079AB"/>
<path d="M24.5142 19.3764C24.8013 19.3764 25.0342 19.1418 25.0342 18.8525C25.0342 18.5632 24.8013 18.3286 24.5142 18.3286C24.227 18.3286 23.9941 18.5632 23.9941 18.8525C23.9941 19.1418 24.227 19.3764 24.5142 19.3764Z" fill="#0079AB"/>
<path d="M11.0977 22.4395C11.0977 22.4395 16.1566 23.6686 17.9362 22.0566" stroke="#0000AC" stroke-miterlimit="10" stroke-linecap="round" stroke-linejoin="round" stroke-dasharray="3.46 3.46"/>
<path d="M26.8347 22.4395C26.8347 22.4395 21.7757 23.6686 19.9961 22.0566" stroke="#0000AC" stroke-miterlimit="10" stroke-linecap="round" stroke-linejoin="round" stroke-dasharray="3.46 3.46"/>
</svg>
