<svg width="31" height="38" viewBox="0 0 31 38" fill="none" xmlns="http://www.w3.org/2000/svg">
<path d="M12.9704 36.8203C13.1292 33.9419 12.2957 32.1628 11.7202 31.2433C10.7477 29.7042 3.04779 22.968 1.30142 18.4505C1.08312 17.8908 1.02359 17.2911 1.00375 16.6914C0.964059 15.1923 1.2022 14.1928 3.54393 12.134C3.64316 12.054 6.5604 9.59539 8.40601 7.25669C8.82275 6.57706 8.90212 6.21724 8.92197 5.9174C8.94181 5.21779 8.52507 4.7581 8.64414 4.65816C8.78305 4.55821 14.5183 8.41602 15.5106 9.79525C15.8877 10.335 16.6021 11.3144 16.7609 12.7336C16.999 14.8724 15.8281 16.5515 15.1931 17.451C14.5977 18.3106 14.181 18.6103 12.5735 20.0895C11.4622 21.1089 10.2913 22.2483 9.0609 23.4676" stroke="#0000AC" stroke-miterlimit="10" stroke-linecap="round" stroke-linejoin="round"/>
<path d="M9.2787 10.8545C8.36582 11.4542 7.2148 12.3537 6.61945 13.8129C5.17074 17.3109 4.93259 20.729 11.0052 25.7462C14.3591 28.5047 13.2279 36.0605 12.9897 37" stroke="#0000AC" stroke-miterlimit="10" stroke-linecap="round" stroke-linejoin="round"/>
<path d="M7.13672 12.8531C7.49393 12.5733 7.91069 12.3735 8.44651 12.3335C10.6493 12.1336 11.4034 13.6727 11.1058 15.2918C10.9668 16.1113 9.77614 20.2491 7.95038 22.7677" stroke="#0000AC" stroke-miterlimit="10" stroke-linecap="round" stroke-linejoin="round"/>
<path d="M7.94945 22.3282C7.94945 22.3282 7.55255 20.3093 7.71131 18.5303" stroke="#0000AC" stroke-miterlimit="10" stroke-linecap="round" stroke-linejoin="round"/>
<path d="M26.2274 13.1534C25.4336 13.953 24.1238 13.9529 23.33 13.1334L16.8605 6.55705C16.0667 5.75749 16.0667 4.43824 16.8803 3.63869C17.6741 2.83913 18.9839 2.83915 19.7777 3.65869L26.2473 10.235C27.0212 11.0545 27.0212 12.3539 26.2274 13.1534Z" stroke="#0000AC" stroke-miterlimit="10" stroke-linecap="round" stroke-linejoin="round"/>
<path d="M16.881 3.65856L14.2812 1" stroke="#0000AC" stroke-miterlimit="10" stroke-linecap="round" stroke-linejoin="round"/>
<path d="M27.9154 13.2718L27.7894 13.1439C27.361 12.7088 26.6634 12.7059 26.2314 13.1375C25.7994 13.5691 25.7965 14.2717 26.225 14.7068L26.3509 14.8347C26.7794 15.2698 27.4769 15.2726 27.9089 14.8411C28.3409 14.4095 28.3438 13.7069 27.9154 13.2718Z" stroke="#0000AC" stroke-miterlimit="10" stroke-linecap="round" stroke-linejoin="round"/>
<path d="M29.2396 16.202C30.2123 15.2303 30.7005 14.1375 30.33 13.7613C29.9595 13.385 28.8707 13.8678 27.898 14.8396C26.9253 15.8114 26.437 16.9041 26.8075 17.2803C27.178 17.6565 28.2669 17.1738 29.2396 16.202Z" stroke="#0000AC" stroke-miterlimit="10" stroke-linecap="round" stroke-linejoin="round"/>
<path d="M23.1328 12.4339L23.8075 11.7539" stroke="#0000AC" stroke-miterlimit="10" stroke-linecap="round" stroke-linejoin="round"/>
<path d="M21.1484 10.7553L22.7361 9.17529" stroke="#0000AC" stroke-miterlimit="10" stroke-linecap="round" stroke-linejoin="round"/>
<path d="M19.1836 8.95648L20.7911 7.35645" stroke="#0000AC" stroke-miterlimit="10" stroke-linecap="round" stroke-linejoin="round"/>
<path d="M14.4586 6.7367C14.8158 6.7367 15.1135 6.43687 15.1135 6.05708C15.1135 5.93715 15.0738 5.81725 15.0539 5.71731L15.0936 5.85718C15.0591 5.75286 15.0346 5.64588 14.9944 5.54363C14.8622 5.20775 14.5473 4.43799 14.4387 4.43799C14.3303 4.43799 14.0405 5.2173 13.9186 5.55943C13.8811 5.66452 13.8409 5.76927 13.8201 5.87888C13.8091 5.93662 13.8037 5.99409 13.8037 6.05708C13.7838 6.41688 14.0815 6.7367 14.4586 6.7367C14.5975 6.7367 14.7165 6.69672 14.8158 6.61677L14.4586 6.7367Z" fill="#0079AB"/>
<path d="M13.1301 4.65806C13.4874 4.65806 13.785 4.35818 13.785 3.97839C13.785 3.85845 13.7453 3.73853 13.7255 3.6186L13.7652 3.75854C13.7306 3.65417 13.7065 3.54717 13.667 3.44459C13.536 3.10451 13.2234 2.31934 13.1301 2.31934C13.0488 2.31934 12.81 2.92567 12.6668 3.30992C12.5904 3.51522 12.5016 3.72155 12.4956 3.94055C12.4952 3.95285 12.4951 3.96545 12.4951 3.97839C12.4752 4.35818 12.7729 4.65806 13.1301 4.65806C13.2691 4.65806 13.3881 4.61803 13.4873 4.53807L13.1301 4.65806Z" fill="#0079AB"/>
</svg>
