<svg width="37" height="35" viewBox="0 0 37 35" fill="none" xmlns="http://www.w3.org/2000/svg">
<path d="M22.0487 16.6073C26.3472 16.6073 29.8318 13.1135 29.8318 8.80365C29.8318 4.49381 26.3472 1 22.0487 1C17.7502 1 14.2656 4.49381 14.2656 8.80365C14.2656 13.1135 17.7502 16.6073 22.0487 16.6073Z" stroke="#0000AC" stroke-miterlimit="10" stroke-linecap="round" stroke-linejoin="round"/>
<path d="M36.1558 15.8589L29.9925 12.2844C29.528 12.015 28.9339 12.1736 28.6656 12.6388C28.3972 13.1039 28.5562 13.6994 29.0208 13.9688L35.1841 17.5433C35.6486 17.8127 36.2427 17.654 36.511 17.1889C36.7794 16.7238 36.6203 16.1283 36.1558 15.8589Z" fill="#0079AB"/>
<path d="M5.98145 29.2855C1.65973 29.6065 1.13952 27.3196 0.999468 24.1099C0.859412 20.9001 5.12111 15.6442 6.04148 13.6582C6.96185 11.6922 5.64132 7.5597 10.8834 4.93174C15.2652 2.72505 18.0463 4.95179 18.8266 5.73416C18.9466 5.85452 19.1467 5.85452 19.2668 5.73416C21.5076 3.32686 25.8894 6.05514 26.2095 10.7895C26.5497 15.6843 28.1903 17.0284 28.8706 18.0114C30.1511 19.877 33.3123 26.2764 30.2911 28.3427C30.1114 28.466 29.938 28.573 29.7708 28.6651C27.9668 29.6597 24.0368 29.7478 22.1079 29.0247V29.0247C21.7677 28.9044 21.4876 28.6837 21.2676 28.463" stroke="#0000AC" stroke-miterlimit="10" stroke-linecap="round" stroke-linejoin="round"/>
<path d="M11.4843 28.8445C13.1249 29.8275 15.5259 30.6499 16.6263 30.6499C20.0277 30.6499 25.0097 25.8554 25.3898 20.459C25.4098 20.2986 25.3498 20.1381 25.2298 20.0177C22.3376 16.7363 21.5625 12.6385 21.373 11.3476C21.3557 11.2295 21.3897 11.0556 21.3382 10.9479V10.9479C21.319 10.9075 21.3056 10.9125 21.265 10.9313C21.2151 10.9543 21.1544 11.0111 21.1281 11.0506C20.708 11.6123 20.2678 12.0335 19.9276 12.2743C19.7676 12.3746 19.5475 12.3144 19.4875 12.1138C19.0273 10.7898 17.3866 9.86695 16.8664 9.5861C16.7664 9.52592 16.6463 9.52593 16.5263 9.56605C15.4058 9.92715 9.24339 12.2943 8.44307 19.2956C8.263 20.76 8.30301 22.0238 8.46307 23.087C8.98328 26.6779 11.8444 27.1193 12.9649 27.1594C13.1249 27.1594 13.205 27.36 13.0849 27.4803C6.06212 34.5417 3.70117 25.2737 3.70117 25.2737" stroke="#0000AC" stroke-miterlimit="10" stroke-linecap="round" stroke-linejoin="round"/>
<path d="M21.347 11.1703C21.307 11.1303 21.267 11.1103 21.207 11.0703" stroke="#0000AC" stroke-miterlimit="10" stroke-linecap="round" stroke-linejoin="round"/>
<path d="M12.7246 29.5063V33.9999" stroke="#0000AC" stroke-miterlimit="10" stroke-linecap="round" stroke-linejoin="round"/>
<path d="M20.3477 29.1855V34.0001" stroke="#0000AC" stroke-miterlimit="10" stroke-linecap="round" stroke-linejoin="round"/>
</svg>
