<svg width="29" height="38" viewBox="0 0 29 38" fill="none" xmlns="http://www.w3.org/2000/svg">
<path d="M14.4908 37C19.4984 37 23.5579 28.9411 23.5579 19C23.5579 9.05887 19.4984 1 14.4908 1C9.48327 1 5.42383 9.05887 5.42383 19C5.42383 28.9411 9.48327 37 14.4908 37Z" stroke="#0000AC" stroke-miterlimit="10" stroke-linecap="round" stroke-linejoin="round"/>
<path d="M21.043 2.18018C21.6662 2.92018 22.2894 3.70018 22.8926 4.56018" stroke="#0000AC" stroke-linecap="round" stroke-linejoin="round"/>
<path d="M24.8234 7.6001C26.6528 10.9401 27.9998 14.8401 27.9998 19.0001C27.9998 23.7001 26.291 28.0601 24.0996 31.6601" stroke="#0000AC" stroke-linecap="round" stroke-linejoin="round" stroke-dasharray="2.71 2.71"/>
<path d="M23.073 33.2002C22.49 34.0602 21.8668 34.8602 21.2637 35.6002" stroke="#0000AC" stroke-linecap="round" stroke-linejoin="round"/>
<path d="M7.8959 35.7999C7.27267 35.0599 6.64943 34.2799 6.06641 33.4199" stroke="#0000AC" stroke-linecap="round" stroke-linejoin="round"/>
<path d="M4.09606 30.2797C2.28667 26.9797 1 23.1197 1 19.0197C1 14.0197 2.9099 9.41973 5.30231 5.71973" stroke="#0000AC" stroke-linecap="round" stroke-linejoin="round" stroke-dasharray="2.78 2.78"/>
<path d="M6.34766 4.15982C6.97089 3.31982 7.59412 2.53982 8.21735 1.81982" stroke="#0000AC" stroke-linecap="round" stroke-linejoin="round"/>
<path d="M14.4904 1C14.4904 1 8.96172 13.5 14.4904 19C20.0191 24.5 14.4904 37 14.4904 37" stroke="#0000AC" stroke-miterlimit="10" stroke-linecap="round" stroke-linejoin="round"/>
</svg>
