<svg width="34" height="38" viewBox="0 0 34 38" fill="none" xmlns="http://www.w3.org/2000/svg">
<path d="M9.21705 36.9798C13.7394 36.9798 17.3937 33.3418 17.3937 28.8843C17.3937 27.3451 16.9697 26.1058 16.5458 24.7066L17.0303 26.3657C16.9755 26.1553 16.916 25.9427 16.8527 25.7247C16.5891 24.8173 16.2761 23.9306 15.9252 23.0533C14.4465 19.3573 10.2374 9.13525 8.91422 9.13525C7.55952 9.13525 3.40676 20.0757 2.10274 23.604C1.83536 24.3274 1.58887 25.0547 1.405 25.8037C1.16112 26.7972 1 27.7816 1 28.9043C1 33.3618 4.65426 36.9998 9.17666 36.9998C10.8524 36.9998 12.4271 36.5 13.7192 35.6205" stroke="#0000AC" stroke-miterlimit="10" stroke-linecap="round" stroke-linejoin="round"/>
<path d="M20.0578 17.251C22.6824 17.251 24.8224 15.1322 24.8224 12.5336C24.8224 11.6341 24.5802 10.9145 24.3379 10.0949L24.6206 11.0544C24.6099 11.0069 24.5985 10.9591 24.5865 10.9108C24.4124 10.2116 24.1486 9.54214 23.8794 8.87379C22.9443 6.55246 20.6308 1 19.8963 1C19.138 1 16.9099 6.79522 16.0454 9.1235C15.8093 9.75925 15.5808 10.396 15.445 11.0604C15.3492 11.5287 15.2931 12.0033 15.2931 12.5336C15.2729 15.1322 17.413 17.251 20.0578 17.251ZM20.0578 17.251C21.0269 17.251 21.9354 16.9511 22.6824 16.4514" stroke="#0000AC" stroke-miterlimit="10" stroke-linecap="round" stroke-linejoin="round"/>
<path d="M28.9226 27.2452C31.1838 27.2452 33.0009 25.4662 33.0009 23.2674C33.0009 22.5079 32.7788 21.9082 32.5769 21.2286L32.8192 22.0481C32.8111 22.0181 32.8028 21.9879 32.7943 21.9575C32.6275 21.3595 32.4036 20.7819 32.1682 20.2074C31.364 18.2456 29.3977 13.6128 28.7611 13.6128C28.1411 13.6128 26.3547 18.1022 25.5585 20.1873C25.2933 20.8818 25.0295 21.5791 24.9068 22.3124C24.8544 22.6253 24.8242 22.9457 24.8242 23.2874C24.8242 25.4662 26.6614 27.2452 28.9226 27.2452ZM28.9226 27.2452C29.7504 27.2452 30.5378 27.0054 31.1839 26.5656" stroke="#0000AC" stroke-miterlimit="10" stroke-linecap="round" stroke-linejoin="round"/>
<path d="M3.28125 28.2446C3.28125 28.2446 3.96768 34.5811 9.68124 34.5811" stroke="#0000AC" stroke-miterlimit="10" stroke-linecap="round" stroke-linejoin="round"/>
<path d="M17.0312 11.9141C17.0312 11.9141 17.3947 15.2322 20.3827 15.2322" stroke="#0000AC" stroke-miterlimit="10" stroke-linecap="round" stroke-linejoin="round"/>
<path d="M26.6602 22.6279C26.6602 22.6279 26.963 25.3864 29.4463 25.3864" stroke="#0000AC" stroke-miterlimit="10" stroke-linecap="round" stroke-linejoin="round"/>
</svg>
