<svg width="38" height="38" viewBox="0 0 38 38" fill="none" xmlns="http://www.w3.org/2000/svg">
<path d="M24.8262 19.2317V19.2317C26.7797 16.3831 29.9179 14.3753 33.367 14.5595L37.0005 14.7537" stroke="#0000AC" stroke-miterlimit="10" stroke-linecap="round" stroke-linejoin="round"/>
<path d="M36.7564 1L26.7938 3.75879C24.1357 4.49846 21.9241 6.2577 20.6255 8.65664L13.2803 21.9507L10.1149 27.8681C9.70914 28.6278 9.16127 29.3075 8.51197 29.8872L4.73789 33.2057C4.5147 33.4057 4.25093 33.5656 3.98715 33.7055L1.67406 34.785C1.08563 35.0649 0.842144 35.7446 1.10592 36.3244C1.34941 36.8241 1.91751 37.104 2.46536 36.964L7.11192 35.7846C7.41628 35.7046 7.74093 35.7046 8.06558 35.7446L10.0946 36.1044C11.1092 36.2843 12.144 36.1444 13.0774 35.7046L13.1382 35.6846C14.4165 35.0849 15.3702 33.9454 15.7557 32.586C15.9789 31.7263 15.9789 30.8268 15.7151 29.9671L15.6137 29.6473C15.4311 29.0276 15.6543 28.3679 16.1818 27.988C17.4601 27.1084 19.9153 25.2293 22.4516 22.3106" stroke="#0000AC" stroke-miterlimit="10" stroke-linecap="round" stroke-linejoin="round"/>
<path d="M27.6631 22.5785C28.05 22.6647 28.4048 22.8579 28.6872 23.1361L32.2845 26.6803C32.9817 27.3672 32.984 28.4912 32.2895 29.1809V29.1809C31.6057 29.8602 30.5025 29.8624 29.8159 29.1859L26.1572 25.5812C25.8841 25.3122 25.6935 24.9708 25.6077 24.5972L25.5442 24.3206C25.4258 23.8051 25.5857 23.2651 25.9657 22.8971V22.8971C26.3308 22.5435 26.8494 22.3971 27.3455 22.5077L27.6631 22.5785Z" stroke="#0000AC" stroke-miterlimit="10" stroke-linecap="round" stroke-linejoin="round"/>
<path d="M30.4258 31.0065L34.1592 27.3281" stroke="#0000AC" stroke-miterlimit="10" stroke-linecap="round" stroke-linejoin="round"/>
<path d="M31.7031 33.5652L36.7555 28.5874" stroke="#0000AC" stroke-miterlimit="10" stroke-linecap="round" stroke-linejoin="round"/>
<path d="M32.293 29.167L34.2408 31.067" stroke="#0000AC" stroke-miterlimit="10" stroke-linecap="round" stroke-linejoin="round"/>
<path d="M27.0371 26.4686L29.5531 23.9897" stroke="#0000AC" stroke-miterlimit="10" stroke-linecap="round" stroke-linejoin="round"/>
<path d="M25.9414 22.91L21.6602 18.6919" stroke="#0000AC" stroke-miterlimit="10" stroke-linecap="round" stroke-linejoin="round"/>
<path d="M28.2949 10.056C28.2949 11.0556 27.4832 11.8552 26.4687 11.8552C25.4542 11.8552 24.6426 11.0556 24.6426 10.056C24.6426 9.05647 25.4542 8.25684 26.4687 8.25684" stroke="#0000AC" stroke-miterlimit="10" stroke-linecap="round" stroke-linejoin="round"/>
<path d="M20.8496 12.5549C21.1134 11.9152 21.8438 11.5953 22.4931 11.8552C23.1424 12.1151 23.4671 12.8348 23.2033 13.4745C22.9395 14.1142 22.2091 14.4341 21.5598 14.1742" stroke="#0000AC" stroke-miterlimit="10" stroke-linecap="round" stroke-linejoin="round"/>
<path d="M19.1034 23.2504C18.9411 23.1904 18.7787 23.1104 18.6367 22.9905C17.8251 22.3907 17.4598 21.6111 17.9265 20.7515" stroke="#0000AC" stroke-miterlimit="10" stroke-linecap="round" stroke-linejoin="round"/>
<path d="M20.6451 20.2717C20.0972 20.9914 19.1435 21.2513 18.3319 20.9714C18.1493 20.9114 17.987 20.8115 17.8246 20.7115C16.9319 20.0518 16.8101 18.8523 17.3986 17.9328C17.8044 17.293 18.9609 16.6733 19.8537 17.313V17.313C19.9776 17.4107 20.1876 17.3308 20.2417 17.1826C20.2953 17.0359 20.3746 16.8917 20.4827 16.7533C21.0286 16.0361 22.4208 16.0534 23.1734 16.5876C23.1788 16.5914 23.1849 16.595 23.1907 16.5982V16.5982C23.2482 16.6306 23.3202 16.6346 23.367 16.5879C23.7718 16.1847 24.0927 15.9864 24.6626 16.1735" stroke="#0000AC" stroke-miterlimit="10" stroke-linecap="round" stroke-linejoin="round"/>
</svg>
