<svg width="37" height="35" viewBox="0 0 37 35" fill="none" xmlns="http://www.w3.org/2000/svg">
<path d="M17.1478 15.8146C17.1478 12.2604 14.3014 10.2661 10.7887 10.2661C7.27611 10.2661 4.42969 12.2604 4.42969 15.8146C4.42969 19.3688 8.5883 23.1599 10.7887 23.1599C12.0202 23.1599 13.5746 22.2516 14.8262 20.9089" stroke="#0000AC" stroke-miterlimit="10" stroke-linecap="round" stroke-linejoin="round"/>
<path d="M17.1064 15.0049C17.1064 15.0049 20.6594 10.266 15.9961 6.98828" stroke="#0000AC" stroke-miterlimit="10" stroke-linecap="round" stroke-linejoin="round"/>
<path d="M4.48975 14.9258C4.48975 14.9258 2.39025 11.9047 4.48975 8.15307C6.58925 4.38168 9.77888 3.67085 11.3737 3.53263C12.9685 3.39442 15.6736 3.90778 15.8149 6.07979C15.9764 8.25179 15.6131 9.83143 13.1906 10.7397" stroke="#0000AC" stroke-miterlimit="10" stroke-linecap="round" stroke-linejoin="round"/>
<path d="M4.61042 7.95571C4.61042 7.95571 2.97523 4.69771 6.97236 2.09131C10.9493 -0.515095 14.4619 2.13082 14.26 3.96715" stroke="#0000AC" stroke-miterlimit="10" stroke-linecap="round" stroke-linejoin="round"/>
<path d="M11.9792 7.42253C11.9792 7.42253 7.71964 6.00085 4.26758 8.58751" stroke="#0000AC" stroke-miterlimit="10" stroke-linecap="round" stroke-linejoin="round"/>
<path d="M13.6746 21.8765V21.8765C13.6746 23.0276 14.5323 24 15.6489 24.2798C17.555 24.7573 20.2363 25.7335 20.821 27.5237V27.5237C21.9453 30.9662 18.6725 34.0002 15.051 34.0002H10.8282H10.7878H6.56502C2.94351 34.0002 -0.329321 30.9662 0.795005 27.5237V27.5237C1.37968 25.7335 4.06103 24.7573 5.96709 24.2798C7.08376 24 7.94137 23.0276 7.94137 21.8765V21.8765" stroke="#0000AC" stroke-miterlimit="10" stroke-linecap="round" stroke-linejoin="round"/>
<path d="M31.2367 28.5897C30.4695 29.656 28.9555 29.9127 27.8855 29.1624L19.0232 23.0808C17.9331 22.3304 17.6707 20.8495 18.4378 19.803C19.2049 18.7368 20.719 18.4801 21.7889 19.2304L30.6512 25.312C31.7211 26.0623 31.9836 27.5235 31.2367 28.5897Z" stroke="#0000AC" stroke-miterlimit="10" stroke-linecap="round" stroke-linejoin="round"/>
<path d="M18.4384 19.7834L14.8652 17.335" stroke="#0000AC" stroke-miterlimit="10" stroke-linecap="round" stroke-linejoin="round"/>
<path d="M33.2075 28.3718L33.043 28.2587C32.4591 27.8573 31.6505 27.9984 31.237 28.5738C30.8235 29.1492 30.9616 29.9411 31.5456 30.3426L31.7101 30.4557C32.294 30.8571 33.1026 30.716 33.5161 30.1406C33.9296 29.5651 33.7914 28.7732 33.2075 28.3718Z" stroke="#0000AC" stroke-miterlimit="10" stroke-linecap="round" stroke-linejoin="round"/>
<path d="M35.3162 31.4159C36.2458 30.1223 36.5927 28.794 36.091 28.4491C35.5893 28.1043 34.4291 28.8734 33.4995 30.167C32.57 31.4606 32.2231 32.7888 32.7247 33.1337C33.2264 33.4786 34.3866 32.7095 35.3162 31.4159Z" stroke="#0000AC" stroke-miterlimit="10" stroke-linecap="round" stroke-linejoin="round"/>
<path d="M27.3809 28.8268L28.0269 27.9185" stroke="#0000AC" stroke-miterlimit="10" stroke-linecap="round" stroke-linejoin="round"/>
<path d="M20.6582 24.2066L21.3042 23.2983" stroke="#0000AC" stroke-miterlimit="10" stroke-linecap="round" stroke-linejoin="round"/>
<path d="M23.7676 26.3389L24.4136 25.4307" stroke="#0000AC" stroke-miterlimit="10" stroke-linecap="round" stroke-linejoin="round"/>
<path d="M25.5645 27.583L27.0987 25.4702" stroke="#0000AC" stroke-miterlimit="10" stroke-linecap="round" stroke-linejoin="round"/>
<path d="M22.2129 25.2729L23.727 23.1602" stroke="#0000AC" stroke-miterlimit="10" stroke-linecap="round" stroke-linejoin="round"/>
</svg>
