<svg width="33" height="38" viewBox="0 0 33 38" fill="none" xmlns="http://www.w3.org/2000/svg">
<path d="M7.46276 1L7.26521 2.17934C7.08743 3.21876 6.73188 4.21822 6.19853 5.13771L4.00589 8.91561C1.14163 13.8329 0.292223 19.6696 1.59596 25.2265L4.38121 37" stroke="#0000AC" stroke-miterlimit="10" stroke-linecap="round" stroke-linejoin="round"/>
<path d="M25.5371 1L25.7347 2.17934C25.9124 3.21876 26.268 4.21822 26.8014 5.13771L28.994 8.91561C31.8582 13.8329 32.7076 19.6696 31.4039 25.2265L28.6187 37" stroke="#0000AC" stroke-miterlimit="10" stroke-linecap="round" stroke-linejoin="round"/>
<path d="M16.5098 25.7861V36.9799" stroke="#0000AC" stroke-miterlimit="10" stroke-linecap="round" stroke-linejoin="round"/>
<path d="M13.0918 17.6108C13.3288 17.9107 13.2103 18.4904 13.4276 18.7902C13.6646 19.09 14.2572 19.13 14.4745 19.4498C14.6721 19.7696 14.4745 20.3493 14.6523 20.6691C14.8301 21.0089 15.4227 21.1289 15.5807 21.4687C15.719 21.8085 15.4227 22.3082 15.5215 22.648C15.64 22.9879 16.1931 23.2077 16.2721 23.5675C16.3511 23.9273 15.9363 24.3671 15.9758 24.7269C16.0153 25.0867 16.5092 25.4265 16.5092 25.7863" stroke="#0000AC" stroke-miterlimit="10" stroke-linecap="round" stroke-linejoin="round"/>
<path d="M19.986 17.4907C19.7292 17.7906 19.0971 17.7906 18.8601 18.1104C18.623 18.4302 18.8008 19.0498 18.5835 19.3897C18.3662 19.7295 17.7341 19.8094 17.5366 20.1492C17.3391 20.509 17.6156 21.0887 17.4576 21.4485C17.2995 21.8083 16.7069 21.9682 16.5687 22.328C16.4501 22.6878 16.8254 23.2076 16.7464 23.5674C16.6674 23.9471 16.1143 24.227 16.0551 24.6068C16.0156 24.9865 16.4897 25.3864 16.4897 25.7861" stroke="#0000AC" stroke-miterlimit="10" stroke-linecap="round" stroke-linejoin="round"/>
</svg>
