<svg width="38" height="38" viewBox="0 0 38 38" fill="none" xmlns="http://www.w3.org/2000/svg">
<path d="M19 37C28.9411 37 37 28.9411 37 19C37 9.05887 28.9411 1 19 1C9.05887 1 1 9.05887 1 19C1 28.9411 9.05887 37 19 37Z" stroke="#0000AC" stroke-miterlimit="10" stroke-linecap="round" stroke-linejoin="round"/>
<path d="M32.1993 6.77979L28.7899 9.97065C27.9433 10.7629 27.0155 11.5102 26.4609 12.5285C25.7828 13.7734 25.1366 15.9374 25.7593 19.2998C25.9193 20.2398 26.1593 21.5798 26.1593 22.5998C26.1593 28.1798 22.9393 32.6998 18.9793 32.6998C15.0193 32.6998 11.7993 28.1798 11.7993 22.5998C11.7993 21.5198 12.0193 20.2998 12.1793 19.3198C12.8156 15.8953 12.1268 13.7022 11.4331 12.4618C10.8932 11.4964 10.0165 10.7796 9.21217 10.0203L5.7793 6.77979" stroke="#0000AC" stroke-miterlimit="10" stroke-linecap="round" stroke-linejoin="round"/>
<path d="M19.0198 31.3C20.8202 31.3 22.2798 28.3182 22.2798 24.64C22.2798 20.9618 20.8202 17.98 19.0198 17.98C17.2193 17.98 15.7598 20.9618 15.7598 24.64C15.7598 28.3182 17.2193 31.3 19.0198 31.3Z" stroke="#0000AC" stroke-miterlimit="10" stroke-linecap="round" stroke-linejoin="round"/>
<path d="M19.0194 31.2801C19.9362 31.2801 20.6794 29.5519 20.6794 27.4201C20.6794 25.2882 19.9362 23.5601 19.0194 23.5601C18.1026 23.5601 17.3594 25.2882 17.3594 27.4201C17.3594 29.5519 18.1026 31.2801 19.0194 31.2801Z" stroke="#0000AC" stroke-miterlimit="10" stroke-linecap="round" stroke-linejoin="round"/>
</svg>
