<svg width="36" height="38" viewBox="0 0 36 38" fill="none" xmlns="http://www.w3.org/2000/svg">
<path d="M5.86292 15.9034C3.02621 16.9023 1 19.5794 1 22.7359C1 26.7314 4.30275 29.9878 8.35519 29.9878C9.20621 29.9878 10.0167 29.8279 10.7867 29.5483C11.2122 29.4084 11.6782 29.3085 12.1645 29.3085C13.9475 29.3085 15.4469 30.3873 16.0548 31.9456C17.0071 34.8824 19.7831 37 23.0656 37C27.118 37 30.4207 33.7436 30.4207 29.748C30.4207 29.1088 30.3397 28.4895 30.1776 27.8901C29.9142 26.6115 29.7723 25.273 29.7723 23.8946C29.7723 19.3196 31.373 15.1443 34.0679 11.8279C34.6555 11.1687 35 10.3097 35 9.37071C35 7.33297 33.3182 5.6548 31.2312 5.6548C30.8868 5.6548 30.5828 5.69475 30.2789 5.77467C29.975 5.85458 29.6508 5.89453 29.3266 5.89453C27.6853 5.89453 26.3075 4.8757 25.7807 3.4373C25.2539 2.01887 23.8761 1 22.2551 1C20.5965 1 19.1802 2.05505 18.6915 3.5293C18.6898 3.5345 18.6889 3.53995 18.6889 3.54542V3.54542C18.6889 3.55315 18.6892 3.55675 18.6857 3.56361C18.4395 4.03852 11.7901 14.1144 5.86292 15.9034Z" stroke="#0000AC" stroke-miterlimit="10" stroke-linecap="round" stroke-linejoin="round"/>
<path d="M19.0744 27.7903C23.2932 27.7903 26.7133 24.4183 26.7133 20.2587C26.7133 16.0991 23.2932 12.7271 19.0744 12.7271C14.8556 12.7271 11.4355 16.0991 11.4355 20.2587C11.4355 24.4183 14.8556 27.7903 19.0744 27.7903Z" stroke="#0000AC" stroke-miterlimit="10" stroke-linecap="round" stroke-linejoin="round"/>
<path d="M9.59125 26.3517C10.1383 27.2507 9.44939 28.4494 8.39576 28.3695C6.16691 28.2096 4.1407 26.7712 3.37074 24.5537C2.60077 22.3361 3.30996 19.9788 4.99172 18.5204C5.78195 17.8212 7.07872 18.3406 7.20029 19.3994C7.4637 21.8567 8.29447 24.2341 9.59125 26.3517Z" stroke="#0000AC" stroke-miterlimit="10" stroke-linecap="round" stroke-linejoin="round"/>
<path d="M26.5911 28.5495C27.5231 28.0501 28.6983 28.7693 28.597 29.8081C28.3539 32.0057 26.8139 33.9435 24.5446 34.6228C22.2752 35.302 19.9045 34.5029 18.4862 32.8048C17.7973 31.9857 18.3849 30.7471 19.4588 30.6672C21.951 30.4674 24.3825 29.7482 26.5911 28.5495Z" stroke="#0000AC" stroke-miterlimit="10" stroke-linecap="round" stroke-linejoin="round"/>
<path d="M29.2655 13.4863L27.1583 11.7682C25.7197 10.5895 24.0784 9.65051 22.3359 9.01122L19.7626 8.05233C19.256 7.87253 19.0534 7.29314 19.3168 6.83365L21.2214 3.59725V3.59725C21.7853 2.67064 22.8487 3.96072 23.4658 4.85282C25.1674 7.31299 27.2933 8.4545 30.2862 8.71373C31.3555 8.80635 33.025 9.11318 32.467 10.0301V10.0301L30.5623 13.2665C30.2989 13.706 29.6708 13.8059 29.2655 13.4863Z" stroke="#0000AC" stroke-miterlimit="10" stroke-linecap="round" stroke-linejoin="round"/>
</svg>
