<svg width="33" height="35" viewBox="0 0 33 35" fill="none" xmlns="http://www.w3.org/2000/svg">
<path d="M17.9434 31.113V26.6642C17.9434 26.5455 18.1034 26.506 18.1634 26.6049" stroke="#0000AC" stroke-miterlimit="10" stroke-linecap="round" stroke-linejoin="round"/>
<path d="M18.1625 26.6249C23.8966 27.9892 26.3456 27.2774 26.8035 25.0827C26.9827 24.2127 26.5048 23.6393 26.5247 23.0659C26.5446 22.5914 27.122 21.9587 27.122 21.8005C27.122 21.2864 27.3809 20.5746 27.8189 20.278L30.0488 18.7951C30.2877 18.6369 30.3674 18.3008 30.228 18.0635L26.6442 13.16C26.3256 12.7448 26.1265 12.2307 26.0668 11.7166C25.9673 10.8466 25.7881 10.036 25.5292 9.22529C23.9961 4.44038 19.815 1 14.0809 1C6.85355 1 1 6.45716 1 13.1995C1 14.7621 1.31967 16.2592 1.89439 17.6333C2.41541 18.879 3.26983 19.9572 3.84307 21.1797C3.98567 21.4838 4.135 21.8288 4.28515 22.2157C5.02183 24.1138 5.73861 27.0401 5.73861 31.1132" stroke="#0000AC" stroke-miterlimit="10" stroke-linecap="round" stroke-linejoin="round"/>
<path d="M25.2305 30.3618L25.7879 33.9999" stroke="#0000AC" stroke-miterlimit="10" stroke-linecap="round" stroke-linejoin="round"/>
<path d="M26.8026 31.4096L25.389 30.4803C25.2894 30.421 25.17 30.4407 25.0903 30.5198L23.9355 31.8446" stroke="#0000AC" stroke-miterlimit="10" stroke-linecap="round" stroke-linejoin="round"/>
<path d="M29.4902 28.2661L31.9989 30.9749" stroke="#0000AC" stroke-miterlimit="10" stroke-linecap="round" stroke-linejoin="round"/>
<path d="M31.3823 28.2661H29.69C29.5705 28.2661 29.471 28.3452 29.471 28.4638L29.252 30.2038" stroke="#0000AC" stroke-miterlimit="10" stroke-linecap="round" stroke-linejoin="round"/>
<path d="M24.4733 6.89209C24.4733 6.89209 21.5466 9.83816 14.6577 9.99634C7.76878 10.1545 2.33331 11.8549 1.85547 17.6087" stroke="#0000AC" stroke-miterlimit="10" stroke-linecap="round" stroke-linejoin="round"/>
</svg>
