<svg width="38" height="38" viewBox="0 0 38 38" fill="none" xmlns="http://www.w3.org/2000/svg">
<path d="M29.8762 24.2071H8.12375C4.19064 24.2071 1 21.0289 1 17.111V8.09606C1 4.17824 4.19064 1 8.12375 1H29.8762C33.8094 1 37 4.17824 37 8.09606V17.111C37 21.0289 33.8094 24.2071 29.8762 24.2071Z" stroke="#0000AC" stroke-miterlimit="10" stroke-linecap="round" stroke-linejoin="round"/>
<path d="M22.3012 30.8374C25.4102 29.6766 28.4239 27.4854 31.7425 27.4854V27.4854C32.7057 27.4854 33.4883 28.2649 33.4883 29.2244V35.261C33.4883 36.2205 32.7057 37.0001 31.7425 37.0001H6.25754C5.29433 37.0001 4.51172 36.2205 4.51172 35.261V29.2244C4.51172 28.2649 5.29433 27.4854 6.25754 27.4854V27.4854C9.57617 27.4854 12.5898 29.6766 15.6988 30.8374C16.7065 31.2137 17.8234 31.4232 19 31.4232C20.1766 31.4232 21.2935 31.2137 22.3012 30.8374Z" stroke="#0000AC" stroke-miterlimit="10" stroke-linecap="round" stroke-linejoin="round"/>
<path d="M7.62202 10.5548C9.09601 10.5548 10.2909 9.36458 10.2909 7.89632C10.2909 6.42806 9.09601 5.23779 7.62202 5.23779C6.14803 5.23779 4.95312 6.42806 4.95312 7.89632C4.95312 9.36458 6.14803 10.5548 7.62202 10.5548Z" stroke="#0000AC" stroke-miterlimit="10" stroke-linecap="round" stroke-linejoin="round"/>
<path d="M30.499 10.5548C31.973 10.5548 33.1679 9.36458 33.1679 7.89632C33.1679 6.42806 31.973 5.23779 30.499 5.23779C29.025 5.23779 27.8301 6.42806 27.8301 7.89632C27.8301 9.36458 29.025 10.5548 30.499 10.5548Z" stroke="#0000AC" stroke-miterlimit="10" stroke-linecap="round" stroke-linejoin="round"/>
<path d="M24.2335 7.14699C24.5652 8.66173 23.4117 10.0951 21.8611 10.0951H16.2704C15.1328 10.0951 14.1477 9.30552 13.9 8.19526V8.19526C13.5615 6.678 14.7158 5.23779 16.2704 5.23779H21.8611C23.0022 5.23779 23.9894 6.03225 24.2335 7.14699V7.14699Z" stroke="#0000AC" stroke-miterlimit="10" stroke-linecap="round" stroke-linejoin="round"/>
<path d="M7.62202 20.0094C9.09601 20.0094 10.2909 18.8192 10.2909 17.3509C10.2909 15.8826 9.09601 14.6924 7.62202 14.6924C6.14803 14.6924 4.95312 15.8826 4.95312 17.3509C4.95312 18.8192 6.14803 20.0094 7.62202 20.0094Z" stroke="#0000AC" stroke-miterlimit="10" stroke-linecap="round" stroke-linejoin="round"/>
<path d="M30.499 20.0094C31.973 20.0094 33.1679 18.8192 33.1679 17.3509C33.1679 15.8826 31.973 14.6924 30.499 14.6924C29.025 14.6924 27.8301 15.8826 27.8301 17.3509C27.8301 18.8192 29.025 20.0094 30.499 20.0094Z" stroke="#0000AC" stroke-miterlimit="10" stroke-linecap="round" stroke-linejoin="round"/>
<path d="M24.234 16.5914C24.5655 18.1119 23.4075 19.5497 21.8513 19.5497H16.2802C15.1371 19.5497 14.1475 18.7557 13.8996 17.6399V17.6399C13.5612 16.117 14.7201 14.6724 16.2801 14.6724H21.8513C22.9979 14.6724 23.9897 15.4712 24.234 16.5914V16.5914Z" stroke="#0000AC" stroke-miterlimit="10" stroke-linecap="round" stroke-linejoin="round"/>
</svg>
