<svg width="38" height="37" viewBox="0 0 38 37" fill="none" xmlns="http://www.w3.org/2000/svg">
<path d="M14.8123 32.7124H35.7207C36.4203 32.7124 37 33.465 37 34.3563C37 35.2475 36.4203 36.0002 35.7207 36.0002H2.27929C1.59967 36.0002 1 35.2475 1 34.3563C1 33.465 1.57968 32.7124 2.27929 32.7124H3.47862" stroke="#0000AC" stroke-miterlimit="10" stroke-linecap="round" stroke-linejoin="round"/>
<path d="M31.3425 4.62774L31.5024 4.44949L32.8217 2.94425C33.1415 2.56794 33.1015 1.99357 32.7218 1.67668L32.182 1.22115C31.8023 0.884454 31.2226 0.943869 30.9028 1.32018L29.4636 2.98386L27.9844 4.68715L5.51687 30.4742C5.23702 30.8109 5.257 31.9794 5.9766 32.0587C7.45578 32.0587 15.1115 31.8012 21.0882 25.1069C24.5463 21.2447 25.7656 16.3329 23.8267 14.1939C23.6068 13.9364 23.6068 13.5601 23.8267 13.3026L29.8833 6.35083L31.3425 4.62774Z" stroke="#0000AC" stroke-miterlimit="10" stroke-linecap="round" stroke-linejoin="round"/>
</svg>
