<svg width="38" height="32" viewBox="0 0 38 32" fill="none" xmlns="http://www.w3.org/2000/svg">
<path d="M26.4659 8.09018C24.9112 8.09018 22.6015 7.0338 21.8794 5.65703C20.4288 2.89121 17.5012 1 14.1327 1C9.3154 1 5.41753 4.85119 5.41753 9.6109V9.6109C5.41753 10.9328 4.67279 12.2438 3.61258 13.0333C2.02185 14.2178 1 16.1037 1 18.2219C1 21.7966 3.93837 24.6998 7.55636 24.6998H15.3674C16.0947 24.6998 16.6113 25.4143 16.6113 26.1416V26.1416C16.6113 28.8275 18.8101 31 21.5286 31C24.2471 31 26.4459 28.8275 26.4459 26.1416V26.1416C26.4459 25.4143 26.9625 24.6998 27.6898 24.6998H31.8229C31.9028 24.6998 31.9828 24.6998 32.0827 24.6998C32.1827 24.6998 32.2427 24.6998 32.3426 24.6998C34.9412 24.5615 37 22.4483 37 19.8611C37 17.1751 34.8012 15.0026 32.0827 15.0026V15.0026C31.8482 15.0026 31.6611 14.768 31.7123 14.5391C31.7949 14.1691 31.8429 13.786 31.8429 13.4029C31.8429 10.4602 29.4442 8.09018 26.4659 8.09018V8.09018Z" stroke="#0000AC" stroke-miterlimit="10" stroke-linecap="round" stroke-linejoin="round"/>
<path d="M15.0511 19.249C14.3715 19.249 13.7518 19.1305 13.1522 18.8738C12.5525 18.617 12.0328 18.2813 11.593 17.8468C11.1533 17.4123 10.7935 16.9186 10.5536 16.3261C10.2938 15.7533 10.1738 15.1213 10.1738 14.4696C10.1738 13.8376 10.2938 13.2253 10.5536 12.6526C10.8135 12.0798 11.1533 11.5861 11.593 11.1713C12.0328 10.7566 12.5525 10.4208 13.1522 10.1838C13.7518 9.94685 14.3715 9.80859 15.0511 9.80859C15.7308 9.80859 16.3504 9.9271 16.95 10.1838C17.5497 10.4208 18.0694 10.7566 18.5092 11.1911C18.9489 11.6059 19.3088 12.1193 19.5486 12.6723C19.8085 13.2451 19.9284 13.8375 19.9284 14.4893C19.9284 15.141 19.8085 15.7533 19.5486 16.3458C19.2888 16.9185 18.9489 17.4321 18.5092 17.8666C18.0694 18.3011 17.5497 18.6368 16.95 18.8935C16.3704 19.1305 15.7308 19.249 15.0511 19.249ZM15.0511 17.9455C15.5109 17.9455 15.9506 17.8468 16.3704 17.669C16.7902 17.4913 17.1499 17.2346 17.4698 16.9383C17.7896 16.6223 18.0495 16.2668 18.2294 15.8323C18.4093 15.4176 18.5092 14.9436 18.5092 14.4696C18.5092 14.0153 18.4293 13.5808 18.2494 13.1661C18.0695 12.7513 17.8295 12.3958 17.5097 12.0996C17.1899 11.8033 16.8301 11.5664 16.4104 11.3886C15.9906 11.2109 15.5509 11.1319 15.0711 11.1319C14.5914 11.1319 14.1516 11.2109 13.7319 11.3886C13.3121 11.5664 12.9523 11.8033 12.6325 12.0996C12.3127 12.3958 12.0727 12.7513 11.8928 13.1661C11.7129 13.5808 11.633 14.0153 11.633 14.4696C11.633 14.9633 11.733 15.4176 11.9129 15.8323C12.0928 16.2471 12.3526 16.6223 12.6724 16.9383C12.9923 17.2543 13.352 17.4913 13.7718 17.669C14.1516 17.8665 14.5914 17.9455 15.0511 17.9455Z" fill="#0079AB"/>
<path d="M23.7667 19.8019C23.7667 19.9797 23.7268 20.1377 23.6668 20.2957C23.6068 20.4537 23.5068 20.5919 23.3869 20.6907C23.267 20.8092 23.1471 20.8881 22.9872 20.9671C22.8273 21.0264 22.6674 21.0659 22.4875 21.0659H21.2845C21.1209 21.0659 20.9883 20.9333 20.9883 20.7697C20.9883 20.606 21.1209 20.4734 21.2845 20.4734H22.4474C22.5474 20.4734 22.6274 20.4537 22.7273 20.4142C22.8073 20.3747 22.8872 20.3352 22.9472 20.276C23.0071 20.2167 23.0471 20.1377 23.0871 20.0587C23.1271 19.9797 23.1471 19.881 23.1471 19.7822C23.1471 19.6835 23.1271 19.6044 23.0871 19.5057C23.0471 19.4267 23.0071 19.3477 22.9472 19.2885C22.8872 19.2292 22.8073 19.1897 22.7273 19.1502C22.6474 19.1107 22.5474 19.091 22.4474 19.091H21.885C21.7099 19.091 21.568 18.949 21.568 18.7739C21.568 18.6864 21.6042 18.6027 21.668 18.5428L21.9007 18.3244C22.2115 18.0326 22.005 17.5109 21.5787 17.5109H21.4044C21.2408 17.5109 21.1082 17.3783 21.1082 17.2147C21.1082 17.0511 21.2408 16.9185 21.4044 16.9185H23.0471C23.1071 16.9185 23.1671 16.9382 23.227 16.9579C23.3461 16.9972 23.4468 17.0959 23.4869 17.2147C23.5069 17.2739 23.5269 17.3332 23.5269 17.3924C23.5269 17.4517 23.5068 17.5505 23.4469 17.6295C23.3869 17.7085 23.3469 17.8072 23.267 17.8665L22.9401 18.1699C22.8213 18.2801 22.898 18.5143 23.0471 18.5774C23.1871 18.6367 23.307 18.7355 23.4269 18.854C23.5469 18.9725 23.6268 19.1107 23.6868 19.2489C23.7468 19.3872 23.7667 19.6242 23.7667 19.8019Z" fill="#0079AB"/>
</svg>
