<svg width="38" height="29" viewBox="0 0 38 29" fill="none" xmlns="http://www.w3.org/2000/svg">
<path d="M16.127 10.9648C16.4672 11.6325 16.6673 12.4013 16.6673 13.2105C16.6673 15.9418 14.4862 18.1471 11.7848 18.1471C9.08344 18.1471 6.90234 15.9418 6.90234 13.2105C6.90234 12.4013 7.08244 11.6527 7.44262 10.9648" stroke="#0000AC" stroke-miterlimit="10" stroke-linecap="round" stroke-linejoin="round"/>
<path d="M15.9356 7.83673C16.0392 9.53266 14.6918 10.965 12.9927 10.965H10.5464C8.83998 10.965 7.48487 9.52972 7.58283 7.82611L7.66175 6.45375C7.6862 6.02853 7.97457 5.66426 8.38283 5.54288V5.54288C10.5439 4.93592 12.8251 4.91565 14.9862 5.50237V5.50237C15.4765 5.63541 15.8274 6.06631 15.8584 6.57344L15.9356 7.83673Z" stroke="#0000AC" stroke-miterlimit="10" stroke-linecap="round" stroke-linejoin="round"/>
<path d="M9.76367 8.1123H13.6456" stroke="#0000AC" stroke-miterlimit="10" stroke-linecap="round" stroke-linejoin="round"/>
<path d="M11.7051 10.0746V6.16992" stroke="#0000AC" stroke-miterlimit="10" stroke-linecap="round" stroke-linejoin="round"/>
<path d="Mnan nanL1 23.9739C1 21.5056 5.84245 19.4824 11.7854 19.4824C17.7285 19.4824 22.5509 21.4854 22.5509 23.9739V23.9739C22.5509 26.1863 20.7574 27.9798 18.545 27.9798H16.6079H6.96301H3.00296C1.89675 27.9798 1 27.083 1 25.9768V23.9739Lnan nanLnan nanZ" stroke="#0000AC" stroke-miterlimit="10" stroke-linecap="round" stroke-linejoin="round"/>
<path d="M11.7658 28.0002L8.00391 19.7861" stroke="#0000AC" stroke-miterlimit="10" stroke-linecap="round" stroke-linejoin="round"/>
<path d="M11.7656 28.0002L15.5275 19.7861" stroke="#0000AC" stroke-miterlimit="10" stroke-linecap="round" stroke-linejoin="round"/>
<path d="M29.6459 9.91186C29.6387 9.81205 29.588 9.72789 29.5426 9.63869C29.2781 9.11841 29.2282 8.64304 29.2588 8.26725C29.3064 7.68186 29.6226 7.15979 29.8794 6.63157L31.235 3.84316V3.84316C31.4587 3.39068 31.6132 2.83838 31.2614 2.47644C30.6874 1.88606 29.389 1.47607 27.8933 1.47607C26.3826 1.47607 25.0803 1.88613 24.5054 2.47658C24.1533 2.83827 24.3078 3.39068 24.5316 3.84316V3.84316L25.8572 6.60166C26.1206 7.14979 26.4486 7.69162 26.4901 8.29834C26.5127 8.62871 26.472 9.03278 26.2809 9.47491C26.1934 9.67716 26.0634 9.88557 26.1324 10.0948V10.0948L27.4531 13.9186C27.5931 14.3232 28.1734 14.3232 28.3135 13.9186L29.5759 10.2634C29.6147 10.1512 29.6544 10.0302 29.6459 9.91186V9.91186Z" stroke="#0000AC" stroke-miterlimit="10" stroke-linecap="round" stroke-linejoin="round"/>
<path d="M24.1711 3.15537C24.1711 3.15537 22.4903 3.35769 21.99 2.20448C21.4898 1.05126 20.6894 0.869183 20.1491 1.0715C19.6088 1.27382 18.3282 2.28543 18.8484 3.62073C19.3687 4.95602 20.6293 5.36063 20.6293 5.36063" stroke="#0000AC" stroke-miterlimit="10" stroke-linecap="round" stroke-linejoin="round"/>
<path d="M21.7299 7.01957C22.393 7.01957 22.9305 6.47608 22.9305 5.80565C22.9305 5.13523 22.393 4.5918 21.7299 4.5918C21.0668 4.5918 20.5293 5.13523 20.5293 5.80565C20.5293 6.47608 21.0668 7.01957 21.7299 7.01957Z" stroke="#0000AC" stroke-miterlimit="10" stroke-linecap="round" stroke-linejoin="round"/>
<path d="M31.5547 3.15537C31.5547 3.15537 33.2355 3.35769 33.7358 2.20448C34.236 1.05126 35.0364 0.869183 35.5767 1.0715C36.117 1.27382 37.3976 2.28543 36.8774 3.62073C36.3571 4.95602 35.0965 5.36063 35.0965 5.36063" stroke="#0000AC" stroke-miterlimit="10" stroke-linecap="round" stroke-linejoin="round"/>
<path d="M33.9975 7.01957C34.6606 7.01957 35.1981 6.47608 35.1981 5.80565C35.1981 5.13523 34.6606 4.5918 33.9975 4.5918C33.3344 4.5918 32.7969 5.13523 32.7969 5.80565C32.7969 6.47608 33.3344 7.01957 33.9975 7.01957Z" stroke="#0000AC" stroke-miterlimit="10" stroke-linecap="round" stroke-linejoin="round"/>
</svg>
