<svg width="29" height="38" viewBox="0 0 29 38" fill="none" xmlns="http://www.w3.org/2000/svg">
<path d="M20.4892 2.79486C20.4692 2.77486 20.4692 2.73486 20.4492 2.73486" stroke="#0000AC" stroke-miterlimit="10"/>
<path d="M9.9041 21.9946L1.10917 32.0746C0.948163 32.2746 0.968298 32.5746 1.14943 32.7346L5.97958 36.8946C6.18084 37.0546 6.48273 37.0346 6.64373 36.8546L14.6739 27.6546" stroke="#0000AC" stroke-miterlimit="10"/>
<path d="M19.5653 22.0749L21.92 19.3749C27.1728 13.3549 21.4772 4.27492 20.4911 2.79492C20.9942 3.67492 22.6244 7.41492 17.593 13.1949L14.7754 16.4149" stroke="#0000AC" stroke-miterlimit="10"/>
<path d="M27.8159 32.6149L22.9253 36.6949C22.7241 36.8549 22.4222 36.8349 22.2612 36.6349L14.6939 27.6749L9.92411 22.0149L7.30778 18.9149C2.03485 12.6749 8.27382 3.3749 9.05872 2.2749C8.73671 2.7949 7.48891 5.05489 9.09896 8.73489C9.62223 9.95489 10.4675 11.3149 11.7354 12.8149L14.7945 16.4549L19.5844 22.1149L27.9165 31.9749C28.0574 32.1349 28.0171 32.4349 27.8159 32.6149Z" stroke="#0000AC" stroke-miterlimit="10"/>
<path d="M17.5913 13.1948V13.1948C16.11 14.8877 13.4681 14.8613 12.0208 13.1393L11.7146 12.7748C10.4466 11.2748 9.60135 9.91481 9.07808 8.69481C7.47702 5.03537 8.68207 2.78011 9.03202 2.24369C9.0361 2.23744 9.03674 2.2361 9.03877 2.22892V2.22892C9.04224 2.21667 9.06226 2.20849 9.0692 2.19781C9.07987 2.18139 9.0888 2.16686 9.096 2.15474C9.11113 2.12922 9.12888 2.10977 9.15592 2.09757C9.66173 1.86941 15.1844 -0.496945 20.3101 2.52014C20.3479 2.54241 20.3793 2.57559 20.404 2.61196C20.414 2.62686 20.4266 2.64468 20.4421 2.66542C20.4466 2.67152 20.448 2.67366 20.4501 2.68095V2.68095C20.4536 2.69289 20.4723 2.69999 20.4785 2.71078C20.9372 3.50674 22.7483 7.29531 17.5913 13.1948Z" stroke="#0000AC" stroke-miterlimit="10"/>
<path d="M9.07812 8.71474C9.07812 8.71474 12.7813 7.85474 20.4491 8.71474" stroke="#0000AC" stroke-miterlimit="10"/>
</svg>
