<svg width="34" height="38" viewBox="0 0 34 38" fill="none" xmlns="http://www.w3.org/2000/svg">
<path d="M16.8701 37C5.9296 37 2.92392 28.82 2.92392 19.74C2.92392 17.8 2.22266 16.06 2.22266 14.5C2.22266 7.08 8.31408 1 15.748 1H17.9922C25.4262 1 31.5176 7.08 31.5176 14.5C31.5376 25.3 28.9528 37 16.8701 37Z" stroke="#0000AC" stroke-miterlimit="10" stroke-linecap="round" stroke-linejoin="round"/>
<path d="M3.32422 25.04C4.06561 26 4.72683 26.7 5.36803 27.24" stroke="#0000AC" stroke-linecap="round" stroke-linejoin="round"/>
<path d="M7.53125 28.8398C8.75354 29.6798 9.91569 30.5399 11.1981 32.6999" stroke="#0000AC" stroke-linecap="round" stroke-linejoin="round" stroke-dasharray="2.01 2.01"/>
<path d="M11.8398 33.8799C12.2406 34.6599 12.6414 35.5599 13.0622 36.6199" stroke="#0000AC" stroke-linecap="round" stroke-linejoin="round"/>
<path d="M30.4344 25.04C29.693 26 29.0318 26.7 28.3906 27.24" stroke="#0000AC" stroke-linecap="round" stroke-linejoin="round"/>
<path d="M26.2469 28.8203C25.0246 29.6403 23.8625 30.4803 22.5801 32.6403" stroke="#0000AC" stroke-linecap="round" stroke-linejoin="round" stroke-dasharray="2 2"/>
<path d="M21.9195 33.8198C21.5188 34.5998 21.1181 35.4998 20.6973 36.5598" stroke="#0000AC" stroke-linecap="round" stroke-linejoin="round"/>
<path d="M13.8036 19.7402C13.8036 20.6402 13.2225 21.3802 11.6996 21.3802C10.2168 21.3802 9.5957 20.6402 9.5957 19.7402" stroke="#0000AC" stroke-miterlimit="10" stroke-linecap="round" stroke-linejoin="round"/>
<path d="M23.9423 19.7402C23.9423 20.6402 23.3612 21.3802 21.8383 21.3802C20.3555 21.3802 19.7344 20.6402 19.7344 19.7402" stroke="#0000AC" stroke-miterlimit="10" stroke-linecap="round" stroke-linejoin="round"/>
<path d="M2.52287 16.7598L2.27755 18.278C2.13022 19.1897 1 19.9562 1 20.8798V20.8798C1 22.0998 2.18223 23.2998 3.20414 23.9798" stroke="#0000AC" stroke-miterlimit="10" stroke-linecap="round" stroke-linejoin="round"/>
<path d="M31.5183 16.7598L31.7435 18.2748C31.8789 19.1855 33.001 19.9591 33.001 20.8798V20.8798C33.001 22.0998 31.7387 23.2998 30.7168 23.9798" stroke="#0000AC" stroke-miterlimit="10" stroke-linecap="round" stroke-linejoin="round"/>
<path d="M5.94922 17.3999L9.33557 13.7399C9.87659 13.1399 10.2573 12.3999 10.3976 11.5999L10.9987 8.15987C11.1189 7.45987 12.0206 7.23987 12.4414 7.81987L13.8641 9.73986C14.6455 10.7799 15.8478 11.3999 17.1502 11.3999H22.921C25.5059 11.3999 27.6098 13.4999 27.6098 16.0799V17.3999" stroke="#0000AC" stroke-miterlimit="10" stroke-linecap="round" stroke-linejoin="round"/>
</svg>
