<svg width="38" height="30" viewBox="0 0 38 30" fill="none" xmlns="http://www.w3.org/2000/svg">
<path d="M1 18.2217L6.10154 16.2972C9.08245 15.1663 12.4035 15.2853 15.3043 16.6543L23.4668 20.4836C24.4471 20.9399 24.8672 22.1105 24.4271 23.0827C24.007 23.9953 22.9666 24.4517 22.0064 24.1342L14.7242 21.8922" stroke="#0000AC" stroke-miterlimit="10" stroke-linecap="round" stroke-linejoin="round"/>
<path d="M1 28.4791L4.10094 26.3561C6.06153 25.007 8.56229 24.7292 10.763 25.5823L18.7654 28.6576C20.4059 29.2925 22.2664 29.0346 23.6469 27.9632L36.1106 18.4596C37.1109 17.7057 37.291 16.297 36.5308 15.305C35.8105 14.3724 34.4901 14.1542 33.5098 14.7891L23.987 20.8603" stroke="#0000AC" stroke-miterlimit="10" stroke-linecap="round" stroke-linejoin="round"/>
<path d="M20.2756 6.17847C20.2701 9.02903 17.9577 11.3369 15.1072 11.3369H14.4439C11.563 11.3369 9.22231 9.01559 9.24231 6.15856C9.24231 3.30152 11.583 1 14.4639 1H15.1072C17.9656 1 20.2812 3.3201 20.2756 6.17847V6.17847Z" stroke="#0000AC" stroke-miterlimit="10" stroke-linecap="round" stroke-linejoin="round"/>
<path d="M26.0674 11.3569H25.4441C22.5857 11.3569 20.2701 9.03683 20.2756 6.17847V6.17847C20.2812 3.32792 22.5935 1.02002 25.4441 1.02002H26.0874C28.9683 1.02002 31.289 3.34136 31.289 6.1984C31.289 7.62692 30.7088 8.91655 29.7685 9.84906C28.8082 10.7816 27.5078 11.3569 26.0674 11.3569Z" stroke="#0000AC" stroke-miterlimit="10" stroke-linecap="round" stroke-linejoin="round"/>
<path d="M18.9448 3.38108C19.2099 3.38108 19.4248 3.16788 19.4248 2.9049C19.4248 2.64191 19.2099 2.42871 18.9448 2.42871C18.6797 2.42871 18.4648 2.64191 18.4648 2.9049C18.4648 3.16788 18.6797 3.38108 18.9448 3.38108Z" fill="#0079AB"/>
<path d="M18.9448 6.61494C19.2099 6.61494 19.4248 6.40176 19.4248 6.13878C19.4248 5.8758 19.2099 5.6626 18.9448 5.6626C18.6797 5.6626 18.4648 5.8758 18.4648 6.13878C18.4648 6.40176 18.6797 6.61494 18.9448 6.61494Z" fill="#0079AB"/>
<path d="M18.9253 9.86884C19.1904 9.86884 19.4053 9.65567 19.4053 9.39269C19.4053 9.1297 19.1904 8.9165 18.9253 8.9165C18.6602 8.9165 18.4453 9.1297 18.4453 9.39269C18.4453 9.65567 18.6602 9.86884 18.9253 9.86884Z" fill="#0079AB"/>
<path d="M15.8843 3.38108C16.1494 3.38108 16.3643 3.16788 16.3643 2.9049C16.3643 2.64191 16.1494 2.42871 15.8843 2.42871C15.6192 2.42871 15.4043 2.64191 15.4043 2.9049C15.4043 3.16788 15.6192 3.38108 15.8843 3.38108Z" fill="#0079AB"/>
<path d="M15.8843 6.61494C16.1494 6.61494 16.3643 6.40176 16.3643 6.13878C16.3643 5.8758 16.1494 5.6626 15.8843 5.6626C15.6192 5.6626 15.4043 5.8758 15.4043 6.13878C15.4043 6.40176 15.6192 6.61494 15.8843 6.61494Z" fill="#0079AB"/>
<path d="M15.8843 9.86884C16.1494 9.86884 16.3643 9.65567 16.3643 9.39269C16.3643 9.1297 16.1494 8.9165 15.8843 8.9165C15.6192 8.9165 15.4043 9.1297 15.4043 9.39269C15.4043 9.65567 15.6192 9.86884 15.8843 9.86884Z" fill="#0079AB"/>
<path d="M12.8237 3.38108C13.0888 3.38108 13.3037 3.16788 13.3037 2.9049C13.3037 2.64191 13.0888 2.42871 12.8237 2.42871C12.5587 2.42871 12.3438 2.64191 12.3438 2.9049C12.3438 3.16788 12.5587 3.38108 12.8237 3.38108Z" fill="#0079AB"/>
<path d="M12.8237 6.61494C13.0888 6.61494 13.3037 6.40176 13.3037 6.13878C13.3037 5.8758 13.0888 5.6626 12.8237 5.6626C12.5587 5.6626 12.3438 5.8758 12.3438 6.13878C12.3438 6.40176 12.5587 6.61494 12.8237 6.61494Z" fill="#0079AB"/>
<path d="M12.8237 9.84931C13.0888 9.84931 13.3037 9.63611 13.3037 9.37313C13.3037 9.11014 13.0888 8.89697 12.8237 8.89697C12.5587 8.89697 12.3438 9.11014 12.3438 9.37313C12.3438 9.63611 12.5587 9.84931 12.8237 9.84931Z" fill="#0079AB"/>
<path d="M17.4038 4.96845C17.6689 4.96845 17.8838 4.75528 17.8838 4.4923C17.8838 4.22931 17.6689 4.01611 17.4038 4.01611C17.1387 4.01611 16.9238 4.22931 16.9238 4.4923C16.9238 4.75528 17.1387 4.96845 17.4038 4.96845Z" fill="#0079AB"/>
<path d="M17.4038 8.20234C17.6689 8.20234 17.8838 7.98914 17.8838 7.72615C17.8838 7.46317 17.6689 7.25 17.4038 7.25C17.1387 7.25 16.9238 7.46317 16.9238 7.72615C16.9238 7.98914 17.1387 8.20234 17.4038 8.20234Z" fill="#0079AB"/>
<path d="M14.3433 4.96845C14.6084 4.96845 14.8233 4.75528 14.8233 4.4923C14.8233 4.22931 14.6084 4.01611 14.3433 4.01611C14.0782 4.01611 13.8633 4.22931 13.8633 4.4923C13.8633 4.75528 14.0782 4.96845 14.3433 4.96845Z" fill="#0079AB"/>
<path d="M14.3433 8.20234C14.6084 8.20234 14.8233 7.98914 14.8233 7.72615C14.8233 7.46317 14.6084 7.25 14.3433 7.25C14.0782 7.25 13.8633 7.46317 13.8633 7.72615C13.8633 7.98914 14.0782 8.20234 14.3433 8.20234Z" fill="#0079AB"/>
<path d="M11.2417 4.96845C11.5068 4.96845 11.7217 4.75528 11.7217 4.4923C11.7217 4.22931 11.5068 4.01611 11.2417 4.01611C10.9766 4.01611 10.7617 4.22931 10.7617 4.4923C10.7617 4.75528 10.9766 4.96845 11.2417 4.96845Z" fill="#0079AB"/>
<path d="M11.2222 8.20234C11.4873 8.20234 11.7022 7.98914 11.7022 7.72615C11.7022 7.46317 11.4873 7.25 11.2222 7.25C10.9571 7.25 10.7422 7.46317 10.7422 7.72615C10.7422 7.98914 10.9571 8.20234 11.2222 8.20234Z" fill="#0079AB"/>
</svg>
