<svg width="38" height="31" viewBox="0 0 38 31" fill="none" xmlns="http://www.w3.org/2000/svg">
<path d="M12.78 30.0002H7.2C3.78 30.0002 1 27.2136 1 23.8299C1 23.4518 1.32 23.1333 1.7 23.1333H18.3C18.68 23.1333 19 23.4518 19 23.8299C19 27.2136 16.2 30.0002 12.78 30.0002Z" stroke="#0000AC" stroke-miterlimit="10" stroke-linecap="round" stroke-linejoin="round"/>
<path d="M5.17969 18.9333V18.9333C5.17969 18.9333 11.6293 18.4293 12.6454 17.2258C12.8419 16.993 13.0529 16.759 13.2797 16.5249" stroke="#0000AC" stroke-miterlimit="10" stroke-linecap="round" stroke-linejoin="round"/>
<path d="M6.80095 20.8641C6.80095 20.8641 4.96095 21.8991 3.60095 20.8641V20.8641C1.80504 19.4974 2.76415 16.6195 5.01935 16.5338C5.28582 16.5237 5.56052 16.5323 5.84094 16.5649C8.24094 16.8435 8.20094 20.5257 8.20094 20.5257" stroke="#0000AC" stroke-miterlimit="10" stroke-linecap="round" stroke-linejoin="round"/>
<path d="M11.5803 20.9238C11.5803 20.9238 16.8803 20.1675 16.8603 16.9231V16.9231C16.8485 15.0072 14.7718 12.7471 12.9326 13.2842C11.8702 13.5944 10.8195 14.108 10.0803 14.9527C7.94028 17.4207 10.3803 20.5456 10.3803 20.5456" stroke="#0000AC" stroke-miterlimit="10" stroke-linecap="round" stroke-linejoin="round"/>
<path d="M32.2454 6.10499C31.5641 4.84822 30.2493 4.06543 28.8197 4.06543V4.06543C27.3901 4.06543 26.0753 4.84821 25.394 6.10498L25.2841 6.30768C24.595 7.57872 24.5935 9.1116 25.2801 10.384L25.3979 10.6023C26.0766 11.86 27.3906 12.644 28.8197 12.644V12.644C30.2488 12.644 31.5628 11.86 32.2415 10.6023L32.3593 10.384C33.0459 9.11159 33.0444 7.57873 32.3553 6.30769L32.2454 6.10499Z" stroke="#0000AC" stroke-miterlimit="10" stroke-linecap="round" stroke-linejoin="round"/>
<path d="M24.1806 8.34473H20.6406" stroke="#0000AC" stroke-miterlimit="10" stroke-linecap="round" stroke-linejoin="round"/>
<path d="M37.0009 8.34473H33.4609" stroke="#0000AC" stroke-miterlimit="10" stroke-linecap="round" stroke-linejoin="round"/>
<path d="M36.7392 1H33.1992" stroke="#0000AC" stroke-miterlimit="10" stroke-linecap="round" stroke-linejoin="round"/>
<path d="M36.4799 1H32.9199" stroke="#0000AC" stroke-miterlimit="10" stroke-linecap="round" stroke-linejoin="round"/>
<path d="M32.9202 1L31.1602 4.06522" stroke="#0000AC" stroke-miterlimit="10" stroke-linecap="round" stroke-linejoin="round"/>
<path d="M26.5002 12.644L24.7402 15.6893" stroke="#0000AC" stroke-miterlimit="10" stroke-linecap="round" stroke-linejoin="round"/>
<path d="M24.7402 1L26.5002 4.06522" stroke="#0000AC" stroke-miterlimit="10" stroke-linecap="round" stroke-linejoin="round"/>
<path d="M31.1602 12.644L32.9202 15.6893" stroke="#0000AC" stroke-miterlimit="10" stroke-linecap="round" stroke-linejoin="round"/>
<path d="M8.83984 9.83732C8.83984 9.83732 12.8198 2.71172 20.4798 3.92586" stroke="#0000AC" stroke-miterlimit="10" stroke-linecap="round" stroke-linejoin="round"/>
<path d="M8.43945 7.62793L8.77945 9.59846C8.79945 9.73778 8.91945 9.81737 9.05945 9.81737L11.1595 9.71788" stroke="#0000AC" stroke-miterlimit="10" stroke-linecap="round" stroke-linejoin="round"/>
<path d="M34.5795 20.0879C34.5795 20.0879 30.5995 27.2135 22.9395 25.9994" stroke="#0000AC" stroke-miterlimit="10" stroke-linecap="round" stroke-linejoin="round"/>
<path d="M34.9602 22.2974L34.6202 20.3268C34.6002 20.1875 34.4802 20.1079 34.3402 20.1079L32.2402 20.2074" stroke="#0000AC" stroke-miterlimit="10" stroke-linecap="round" stroke-linejoin="round"/>
</svg>
