<svg width="37" height="38" viewBox="0 0 37 38" fill="none" xmlns="http://www.w3.org/2000/svg">
<path d="M18.5202 11.6598C14.7444 11.6598 11.6439 7.9515 14.8107 5.8954C15.8779 5.20251 17.1508 4.7998 18.5201 4.7998C19.8917 4.7998 21.1665 5.20118 22.2348 5.89371C25.403 7.94762 22.2959 11.6598 18.5202 11.6598V11.6598Z" stroke="#0000AC" stroke-miterlimit="10" stroke-linecap="round" stroke-linejoin="round"/>
<path d="M20.6522 8.21973L18.5195 11.6597" stroke="#0000AC" stroke-miterlimit="10" stroke-linecap="round" stroke-linejoin="round"/>
<path d="M32.512 37C31.1606 37 30.1227 35.8118 30.3529 34.4802C30.6657 32.6708 31.1479 30.2729 31.7346 28.64C32.791 25.7 32.8707 22.14 31.7346 20.86C31.2025 20.2605 29.949 19.1521 28.7665 18.143C27.0595 16.6862 24.7224 14.2253 23.3234 15.98V15.98C21.9083 17.78 21.2107 19.86 21.1908 20.78C21.131 23.06 22.6856 28.08 22.5062 30.54C22.3625 32.4466 22.1037 35.0461 20.9101 36.3237C20.3279 36.9468 19.4026 37 18.5498 37V37C17.6971 37 16.7718 36.9471 16.1887 36.3248C14.9958 35.0514 14.7371 32.4622 14.5934 30.54C14.3941 28.08 15.9487 23.08 15.9088 20.78C15.8889 19.86 15.1914 17.78 13.7762 15.98V15.98C12.3888 14.2152 10.0425 16.6883 8.33626 18.147C7.15721 19.1551 5.90575 20.2613 5.36504 20.86C4.209 22.14 4.28873 25.72 5.36504 28.64C5.95273 30.2344 6.4275 32.5801 6.73745 34.3813C6.97591 35.767 5.89411 37 4.48804 37V37C2.55467 37 1 35.42 1 33.5V4.5C1 2.56 2.55467 1 4.48804 1H32.512C34.4453 1 36 2.58 36 4.5V33.5C36 35.44 34.4453 37 32.512 37V37Z" stroke="#0000AC" stroke-miterlimit="10" stroke-linecap="round" stroke-linejoin="round"/>
</svg>
