<svg width="38" height="33" viewBox="0 0 38 33" fill="none" xmlns="http://www.w3.org/2000/svg">
<path d="M6.51953 6.42382C16.0995 -3.25311 27.4995 2.12072 31.7595 6.42382" stroke="#0000AC" stroke-miterlimit="10" stroke-linecap="round" stroke-linejoin="round"/>
<path d="M2.08008 12.04C12.9401 28.909 29.8401 24.8685 36.4601 12.04" stroke="#0000AC" stroke-miterlimit="10" stroke-linecap="round" stroke-linejoin="round"/>
<path d="M2.08008 12.04C12.9401 28.909 29.8401 24.8685 36.4601 12.04" stroke="#0000AC" stroke-miterlimit="10" stroke-linecap="round" stroke-linejoin="round"/>
<path d="M4.06055 9.87842C4.62055 10.7673 5.22055 11.5754 5.82055 12.3431" stroke="#0000AC" stroke-linecap="round" stroke-linejoin="round"/>
<path d="M8.38086 15.1107C16.2609 22.3431 25.9009 20.5855 31.7209 13.939" stroke="#0000AC" stroke-linecap="round" stroke-linejoin="round" stroke-dasharray="2.81 2.81"/>
<path d="M32.9004 12.4643C33.4804 11.6562 34.0004 10.8077 34.4804 9.87842" stroke="#0000AC" stroke-linecap="round" stroke-linejoin="round"/>
<path d="M7.14 18.1006L1 24.6057" stroke="#0000AC" stroke-miterlimit="10" stroke-linecap="round" stroke-linejoin="round"/>
<path d="M12.4391 21.6562L9.03906 29.717" stroke="#0000AC" stroke-miterlimit="10" stroke-linecap="round" stroke-linejoin="round"/>
<path d="M19.1406 23.2324V32.0002" stroke="#0000AC" stroke-miterlimit="10" stroke-linecap="round" stroke-linejoin="round"/>
<path d="M25.3203 22.2017L29.3003 29.7169" stroke="#0000AC" stroke-miterlimit="10" stroke-linecap="round" stroke-linejoin="round"/>
<path d="M31.1797 18.7676L36.9997 24.6061" stroke="#0000AC" stroke-miterlimit="10" stroke-linecap="round" stroke-linejoin="round"/>
</svg>
