<svg width="38" height="38" viewBox="0 0 38 38" fill="none" xmlns="http://www.w3.org/2000/svg">
<path d="M29.7253 11.1502C29.8653 11.2915 29.9653 11.352 30.2054 11.3924C30.3454 11.4327 30.6654 11.4731 31.4055 11.0292C31.6615 10.8797 32.0081 10.6478 32.3783 10.3028C32.69 10.0123 32.5947 9.51183 32.3657 9.15246V9.15246C32.034 8.66922 31.9909 8.16888 31.9705 7.84062C31.9672 7.78685 31.9641 7.73408 31.9607 7.68031C31.9409 7.36684 31.8601 6.18171 31.7056 5.05605C31.5456 3.8251 31.4455 3.09866 30.9055 2.51345C30.889 2.49503 30.8723 2.477 30.8554 2.45933C29.9745 1.53665 28.6006 1 27.3249 1V1C25.8847 1 24.9646 2.17042 24.7645 2.43275C24.0044 3.40136 23.8644 4.55158 23.7244 5.7018C23.6244 6.69059 23.7244 7.17491 23.4243 7.98208C23.3041 8.31372 23.1484 8.60322 22.9819 8.85316C22.6254 9.38841 22.5583 10.1075 23.0643 10.5045V10.5045C23.3043 10.6861 23.6443 10.9484 24.1444 11.1301C24.6045 11.3117 25.3446 11.4328 25.7047 11.1301" stroke="#0000AC" stroke-miterlimit="10" stroke-linecap="round" stroke-linejoin="round"/>
<path d="M25.683 11.1504C25.683 11.1504 25.743 11.9172 25.403 12.2603C25.0629 12.6033 22.5826 13.4307 21.8224 14.0562V14.0562C20.4615 15.1476 21.6564 16.6796 23.4009 16.6796H27.0832" stroke="#0000AC" stroke-miterlimit="10" stroke-linecap="round" stroke-linejoin="round"/>
<path d="M29.7246 11.1504C29.7246 11.1504 30.0046 12.0383 30.5446 12.5629" stroke="#0000AC" stroke-miterlimit="10" stroke-linecap="round" stroke-linejoin="round"/>
<path d="M25.584 11.9575C25.584 11.9575 27.564 13.471 29.884 11.9575" stroke="#0000AC" stroke-miterlimit="10" stroke-linecap="round" stroke-linejoin="round"/>
<path d="M28.1447 18.4548L28.0647 18.3741C27.9247 18.2328 27.9247 18.0109 28.0447 17.8696L32.302 12.8048C32.7103 12.319 33.4493 12.2931 33.8906 12.7492V12.7492C34.3283 13.2015 34.2831 13.9321 33.7929 14.327L28.6448 18.475C28.5047 18.6162 28.2847 18.596 28.1447 18.4548Z" stroke="#0000AC" stroke-miterlimit="10" stroke-linecap="round" stroke-linejoin="round"/>
<path d="M36.9464 11.5133L36.8464 11.3519C36.4864 10.7263 35.9864 10.2016 35.3664 9.81823L35.1864 9.69716C35.0264 9.59626 34.8064 9.63663 34.6864 9.77789L33.7753 10.9696C33.3678 11.5025 33.4114 12.2533 33.8779 12.7355V12.7355C34.3517 13.2252 35.1155 13.2871 35.6619 12.88L36.8464 11.9976C37.0064 11.8967 37.0464 11.6748 36.9464 11.5133Z" stroke="#0000AC" stroke-miterlimit="10" stroke-linecap="round" stroke-linejoin="round"/>
<path d="M33.3054 14.7422H35.7454C36.0054 14.7422 36.2254 14.9642 36.2254 15.2265V18.092C36.2254 18.3543 36.0054 18.5763 35.7454 18.5763H31.0054C30.7454 18.5763 30.5254 18.3543 30.5254 18.092V16.9821" stroke="#0000AC" stroke-miterlimit="10" stroke-linecap="round" stroke-linejoin="round"/>
<path d="M12.6615 29.453C16.3513 29.453 19.3425 26.4354 19.3425 22.7131C19.3425 18.9907 16.3513 15.9731 12.6615 15.9731C8.97165 15.9731 5.98047 18.9907 5.98047 22.7131C5.98047 26.4354 8.97165 29.453 12.6615 29.453Z" stroke="#0000AC" stroke-miterlimit="10" stroke-linecap="round" stroke-linejoin="round"/>
<path d="M22.2052 30.8429L19.1509 27.6176C18.6512 27.09 17.8221 27.0711 17.2989 27.5753C16.7757 28.0795 16.7566 28.916 17.2562 29.4436L20.3105 32.6689C20.8101 33.1965 21.6393 33.2154 22.1625 32.7112C22.6857 32.207 22.7048 31.3705 22.2052 30.8429Z" stroke="#0000AC" stroke-miterlimit="10" stroke-linecap="round" stroke-linejoin="round"/>
<path d="M11.0615 8.56738C11.0615 13.2692 1 17.6077 1 22.7737C1 27.9598 11.0615 32.2782 11.0615 36.98" stroke="#0000AC" stroke-miterlimit="10" stroke-linecap="round" stroke-linejoin="round"/>
<path d="M1 36.9998C1 34.215 4.56 31.5514 7.44 28.7666" stroke="#0000AC" stroke-miterlimit="10" stroke-linecap="round" stroke-linejoin="round"/>
<path d="M1 8.56738C1 11.3521 4.51999 14.0158 7.39999 16.7804" stroke="#0000AC" stroke-miterlimit="10" stroke-linecap="round" stroke-linejoin="round"/>
<path d="M1.7793 10.9482H10.2806" stroke="#0000AC" stroke-miterlimit="10" stroke-linecap="round" stroke-linejoin="round"/>
<path d="M1.7793 34.6191H10.3606" stroke="#0000AC" stroke-miterlimit="10" stroke-linecap="round" stroke-linejoin="round"/>
<path d="M2.43945 26.3452H5.77945" stroke="#0000AC" stroke-miterlimit="10" stroke-linecap="round" stroke-linejoin="round"/>
<path d="M2.43945 19.2422H5.77945" stroke="#0000AC" stroke-miterlimit="10" stroke-linecap="round" stroke-linejoin="round"/>
<path d="M1 22.7734H4.78" stroke="#0000AC" stroke-miterlimit="10" stroke-linecap="round" stroke-linejoin="round"/>
<path d="M12.6615 29.453C16.3513 29.453 19.3425 26.4354 19.3425 22.7131C19.3425 18.9907 16.3513 15.9731 12.6615 15.9731C8.97165 15.9731 5.98047 18.9907 5.98047 22.7131C5.98047 26.4354 8.97165 29.453 12.6615 29.453Z" stroke="#0000AC" stroke-miterlimit="10" stroke-linecap="round" stroke-linejoin="round"/>
<path d="M22.2052 30.8429L19.1509 27.6176C18.6512 27.09 17.8221 27.0711 17.2989 27.5753C16.7757 28.0795 16.7566 28.916 17.2562 29.4436L20.3105 32.6689C20.8101 33.1965 21.6393 33.2154 22.1625 32.7112C22.6857 32.207 22.7048 31.3705 22.2052 30.8429Z" stroke="#0000AC" stroke-miterlimit="10" stroke-linecap="round" stroke-linejoin="round"/>
<path d="M11.0615 8.56738C11.0615 13.2692 1 17.6077 1 22.7737C1 27.9598 11.0615 32.2782 11.0615 36.98" stroke="#0000AC" stroke-miterlimit="10" stroke-linecap="round" stroke-linejoin="round"/>
<path d="M1 36.9998C1 34.215 4.56 31.5514 7.44 28.7666" stroke="#0000AC" stroke-miterlimit="10" stroke-linecap="round" stroke-linejoin="round"/>
<path d="M1 8.56738C1 11.3521 4.51999 14.0158 7.39999 16.7804" stroke="#0000AC" stroke-miterlimit="10" stroke-linecap="round" stroke-linejoin="round"/>
<path d="M1.7793 10.9482H10.2806" stroke="#0000AC" stroke-miterlimit="10" stroke-linecap="round" stroke-linejoin="round"/>
<path d="M1.7793 34.6191H10.3606" stroke="#0000AC" stroke-miterlimit="10" stroke-linecap="round" stroke-linejoin="round"/>
<path d="M2.43945 26.3452H5.77945" stroke="#0000AC" stroke-miterlimit="10" stroke-linecap="round" stroke-linejoin="round"/>
<path d="M2.43945 19.2422H5.77945" stroke="#0000AC" stroke-miterlimit="10" stroke-linecap="round" stroke-linejoin="round"/>
<path d="M1 22.7734H4.78" stroke="#0000AC" stroke-miterlimit="10" stroke-linecap="round" stroke-linejoin="round"/>
</svg>
