<svg width="38" height="35" viewBox="0 0 38 35" fill="none" xmlns="http://www.w3.org/2000/svg">
<path d="M16.6592 21.718C16.6592 21.718 16.1789 20.3666 16.6592 21.718L15.5586 18.5979V18.5979C15.4095 18.1908 15.7016 17.7788 15.8763 17.382C16.2826 16.4587 16.3367 15.6186 16.2616 14.9528C16.1421 13.8927 15.5635 12.9513 15.0937 11.9935L12.3967 6.49513V6.49513C11.9623 5.61935 11.6659 4.54868 12.355 3.85519C13.4847 2.71808 16.0401 1.92432 19.0006 1.92432C21.9611 1.92432 24.5165 2.71808 25.6462 3.85519C26.3353 4.54868 26.0389 5.61935 25.6045 6.49513V6.49513L22.8242 12.1303C22.3966 12.997 21.8833 13.8488 21.7443 14.8052C21.6761 15.2742 21.6668 15.8413 21.8023 16.4715" stroke="#0000AC" stroke-miterlimit="10" stroke-linecap="round" stroke-linejoin="round"/>
<path d="M11.7357 5.16343C11.7357 5.16343 8.41373 5.56087 7.43315 3.33507C6.45257 1.10927 4.89169 0.731665 3.79104 1.149C2.69039 1.56634 0.208884 3.49404 1.2495 6.05769C2.2701 8.6412 4.7316 9.41626 4.7316 9.41626" stroke="#0000AC" stroke-miterlimit="10" stroke-linecap="round" stroke-linejoin="round"/>
<path d="M6.91216 12.6358C8.21633 12.6358 9.27354 11.586 9.27354 10.2908C9.27354 8.9957 8.21633 7.9458 6.91216 7.9458C5.608 7.9458 4.55078 8.9957 4.55078 10.2908C4.55078 11.586 5.608 12.6358 6.91216 12.6358Z" stroke="#0000AC" stroke-miterlimit="10" stroke-linecap="round" stroke-linejoin="round"/>
<path d="M26.2637 5.16343C26.2637 5.16343 29.5857 5.56087 30.5663 3.33507C31.5468 1.10927 33.1077 0.731665 34.2084 1.149C35.309 1.56634 37.7905 3.49404 36.7499 6.05769C35.7093 8.62133 33.2678 9.41626 33.2678 9.41626" stroke="#0000AC" stroke-miterlimit="10" stroke-linecap="round" stroke-linejoin="round"/>
<path d="M31.0665 12.6358C32.3707 12.6358 33.4279 11.586 33.4279 10.2908C33.4279 8.9957 32.3707 7.9458 31.0665 7.9458C29.7624 7.9458 28.7051 8.9957 28.7051 10.2908C28.7051 11.586 29.7624 12.6358 31.0665 12.6358Z" stroke="#0000AC" stroke-miterlimit="10" stroke-linecap="round" stroke-linejoin="round"/>
<path d="M17.2783 8.95942C16.6179 7.68754 17.5385 6.15727 18.9793 6.1374C20.4202 6.11753 21.3807 7.62788 20.7404 8.91964C20.06 10.3505 18.0187 10.3704 17.2783 8.95942Z" stroke="#0000AC" stroke-miterlimit="10" stroke-linecap="round" stroke-linejoin="round"/>
<path d="M26.6449 13.3114L17.1993 22.9897C16.9191 23.2878 17.0392 23.7846 17.4195 23.9038L20.6214 24.977C21.0016 25.0962 21.1216 25.5533 20.8815 25.8514L15.018 33.0852C14.5978 33.6019 15.2582 34.2776 15.7985 33.8801L27.2453 25.3943C27.6055 25.136 27.5254 24.5795 27.1052 24.4205L24.1034 23.3077C23.7232 23.1685 23.6231 22.6915 23.9033 22.3934L30.9074 15.2789C31.1876 14.9808 31.0875 14.5038 30.6873 14.3647L27.2252 13.1723C27.0251 13.1127 26.805 13.1524 26.6449 13.3114Z" stroke="#0000AC" stroke-miterlimit="10" stroke-linecap="round" stroke-linejoin="round"/>
</svg>
