<svg width="38" height="35" viewBox="0 0 38 35" fill="none" xmlns="http://www.w3.org/2000/svg">
<path d="M14.1391 25.5312C18.2923 25.5312 21.6591 22.1449 21.6591 17.9678C21.6591 13.7906 18.2923 10.4043 14.1391 10.4043C9.98595 10.4043 6.61914 13.7906 6.61914 17.9678C6.61914 22.1449 9.98595 25.5312 14.1391 25.5312Z" stroke="#0000AC" stroke-miterlimit="10" stroke-linecap="round" stroke-linejoin="round"/>
<path d="M24.8941 27.0917L21.4672 23.4839C20.9027 22.8896 19.9659 22.8682 19.3749 23.4361C18.7838 24.004 18.7623 24.9461 19.3268 25.5404L22.7537 29.1483C23.3182 29.7426 24.2549 29.764 24.846 29.1961C25.437 28.6282 25.4586 27.686 24.8941 27.0917Z" stroke="#0000AC" stroke-miterlimit="10" stroke-linecap="round" stroke-linejoin="round"/>
<path d="M12.34 2.07666C12.34 7.36704 1 12.2149 1 18.0283C1 23.8417 12.34 28.7096 12.34 33.9799" stroke="#0000AC" stroke-miterlimit="10" stroke-linecap="round" stroke-linejoin="round"/>
<path d="M1 34.0002C1 30.8622 4.99999 27.865 8.23999 24.7471" stroke="#0000AC" stroke-miterlimit="10" stroke-linecap="round" stroke-linejoin="round"/>
<path d="M1 2.07666C1 5.19457 4.98 8.19178 8.22 11.2896" stroke="#0000AC" stroke-miterlimit="10" stroke-linecap="round" stroke-linejoin="round"/>
<path d="M1.87891 4.75195H11.4589" stroke="#0000AC" stroke-miterlimit="10" stroke-linecap="round" stroke-linejoin="round"/>
<path d="M1.87891 31.3247H11.5389" stroke="#0000AC" stroke-miterlimit="10" stroke-linecap="round" stroke-linejoin="round"/>
<path d="M2.62109 22.0513H6.40109" stroke="#0000AC" stroke-miterlimit="10" stroke-linecap="round" stroke-linejoin="round"/>
<path d="M2.62109 14.0854H6.40109" stroke="#0000AC" stroke-miterlimit="10" stroke-linecap="round" stroke-linejoin="round"/>
<path d="M1 18.0483H5.26001" stroke="#0000AC" stroke-miterlimit="10" stroke-linecap="round" stroke-linejoin="round"/>
<path d="M29.4599 9.84129C29.2906 9.54997 29.1907 9.27063 29.1378 9.01239C28.9254 7.97534 29.5716 6.99094 30.0344 6.03887L31.0999 3.84688V3.84688C31.3237 3.38349 31.4795 2.81912 31.1185 2.45243C30.5344 1.85918 29.2163 1.45312 27.6799 1.45312C26.1484 1.45312 24.8338 1.86751 24.247 2.4554C23.8834 2.81959 24.0361 3.38349 24.2599 3.84688V3.84688L25.6151 6.63482C25.8848 7.18979 26.2222 7.73764 26.2658 8.35314C26.2896 8.68867 26.2479 9.09906 26.0499 9.54761C25.9613 9.74819 25.8189 9.95941 25.8999 10.1632V10.1632L27.2399 14.0455C27.3799 14.4679 27.9599 14.4679 28.1199 14.0455L29.3495 10.4829C29.4229 10.2703 29.5751 10.0345 29.4599 9.84129V9.84129Z" stroke="#0000AC" stroke-miterlimit="10" stroke-linecap="round" stroke-linejoin="round"/>
<path d="M23.9402 3.16289C23.9402 3.16289 22.2202 3.38416 21.7202 2.21746C21.2202 1.05076 20.4002 0.869706 19.8402 1.07086C19.2802 1.29213 18.0002 2.29791 18.5202 3.64564C19.0602 4.99338 20.3202 5.39572 20.3202 5.39572" stroke="#0000AC" stroke-miterlimit="10" stroke-linecap="round" stroke-linejoin="round"/>
<path d="M21.4602 7.06542C22.134 7.06542 22.6802 6.51606 22.6802 5.83838C22.6802 5.1607 22.134 4.61133 21.4602 4.61133C20.7864 4.61133 20.2402 5.1607 20.2402 5.83838C20.2402 6.51606 20.7864 7.06542 21.4602 7.06542Z" stroke="#0000AC" stroke-miterlimit="10" stroke-linecap="round" stroke-linejoin="round"/>
<path d="M31.4609 3.16289C31.4609 3.16289 33.1809 3.38416 33.6809 2.21746C34.1809 1.05076 35.0009 0.869706 35.5609 1.07086C36.1209 1.29213 37.401 2.29791 36.881 3.64564C36.341 4.99338 35.0809 5.39572 35.0809 5.39572" stroke="#0000AC" stroke-miterlimit="10" stroke-linecap="round" stroke-linejoin="round"/>
<path d="M33.9407 7.06542C34.6145 7.06542 35.1607 6.51606 35.1607 5.83838C35.1607 5.1607 34.6145 4.61133 33.9407 4.61133C33.2669 4.61133 32.7207 5.1607 32.7207 5.83838C32.7207 6.51606 33.2669 7.06542 33.9407 7.06542Z" stroke="#0000AC" stroke-miterlimit="10" stroke-linecap="round" stroke-linejoin="round"/>
</svg>
