<svg width="35" height="37" viewBox="0 0 35 37" fill="none" xmlns="http://www.w3.org/2000/svg">
<path d="M31.6797 10.9429C33.7553 14.6306 34.4867 18.217 33.6762 22.5328" stroke="#0000AC" stroke-miterlimit="10" stroke-linecap="round"/>
<path d="M22.1719 3.26367C23.7138 3.68918 25.2161 4.37809 26.6196 5.33041C27.8254 6.16116 28.9127 7.13374 29.8417 8.24816" stroke="#0000AC" stroke-miterlimit="10" stroke-linecap="round"/>
<path d="M6.23828 7.25506C8.5511 5.12753 11.4372 3.66865 14.4616 3.04053" stroke="#0000AC" stroke-miterlimit="10" stroke-linecap="round"/>
<path d="M4.06482 9.6665C2.91829 11.247 2.02873 13.0503 1.51477 15.0562C-0.501531 22.8369 3.61019 30.9823 10.2719 34.4877C11.7622 35.2711 13.4003 35.8273 15.1147 36.0832C15.2331 36.1008 15.3511 36.1289 15.4707 36.1289V36.1289C15.9452 36.1897 16.4394 36.2302 16.9336 36.2505" stroke="#0000AC" stroke-miterlimit="10" stroke-linecap="round"/>
<path d="M22.7297 7.01173C23.1046 3.75554 21.3431 0.866041 18.7952 0.557832C16.2473 0.249624 13.8779 2.63942 13.503 5.89561C13.1281 9.1518 14.8897 12.0414 17.4376 12.3496C19.9855 12.6578 22.3548 10.2679 22.7297 7.01173Z" stroke="#0000AC" stroke-miterlimit="10" stroke-linecap="round"/>
<path d="M27.2127 15.9069C28.5569 13.5363 32.293 10.4361 33.0047 9.60539C33.7361 8.75438 34.0524 7.33603 33.0047 6.93078C32.7846 6.84566 32.5733 6.80614 32.3767 6.7968C31.4839 6.75441 30.7679 7.44557 30.0906 8.02876L27.1026 10.6014C26.4777 11.1395 25.8388 11.658 25.1498 12.111C23.4371 13.2369 19.9191 15.2914 17.4475 14.9951C14.087 14.5899 11.9323 13.2121 10.1928 11.5708C8.45322 9.92959 6.59506 7.35629 5.68574 6.87C4.77643 6.38371 3.78804 6.38371 3.39269 7.49813C3.21367 8.00275 3.32242 8.49075 3.49503 8.87372C3.74968 9.43869 4.20901 9.87694 4.61585 10.3444C5.6818 11.5692 7.88859 14.1274 9.14509 15.7448C10.9242 18.0345 11.7939 19.4528 11.1021 22.9784C10.8675 24.1808 10.6969 25.7228 10.5732 27.2864C10.2175 31.7807 12.7231 36.1935 17.2301 36.3109V36.3109" stroke="#0000AC" stroke-miterlimit="10" stroke-linecap="round"/>
<path d="M25.4333 35.0346H23.7135C23.5949 35.0346 23.4961 34.9333 23.4961 34.8117V18.2575C23.4961 17.6496 23.9903 17.1431 24.5833 17.1431C25.1763 17.1431 25.6705 17.6496 25.6705 18.2575V34.8117C25.6705 34.9333 25.5717 35.0346 25.4333 35.0346Z" stroke="#0000AC" stroke-miterlimit="10" stroke-linecap="round"/>
<path d="M28.9512 35.0347H20.4314C19.7197 35.0347 19.1465 35.6223 19.1465 36.3517V36.6556C19.1465 36.838 19.3046 37.0001 19.4825 37.0001H29.8803C30.0582 37.0001 30.2164 36.838 30.2164 36.6556V36.3517C30.2362 35.6223 29.6629 35.0347 28.9512 35.0347Z" fill="#0079AB"/>
<path d="M25.6699 19.9391L27.963 19.7973C28.2793 19.777 28.5955 19.8378 28.8723 19.9796L31.62 21.3777" stroke="#0000AC" stroke-miterlimit="10" stroke-linecap="round"/>
<path d="M33.8742 28.3887C33.8742 30.0704 32.5497 31.4483 30.8892 31.4483C29.2485 31.4483 27.9043 30.0704 27.9043 28.3887" stroke="#0000AC" stroke-miterlimit="10" stroke-linecap="round"/>
<path d="M33.0044 26.2206C33.4208 27.2585 32.6565 28.3886 31.5382 28.3886H30.2403C29.122 28.3886 28.3577 27.2585 28.7741 26.2206V26.2206V26.2206C29.5452 24.3221 32.2333 24.3221 33.0044 26.2206V26.2206V26.2206Z" stroke="#0000AC" stroke-miterlimit="10" stroke-linecap="round" stroke-linejoin="round"/>
<path d="M21.2237 25.5923C21.2237 27.274 19.8993 28.6519 18.2388 28.6519C16.5981 28.6519 15.2539 27.274 15.2539 25.5923" stroke="#0000AC" stroke-miterlimit="10" stroke-linecap="round"/>
<path d="M20.3342 23.4242C20.7585 24.4583 19.998 25.5922 18.8803 25.5922H17.5899C16.4716 25.5922 15.7073 24.4621 16.1237 23.4242V23.4242V23.4242C16.8915 21.5338 19.5725 21.5313 20.3342 23.4242V23.4242V23.4242Z" stroke="#0000AC" stroke-miterlimit="10" stroke-linecap="round" stroke-linejoin="round"/>
<path d="M23.4966 19.3922L21.8163 18.2575C21.5791 18.0954 21.3023 17.9941 21.0058 17.9941H17.0918" stroke="#0000AC" stroke-miterlimit="10" stroke-linecap="round"/>
</svg>
