<svg width="38" height="33" viewBox="0 0 38 33" fill="none" xmlns="http://www.w3.org/2000/svg">
<path d="M1.11325 12.5409C0.69313 9.60069 1.41333 6.66046 3.75397 4.2765C5.93457 2.07133 9.09543 0.382671 12.8365 1.21706C15.8773 1.89252 17.8378 4.01823 18.6381 5.11088C18.8181 5.34928 19.1782 5.34928 19.3583 5.11088C20.1785 4.0381 22.119 1.91238 25.1599 1.21706C28.9009 0.382671 32.0617 2.07133 34.2423 4.2765C40.144 10.2364 35.6827 19.6729 29.221 24.0237C26.5602 25.8116 22.5191 28.6525 20.6386 30.4802C20.0985 30.9968 19.6583 31.4735 19.3382 31.851C19.1582 32.0497 18.8581 32.0497 18.6781 31.851C18.358 31.4735 17.9179 30.9968 17.3777 30.4802C15.4972 28.6724 11.4361 25.8315 8.79535 24.0237C6.53473 22.494 4.87428 20.9245 3.45389 18.5207" stroke="#0000AC" stroke-miterlimit="10" stroke-linecap="round" stroke-linejoin="round"/>
<path d="M1.95312 15.6399H6.61254C7.0118 15.6399 7.38274 15.4337 7.5935 15.0946L7.65147 15.0013C8.13425 14.2245 9.29877 14.3409 9.61828 15.1978V15.1978C10.006 16.2378 11.5145 16.1157 11.73 15.027L11.9774 13.7773C12.2917 12.1893 14.5711 12.2136 14.8516 13.8079L15.342 16.5953C15.6291 18.2274 17.8941 18.4208 18.4537 16.861L18.725 16.105C19.1521 14.9145 20.8409 14.9296 21.2468 16.1275V16.1275C21.6129 17.2081 23.0781 17.3616 23.6602 16.3801L23.7006 16.3119C23.9477 15.8953 24.3962 15.6399 24.8806 15.6399H29.0406" stroke="#0000AC" stroke-miterlimit="10" stroke-linecap="round" stroke-linejoin="round"/>
<path d="M29.0409 17.2097C29.9135 17.2097 30.6209 16.507 30.6209 15.6403C30.6209 14.7735 29.9135 14.0708 29.0409 14.0708C28.1683 14.0708 27.4609 14.7735 27.4609 15.6403C27.4609 16.507 28.1683 17.2097 29.0409 17.2097Z" fill="#0079AB"/>
</svg>
