<svg width="38" height="31" viewBox="0 0 38 31" fill="none" xmlns="http://www.w3.org/2000/svg">
<path d="M27.06 15.9453H29.9728C33.8538 15.9453 37 19.0915 37 22.9725V22.9725C37 26.8536 33.8538 29.9997 29.9728 29.9997H8.02722C4.14619 29.9997 1 26.8536 1 22.9725V22.9725C1 19.0915 4.14619 15.9453 8.02722 15.9453H10.94" stroke="#0000AC" stroke-miterlimit="10" stroke-linecap="round" stroke-linejoin="round"/>
<path d="M21.0604 23.0127C21.0604 24.1474 20.1404 25.083 18.9804 25.083C17.8204 25.083 16.9004 24.1673 16.9004 23.0127" stroke="#0000AC" stroke-miterlimit="10" stroke-linecap="round" stroke-linejoin="round"/>
<path d="M16.9199 23.0126C16.9316 22.8136 16.9458 22.6125 16.9624 22.4095C17.0149 21.7708 21.0599 23.0126 21.0599 23.0126V23.0126" stroke="#0000AC" stroke-miterlimit="10" stroke-linecap="round" stroke-linejoin="round"/>
<path d="M23.2397 22.9727C23.2397 25.3018 21.3398 27.1929 18.9998 27.1929C16.6598 27.1929 14.7598 25.3018 14.7598 22.9727" stroke="#0000AC" stroke-miterlimit="10" stroke-linecap="round" stroke-linejoin="round"/>
<path d="M14.7394 22.9725C14.7394 22.9725 14.7595 21.7582 15.1995 21.0614C15.6395 20.3647 15.9995 15.9453 10.9395 15.9453" stroke="#0000AC" stroke-miterlimit="10" stroke-linecap="round" stroke-linejoin="round"/>
<path d="M23.2407 22.9725C23.2407 22.9725 23.2207 21.7582 22.7807 21.0614C22.3407 20.3647 21.9807 15.9453 27.0407 15.9453" stroke="#0000AC" stroke-miterlimit="10" stroke-linecap="round" stroke-linejoin="round"/>
</svg>
