<svg width="37" height="38" viewBox="0 0 37 38" fill="none" xmlns="http://www.w3.org/2000/svg">
<path d="M18.2568 22.028C19.8193 22.028 21.0859 20.7751 21.0859 19.2296C21.0859 17.6841 19.8193 16.4312 18.2568 16.4312C16.6944 16.4312 15.4277 17.6841 15.4277 19.2296C15.4277 20.7751 16.6944 22.028 18.2568 22.028Z" stroke="#0000AC" stroke-miterlimit="10" stroke-linecap="round" stroke-linejoin="round"/>
<path d="M18.6422 22.0282C19.6355 22.0282 20.4407 21.2317 20.4407 20.2492C20.4407 19.2667 19.6355 18.4702 18.6422 18.4702C17.649 18.4702 16.8438 19.2667 16.8438 20.2492C16.8438 21.2317 17.649 22.0282 18.6422 22.0282Z" fill="#0079AB"/>
<path d="M20.3584 11.6939V11.6939C22.0356 11.2874 23.7522 12.3001 24.1777 13.9726V13.9726C24.4202 14.972 25.0062 15.8516 25.8347 16.4712V16.4712C27.2048 17.5179 27.4563 19.4857 26.4006 20.8488V20.8488C25.7741 21.6683 25.4306 22.6678 25.4508 23.6872V23.6872C25.4843 25.4092 24.1151 26.832 22.3931 26.8648L22.359 26.8654C21.3284 26.8854 20.318 27.2452 19.5097 27.9048V27.9048C18.1643 29.0027 16.1828 28.8131 15.064 27.4851V27.4851C14.3971 26.6855 13.4877 26.1458 12.4773 25.9459V25.9459C10.7887 25.5943 9.69559 23.9355 10.0524 22.248V22.248C10.2545 21.2486 10.1332 20.1891 9.66846 19.2696V19.2696C8.88923 17.7391 9.52549 15.8578 11.0628 15.092V15.092C11.9924 14.6322 12.7401 13.8727 13.1644 12.9332V12.9332C13.8922 11.3716 15.7411 10.6867 17.3106 11.3973L17.3474 11.414C18.2972 11.8538 19.348 11.9537 20.3584 11.6939Z" stroke="#0000AC" stroke-miterlimit="10" stroke-linecap="round" stroke-linejoin="round"/>
<path d="M10.457 1C10.5581 3.41866 11.4876 4.73793 13.0234 6.03721C13.8115 6.71683 14.1955 8.05609 14.3774 9.17546C14.438 9.51528 14.4784 9.8351 14.4986 10.1149" stroke="#0000AC" stroke-miterlimit="10" stroke-linecap="round" stroke-linejoin="round"/>
<path d="M14.4793 10.1151C11.5896 7.23671 7.16406 5.25781 7.16406 5.25781" stroke="#0000AC" stroke-miterlimit="10" stroke-linecap="round" stroke-linejoin="round"/>
<path d="M14.4782 10.1147C14.5186 9.85485 14.5591 9.575 14.5995 9.31514C14.8218 7.93591 15.1653 6.65661 15.2663 5.99698C15.4482 4.79765 14.1953 2.75879 14.1953 2.75879" stroke="#0000AC" stroke-miterlimit="10" stroke-linecap="round" stroke-linejoin="round"/>
<path d="M23.4316 10.9546C23.4721 10.8946 23.4923 10.8346 23.5327 10.7747C25.6949 7.57643 27.6955 1.69971 27.6955 1.69971" stroke="#0000AC" stroke-miterlimit="10" stroke-linecap="round" stroke-linejoin="round"/>
<path d="M30.6256 5.75732C30.6256 5.75732 27.0893 8.97553 23.4316 10.9544" stroke="#0000AC" stroke-miterlimit="10" stroke-linecap="round" stroke-linejoin="round"/>
<path d="M28.3418 18.3904C29.8776 17.8907 31.7771 16.7913 32.2217 15.7919C32.9694 14.0928 34.9498 13.813 34.9498 13.813" stroke="#0000AC" stroke-miterlimit="10" stroke-linecap="round" stroke-linejoin="round"/>
<path d="M36.0006 17.4106C36.0006 17.4106 33.9192 18.5507 29.8574 18.4707C29.3724 18.4707 28.8874 18.4307 28.3418 18.3907" stroke="#0000AC" stroke-miterlimit="10" stroke-linecap="round" stroke-linejoin="round"/>
<path d="M32.8671 23.4273C32.8671 23.4273 33.1702 20.2091 29.7551 18.55C29.452 18.4101 28.7851 18.3302 28.3203 18.3702" stroke="#0000AC" stroke-miterlimit="10" stroke-linecap="round" stroke-linejoin="round"/>
<path d="M25.5117 26.8257C25.7744 27.0656 26.0573 27.1855 26.4009 27.5453C26.7242 27.9051 27.0677 28.3248 27.4113 28.8046C28.9268 30.8434 27.4921 34.0217 27.4921 34.0217" stroke="#0000AC" stroke-miterlimit="10" stroke-linecap="round" stroke-linejoin="round"/>
<path d="M25.5117 26.8257C25.8148 27.1055 26.0977 27.3054 26.3806 27.5453C31.1497 31.4031 34.9286 30.0439 34.9286 30.0439" stroke="#0000AC" stroke-miterlimit="10" stroke-linecap="round" stroke-linejoin="round"/>
<path d="M12.2161 35.4807C12.2161 35.4807 11.5694 33.242 13.4892 32.4424C14.8633 31.8827 16.4193 30.6034 17.1064 29.9038" stroke="#0000AC" stroke-miterlimit="10" stroke-linecap="round" stroke-linejoin="round"/>
<path d="M17.1056 29.9038C16.9035 30.4835 16.4387 31.403 16.2973 31.6828C16.075 32.0826 15.4485 33.4818 16.7418 34.3613C18.0351 35.2408 17.4491 36.9999 17.4491 36.9999" stroke="#0000AC" stroke-miterlimit="10" stroke-linecap="round" stroke-linejoin="round"/>
<path d="M17.1055 29.9038C17.3278 31.1031 18.1563 32.2825 19.5708 32.8422C21.2481 33.4818 21.1066 34.961 21.1066 34.961" stroke="#0000AC" stroke-miterlimit="10" stroke-linecap="round" stroke-linejoin="round"/>
<path d="M4.88086 30.9435C4.88086 30.9435 5.66897 30.4438 5.81043 29.2245C5.95188 28.0651 7.20477 25.4466 9.40742 25.3066" stroke="#0000AC" stroke-miterlimit="10" stroke-linecap="round" stroke-linejoin="round"/>
<path d="M1.30273 26.6659C1.30273 26.6659 2.57583 24.1473 4.01059 24.3872C5.44535 24.6271 6.13242 24.8869 6.88011 25.1268C7.3853 25.3067 8.6786 25.4066 9.42629 25.3067" stroke="#0000AC" stroke-miterlimit="10" stroke-linecap="round" stroke-linejoin="round"/>
<path d="M1 17.2514C1.02021 17.2114 4.31409 15.7714 8.25462 16.5114" stroke="#0000AC" stroke-miterlimit="10" stroke-linecap="round" stroke-linejoin="round"/>
<path d="M1.92969 11.1743C1.92969 11.1743 5.26399 14.2726 8.25475 16.5113" stroke="#0000AC" stroke-miterlimit="10" stroke-linecap="round" stroke-linejoin="round"/>
</svg>
