<svg width="38" height="31" viewBox="0 0 38 31" fill="none" xmlns="http://www.w3.org/2000/svg">
<path d="M30.339 15.6589V15.6589C29.0245 15.6589 27.959 14.5933 27.959 13.2789V2.19178C27.959 1.5363 28.499 1 29.159 1C29.819 1 30.359 1.5363 30.359 2.19178V15.6389C30.359 15.6499 30.35 15.6589 30.339 15.6589V15.6589Z" stroke="#0000AC" stroke-miterlimit="10" stroke-linecap="round" stroke-linejoin="round"/>
<path d="M30.3398 3.28424L31.9998 3.18492C32.2598 3.16505 32.5398 3.22465 32.7798 3.34382L35.0999 4.49587" stroke="#0000AC" stroke-miterlimit="10" stroke-linecap="round" stroke-linejoin="round"/>
<path d="M36.999 10.2165C36.999 11.6069 35.879 12.7193 34.479 12.7193C33.7687 12.7193 33.1219 12.4246 32.6615 11.9489C31.7817 11.04 32.2105 9.61562 32.699 8.44873V8.44873" stroke="#0000AC" stroke-miterlimit="10" stroke-linecap="round" stroke-linejoin="round"/>
<path d="M36.259 8.44877C36.6107 9.28909 35.9935 10.2166 35.0825 10.2166H33.8754C32.9645 10.2166 32.3472 9.28909 32.699 8.44877V8.44877V8.44877C33.3584 6.86677 35.5996 6.86676 36.259 8.44877V8.44877V8.44877Z" stroke="#0000AC" stroke-miterlimit="10" stroke-linecap="round" stroke-linejoin="round"/>
<path d="M26.2998 7.93236C26.2998 9.32277 25.1798 10.4351 23.7798 10.4351C23.0695 10.4351 22.4227 10.1404 21.9623 9.66474C21.0825 8.75582 21.5113 7.33144 21.9998 6.16455V6.16455" stroke="#0000AC" stroke-miterlimit="10" stroke-linecap="round" stroke-linejoin="round"/>
<path d="M25.5598 6.16459C25.9116 7.00491 25.2943 7.9324 24.3834 7.9324H23.1762C22.2652 7.9324 21.648 7.00491 21.9998 6.16459V6.16459V6.16459C22.6592 4.58256 24.9004 4.58256 25.5598 6.16459V6.16459V6.16459Z" stroke="#0000AC" stroke-miterlimit="10" stroke-linecap="round" stroke-linejoin="round"/>
<path d="M27.9598 2.68846L26.8198 1.91381C26.6198 1.77477 26.3798 1.69531 26.1398 1.69531H22.8398" stroke="#0000AC" stroke-miterlimit="10" stroke-linecap="round" stroke-linejoin="round"/>
<path d="M17.4399 11.8452C17.8199 12.5603 18.0199 13.3747 18.0199 14.2288C18.0199 17.1486 15.6399 19.4925 12.7199 19.4925C9.77991 19.4925 7.41992 17.1288 7.41992 14.2288C7.41992 13.3747 7.61988 12.5603 7.99988 11.8452" stroke="#0000AC" stroke-miterlimit="10" stroke-linecap="round" stroke-linejoin="round"/>
<path d="M17.238 8.49443C17.348 10.3004 15.913 11.8254 14.1037 11.8254H11.2949C9.48735 11.8254 8.05375 10.3018 8.16367 8.49763L8.25437 7.0087C8.2822 6.55186 8.59892 6.16395 9.04095 6.0453V6.0453C11.381 5.38982 13.8609 5.36995 16.2209 6.00557V6.00557C16.7469 6.14802 17.1233 6.61011 17.1564 7.15396L17.238 8.49443Z" stroke="#0000AC" stroke-miterlimit="10" stroke-linecap="round" stroke-linejoin="round"/>
<path d="M10.5195 8.80615H14.7396" stroke="#0000AC" stroke-miterlimit="10" stroke-linecap="round" stroke-linejoin="round"/>
<path d="M12.6406 10.8919V6.7207" stroke="#0000AC" stroke-miterlimit="10" stroke-linecap="round" stroke-linejoin="round"/>
<path d="M1.01001 25.7294C1.00448 25.7294 0.999997 25.7248 1.00003 25.7193C1.01334 23.0821 6.26822 20.9424 12.72 20.9424C19.18 20.9424 24.42 23.0876 24.42 25.7294V25.7294C24.42 28.0879 22.5081 29.9999 20.1495 29.9999H17.98H7.5H3.1553C1.97601 29.9999 1.02002 29.0439 1.02002 27.8646V25.7394C1.02002 25.7338 1.01554 25.7294 1.01001 25.7294V25.7294Z" stroke="#0000AC" stroke-miterlimit="10" stroke-linecap="round" stroke-linejoin="round"/>
<path d="M12.701 29.9998L8.62109 21.2402" stroke="#0000AC" stroke-miterlimit="10" stroke-linecap="round" stroke-linejoin="round"/>
<path d="M12.6992 29.9998L16.7792 21.2402" stroke="#0000AC" stroke-miterlimit="10" stroke-linecap="round" stroke-linejoin="round"/>
</svg>
