<svg width="38" height="28" viewBox="0 0 38 28" fill="none" xmlns="http://www.w3.org/2000/svg">
<path d="M22.4222 18.2226C21.7245 17.0179 21.643 15.9145 21.7483 15.0904C21.8789 14.0684 22.4275 13.1579 22.8778 12.2311L25.6241 6.57954V6.57954C26.0586 5.68996 26.358 4.60618 25.6655 3.89867C24.5356 2.74427 21.9804 1.93848 19.0202 1.93848C16.0461 1.93848 13.4987 2.74377 12.3729 3.89759C11.6815 4.60621 11.9817 5.68996 12.4163 6.57954V6.57954L15.1274 12.1917C15.5877 13.1447 16.1526 14.0817 16.2772 15.1327C16.3744 15.9521 16.284 17.0384 15.5982 18.2226C15.5181 18.4042 15.4981 18.6463 15.5781 18.8683L18.1797 26.3949C18.4599 27.202 19.5805 27.202 19.8607 26.3949L22.4622 18.8683C22.5422 18.6261 22.5022 18.4042 22.4222 18.2226Z" stroke="#0000AC" stroke-miterlimit="10"/>
<path d="M11.7357 5.22736C11.7357 5.22736 8.41373 5.63093 7.43315 3.37093C6.45257 1.11093 4.89169 0.727545 3.79104 1.15129C2.69039 1.57504 0.208884 3.53236 1.2495 6.13539C2.2701 8.7586 4.7316 9.54557 4.7316 9.54557" stroke="#0000AC" stroke-miterlimit="10"/>
<path d="M6.91216 12.8144C8.21633 12.8144 9.27354 11.7483 9.27354 10.4333C9.27354 9.11828 8.21633 8.05225 6.91216 8.05225C5.608 8.05225 4.55078 9.11828 4.55078 10.4333C4.55078 11.7483 5.608 12.8144 6.91216 12.8144Z" stroke="#0000AC" stroke-miterlimit="10"/>
<path d="M26.2637 5.22736C26.2637 5.22736 29.5857 5.63093 30.5663 3.37093C31.5468 1.11093 33.1077 0.727545 34.2084 1.15129C35.309 1.57504 37.7905 3.53236 36.7499 6.13539C35.7093 8.73842 33.2678 9.54557 33.2678 9.54557" stroke="#0000AC" stroke-miterlimit="10"/>
<path d="M31.0665 12.8144C32.3707 12.8144 33.4279 11.7483 33.4279 10.4333C33.4279 9.11828 32.3707 8.05225 31.0665 8.05225C29.7624 8.05225 28.7051 9.11828 28.7051 10.4333C28.7051 11.7483 29.7624 12.8144 31.0665 12.8144Z" stroke="#0000AC" stroke-miterlimit="10"/>
<path d="M17.2783 9.06135C16.6179 7.76992 17.5385 6.21618 18.9793 6.196C20.4202 6.17582 21.3807 7.70939 20.7404 9.02099C20.06 10.494 18.0187 10.5142 17.2783 9.06135Z" stroke="#0000AC" stroke-miterlimit="10"/>
</svg>
