<svg width="38" height="38" viewBox="0 0 38 38" fill="none" xmlns="http://www.w3.org/2000/svg">
<path d="M2.8 36.9801C1.8 36.9801 1 36.1729 1 35.1639V21.5832C1 20.5743 1.8 19.7671 2.8 19.7671C3.8 19.7671 4.60001 20.5743 4.60001 21.5832V35.1639C4.60001 36.1729 3.78 36.9801 2.8 36.9801Z" stroke="#0000AC" stroke-miterlimit="10" stroke-linecap="round" stroke-linejoin="round"/>
<path d="M35.2004 36.9796C34.2004 36.9796 33.4004 36.1724 33.4004 35.1634V26.0222C33.4004 25.0132 34.2004 24.2061 35.2004 24.2061C36.2004 24.2061 37.0004 25.0132 37.0004 26.0222V35.1634C37.0004 36.1724 36.2004 36.9796 35.2004 36.9796Z" stroke="#0000AC" stroke-miterlimit="10" stroke-linecap="round" stroke-linejoin="round"/>
<path d="M30.4232 31.0469H7.57605C5.93221 31.0469 4.59961 32.3795 4.59961 34.0233C4.59961 35.6672 5.93221 36.9998 7.57605 36.9998H30.4232C32.067 36.9998 33.3996 35.6672 33.3996 34.0233C33.3996 32.3795 32.067 31.0469 30.4232 31.0469Z" stroke="#0000AC" stroke-miterlimit="10" stroke-linecap="round" stroke-linejoin="round"/>
<path d="M13.5401 31.047H6.66008C5.52008 31.047 4.58008 30.0985 4.58008 28.9483C4.58008 27.7981 5.52008 26.8496 6.66008 26.8496H13.5401C14.6801 26.8496 15.6201 27.7981 15.6201 28.9483C15.6201 30.0985 14.7001 31.047 13.5401 31.047Z" stroke="#0000AC" stroke-miterlimit="10" stroke-linecap="round" stroke-linejoin="round"/>
<path d="M13.3398 1H23.102C25.4535 1 27.3598 2.90632 27.3598 5.25788V5.25788" stroke="#0000AC" stroke-miterlimit="10" stroke-linecap="round" stroke-linejoin="round"/>
<path d="M27.4603 12.2197C26.0003 12.2197 24.8203 11.0291 24.8203 9.55603V7.92144C24.8203 6.44835 26.0003 5.25781 27.4603 5.25781C28.9203 5.25781 30.1003 6.44835 30.1003 7.92144V9.55603C30.1003 11.0291 28.9203 12.2197 27.4603 12.2197Z" stroke="#0000AC" stroke-miterlimit="10" stroke-linecap="round" stroke-linejoin="round"/>
<path d="M20.3594 1V14.6009" stroke="#0000AC" stroke-miterlimit="10" stroke-linecap="round" stroke-linejoin="round"/>
<path d="M20.0798 22.3296C17.9598 22.3296 16.2598 20.5942 16.2598 18.4754C16.2598 16.3363 17.9798 14.6211 20.0798 14.6211C22.1998 14.6211 23.8998 16.3565 23.8998 18.4754C23.8998 20.5942 22.1998 22.3296 20.0798 22.3296Z" stroke="#0000AC" stroke-miterlimit="10" stroke-linecap="round" stroke-linejoin="round"/>
<path d="M20.3594 22.3296V27.5964" stroke="#0000AC" stroke-miterlimit="10" stroke-linecap="round" stroke-linejoin="round"/>
<path d="M18.8203 17.2646H21.1203" stroke="#0000AC" stroke-miterlimit="10" stroke-linecap="round" stroke-linejoin="round"/>
<path d="M18.9805 19.7671H19.9205" stroke="#0000AC" stroke-miterlimit="10" stroke-linecap="round" stroke-linejoin="round"/>
</svg>
