<svg width="38" height="34" viewBox="0 0 38 34" fill="none" xmlns="http://www.w3.org/2000/svg">
<path d="M12.7928 15.7535C10.2537 15.7535 8.15745 13.2653 10.2699 11.8565C10.9942 11.3734 11.8612 11.0923 12.7928 11.0923C13.7243 11.0923 14.5913 11.3734 15.3157 11.8565C17.4281 13.2653 15.3319 15.7535 12.7928 15.7535V15.7535Z" stroke="#0000AC" stroke-miterlimit="10" stroke-linecap="round" stroke-linejoin="round"/>
<path d="M14.2525 13.4028L12.8125 15.7537" stroke="#0000AC" stroke-miterlimit="10" stroke-linecap="round" stroke-linejoin="round"/>
<path d="M22.2482 32.9999C21.3264 32.9999 20.6177 32.1904 20.773 31.2818C20.9837 30.0501 21.3091 28.4186 21.7085 27.3051C22.4281 25.3191 22.4681 22.8871 21.7085 22.0157C21.353 21.6079 20.5116 20.8539 19.717 20.167C18.5676 19.1735 16.9832 17.4919 16.0516 18.6921V18.6921C15.0922 19.9283 14.6324 21.3267 14.6124 21.9549C14.5725 23.5154 15.6119 26.9201 15.4919 28.6022C15.3959 29.9012 15.2228 31.6685 14.4175 32.5387C14.0258 32.962 13.4001 32.9999 12.8234 32.9999V32.9999C12.2468 32.9999 11.621 32.962 11.2294 32.5387C10.4241 31.6685 10.251 29.9012 10.1549 28.6022C10.035 26.9403 11.0744 23.5154 11.0344 21.9549C11.0144 21.3267 10.5547 19.908 9.59522 18.6921V18.6921C8.65823 17.5046 7.08235 19.1711 5.93783 20.1602C5.14084 20.8489 4.29502 21.6065 3.93837 22.0157C3.17879 22.8871 3.21877 25.3191 3.93837 27.3051C4.33421 28.3977 4.65748 30.0114 4.86823 31.2424C5.0274 32.1721 4.30195 32.9999 3.35869 32.9999V32.9999C2.05941 32.9999 1 31.9258 1 30.6085V10.8694C1 9.55213 2.05941 8.47803 3.35869 8.47803H22.2482C23.5475 8.47803 24.6069 9.55213 24.6069 10.8694V30.6085C24.6069 31.9258 23.5475 32.9999 22.2482 32.9999V32.9999Z" stroke="#0000AC" stroke-miterlimit="10" stroke-linecap="round" stroke-linejoin="round"/>
<path d="M31.9019 11.3357C34.7169 11.3357 36.999 9.02195 36.999 6.16783C36.999 3.31372 34.7169 1 31.9019 1C29.0868 1 26.8047 3.31372 26.8047 6.16783C26.8047 9.02195 29.0868 11.3357 31.9019 11.3357Z" stroke="#0000AC" stroke-miterlimit="10" stroke-linecap="round" stroke-linejoin="round"/>
<path d="M34.6408 7.76882L34.3517 7.59979C32.8348 6.71293 31.9023 5.08773 31.9023 3.33057V3.33057" stroke="#0000AC" stroke-miterlimit="10" stroke-linecap="round" stroke-linejoin="round"/>
</svg>
