<svg width="32" height="38" viewBox="0 0 32 38" fill="none" xmlns="http://www.w3.org/2000/svg">
<path d="M26.8128 9.69076V9.69076C26.8128 9.69076 10.6099 8.81447 8.67252 7.34275C7.55064 6.49052 6.26536 5.68263 4.79297 4.95264" stroke="#0000AC" stroke-miterlimit="10" stroke-linecap="round" stroke-linejoin="round"/>
<path d="M22.159 15.1089C22.159 15.1089 26.06 16.7482 28.4758 14.3692V14.3692C31.7199 11.1745 29.1349 5.59894 24.6007 6.01294C24.0928 6.05931 23.5742 6.14293 23.0501 6.27241C18.357 7.41196 19.3075 14.7691 19.3075 14.7691" stroke="#0000AC" stroke-miterlimit="10" stroke-linecap="round" stroke-linejoin="round"/>
<path d="M12.7129 16.3282C12.7129 16.3282 2.0396 16.0283 1.32673 9.51087V9.51087C0.904757 5.653 4.5523 0.636608 8.37155 1.32551C10.5132 1.71181 12.6684 2.50352 14.297 4.01304C19.1089 8.49127 15.0099 15.3086 15.0099 15.3086" stroke="#0000AC" stroke-miterlimit="10" stroke-linecap="round" stroke-linejoin="round"/>
<path d="M15.9993 37.0001C20.5489 37.0001 24.237 33.2766 24.237 28.6834C24.237 24.0902 20.5489 20.3667 15.9993 20.3667C11.4498 20.3667 7.76172 24.0902 7.76172 28.6834C7.76172 33.2766 11.4498 37.0001 15.9993 37.0001Z" stroke="#0000AC" stroke-miterlimit="10" stroke-linecap="round" stroke-linejoin="round"/>
<path d="M16 24.3652V33.0018" stroke="#0000AC" stroke-miterlimit="10" stroke-linecap="round" stroke-linejoin="round"/>
<path d="M11.7227 28.6831H20.2969" stroke="#0000AC" stroke-miterlimit="10" stroke-linecap="round" stroke-linejoin="round"/>
</svg>
