<svg width="38" height="34" viewBox="0 0 38 34" fill="none" xmlns="http://www.w3.org/2000/svg">
<path d="M16.8105 22.3203V15.623" stroke="#0000AC" stroke-miterlimit="10" stroke-linecap="round"/>
<path d="M4.33815 28.9578C6.18175 28.9578 7.67629 27.4763 7.67629 25.6488C7.67629 23.8213 6.18175 22.3398 4.33815 22.3398C2.49454 22.3398 1 23.8213 1 25.6488C1 27.4763 2.49454 28.9578 4.33815 28.9578Z" stroke="#0000AC" stroke-miterlimit="10" stroke-linecap="round"/>
<path d="M21.7678 7.61796C23.6114 7.61796 25.106 6.13648 25.106 4.30898C25.106 2.48148 23.6114 1 21.7678 1C19.9242 1 18.4297 2.48148 18.4297 4.30898C18.4297 6.13648 19.9242 7.61796 21.7678 7.61796Z" stroke="#0000AC" stroke-miterlimit="10" stroke-linecap="round"/>
<path d="M1 33.0001V30.0874C1 29.4732 1.51971 28.958 2.13937 28.958H6.47696C6.77679 28.958 7.05663 29.0769 7.27651 29.275L8.29595 30.2856C8.51582 30.5035 8.79567 30.6026 9.0955 30.6026H35.8806C36.5003 30.6026 37 31.0979 37 31.7122V33.0001" stroke="#0000AC" stroke-miterlimit="10" stroke-linecap="round"/>
<path d="M13.6131 27.472H20.1894C21.0689 27.472 21.7685 28.1655 21.7685 29.0373C21.7685 29.9091 21.0689 30.6026 20.1894 30.6026H12.0739C10.3749 30.6026 9.01562 29.2355 9.01562 27.5711C9.01562 25.8869 10.3949 24.5395 12.0739 24.5395H18.8302C19.2699 24.5395 19.6897 24.3612 20.0095 24.0639L20.6292 23.4497" stroke="#0000AC" stroke-miterlimit="10" stroke-linecap="round"/>
<path d="M32.7019 30.6027H35.2205C36.1999 30.6027 36.9795 29.83 36.9795 28.8591C36.9795 27.8882 36.1999 27.1154 35.2205 27.1154H24.2866C23.8468 27.1154 23.567 26.6201 23.8068 26.2436L25.1061 24.1631" stroke="#0000AC" stroke-miterlimit="10" stroke-linecap="round"/>
<path d="M26.9649 22.3397H32.162C32.9815 22.3397 33.6412 21.6859 33.6412 20.8735C33.6412 20.0611 32.9815 19.4072 32.162 19.4072H22.5273" stroke="#0000AC" stroke-miterlimit="10" stroke-linecap="round"/>
<path d="M19.1707 14.2362L20.2101 17.6641C20.2501 17.8226 20.37 17.9613 20.49 18.0604L23.8081 20.339C24.4678 20.7948 24.5677 21.7458 23.988 22.3006C23.5483 22.7366 22.8686 22.796 22.3489 22.4592L17.9114 19.5266C17.7515 19.4276 17.6515 19.2691 17.5916 19.0709L16.0125 12.3341C15.7126 11.0461 16.7121 9.79785 18.0513 9.79785H24.028C24.9275 9.79785 25.767 10.2139 26.3267 10.9074L31.4839 17.5056" stroke="#0000AC" stroke-miterlimit="10" stroke-linecap="round"/>
<path d="M27.8042 17.4656L26.0851 14.6123C26.0251 14.5132 25.8652 14.5529 25.8652 14.6717V17.5448" stroke="#0000AC" stroke-miterlimit="10" stroke-linecap="round"/>
</svg>
