<svg width="38" height="37" viewBox="0 0 38 37" fill="none" xmlns="http://www.w3.org/2000/svg">
<path d="M2.55913 26.8774C0.480289 28.9718 0.480289 32.3349 2.55913 34.4292C4.63798 36.5236 7.97613 36.5236 10.055 34.4292" stroke="#0000AC" stroke-miterlimit="10" stroke-linecap="round" stroke-linejoin="round"/>
<path d="M2.55859 26.8774L23.1918 6.09024C24.2956 4.97824 24.1622 2.65574 25.266 1.54374V1.54374C25.6258 1.18125 26.1055 1 26.5653 1C27.045 1 27.5047 1.18125 27.8645 1.54374L35.1805 8.91427C35.9001 9.63924 35.9001 10.8073 35.1805 11.5322C34.8207 11.8947 34.3409 12.0759 33.8812 12.0759V12.0759C33.1409 12.0759 32.237 12.0408 31.7155 12.5662L10.0344 34.4091" stroke="#0000AC" stroke-miterlimit="10" stroke-linecap="round" stroke-linejoin="round"/>
<path d="M14.6914 14.6738H29.6631" stroke="#0000AC" stroke-miterlimit="10" stroke-linecap="round" stroke-linejoin="round"/>
<path d="M33.8817 30.8043C35.6007 30.8043 37 29.3946 37 27.6627C37 27.0586 36.84 26.5753 36.6801 26.0517L36.86 26.6961V26.6961C36.7292 26.1687 36.5439 25.6576 36.3432 25.1527C35.71 23.5597 34.2468 20.0103 33.7817 20.0103C33.3117 20.0103 31.9792 23.4744 31.363 25.1476C31.1461 25.7368 30.9236 26.3276 30.8338 26.949C30.8012 27.1745 30.7834 27.4079 30.7834 27.6627C30.7634 29.3946 32.1627 30.8043 33.8817 30.8043ZM33.8817 30.8043C34.5014 30.8043 35.101 30.6029 35.6007 30.2807" stroke="#0000AC" stroke-miterlimit="10" stroke-linecap="round" stroke-linejoin="round"/>
</svg>
