<svg width="38" height="27" viewBox="0 0 38 27" fill="none" xmlns="http://www.w3.org/2000/svg">
<path d="M25.9139 5.37024L29.535 1.70321C30.4604 0.766045 31.9733 0.766047 32.8987 1.70321V1.70321C33.8078 2.62381 33.8078 4.10419 32.8987 5.02479L29.2357 8.73424L25.4932 11.7847C25.2541 11.9797 25.0366 12.1998 24.8447 12.4413L23.3208 14.3585C22.5289 15.3549 21.0441 15.4348 20.1499 14.5292V14.5292C19.2705 13.6386 19.3489 12.1843 20.3191 11.3935L22.245 9.82376C22.489 9.62488 22.7108 9.40029 22.9067 9.15387L25.9139 5.37024Z" stroke="#0000AC" stroke-miterlimit="10" stroke-linecap="round" stroke-linejoin="round"/>
<path d="M25.1327 12.0778L22.6113 9.52441" stroke="#0000AC" stroke-miterlimit="10" stroke-linecap="round" stroke-linejoin="round"/>
<path d="M17.5898 17.1647C17.2096 16.7796 17.2096 16.1717 17.5898 15.7867L18.8105 14.5505C19.1907 14.1655 19.7911 14.1655 20.1713 14.5505C20.5515 14.9355 20.5515 15.5435 20.1713 15.9285L18.9506 17.1647C18.5704 17.5497 17.9701 17.5497 17.5898 17.1647Z" fill="#0079AB"/>
<path d="M14.6875 20.1636H16.7086" stroke="#0000AC" stroke-miterlimit="10" stroke-linecap="round" stroke-linejoin="round"/>
<path d="M1 25.7972V25.7972C1 22.6859 3.52228 20.1636 6.63367 20.1636H11.826" stroke="#0000AC" stroke-miterlimit="10" stroke-linecap="round" stroke-linejoin="round"/>
<path d="M19.4102 20.1636H21.6714C21.6714 20.1636 21.6714 20.1636 21.6714 20.1636C21.6714 20.1636 23.4924 20.1636 25.5336 20.1636C27.5747 20.1636 27.4946 22.2914 29.3157 22.2914C31.1567 22.2914 30.7565 20.1636 32.9377 20.1636C35.1189 20.1636 35.6392 20.1636 35.6392 20.1636C35.6392 20.1636 35.6392 20.1636 35.6392 20.1636H35.9794V20.1636C36.543 20.1636 36.9999 20.6205 36.9999 21.1841V25.9999" stroke="#0000AC" stroke-miterlimit="10" stroke-linecap="round" stroke-linejoin="round"/>
</svg>
