<svg width="38" height="34" viewBox="0 0 38 34" fill="none" xmlns="http://www.w3.org/2000/svg">
<path d="M18.61 13.1665C19.0097 13.955 19.2296 14.8243 19.2296 15.7746C19.2296 18.9488 16.671 21.5366 13.5328 21.5366C10.3945 21.5366 7.83594 18.9488 7.83594 15.7746C7.83594 14.8445 8.05581 13.955 8.45559 13.1665" stroke="#0000AC" stroke-miterlimit="10" stroke-linecap="round" stroke-linejoin="round"/>
<path d="M18.4072 9.5455C18.517 11.5118 16.9522 13.1665 14.9828 13.1665H12.0984C10.122 13.1665 8.55346 11.5025 8.67011 9.52953L8.7659 7.90943C8.7952 7.41383 9.13613 6.99159 9.61443 6.85853V6.85853C12.133 6.15091 14.7916 6.13071 17.3102 6.81812V6.81812C17.8833 6.97513 18.292 7.48089 18.3251 8.07423L18.4072 9.5455Z" stroke="#0000AC" stroke-miterlimit="10" stroke-linecap="round" stroke-linejoin="round"/>
<path d="M11.2148 9.85059H15.7323" stroke="#0000AC" stroke-miterlimit="10" stroke-linecap="round" stroke-linejoin="round"/>
<path d="M13.4727 12.1354V7.58643" stroke="#0000AC" stroke-miterlimit="10" stroke-linecap="round" stroke-linejoin="round"/>
<path d="Mnan nanL1 28.3295C1 25.4384 6.63687 23.1133 13.573 23.1133C20.4892 23.1133 26.1061 25.4586 26.1061 28.3295V28.3295C26.1061 30.9088 24.0151 32.9998 21.4358 32.9998H19.1899H7.95614H3.33515C2.04548 32.9998 1 31.9543 1 30.6647V28.3295Lnan nanLnan nanZ" stroke="#0000AC" stroke-miterlimit="10" stroke-linecap="round" stroke-linejoin="round"/>
<path d="M13.5533 33.0001L9.17578 23.437" stroke="#0000AC" stroke-miterlimit="10" stroke-linecap="round" stroke-linejoin="round"/>
<path d="M13.5332 33.0001L17.9108 23.437" stroke="#0000AC" stroke-miterlimit="10" stroke-linecap="round" stroke-linejoin="round"/>
<path d="M31.8425 15.4308H27.225C24.4066 15.4308 22.0879 13.0855 22.0879 10.2348C22.0879 9.91129 22.3477 9.64844 22.6676 9.64844H36.4199C36.7398 9.64844 36.9996 9.91129 36.9996 10.2348C36.9796 13.1057 34.6609 15.4308 31.8425 15.4308Z" stroke="#0000AC" stroke-miterlimit="10" stroke-linecap="round" stroke-linejoin="round"/>
<path d="M25.5254 6.13067V6.13067C25.5254 6.13067 30.8552 5.70865 31.6693 4.72733C31.8397 4.52195 32.0234 4.31542 32.2217 4.10889" stroke="#0000AC" stroke-miterlimit="10" stroke-linecap="round" stroke-linejoin="round"/>
<path d="M26.8863 7.76829C26.8863 7.76829 25.3471 8.63766 24.2478 7.76829V7.76829C22.7673 6.59756 23.5528 4.18094 25.4397 4.13464C25.6561 4.12933 25.8791 4.13959 26.1067 4.16953C28.1056 4.41214 28.0457 7.50545 28.0457 7.50545" stroke="#0000AC" stroke-miterlimit="10" stroke-linecap="round" stroke-linejoin="round"/>
<path d="M30.8433 7.80858C30.8433 7.80858 35.2409 7.16164 35.2209 4.43224V4.43224C35.2092 2.82773 33.4633 0.932394 31.9275 1.39709C31.0596 1.65971 30.2051 2.09097 29.604 2.7946C27.825 4.87704 29.8439 7.50533 29.8439 7.50533" stroke="#0000AC" stroke-miterlimit="10" stroke-linecap="round" stroke-linejoin="round"/>
</svg>
