<svg width="26" height="38" viewBox="0 0 26 38" fill="none" xmlns="http://www.w3.org/2000/svg">
<path d="M13.0212 2.39967C13.0212 2.39967 15.5744 15.5766 12.6677 22.435C10.4091 27.7338 14.946 30.4931 16.4386 31.4929C17.9312 32.4927 20.5826 33.7724 21.9771 33.4724C23.3715 33.1925 24.6677 33.4724 24.982 34.7921C25.2962 36.1118 21.4272 37.2515 19.2275 36.9516C17.0278 36.6717 14.7299 35.312 12.9427 34.9721C11.1555 34.6122 8.34694 35.7519 6.73646 35.9319C5.12598 36.1118 2.27817 35.152 3.98685 31.4529C5.69552 27.7537 4.83139 21.6152 4.37967 20.1155C3.92795 18.6159 -2.08188 7.8584 3.08343 1" stroke="#0000AC" stroke-miterlimit="10" stroke-linecap="round" stroke-linejoin="round"/>
<path d="M6.91406 2.02002C6.91406 2.02002 9.15303 7.55873 8.30851 22.0154" stroke="#0000AC" stroke-miterlimit="10" stroke-linecap="round" stroke-linejoin="round"/>
<path d="M4.49805 10.8778C4.49805 10.8778 5.99069 8.09846 7.81721 5.93896" stroke="#0000AC" stroke-miterlimit="10" stroke-linecap="round" stroke-linejoin="round"/>
<path d="M10.881 15.7164C10.881 15.7164 10.3114 13.377 8.38672 11.3774" stroke="#0000AC" stroke-miterlimit="10" stroke-linecap="round" stroke-linejoin="round"/>
</svg>
