<svg width="37" height="34" viewBox="0 0 37 34" fill="none" xmlns="http://www.w3.org/2000/svg">
<path d="M11.6152 29.647V29.647C11.6152 31.4987 13.1163 32.9998 14.968 32.9998H20.0649C22.994 32.9998 25.3685 30.6253 25.3685 27.6963V27.6963" stroke="#0000AC" stroke-miterlimit="10" stroke-linecap="round" stroke-linejoin="round"/>
<path d="M11.6152 29.6472H12.4494C13.3135 29.6472 14.0141 28.9467 14.0141 28.0826V27.9872C14.0141 27.1758 14.6719 26.5179 15.4833 26.5179V26.5179C16.2948 26.5179 16.9526 25.8601 16.9526 25.0487V25.0041C16.9526 24.168 17.6304 23.4903 18.4664 23.4903H18.5918C19.4971 23.4903 20.231 22.7564 20.231 21.8511V19.8642C20.231 19.2183 19.7074 18.6947 19.0616 18.6947V18.6947C18.4157 18.6947 17.8921 18.1712 17.8921 17.5253V17.127C17.8921 16.3431 17.2567 15.7077 16.4728 15.7077V15.7077C15.689 15.7077 15.0535 15.0723 15.0535 14.2884V9.28353C15.0535 8.49967 15.689 7.86423 16.4728 7.86423V7.86423C17.2567 7.86423 17.8921 7.22879 17.8921 6.44493V5.17294C17.8921 4.19036 17.0956 3.39382 16.113 3.39382H15.2889C14.7615 3.39382 14.3339 2.96623 14.3339 2.43877V2.43877C14.3339 2.17462 14.4938 1.9511 14.7337 1.86982C16.4728 1.30086 18.7717 0.833513 21.4304 1.05703C23.0096 1.17895 25.2685 1.36184 27.6473 2.8452C28.5469 3.41416 31.0057 4.99911 32.1651 8.20967C32.6448 9.5711 32.7648 10.8106 32.7648 11.725C32.7648 12.2127 32.8847 12.68 33.1446 13.0864C33.8443 14.2244 35.2436 16.5205 35.9032 17.5975C36.1031 17.9226 35.9832 18.329 35.6634 18.5119L33.3045 19.8327C32.9647 20.0156 32.7648 20.4016 32.8048 20.7877C32.9647 22.2914 32.8448 23.4903 32.7248 24.3031C32.5449 25.4816 32.405 26.2538 31.8453 26.9853C30.7658 28.3874 28.9867 28.5499 28.5069 28.5906C25.7882 28.8344 25.6883 28.0216 25.3685 27.6965" stroke="#0000AC" stroke-miterlimit="10" stroke-linecap="round"/>
<path d="M11.715 3.40774V3.35993C11.715 2.55951 11.0661 1.91064 10.2657 1.91064C9.46528 1.91064 8.81641 2.55951 8.81641 3.35993V3.40774C8.81641 4.20816 9.46528 4.85703 10.2657 4.85703C11.0661 4.85703 11.715 4.20816 11.715 3.40774Z" fill="#0079AB"/>
<path d="M6.41614 6.35404V6.30621C6.41614 5.5058 5.76728 4.85693 4.96686 4.85693C4.16644 4.85693 3.51758 5.5058 3.51758 6.30621V6.35404C3.51758 7.15446 4.16644 7.80332 4.96686 7.80332C5.76728 7.80332 6.41614 7.15446 6.41614 6.35404Z" fill="#0079AB"/>
<path d="M11.5138 8.85354V8.80573C11.5138 8.00531 10.8649 7.35645 10.0645 7.35645C9.2641 7.35645 8.61523 8.00531 8.61523 8.80573V8.85354C8.61523 9.65396 9.2641 10.3028 10.0645 10.3028C10.8649 10.3028 11.5138 9.65396 11.5138 8.85354Z" fill="#0079AB"/>
<path d="M11.5138 14.7666V14.7188C11.5138 13.9184 10.8649 13.2695 10.0645 13.2695C9.2641 13.2695 8.61523 13.9184 8.61523 14.7188V14.7666C8.61523 15.5671 9.2641 16.2159 10.0645 16.2159C10.8649 16.2159 11.5138 15.5671 11.5138 14.7666Z" fill="#0079AB"/>
<path d="M8.61536 11.7998V11.752C8.61536 10.9516 7.96649 10.3027 7.16608 10.3027C6.36566 10.3027 5.7168 10.9516 5.7168 11.752V11.7998C5.7168 12.6003 6.36566 13.2491 7.16608 13.2491C7.96649 13.2491 8.61536 12.6003 8.61536 11.7998Z" fill="#0079AB"/>
<path d="M2.89856 11.1905V11.1426C2.89856 10.3422 2.2497 9.69336 1.44928 9.69336C0.648866 9.69336 0 10.3422 0 11.1426V11.1905C0 11.9909 0.648866 12.6397 1.44928 12.6397C2.2497 12.6397 2.89856 11.9909 2.89856 11.1905Z" fill="#0079AB"/>
<path d="M5.29702 16.5347V16.4869C5.29702 15.6865 4.64815 15.0376 3.84773 15.0376C3.04731 15.0376 2.39844 15.6865 2.39844 16.4869V16.5347C2.39844 17.3351 3.04731 17.984 3.84773 17.984C4.64815 17.984 5.29702 17.3351 5.29702 16.5347Z" fill="#0079AB"/>
<path d="M26.8068 7.37015V7.32233C26.8068 6.52191 26.1579 5.87305 25.3575 5.87305C24.5571 5.87305 23.9082 6.52191 23.9082 7.32233V7.37015C23.9082 8.17057 24.5571 8.81943 25.3575 8.81943C26.1579 8.81943 26.8068 8.17057 26.8068 7.37015Z" fill="#0079AB"/>
<path d="M21.6095 10.337V10.2891C21.6095 9.48871 20.9606 8.83984 20.1602 8.83984C19.3598 8.83984 18.7109 9.48871 18.7109 10.2891V10.337C18.7109 11.1374 19.3598 11.7862 20.1602 11.7862C20.9606 11.7862 21.6095 11.1374 21.6095 10.337Z" fill="#0079AB"/>
<path d="M24.5275 13.2832V13.2354C24.5275 12.435 23.8786 11.7861 23.0782 11.7861C22.2778 11.7861 21.6289 12.435 21.6289 13.2354V13.2832C21.6289 14.0837 22.2778 14.7325 23.0782 14.7325C23.8786 14.7325 24.5275 14.0837 24.5275 13.2832Z" fill="#0079AB"/>
<path d="M23.0685 27.3648V27.317C23.0685 26.5165 22.4196 25.8677 21.6192 25.8677C20.8188 25.8677 20.1699 26.5165 20.1699 27.317V27.3648C20.1699 28.1652 20.8188 28.8141 21.6192 28.8141C22.4196 28.8141 23.0685 28.1652 23.0685 27.3648Z" fill="#0079AB"/>
<path d="M3.31848 27.9541V27.9063C3.31848 27.1059 2.66962 26.457 1.8692 26.457C1.06879 26.457 0.419922 27.1059 0.419922 27.9063V27.9541C0.419922 28.7546 1.06879 29.4034 1.8692 29.4034C2.66962 29.4034 3.31848 28.7546 3.31848 27.9541Z" fill="#0079AB"/>
<path d="M7.85561 24.2154V24.1676C7.85561 23.3671 7.20674 22.7183 6.40632 22.7183C5.6059 22.7183 4.95703 23.3671 4.95703 24.1676V24.2154C4.95703 25.0158 5.6059 25.6646 6.40632 25.6646C7.20674 25.6646 7.85561 25.0158 7.85561 24.2154Z" fill="#0079AB"/>
<path d="M14.3537 23.7481V23.7003C14.3537 22.8998 13.7048 22.251 12.9044 22.251C12.1039 22.251 11.4551 22.8998 11.4551 23.7003V23.7481C11.4551 24.5485 12.1039 25.1974 12.9044 25.1974C13.7048 25.1974 14.3537 24.5485 14.3537 23.7481Z" fill="#0079AB"/>
<path d="M17.2521 20.8018V20.754C17.2521 19.9536 16.6032 19.3047 15.8028 19.3047C15.0024 19.3047 14.3535 19.9536 14.3535 20.754V20.8018C14.3535 21.6022 15.0024 22.2511 15.8028 22.2511C16.6032 22.2511 17.2521 21.6022 17.2521 20.8018Z" fill="#0079AB"/>
<path d="M10.9142 19.481V19.4332C10.9142 18.6328 10.2653 17.9839 9.46491 17.9839C8.66449 17.9839 8.01562 18.6328 8.01562 19.4332V19.481C8.01562 20.2814 8.66449 20.9303 9.46491 20.9303C10.2653 20.9303 10.9142 20.2814 10.9142 19.481Z" fill="#0079AB"/>
<path d="M14.4122 11.7998V11.752C14.4122 10.9516 13.7634 10.3027 12.963 10.3027C12.1625 10.3027 11.5137 10.9516 11.5137 11.752V11.7998C11.5137 12.6003 12.1625 13.2491 12.963 13.2491C13.7634 13.2491 14.4122 12.6003 14.4122 11.7998Z" fill="#0079AB"/>
</svg>
