<svg width="38" height="32" viewBox="0 0 38 32" fill="none" xmlns="http://www.w3.org/2000/svg">
<path d="M26.4658 8.09018C24.9112 8.09018 22.6015 7.0338 21.8794 5.65704C20.4288 2.89121 17.5012 1 14.1327 1C9.31537 1 5.41753 4.85122 5.41753 9.61093V9.61093C5.41753 10.9328 4.67277 12.2438 3.61257 13.0333C2.02185 14.2178 1 16.1037 1 18.2219C1 21.7966 3.93837 24.6998 7.55636 24.6998H15.3674C16.0947 24.6998 16.6113 25.4143 16.6113 26.1415V26.1415C16.6113 28.8275 18.8101 31 21.5286 31C24.2471 31 26.4459 28.8275 26.4459 26.1415V26.1415C26.4459 25.4143 26.9625 24.6998 27.6897 24.6998H31.8229C31.9028 24.6998 31.9828 24.6998 32.0827 24.6998C32.1627 24.6998 32.2426 24.6998 32.3426 24.6998C34.9411 24.5615 37 22.4483 37 19.8611C37 17.1751 34.8012 15.0026 32.0827 15.0026V15.0026C31.8481 15.0026 31.6611 14.768 31.7122 14.5391C31.7949 14.1691 31.8429 13.786 31.8429 13.4029C31.8429 10.4602 29.4442 8.09018 26.4658 8.09018V8.09018Z" stroke="#0000AC" stroke-miterlimit="10" stroke-linecap="round" stroke-linejoin="round"/>
<path d="M12.9924 20.4633C12.9924 20.4688 12.988 20.4732 12.9826 20.4732C12.4864 20.4719 12.0101 20.3731 11.5732 20.1769C11.1335 19.9794 10.7337 19.7227 10.3939 19.387C10.0541 19.0512 9.79419 18.6562 9.5943 18.2217C9.39441 17.7675 9.31445 17.2935 9.31445 16.7997C9.31445 16.306 9.4144 15.832 9.5943 15.3975C9.79419 14.9432 10.0541 14.568 10.3939 14.2322C10.7337 13.8965 11.1135 13.6398 11.5732 13.4423C12.013 13.2448 12.4927 13.146 12.9924 13.146H13.4685C13.7576 13.146 13.9919 13.3803 13.9919 13.6694C13.9919 13.9584 13.7576 14.1927 13.4685 14.1927H13.1124C12.7526 14.1927 12.4127 14.252 12.0929 14.3902C11.7731 14.5285 11.4932 14.7062 11.2534 14.9432C11.0135 15.1802 10.8336 15.4567 10.6937 15.7727C10.5538 16.0887 10.4938 16.4245 10.4938 16.7997C10.4938 17.175 10.5538 17.5107 10.6937 17.8267C10.8336 18.1427 11.0135 18.4192 11.2534 18.6562C11.4932 18.8932 11.7731 19.0907 12.0929 19.2092C12.4127 19.3277 12.7526 19.4067 13.1124 19.4067H13.4685C13.7576 19.4067 13.9919 19.641 13.9919 19.9301V19.9537C13.9919 20.2297 13.7681 20.4535 13.4922 20.4535H13.0023C12.9969 20.4535 12.9924 20.4579 12.9924 20.4633Z" fill="#0079AB"/>
<path d="M18.4691 20.6312C17.9294 20.6312 17.4097 20.5325 16.9299 20.335C16.4502 20.1375 16.0304 19.861 15.6706 19.5055C15.3108 19.15 15.031 18.755 14.8311 18.281C14.6312 17.807 14.5312 17.3133 14.5312 16.78C14.5312 16.2665 14.6312 15.7728 14.8311 15.3185C15.031 14.8643 15.3108 14.4693 15.6706 14.1138C16.0304 13.7781 16.4502 13.5015 16.9299 13.304C17.4097 13.1065 17.9294 13.0078 18.4691 13.0078C19.0088 13.0078 19.5285 13.1065 20.0082 13.304C20.488 13.5015 20.9077 13.7781 21.2675 14.1138C21.6273 14.4495 21.9072 14.8643 22.1071 15.3185C22.3069 15.7728 22.4069 16.2665 22.4069 16.78C22.4069 17.3133 22.3069 17.807 22.1071 18.281C21.9072 18.755 21.6273 19.15 21.2675 19.5055C20.9077 19.861 20.488 20.1375 20.0082 20.335C19.5285 20.5325 19.0088 20.6312 18.4691 20.6312ZM18.4691 19.5845C18.8489 19.5845 19.1887 19.5055 19.5285 19.3673C19.8683 19.229 20.1681 19.0315 20.428 18.7748C20.6879 18.518 20.8877 18.2218 21.0477 17.886C21.2076 17.5503 21.2675 17.175 21.2675 16.78C21.2675 16.4048 21.1876 16.0493 21.0477 15.7333C20.9077 15.3975 20.7078 15.121 20.448 14.8643C20.1881 14.6273 19.8883 14.4298 19.5685 14.2915C19.2486 14.1533 18.8689 14.0743 18.4891 14.0743C18.1093 14.0743 17.7495 14.1533 17.4097 14.2915C17.0698 14.4298 16.77 14.6273 16.5301 14.8643C16.2703 15.1013 16.0704 15.3975 15.9305 15.7333C15.7906 16.069 15.7106 16.4048 15.7106 16.78C15.7106 17.175 15.7906 17.5503 15.9305 17.886C16.0904 18.2218 16.2903 18.518 16.5301 18.7748C16.79 19.0315 17.0898 19.229 17.4097 19.3673C17.7495 19.5055 18.0893 19.5845 18.4691 19.5845Z" fill="#0079AB"/>
<path d="M26.666 12.1388C26.666 12.2178 26.646 12.2968 26.626 12.3758C26.606 12.4548 26.566 12.5535 26.5261 12.6325C26.4861 12.7115 26.4261 12.7905 26.3661 12.8695C26.3062 12.9485 26.2262 13.0275 26.1463 13.0868L25.8827 13.2951C25.5415 13.5648 25.7322 14.1138 26.1672 14.1138H26.3693C26.5111 14.1138 26.626 14.2287 26.626 14.3705C26.626 14.5123 26.5111 14.6272 26.3693 14.6272H24.5072C24.4072 14.6272 24.3073 14.5878 24.2274 14.5088C24.1474 14.4298 24.1074 14.3508 24.1074 14.2323C24.1074 14.173 24.1274 14.1138 24.1474 14.0348C24.1674 13.9558 24.2074 13.9163 24.2473 13.8768L25.7865 12.672C25.8864 12.593 25.9664 12.4943 26.0064 12.3955C26.0463 12.2968 26.0663 12.198 26.0663 12.0993C26.0663 12.0005 26.0463 11.9215 26.0064 11.8425C25.9664 11.7635 25.9264 11.6845 25.8664 11.6253C25.8065 11.566 25.7265 11.5265 25.6465 11.487C25.5666 11.4475 25.4667 11.4278 25.3867 11.4278C25.2868 11.4278 25.2068 11.4475 25.1069 11.487C25.0269 11.5265 24.947 11.566 24.887 11.6253C24.827 11.6845 24.787 11.7635 24.7471 11.8425C24.7071 11.9215 24.6871 12.0005 24.6871 12.0993C24.6871 12.198 24.7071 12.2968 24.7471 12.3758C24.749 12.3796 24.751 12.3835 24.7531 12.3874C24.829 12.5304 24.9716 12.6224 25.1069 12.7115C25.1687 12.742 25.1953 12.8579 25.1411 12.9004L24.9061 13.0842C24.8571 13.1225 24.791 13.133 24.7342 13.1079C24.6667 13.078 24.6022 13.0424 24.5472 12.988C24.4672 12.909 24.3873 12.83 24.3273 12.7313C24.3264 12.7298 24.3255 12.7283 24.3246 12.7269C24.2062 12.5319 24.1274 12.3077 24.1274 12.0795C24.1274 11.9215 24.1674 11.7635 24.2274 11.6253C24.2873 11.487 24.3873 11.3488 24.4872 11.25C24.6071 11.1513 24.7271 11.0525 24.887 10.9933C25.0469 10.934 25.2068 10.8945 25.3667 10.8945C25.5266 10.8945 25.6865 10.934 25.8464 10.9933C25.9864 11.0525 26.1263 11.1315 26.2462 11.25C26.4827 11.4448 26.6429 11.746 26.6634 12.0516C26.6653 12.0808 26.666 12.1098 26.666 12.1388Z" fill="#0079AB"/>
</svg>
