<svg width="38" height="24" viewBox="0 0 38 24" fill="none" xmlns="http://www.w3.org/2000/svg">
<path d="M18.2533 18.7797C18.7518 18.8218 19.2482 18.8228 19.7468 18.7822C21.3167 18.6542 25.0034 18.156 27.3 16.2444C27.3428 16.2088 27.3858 16.173 27.429 16.1369C30.6519 13.4435 24.7846 4.15597 20.7587 5.35353V5.35353C17.5217 6.31643 20.4761 6.31597 17.2406 5.34791V5.34791C13.2136 4.14303 7.34342 13.4394 10.5687 16.1349C10.6127 16.1717 10.6564 16.2082 10.7 16.2444C12.9968 18.1405 16.6835 18.6471 18.2533 18.7797Z" stroke="#0000AC" stroke-miterlimit="10" stroke-linecap="round" stroke-linejoin="round"/>
<path d="M36.9993 5.23474C36.0393 4.77095 35.1393 4.34749 34.2793 3.96436" stroke="#0000AC" stroke-linecap="round" stroke-linejoin="round"/>
<path d="M30.7996 2.59304C27.6196 1.4638 25.2595 1.06049 23.5195 1" stroke="#0000AC" stroke-linecap="round" stroke-linejoin="round" stroke-dasharray="2.8 2.8"/>
<path d="M21.6403 1.12109V1.12109C20.2479 1.33917 17.7127 1.33917 16.3203 1.12109V1.12109" stroke="#0000AC" stroke-linecap="round" stroke-linejoin="round"/>
<path d="M12.619 1.18164C10.779 1.44379 8.43898 2.06891 5.45898 3.25865" stroke="#0000AC" stroke-linecap="round" stroke-linejoin="round" stroke-dasharray="2.8 2.8"/>
<path d="M3.72003 3.98438C2.86003 4.36751 1.96 4.77082 1 5.25478" stroke="#0000AC" stroke-linecap="round" stroke-linejoin="round"/>
<path d="M1 13.4619C1.8 13.7039 2.72005 14.1879 3.68005 14.813" stroke="#0000AC" stroke-linecap="round" stroke-linejoin="round"/>
<path d="M7.01953 17.3337C8.29953 18.3823 9.57952 19.4913 10.6995 20.4189C13.0289 22.3577 16.7882 22.8426 18.3185 22.9619C18.772 22.9973 19.2271 22.9973 19.6805 22.9619C21.2109 22.8426 24.9701 22.3577 27.2996 20.4189C28.8996 19.088 30.7796 17.4143 32.6196 16.0229" stroke="#0000AC" stroke-linecap="round" stroke-linejoin="round" stroke-dasharray="3.14 3.14"/>
<path d="M34.3203 14.813C35.2803 14.1879 36.1803 13.7039 37.0003 13.4619" stroke="#0000AC" stroke-linecap="round" stroke-linejoin="round"/>
<path d="M37 9.2876C30.5382 11.5672 23.9274 11.9375 20.8221 11.9709C19.6051 11.9841 18.3949 11.9841 17.1779 11.9709C14.0726 11.9375 7.46184 11.5672 1 9.2876" stroke="#0000AC" stroke-miterlimit="10" stroke-linecap="round" stroke-linejoin="round"/>
</svg>
